<svg xmlns="http://www.w3.org/2000/svg" width="56" height="56" viewBox="0 0 56 56">
	<g fill="currentColor">
	    <path d="M45.5 15H38V9H18v6h-7.5C7.313 15 5 17.103 5 20v22c0 2.838 2.26 6 5.5 6h35c3.24 0 5.5-3.162 5.5-6V20c0-2.897-2.313-5-5.5-5zM21 12h14v5h-2v-3H23v3h-2v-5zm11 5h-8v-2h8v2zm-11 1h24.5c1.378 0 2.5 1.12 2.5 2.5v6.824L44.26 32H35v-3h-4v-2h-6v2h-4v3h-9.26L8 27.324V20.5c0-1.38 1.122-2.5 2.5-2.5H21zm13 15v2h-3v-5h3v3zm-12 0v-3h3v5h-3v-2zM8 42V28.926L11.26 33H21v3h4v1.84l3 1.198 3-1.2V36h4v-3h9.74L48 28.926V42c0 1.514-1.238 3-2.5 3h-35C9.238 45 8 43.514 8 42z"/>
	</g>
</svg>
