<svg xmlns="http://www.w3.org/2000/svg" width="56" height="56" viewBox="0 0 56 56">
	<g fill="currentColor">
		<path d="M52 32.5C52 25.607 46.393 20 39.5 20c-2.268 0-4.528.64-6.473 1.815-.357-.24-.725-.466-1.103-.677C32.632 19.708 33 18.132 33 16.5 33 10.71 28.29 6 22.5 6S12 10.71 12 16.5c0 1.726.44 3.438 1.256 4.96C4.996 26.482 4 38.04 4 46.5V49h38v-2.5c0-.587-.007-1.17-.02-1.748C47.7 43.587 52 38.46 52 32.5zm-3.047.93c-.02.198-.054.394-.086.59-.016.098-.027.2-.046.296-.05.267-.117.53-.19.787-.007.02-.01.04-.017.06-.666 2.245-2.15 4.167-4.107 5.396-.02.01-.04.023-.06.035-.217.134-.44.26-.67.377l-.167.08c-.2.097-.403.188-.61.27-.095.04-.192.073-.29.108-.175.063-.353.126-.534.18-.134.04-.27.07-.406.105-.154.038-.307.077-.464.108-.164.03-.33.053-.498.076-.14.018-.276.04-.417.055-.293.027-.59.045-.89.045-2.05 0-3.946-.66-5.5-1.77V40h-.31C31.45 38.26 30 35.55 30 32.5c0-3.184 1.58-6 3.99-7.725.138-.097.277-.192.418-.282.08-.052.164-.1.246-.15.16-.095.323-.19.49-.276.03-.016.065-.03.097-.046.596-.298 1.22-.533 1.864-.702.083-.022.167-.046.25-.065.162-.037.324-.07.486-.1.142-.023.285-.045.428-.064.126-.018.25-.035.378-.047.28-.025.565-.043.854-.043 5.238 0 9.5 4.262 9.5 9.5 0 .313-.017.623-.047.93zM22.5 9c4.136 0 7.5 3.364 7.5 7.5 0 .35-.033.693-.08 1.034-.013.09-.025.182-.042.272-.056.32-.128.637-.225.947-.024.075-.055.147-.08.222-.09.25-.19.496-.305.736-.043.09-.083.18-.13.27-.15.283-.318.558-.505.824-1.36 1.93-3.6 3.196-6.133 3.196-2.313 0-4.383-1.053-5.76-2.704l-.122-.157-.044-.06c-.505-.653-.898-1.384-1.164-2.156l-.002-.004c-.127-.37-.22-.75-.29-1.136-.008-.046-.014-.094-.02-.14-.06-.378-.098-.76-.098-1.144 0-4.136 3.364-7.5 7.5-7.5zm-9.272 16.205c.082-.072.163-.144.247-.213.3-.25.62-.48.95-.7.092-.062.18-.13.276-.19.42-.264.86-.51 1.326-.726.318-.147.65-.273.986-.397C18.494 24.236 20.41 25 22.5 25c2.196 0 4.193-.844 5.703-2.216.54.178 1.058.396 1.563.64.236.115.474.225.702.353.323.183.634.386.94.598.07.05.144.096.214.146.196.143.38.302.57.457C30.226 26.887 29 29.55 29 32.5c0 3.335 1.568 6.306 4 8.23V46H13v-6h-1v6H7c.04-6.534.844-11.62 2.456-15.403.054-.126.103-.256.16-.38.108-.24.226-.46.34-.69.135-.263.266-.53.412-.783.07-.125.148-.24.22-.363.202-.327.408-.65.63-.96.058-.08.118-.156.177-.234.245-.327.5-.643.774-.945l.195-.21c.273-.288.562-.563.863-.825zM38.896 42.97c.054 1.002.094 2.015.102 3.03H34v-4.572c1.44.89 3.107 1.44 4.896 1.542z"/>
		<path d="M39.5 27C36 27 36 29.098 36 32h-1v6h9v-6h-1c0-2.902 0-5-3.5-5zm0 2c1.5 0 1.5 0 1.5 3h-3c0-3 0-3 1.5-3z"/>
	</g>
</svg>