<svg xmlns="http://www.w3.org/2000/svg" width="56" height="56" viewBox="0 0 56 56">
	<g fill="currentColor">
		<path d="M45.5 24H41V8.5C41 5.468 38.532 3 35.5 3h-23C9.468 3 7 5.468 7 8.5v35c0 3.032 2.468 5.5 5.5 5.5H29v.5c0 1.93 1.57 3.5 3.5 3.5h13c1.93 0 3.5-1.57 3.5-3.5v-22c0-1.93-1.57-3.5-3.5-3.5zm.5 25.5c0 .275-.225.5-.5.5h-13c-.275 0-.5-.225-.5-.5v-22c0-.275.225-.5.5-.5h13c.275 0 .5.225.5.5v22zm-36-41C10 7.12 11.12 6 12.5 6h23C36.88 6 38 7.12 38 8.5V26h-3V9H13v25h18v12H12.5c-1.38 0-2.5-1.12-2.5-2.5v-35zm21 19V33H14V13h20v13h-1.5c-.827 0-1.5.673-1.5 1.5z"/>
		<circle cx="24" cy="40" r="2"/>
		<circle cx="39" cy="46" r="2"/>
		<path d="M34 30v12h10V29H34v1zm9 11h-8v-9h8v9z"/>
	</g>
</svg>
