<svg xmlns="http://www.w3.org/2000/svg" version="1" width="2048" height="1706" viewBox="0 0 2048 1706">
    <title>Burger</title>
    <path d="M170.667 1364.8h1706.666c94.55 0 170.667 76.088 170.667 170.6s-76.117 170.6-170.667 170.6H170.667C76.117 1706 0 1629.912 0 1535.4s76.117-170.6 170.667-170.6zM170.667 682.4h1706.666c94.55 0 170.667 76.088 170.667 170.6s-76.117 170.6-170.667 170.6H170.667C76.117 1023.6 0 947.512 0 853s76.117-170.6 170.667-170.6zM170.667 0h1706.666C1971.883 0 2048 76.088 2048 170.6s-76.117 170.6-170.667 170.6H170.667C76.117 341.2 0 265.112 0 170.6S76.117 0 170.667 0z"
          fill-rule="evenodd"/>
</svg>