<svg xmlns="http://www.w3.org/2000/svg" width="2048" height="2048" viewBox="0 0 2048 2048">
    <title>Calendar</title>
    <path d="M483.125 48c-50.38 0-91.156 40.693-91.156 90.97v327.717c0 50.195 40.856 90.97 91.155 90.97 50.38 0 91.156-40.756 91.156-91.032V138.97c0-50.277-40.775-90.97-91.155-90.97zm1098.094 0c-50.3 0-91.064 40.693-91.064 90.97v327.717c0 50.195 40.764 90.97 91.063 90.97 50.38 0 91.25-40.756 91.25-91.032V138.97c-.002-50.277-40.87-90.97-91.25-90.97zM0 310.188V2048h2048V310.187h-345.5v4.125c37.928 33.464 62.03 82.282 62.03 136.782 0 100.958-82.05 182.75-183.217 182.75-101.086 0-183.126-81.873-183.126-182.75 0-54.5 24.023-103.318 62.032-136.78v-4.127H604.31v4.125c37.928 33.464 61.938 82.282 61.938 136.782 0 100.958-82.04 182.75-183.125 182.75C381.958 633.844 300 551.97 300 451.094c0-54.5 24.022-103.318 62.03-136.78v-4.127H0zM56.97 706.78h1933.81v1284.126H56.97V706.78zM320 1024v256h256v-256H320zm384 0v256h256v-256H704zm384 0v256h256v-256h-256zm384 0v256h256v-256h-256zM320 1408v256h256v-256H320zm384 0v256h256v-256H704zm384 0v256h256v-256h-256z"/>
</svg>