<?xml version="1.0" encoding="utf-8"?>
<!-- Generator: Adobe Illustrator 16.0.5, SVG Export Plug-In . SVG Version: 6.00 Build 0)  -->
<!DOCTYPE svg PUBLIC "-//W3C//DTD SVG 1.1//EN" "http://www.w3.org/Graphics/SVG/1.1/DTD/svg11.dtd">
<svg version="1.1" xmlns="http://www.w3.org/2000/svg" xmlns:xlink="http://www.w3.org/1999/xlink" x="0px" y="0px" width="1878px"
	 height="2048px" viewBox="0 0 1878 2048" enable-background="new 0 0 1878 2048" xml:space="preserve">
<g id="Ebene_1" xmlns:dc="http://purl.org/dc/elements/1.1/" xmlns:cc="http://creativecommons.org/ns#" xmlns:rdf="http://www.w3.org/1999/02/22-rdf-syntax-ns#" xmlns:svg="http://www.w3.org/2000/svg" xmlns:sodipodi="http://sodipodi.sourceforge.net/DTD/sodipodi-0.dtd" xmlns:inkscape="http://www.inkscape.org/namespaces/inkscape" sodipodi:docname="checkmark.svg" inkscape:version="0.48.5 r10040">
	
		<sodipodi:namedview  inkscape:cy="611.23345" inkscape:cx="420.40767" inkscape:zoom="0.19358988" showgrid="true" guidetolerance="10" gridtolerance="10" objecttolerance="10" borderopacity="1" pagecolor="#ffffff" bordercolor="#666666" id="namedview5" inkscape:current-layer="Ebene_1" inkscape:window-maximized="1" inkscape:window-y="-8" inkscape:window-x="-8" inkscape:window-height="1018" inkscape:window-width="1920" inkscape:pageshadow="2" inkscape:pageopacity="0">
		</sodipodi:namedview>
	<title  id="title6">Checkmark</title>
	<path id="path3" inkscape:connector-curvature="0" d="M1853.369,296.916l0.336-0.683l0,0
		c15.033-28.564,24.295-61.023,24.295-95.942C1878,89.724,1792.432,0,1686.797,0c-61.139,0-114.829,30.546-149.794,77.219
		l-0.135-0.068l-0.604,1.025c-9.731,13.052-18.255,26.992-24.631,42.299L716.355,1485.192l-366.164-468.437v0.069
		c-34.294-53.779-92.682-89.177-158.988-89.177C85.635,927.648,0,1017.372,0,1127.938c0,56.103,22.214,106.739,57.716,143.093
		l486.161,685.332h0.134c34.025,55.01,92.95,91.637,160.196,91.637c79.729,0,147.982-51.319,176.572-123.891l959.503-1605.395
		c4.899-7.039,9.061-14.35,13.087-22.004V296.916z"/>
</g>
<g id="Ebene_2">
</g>
</svg>
