<svg xmlns="http://www.w3.org/2000/svg" viewBox="0 0 1878 2048">
    <title>Checkmark</title>
    <path d="M1853.37 296.916l.335-.683C1868.738 267.67 1878 235.21 1878 200.29 1878 89.725 1792.432 0 1686.797 0c-61.14 0-114.83 30.546-149.794 77.22l-.135-.07-.604 1.026c-9.73 13.052-18.255 26.992-24.63 42.3L716.353 1485.19l-366.163-468.437v.07c-34.293-53.78-92.68-89.178-158.987-89.178C85.635 927.647 0 1017.372 0 1127.937c0 56.104 22.214 106.74 57.716 143.094l486.16 685.333h.135c34.026 55.01 92.95 91.637 160.197 91.637 79.73 0 147.982-51.32 176.572-123.89L1840.28 318.713c4.9-7.04 9.06-14.35 13.087-22.004v.206z"/>
</svg>