<?xml version="1.0" encoding="UTF-8" standalone="no"?>
<!-- Generator: Adobe Illustrator 16.0.0, SVG Export Plug-In . SVG Version: 6.00 Build 0)  -->

<svg
   xmlns:dc="http://purl.org/dc/elements/1.1/"
   xmlns:cc="http://creativecommons.org/ns#"
   xmlns:rdf="http://www.w3.org/1999/02/22-rdf-syntax-ns#"
   xmlns:svg="http://www.w3.org/2000/svg"
   xmlns="http://www.w3.org/2000/svg"
   xmlns:sodipodi="http://sodipodi.sourceforge.net/DTD/sodipodi-0.dtd"
   xmlns:inkscape="http://www.inkscape.org/namespaces/inkscape"
   version="1.1"
   id="Ebene_1"
   x="0px"
   y="0px"
   width="1646"
   height="2048"
   viewBox="0 0 1646 2048"
   enable-background="new -878.555 -291.86 2048 2048"
   xml:space="preserve"
   inkscape:version="0.48.5 r10040"
   sodipodi:docname="clipboard.svg"><metadata
   id="metadata11"><rdf:RDF><cc:Work
       rdf:about=""><dc:format>image/svg+xml</dc:format><dc:type
         rdf:resource="http://purl.org/dc/dcmitype/StillImage" /></cc:Work></rdf:RDF></metadata><defs
   id="defs9" /><sodipodi:namedview
   pagecolor="#ffffff"
   bordercolor="#666666"
   borderopacity="1"
   objecttolerance="10"
   gridtolerance="10"
   guidetolerance="10"
   inkscape:pageopacity="0"
   inkscape:pageshadow="2"
   inkscape:window-width="1280"
   inkscape:window-height="962"
   id="namedview7"
   showgrid="false"
   inkscape:zoom="0.11523438"
   inkscape:cx="1024"
   inkscape:cy="1024"
   inkscape:window-x="-8"
   inkscape:window-y="-8"
   inkscape:window-maximized="1"
   inkscape:current-layer="Ebene_1" />
<path
   d="M 823.0157,0 C 679.53372,0 563.24261,116.14325 563.24261,259.65625 c 0,5.145 0.31987,10.30275 0.4689,15.46875 l -318.87914,0 0,269.0625 1156.36643,0 0,-269.0625 -0.031,0 -319.004,0 c 0.32,-5.166 0.4376,-10.32375 0.4376,-15.46875 C 1082.6014,116.16425 966.3889,0 823.0159,0 z m 0,142.71875 c 64.4394,0.085 116.8681,52.3425 116.8681,116.9375 0,64.512 -52.4287,116.6635 -116.8681,116.8125 -64.58849,-0.149 -116.70789,-52.3005 -116.83691,-116.8125 0.12902,-64.595 52.24842,-116.8525 116.83691,-116.9375 z M 0,440.65625 0,2048 l 1646,0 0,-1607.34375 -128.5581,0 0,226.75 -1388.69629,0 0,-226.75 -128.74561,0 z m 482.56955,540 458.50205,378.31255 -458.50205,378.3437 0,-246.8437 -482.53834,0 0,-263 482.53834,0 0,-246.81255 z"
   id="path3"
   inkscape:connector-curvature="0" />

</svg>