<svg xmlns="http://www.w3.org/2000/svg" width="1646" height="2048" viewBox="0 0 1646 2048">
    <title>Clipboard</title>
    <path d="M823.016 0C679.534 0 563.243 116.143 563.243 259.656c0 5.145.32 10.303.47 15.47h-318.88v269.062h1156.366V275.125h-319.036c.32-5.166.437-10.324.437-15.47C1082.6 116.166 966.39 0 823.017 0zm0 142.72c64.44.084 116.868 52.34 116.868 116.936 0 64.512-52.43 116.664-116.868 116.813-64.59-.15-116.708-52.302-116.837-116.814.128-64.595 52.247-116.852 116.836-116.937zM0 440.655V2048h1646V440.656h-128.558v226.75H128.746v-226.75H0zm482.57 540l458.502 378.313-458.502 378.343v-246.844H.03v-263h482.54V980.655z"/>
</svg>