<?xml version="1.0" encoding="UTF-8" standalone="no"?>
<!-- Generator: Adobe Illustrator 16.0.5, SVG Export Plug-In . SVG Version: 6.00 Build 0)  -->

<svg
   xmlns:dc="http://purl.org/dc/elements/1.1/"
   xmlns:cc="http://creativecommons.org/ns#"
   xmlns:rdf="http://www.w3.org/1999/02/22-rdf-syntax-ns#"
   xmlns:svg="http://www.w3.org/2000/svg"
   xmlns="http://www.w3.org/2000/svg"
   xmlns:sodipodi="http://sodipodi.sourceforge.net/DTD/sodipodi-0.dtd"
   xmlns:inkscape="http://www.inkscape.org/namespaces/inkscape"
   version="1.1"
   id="Ebene_1"
   x="0px"
   y="0px"
   width="2048"
   height="2048"
   viewBox="0 0 2048 2048"
   enable-background="new 0 0 40 40.25"
   xml:space="preserve"
   inkscape:version="0.48.5 r10040"
   sodipodi:docname="close.svg"><metadata
   id="metadata29"><rdf:RDF><cc:Work
       rdf:about=""><dc:format>image/svg+xml</dc:format><dc:type
         rdf:resource="http://purl.org/dc/dcmitype/StillImage" /><dc:title /></cc:Work></rdf:RDF></metadata><defs
   id="defs27" /><sodipodi:namedview
   pagecolor="#ffffff"
   bordercolor="#666666"
   borderopacity="1"
   objecttolerance="10"
   gridtolerance="10"
   guidetolerance="10"
   inkscape:pageopacity="0"
   inkscape:pageshadow="2"
   inkscape:window-width="1280"
   inkscape:window-height="962"
   id="namedview25"
   showgrid="true"
   inkscape:zoom="0.12956304"
   inkscape:cx="1419.551"
   inkscape:cy="2093.5824"
   inkscape:window-x="-8"
   inkscape:window-y="-8"
   inkscape:window-maximized="1"
   inkscape:current-layer="Ebene_1"><inkscape:grid
     empspacing="5"
     visible="true"
     enabled="true"
     snapvisiblegridlinesonly="true"
     spacingx="128px"
     spacingy="128px"
     type="xygrid"
     id="grid2985" /></sodipodi:namedview>
  <title
   id="title6">Close</title>
<path
   display="none"
   d="m 19.837,2036.229 h -3.576 l 1.992,-11.93 h 3.576 l -1.992,11.93 z m 2.138,-14.544 h -3.577 l 0.576,-3.384 h 3.576 l -0.575,3.384 z"
   id="path3"
   inkscape:connector-curvature="0"
   style="fill:#ffffff;display:none" />
<path
   d="M 1024 0 C 458.46253 0 0 458.46253 0 1024 C 0 1589.5375 458.46253 2048 1024 2048 C 1589.5375 2048 2048 1589.5375 2048 1024 C 2048 458.46253 1589.5375 0 1024 0 z M 640 512 L 1024 896 L 1408 512 L 1536 640 L 1152 1024 L 1536 1408 L 1408 1536 L 1024 1152 L 640 1536 L 512 1408 L 896 1024 L 512 640 L 640 512 z "
   id="path5" />
</svg>