<?xml version="1.0" encoding="UTF-8" standalone="no"?>
<svg
   xmlns:dc="http://purl.org/dc/elements/1.1/"
   xmlns:cc="http://creativecommons.org/ns#"
   xmlns:rdf="http://www.w3.org/1999/02/22-rdf-syntax-ns#"
   xmlns:svg="http://www.w3.org/2000/svg"
   xmlns="http://www.w3.org/2000/svg"
   xmlns:sodipodi="http://sodipodi.sourceforge.net/DTD/sodipodi-0.dtd"
   xmlns:inkscape="http://www.inkscape.org/namespaces/inkscape"
   width="2048px"
   height="2048px"
   viewBox="0 0 2048 2048"
   version="1.1"
   xml:space="preserve"
   style="fill-rule:evenodd;clip-rule:evenodd;stroke-linejoin:round;stroke-miterlimit:1.41421;"
   id="svg2"
   inkscape:version="0.48.5 r10040"
   sodipodi:docname="desktop.svg"><metadata
   id="metadata13"><rdf:RDF><cc:Work
       rdf:about=""><dc:format>image/svg+xml</dc:format><dc:type
         rdf:resource="http://purl.org/dc/dcmitype/StillImage" /></cc:Work></rdf:RDF></metadata><defs
   id="defs11" /><sodipodi:namedview
   pagecolor="#ffffff"
   bordercolor="#666666"
   borderopacity="1"
   objecttolerance="10"
   gridtolerance="10"
   guidetolerance="10"
   inkscape:pageopacity="0"
   inkscape:pageshadow="2"
   inkscape:window-width="1280"
   inkscape:window-height="962"
   id="namedview9"
   showgrid="true"
   inkscape:zoom="0.32593203"
   inkscape:cx="837.20736"
   inkscape:cy="-71.594388"
   inkscape:window-x="-8"
   inkscape:window-y="-8"
   inkscape:window-maximized="1"
   inkscape:current-layer="svg2"><inkscape:grid
     empspacing="5"
     visible="true"
     enabled="true"
     snapvisiblegridlinesonly="true"
     spacingx="128px"
     spacingy="128px"
     type="xygrid"
     id="grid2986" /><inkscape:grid
     type="xygrid"
     id="grid2988"
     empspacing="5"
     visible="true"
     enabled="true"
     snapvisiblegridlinesonly="true"
     spacingx="64px"
     spacingy="64px"
     color="#ff0000"
     opacity="0.1254902"
     empcolor="#ff0000"
     empopacity="0.25098039" /></sodipodi:namedview>
  <title
   id="title6">Desktop</title>
<g
   id="Ebene_1"
   transform="translate(0,-255.66)">
<g
   id="g5">
<path
   d="m 1280,1919.66 -512,0 c -10.28812,90.1242 -76.03203,191.1679 -128,192 l 0,64 768,0 0,-64 c -83.1432,-51.5225 -117.6511,-107.1639 -128,-192 z m 709.69,-1535.85322 -1931.3834,0 C 26.1051,383.80678 0,409.91178 0,442.11378 L 0,1733.35 c 0,32.2 26.1051,58.31 58.3066,58.31 l 1931.3834,0 c 32.2,0 58.31,-26.11 58.31,-58.31 l 0,-1291.23622 c 0,-32.202 -26.11,-58.307 -58.31,-58.307 z M 1920,1663.66 l -1792,0 0,-1152 1792,0 z"
   style="fill:#000000;fill-rule:nonzero"
   id="path7"
   inkscape:connector-curvature="0"
   sodipodi:nodetypes="cccccccsssssssssccccc" />
        </g>
    </g>
</svg>