<svg xmlns="http://www.w3.org/2000/svg" width="2048" height="2048" viewBox="0 0 2048 2048">
    <title>GitHub</title>
    <path d="M1024 0C458.5 0 0 470.09 0 1049.888c0 463.938 293.376 857.39 700.312 996.185 51.188 9.615 69.876-22.81 69.876-50.494 0-24.992-.938-107.784-1.438-195.444-284.75 63.44-344.938-123.803-344.938-123.803-46.624-121.24-113.688-153.536-113.688-153.536-93.062-65.104 7.06-63.823 7.06-63.823 102.812 7.304 156.94 108.166 156.94 108.166 91.376 160.457 239.75 114.062 298 87.15 9.308-67.668 35.808-114.063 65-140.207-227.312-26.528-466.436-116.625-466.436-518.922 0-114.702 39.938-208.256 105.312-281.757-10.438-26.66-45.688-133.48 10.124-277.977 0 0 85.876-28.195 281.624 107.653 81.624-23.39 169.188-34.925 256.25-35.31 87 .387 174.624 12.048 256.376 35.436C1475.75 407.23 1561.75 435.552 1561.75 435.552c56 144.627 20.75 251.32 10.25 277.85 65.624 73.502 105.25 167.058 105.25 281.76 0 403.32-239.5 492.133-467.624 518.15 36.876 32.553 69.5 96.378 69.5 194.292 0 140.337-1.376 253.5-1.376 288.103 0 27.94 18.624 60.62 70.5 50.366C1754.876 1907.02 2048 1513.57 2048 1049.888 2048 470.09 1589.5 0 1024 0z"/>
</svg>