<svg xmlns="http://www.w3.org/2000/svg" height="2048" width="2048" viewBox="0 0 2048 2048">
    <title>Google Plus</title>
    <defs>
        <linearGradient id="a" gradientUnits="userSpaceOnUse" x1="14.219" y1="5.64" x2="14.219" y2="79.641">
            <stop offset="0" stop-color="#FFF"/>
            <stop offset="1" stop-color="#F9DAD6"/>
        </linearGradient>
        <linearGradient id="b" gradientUnits="userSpaceOnUse" x1="31.334" y1="68" x2="31.334" y2="-4.164">
            <stop offset="0" stop-color="#A5281A"/>
            <stop offset="1" stop-color="#DA4A38"/>
        </linearGradient>
        <filter color-interpolation-filters="sRGB" id="c" filterUnits="userSpaceOnUse" x="-10.487" y="4" width="75.487"
                height="75.541">
            <feColorMatrix values="1 0 0 0 0 0 1 0 0 0 0 0 1 0 0 0 0 0 1 0"/>
        </filter>
        <linearGradient id="d" gradientUnits="userSpaceOnUse" x1="14.219" y1="5.64" x2="14.219" y2="79.641">
            <stop offset="0" stop-color="#FFF"/>
            <stop offset="1" stop-color="#F9DAD6"/>
        </linearGradient>
    </defs>
    <path d="M.5.515V599.42c79.147-190.644 299.6-335.75 544-335.75h635.594l-161.28 169.25H899.75c88.29 70.093 139.813 188.894 139.813 327.158 0 124.184-63.47 239.457-183.563 333.312-100.588 78.55-115.78 108.232-115.78 169.53 0 46.525 107.216 126.283 158.75 164.626l13.25 9.875c206.435 154.85 239.78 254.125 239.78 431.845.01 60.347-16.915 121.243-49.313 178.25H2047.5V.515H.5zm446.188 388.688v.28c-60.075 0-113.285 24.484-153.938 70.813-58.74 66.976-83.803 171.072-68.75 285.657 26.017 197.7 168.61 350.477 331.75 355.375h7.844c61.104 0 112.72-22.037 149.28-63.72 51.422-58.627 71.544-153.33 56.657-266.718-27.963-212.864-163.933-376.815-316.25-381.406l-6.592-.28zM.5 935.953v686.625c106.844-92.512 259.43-155.625 442.063-155.625 19.282 0 37.743-.278 55.968-.5 6.652 0 13.25-.282 19.845-.282-35.895-36.98-67.03-78.846-67.03-143.624 0-32.778 7.764-67.044 23.124-102.187-12.968.64-24.475.936-35.69.936-213.575 0-373.84-109.293-438.28-285.343zm515.344 630.062c-231.674 0-427.375 146.385-427.375 319.625 0 59.368 18.942 114.526 52.374 161.875h758.593c24.855-42.688 37.47-93.614 37.47-152.47 0-20.422-2.475-41.224-7.345-61.842-21.397-83.727-97.566-135.246-202.968-206.563-17.335-11.742-35.34-23.895-53.844-36.75-47.86-15.276-98.622-23.315-150.906-23.844l-6-.03z"
          fill="#bb3627" stroke="#000" stroke-width=".97"/>
    <path fill="#fff"
          d="M1182.163 736.718V569.766h278.253V291.512h166.952v278.254h278.253v166.952H1627.37v278.253h-166.952V736.72"/>
</svg>