<svg xmlns="http://www.w3.org/2000/svg" height="2048" width="2048" viewBox="0 0 2048 2048">
    <title>LinkedIn</title>
    <path clip-rule="evenodd" fill="#007bb6" fill-rule="evenodd" d="M0-.01h2048v2048H0z"/>
    <path clip-rule="evenodd"
          d="M811.585 1406.58V896H640v512h171.585zm-84.72-579.45c59.1 0 95.872-39.178 95.872-88.098-1.1-50.02-36.773-88.097-94.75-88.097-57.98 0-95.872 38.078-95.872 88.097 0 48.92 36.773 88.097 93.653 88.097zM896 1408h172.82v-286.15c0-15.235 1.118-30.492 5.575-41.354 12.272-30.45 40.172-61.98 86.957-61.98 61.337 0 85.86 46.765 85.86 115.295V1408H1408v-293.757c0-156.627-74.91-229.488-186.43-229.488-91.415 0-131.545 51.096-153.85 85.9h1.12V896H896c2.197 47.842 0 512 0 512z"
          fill="#fff" fill-rule="evenodd"/>
</svg>