<?xml version="1.0" encoding="UTF-8" standalone="no"?>
<svg
   xmlns:dc="http://purl.org/dc/elements/1.1/"
   xmlns:cc="http://creativecommons.org/ns#"
   xmlns:rdf="http://www.w3.org/1999/02/22-rdf-syntax-ns#"
   xmlns:svg="http://www.w3.org/2000/svg"
   xmlns="http://www.w3.org/2000/svg"
   xmlns:sodipodi="http://sodipodi.sourceforge.net/DTD/sodipodi-0.dtd"
   xmlns:inkscape="http://www.inkscape.org/namespaces/inkscape"
   width="2048px"
   height="2048px"
   viewBox="0 0 2048 2048"
   version="1.1"
   xml:space="preserve"
   style="fill-rule:evenodd;clip-rule:evenodd;stroke-linejoin:round;stroke-miterlimit:1.41421;"
   id="svg2"
   inkscape:version="0.48.4 r9939"
   sodipodi:docname="mobile.svg"><metadata
   id="metadata13"><rdf:RDF><cc:Work
       rdf:about=""><dc:format>image/svg+xml</dc:format><dc:type
         rdf:resource="http://purl.org/dc/dcmitype/StillImage" /></cc:Work></rdf:RDF></metadata><defs
   id="defs11" /><sodipodi:namedview
   pagecolor="#ffffff"
   bordercolor="#666666"
   borderopacity="1"
   objecttolerance="10"
   gridtolerance="10"
   guidetolerance="10"
   inkscape:pageopacity="0"
   inkscape:pageshadow="2"
   inkscape:window-width="1280"
   inkscape:window-height="1002"
   id="namedview9"
   showgrid="false"
   inkscape:zoom="0.11523438"
   inkscape:cx="1024"
   inkscape:cy="1024"
   inkscape:window-x="1272"
   inkscape:window-y="-8"
   inkscape:window-maximized="1"
   inkscape:current-layer="svg2" />
<g
   id="Ebene_1"
   transform="translate(0,-256)">
<g
   id="g5">
<path
   d="m 1454.69,256 -861.561,0 c -82.445,0 -149.186,66.919 -149.186,149.186 l 0,1749.624 c 0,82.45 66.741,149.19 149.186,149.19 l 861.561,0 c 82.63,0 149.37,-66.74 149.37,-149.19 l 0,-1749.624 C 1604.06,322.919 1537.32,256 1454.69,256 z m -528.214,127.058 195.044,0 0,64.867 -195.044,0 0,-64.867 z m 97.614,1842.782 c -52.466,0 -95.115,-42.56 -95.115,-95.12 0,-52.46 42.739,-94.93 95.115,-94.93 52.37,0 94.94,42.56 94.94,94.93 0,52.56 -42.48,95.12 -94.94,95.12 z m 468.26,-250.1 -936.518,0 0,-1391.211 936.518,0 0,1391.211 z"
   style="fill:#000000;fill-rule:nonzero"
   id="path7"
   inkscape:connector-curvature="0" />
        </g>
    </g>
</svg>