<svg xmlns="http://www.w3.org/2000/svg" width="1153.25" height="2048" viewBox="0 0 1153.25 2048" fill-rule="evenodd"
     stroke-linejoin="round" stroke-miterlimit="1.414">
    <title>Mobile</title>
    <path d="M1004.765 0H148.302C66.345 0 0 66.92 0 149.186V1898.81C0 1981.26 66.344 2048 148.3 2048h856.463c82.14 0 148.486-66.74 148.486-149.19V149.186C1153.25 66.92 1086.907 0 1004.766 0zM479.677 128h193.89v63.925h-193.89zm97.036 1841.84c-52.156 0-94.552-42.56-94.552-95.12 0-52.46 42.487-94.93 94.553-94.93 52.06 0 94.378 42.56 94.378 94.93 0 52.56-42.227 95.12-94.377 95.12zm465.49-250.1H111.225V328.53h930.976z"
          fill-rule="nonzero"/>
</svg>