<svg xmlns="http://www.w3.org/2000/svg" width="35" height="35" viewBox="0 0 35 35"><title>Search</title><path d="M34.524 29.496l-.21-.21-8.44-8.447c1.172-2.022 1.854-4.365 1.872-6.87C27.793 6.305 21.62.05 13.96 0h-.09C6.252 0 .05 6.16 0 13.793c-.05 7.666 6.122 13.922 13.784 13.97h.087c2.55 0 4.937-.69 6.99-1.89l8.43 8.44.21.21c.638.636 1.673.636 2.31 0l2.712-2.713c.637-.64.637-1.675 0-2.314zm-20.72-5.272C8.107 24.19 3.5 19.516 3.536 13.816 3.577 8.15 8.21 3.54 13.87 3.54h.07c2.76.018 5.35 1.11 7.29 3.075 1.936 1.965 2.99 4.57 2.974 7.332-.018 2.75-1.1 5.334-3.05 7.272-1.948 1.936-4.532 3.004-7.28 3.004h-.07z"/></svg>