<svg xmlns="http://www.w3.org/2000/svg" width="35" height="35" viewBox="0 0 35 35">
    <title>Search</title>
    <path d="M26.727 24.855l-.12-.12-4.823-4.827c.67-1.155 1.06-2.494 1.07-3.925.027-4.38-3.5-7.955-7.877-7.983h-.052C10.572 8 7.028 11.52 7 15.882c-.028 4.38 3.498 7.955 7.876 7.983h.05c1.456 0 2.82-.394 3.993-1.08l4.817 4.822.12.12c.365.364.956.364 1.32 0l1.55-1.55c.364-.366.364-.957 0-1.322zm-11.84-3.013c-3.254-.02-5.886-2.69-5.866-5.947.022-3.238 2.67-5.872 5.905-5.872h.04c1.577.01 3.056.634 4.164 1.757 1.107 1.123 1.71 2.612 1.7 4.19-.01 1.572-.628 3.048-1.742 4.155-1.114 1.107-2.59 1.717-4.16 1.717h-.04z"/>
</svg>