<svg xmlns="http://www.w3.org/2000/svg" width="1904.99" height="2048" viewBox="0 0 1904.99 2048">
    <title>Source</title>
    <path d="M363.964 163.667c-62.615 84.38-94.356 197.48-94.356 336.14v161.39c0 78.43-13.58 119.224-25.03 139.764-29.16 52.52-89.255 83.49-183.707 94.687L0 902.857v237.236l61.596 6.65c93.075 10.055 152.796 41.773 182.574 96.984 16.875 31.283 25.438 77.637 25.438 137.73v204.177c0 153.25 48.217 266.765 143.334 337.39 86.77 64.416 196.486 103.716 326.096 116.82l75.92 7.68v-253.607l-60.89-7.196c-48.216-5.705-91.8-25.378-133.19-60.15-34.976-29.384-52.7-84.862-52.7-164.888v-149.76c0-105.23-13.957-187.735-42.767-252.473-20.502-45.534-54.564-96.765-110.982-137.16 47.818-33.044 84.824-77.67 110.703-133.634 28.962-62.65 43.05-146.65 43.05-256.793V520.917c0-71.825 8.328-127.078 24.74-164.07 17.15-38.512 52.3-90.75 159.025-100.03l63.014-5.46V0l-74.812 6.353C553.845 22.1 430.794 73.573 363.964 163.667zM1843.344 895.56c-93.97-10.055-154.067-41.222-183.753-95.273-16.475-29.994-25.18-78.073-25.18-139.032v-161.36c0-134.077-23.315-233.818-70.95-304.437-72.793-109.89-206.966-173.533-398.83-189.147L1090.04.25v251.12l63.06 5.44c108.056 9.333 142.678 58.532 159.236 94.543 11.178 24.48 24.503 73.748 24.503 169.328V631.55c0 110.81 14.07 195.157 43.097 257.932 20.37 43.855 54.367 93.32 110.96 132.445-48.056 34.286-85.558 80.47-111.304 137.742-28.773 63.903-42.754 146.493-42.754 252.51v149.658c0 72.53-16.945 126.39-50.34 160.03-36.19 36.42-80.826 57.67-136.44 64.95l-60.024 7.865V2048l76.352-8.192c128.468-13.793 237.46-52.395 323.903-114.73 95.632-68.954 144.115-183.162 144.115-339.444v-204.178c0-58.973 8.632-105.116 25.46-136.798 30.34-56.35 90.252-88.37 183.15-97.87l61.976-6.338V902.156l-61.646-6.596z"/>
</svg>