<?xml version="1.0" encoding="UTF-8" standalone="no"?>
<svg
   xmlns:dc="http://purl.org/dc/elements/1.1/"
   xmlns:cc="http://creativecommons.org/ns#"
   xmlns:rdf="http://www.w3.org/1999/02/22-rdf-syntax-ns#"
   xmlns:svg="http://www.w3.org/2000/svg"
   xmlns="http://www.w3.org/2000/svg"
   xmlns:sodipodi="http://sodipodi.sourceforge.net/DTD/sodipodi-0.dtd"
   xmlns:inkscape="http://www.inkscape.org/namespaces/inkscape"
   width="1448.78"
   height="2048"
   viewBox="0 0 1448.78 2048"
   version="1.1"
   xml:space="preserve"
   style="fill-rule:evenodd;stroke-linejoin:round;stroke-miterlimit:1.41420996"
   id="svg2"
   inkscape:version="0.48.5 r10040"
   sodipodi:docname="tablet.svg"><metadata
   id="metadata13"><rdf:RDF><cc:Work
       rdf:about=""><dc:format>image/svg+xml</dc:format><dc:type
         rdf:resource="http://purl.org/dc/dcmitype/StillImage" /></cc:Work></rdf:RDF></metadata><defs
   id="defs11" /><sodipodi:namedview
   pagecolor="#ffffff"
   bordercolor="#666666"
   borderopacity="1"
   objecttolerance="10"
   gridtolerance="10"
   guidetolerance="10"
   inkscape:pageopacity="0"
   inkscape:pageshadow="2"
   inkscape:window-width="1280"
   inkscape:window-height="962"
   id="namedview9"
   showgrid="true"
   inkscape:zoom="0.1767767"
   inkscape:cx="-774.20543"
   inkscape:cy="643.73409"
   inkscape:window-x="-8"
   inkscape:window-y="-8"
   inkscape:window-maximized="1"
   inkscape:current-layer="svg2"><inkscape:grid
     type="xygrid"
     id="grid2986"
     empspacing="5"
     visible="true"
     enabled="true"
     snapvisiblegridlinesonly="true"
     spacingx="128px"
     spacingy="128px" /><inkscape:grid
     empspacing="5"
     visible="true"
     enabled="true"
     snapvisiblegridlinesonly="true"
     spacingx="64px"
     spacingy="64px"
     type="xygrid"
     id="grid2988" /></sodipodi:namedview>
  <title
   id="title6">Mobile</title>
<g
   id="Ebene_1"
   transform="matrix(0.99408272,0,0,1,-293.01864,-256)">
<g
   id="g5">
<path
   d="m 1602.8014,256 -1158.85726,0 c -82.445,0 -149.186,66.919 -149.186,149.186 l 0,1749.624 c 0,82.45 66.741,149.19 149.186,149.19 l 1158.85726,0 c 82.63,0 149.37,-66.74 149.37,-149.19 l 0,-1749.624 c 0,-82.267 -66.74,-149.186 -149.37,-149.186 z m -676.3254,128 195.044,0 0,63.925 -195.044,0 z m 97.614,1841.84 c -52.466,0 -95.115,-42.56 -95.115,-95.12 0,-52.46 42.739,-94.93 95.115,-94.93 52.37,0 94.94,42.56 94.94,94.93 0,52.56 -42.48,95.12 -94.94,95.12 z m 616.3714,-250.1 -1233.81426,0 0,-1391.211 1233.81426,0 z"
   style="fill:#000000;fill-rule:nonzero"
   id="path7"
   inkscape:connector-curvature="0"
   sodipodi:nodetypes="ssssssssscccccsssssccccc" />
        </g>
    </g>
</svg>