<svg xmlns="http://www.w3.org/2000/svg" width="1664" height="2048" viewBox="0 0 1664 2048" fill-rule="evenodd"
     stroke-linejoin="round" stroke-miterlimit="1.414">
    <title>Mobile</title>
    <path d="M1492.3 0h-1344C66.34 0-.006 66.92-.006 149.186V1898.81C-.005 1981.26 66.34 2048 148.3 2048h1367.998c82.142 0 148.487-66.74 148.487-149.19V149.186C1664.785 66.92 1574.44 0 1492.3 0zM832.086 1983.025c-52.156 0-94.552-42.56-94.552-95.12 0-52.46 42.486-94.93 94.552-94.93 52.06 0 94.378 42.56 94.378 94.93 0 52.56-42.228 95.12-94.378 95.12zM1536 1728H128V320h1408z"
          fill-rule="nonzero"/>
</svg>