<?xml version="1.0" encoding="UTF-8" standalone="no"?>
<svg
   xmlns:dc="http://purl.org/dc/elements/1.1/"
   xmlns:cc="http://creativecommons.org/ns#"
   xmlns:rdf="http://www.w3.org/1999/02/22-rdf-syntax-ns#"
   xmlns:svg="http://www.w3.org/2000/svg"
   xmlns="http://www.w3.org/2000/svg"
   xmlns:sodipodi="http://sodipodi.sourceforge.net/DTD/sodipodi-0.dtd"
   xmlns:inkscape="http://www.inkscape.org/namespaces/inkscape"
   width="1664"
   height="2048"
   viewBox="0 0 1664 2048"
   version="1.1"
   xml:space="preserve"
   style="fill-rule:evenodd;stroke-linejoin:round;stroke-miterlimit:1.41420996"
   id="svg2"
   inkscape:version="0.91pre3 r13670"
   sodipodi:docname="tablet.svg"><metadata
     id="metadata13"><rdf:RDF><cc:Work
         rdf:about=""><dc:format>image/svg+xml</dc:format><dc:type
           rdf:resource="http://purl.org/dc/dcmitype/StillImage" /><dc:title>Mobile</dc:title></cc:Work></rdf:RDF></metadata><defs
     id="defs11" /><sodipodi:namedview
     pagecolor="#ffffff"
     bordercolor="#666666"
     borderopacity="1"
     objecttolerance="10"
     gridtolerance="10"
     guidetolerance="10"
     inkscape:pageopacity="0"
     inkscape:pageshadow="2"
     inkscape:window-width="1080"
     inkscape:window-height="661"
     id="namedview9"
     showgrid="true"
     inkscape:zoom="0.25000001"
     inkscape:cx="413.06406"
     inkscape:cy="1394.5847"
     inkscape:window-x="-8"
     inkscape:window-y="-8"
     inkscape:window-maximized="1"
     inkscape:current-layer="svg2"
     units="in"
     inkscape:snap-tangential="false"
     inkscape:snap-perpendicular="false"><inkscape:grid
       type="xygrid"
       id="grid2986"
       empspacing="5"
       visible="true"
       enabled="true"
       snapvisiblegridlinesonly="true"
       spacingx="128px"
       spacingy="128px" /><inkscape:grid
       empspacing="5"
       visible="true"
       enabled="true"
       snapvisiblegridlinesonly="true"
       spacingx="64px"
       spacingy="64px"
       type="xygrid"
       id="grid2988" /></sodipodi:namedview><title
     id="title6">Mobile</title><path
     d="M 1492.2985,0 148.29856,0 C 66.341408,0 -0.00466645,66.919 -0.00466645,149.186 l 0,1749.624 c 0,82.45 66.34607445,149.19 148.30322645,149.19 l 1367.99994,0 c 82.1411,0 148.4862,-66.74 148.4862,-149.19 l 0,-1749.624 C 1664.7847,66.919 1574.4396,0 1492.2985,0 Z M 832.08698,1983.025 c -52.15554,0 -94.55218,-42.56 -94.55218,-95.12 0,-52.46 42.48611,-94.93 94.55218,-94.93 52.06011,0 94.37822,42.56 94.37822,94.93 0,52.56 -42.22864,95.12 -94.37822,95.12 z M 1536,1728 l -1408,0 0,-1408 1408,0 z"
     style="fill:#000000;fill-rule:nonzero"
     id="path7"
     inkscape:connector-curvature="0"
     sodipodi:nodetypes="ssssssssssssssccccc" /></svg>