<svg xmlns="http://www.w3.org/2000/svg" height="2048" width="2048" viewBox="0 0 2048 2048">
    <title>Twitter</title>
    <path d="M1706.667 642.667C1656.89 664.89 1603.11 680 1545.333 688c60.445-35.556 101.778-87.556 124-156-57.777 33.778-117.333 56.444-178.666 68-54.223-58.667-122.223-88-204-88-77.334 0-143.334 27.333-198 82-54.667 54.667-82 120.667-82 198 0 25.778 2.222 47.11 6.666 64-114.666-6.222-222.222-35.11-322.666-86.667-100.445-51.555-185.778-120.444-256-206.666C408.89 607.11 396 654.222 396 704c0 101.333 40.444 179.11 121.333 233.333-41.777-.89-86.222-12.444-133.333-34.666v2.666c0 66.667 22.222 126 66.667 178 44.444 52 99.11 84.222 164 96.667-25.778 7.11-48.445 10.667-68 10.667-11.556 0-28.89-1.778-52-5.334 18.666 56 51.777 102.222 99.333 138.667 47.556 36.444 101.556 55.11 162 56-103.11 80-219.11 120-348 120-23.11 0-45.333-1.333-66.667-4C472.89 1579.555 616 1621.333 770.667 1621.333c99.555 0 192.89-15.778 280-47.333 87.11-31.555 161.777-73.778 224-126.667 62.222-52.89 115.777-113.777 160.666-182.666 44.89-68.89 78.223-140.89 100-216C1557.11 973.557 1568 898.667 1568 824c0-16-.444-28-1.333-36 56-40 102.666-88.444 140-145.333zM2048 2048H0V0h2048z"
          fill="#55acee"/>
</svg>
