<?xml version="1.0" encoding="UTF-8" standalone="no"?>
<!-- Generator: Adobe Illustrator 16.0.0, SVG Export Plug-In . SVG Version: 6.00 Build 0)  -->

<svg
   xmlns:dc="http://purl.org/dc/elements/1.1/"
   xmlns:cc="http://creativecommons.org/ns#"
   xmlns:rdf="http://www.w3.org/1999/02/22-rdf-syntax-ns#"
   xmlns:svg="http://www.w3.org/2000/svg"
   xmlns="http://www.w3.org/2000/svg"
   xmlns:sodipodi="http://sodipodi.sourceforge.net/DTD/sodipodi-0.dtd"
   xmlns:inkscape="http://www.inkscape.org/namespaces/inkscape"
   version="1.1"
   id="Layer_1"
   x="0px"
   y="0px"
   width="2048"
   height="2048"
   viewBox="0 0 2048 2048.0001"
   enable-background="new 0 0 266.893 266.895"
   xml:space="preserve"
   inkscape:version="0.48.5 r10040"
   sodipodi:docname="uF009-facebook.svg"><metadata
   id="metadata4718"><rdf:RDF><cc:Work
       rdf:about=""><dc:format>image/svg+xml</dc:format><dc:type
         rdf:resource="http://purl.org/dc/dcmitype/StillImage" /></cc:Work></rdf:RDF></metadata><defs
   id="defs4716" /><sodipodi:namedview
   pagecolor="#ffffff"
   bordercolor="#666666"
   borderopacity="1"
   objecttolerance="10"
   gridtolerance="10"
   guidetolerance="10"
   inkscape:pageopacity="0"
   inkscape:pageshadow="2"
   inkscape:window-width="1920"
   inkscape:window-height="1018"
   id="namedview4714"
   showgrid="true"
   inkscape:zoom="0.125"
   inkscape:cx="3452.8595"
   inkscape:cy="179.36923"
   inkscape:window-x="-8"
   inkscape:window-y="-8"
   inkscape:window-maximized="1"
   inkscape:current-layer="g10"><inkscape:grid
     type="xygrid"
     id="grid4720"
     empspacing="5"
     visible="true"
     enabled="true"
     snapvisiblegridlinesonly="true"
     spacingx="128px"
     spacingy="128px" /></sodipodi:namedview>


<g
   id="g10"
   transform="matrix(1.2500001,0,0,-1.2500001,2037.9972,2206.6962)"><path
     style="fill:#3d539e;fill-opacity:1;fill-rule:nonzero;stroke:none"
     d="m -1830.2573,1867.7561 c -59.3237,0 -107.3404,-48.2055 -107.3404,-107.5218 l 0,-1730.737775 c 0,-59.301056 48.0167,-107.339649 107.3404,-107.339649 l 931.79527,0 0,753.382184 -253.49657,0 0,293.58943 253.49657,0 0,216.50171 c 0,251.2948 153.60689,388.1728 377.78461,388.1728 107.37685,0 199.61898,-7.91 226.52497,-11.482 l 0,-262.6075 -155.45044,-0.1822 c -121.91236,0 -145.61091,-57.865 -145.61091,-142.8766 l 0,-187.52547 290.85589,0 -37.90603,-293.58944 -252.94986,0 0,-753.382185 495.87647,0 c 59.30107,0 107.33967,48.038594 107.33967,107.339649 l 0,1730.737646 c 0,59.3164 -48.0386,107.5219 -107.33967,107.5219 l -1730.91997,0 z"
     id="path52-7"
     inkscape:connector-curvature="0" /></g></svg>