<?xml version="1.0" encoding="UTF-8" standalone="no"?>
<svg
   xmlns:sketch="http://www.bohemiancoding.com/sketch/ns"
   xmlns:dc="http://purl.org/dc/elements/1.1/"
   xmlns:cc="http://creativecommons.org/ns#"
   xmlns:rdf="http://www.w3.org/1999/02/22-rdf-syntax-ns#"
   xmlns:svg="http://www.w3.org/2000/svg"
   xmlns="http://www.w3.org/2000/svg"
   xmlns:sodipodi="http://sodipodi.sourceforge.net/DTD/sodipodi-0.dtd"
   xmlns:inkscape="http://www.inkscape.org/namespaces/inkscape"
   width="2048"
   height="2048"
   viewBox="0 0 2048 2048"
   version="1.1"
   id="svg4047"
   inkscape:version="0.48.5 r10040"
   sodipodi:docname="uF006-github.svg">
  <metadata
     id="metadata4062">
    <rdf:RDF>
      <cc:Work
         rdf:about="">
        <dc:format>image/svg+xml</dc:format>
        <dc:type
           rdf:resource="http://purl.org/dc/dcmitype/StillImage" />
      </cc:Work>
    </rdf:RDF>
  </metadata>
  <sodipodi:namedview
     pagecolor="#ffffff"
     bordercolor="#666666"
     borderopacity="1"
     objecttolerance="10"
     gridtolerance="10"
     guidetolerance="10"
     inkscape:pageopacity="0"
     inkscape:pageshadow="2"
     inkscape:window-width="1280"
     inkscape:window-height="962"
     id="namedview4060"
     showgrid="true"
     showguides="true"
     inkscape:guide-bbox="true"
     inkscape:zoom="0.2085965"
     inkscape:cx="372.57616"
     inkscape:cy="1117.2564"
     inkscape:window-x="-8"
     inkscape:window-y="-8"
     inkscape:window-maximized="1"
     inkscape:current-layer="Shape">
    <inkscape:grid
       type="xygrid"
       id="grid4064"
       empspacing="5"
       visible="true"
       enabled="true"
       snapvisiblegridlinesonly="true"
       spacingx="128px"
       spacingy="128px" />
    <sodipodi:guide
       orientation="0,1"
       position="-213.55932,-256"
       id="guide4066" />
  </sodipodi:namedview>
  <!-- Generator: Sketch 3.1 (8751) - http://www.bohemiancoding.com/sketch -->
  <title
     id="title4049">github</title>
  <desc
     id="desc4051">Created with Sketch.</desc>
  <defs
     id="defs4053" />
  <g
     id="github"
     sketch:type="MSArtboardGroup"
     style="fill:#000000">
    <g
       sketch:type="MSLayerGroup"
       id="Shape">
      <path
         d="M 1023.9999,255.99998 C 458.49999,255.99998 0,726.09032 0,1305.8882 c 0,463.9372 293.37598,857.3892 700.31197,996.1848 51.188,9.6146 69.876,-22.8113 69.876,-50.4943 0,-24.991 -0.93797,-107.7826 -1.43795,-195.4431 -284.74996,63.4389 -344.93796,-123.8025 -344.93796,-123.8025 -46.624,-121.2394 -113.688,-153.5366 -113.688,-153.5366 -93.062,-65.1039 7.06001,-63.8223 7.06001,-63.8223 102.81198,7.3035 156.93998,108.166 156.93998,108.166 91.37599,160.4567 239.75,114.0619 297.99998,87.1484 9.30802,-67.6671 35.808,-114.0619 65.00001,-140.2059 -227.31199,-26.5274 -466.43599,-116.6251 -466.43599,-518.9222 0,-114.7026 39.93801,-208.2565 105.312,-281.75769 -10.43799,-26.65871 -45.68798,-133.47882 10.12399,-277.9773 0,0 85.876,-28.19507 281.62399,107.65392 81.62401,-23.39038 169.18799,-34.92473 256.24997,-35.30818 87,0.38603 174.624,12.04648 256.376,35.43429 195.376,-135.9751 281.376,-107.65393 281.376,-107.65393 56,144.62715 20.75,251.32116 10.25,277.8512 65.624,73.50119 105.25,167.05759 105.25,281.75769 0,403.3214 -239.5,492.1348 -467.624,518.1528 36.876,32.5519 69.5,96.3769 69.5,194.2902 0,140.3371 -1.3759,253.5009 -1.3759,288.1039 0,27.9403 18.6239,60.6184 70.5,50.3656 C 1754.876,2163.0201 2048,1769.5706 2048,1305.8882 2048,726.09032 1589.5,255.99998 1024.0001,255.99998 l 0,0 z"
         sketch:type="MSShapeGroup"
         id="path4058"
         inkscape:connector-curvature="0" />
    </g>
  </g>
</svg>
