<?xml version="1.0" encoding="UTF-8" standalone="no"?>
<svg width="100px" height="100px" viewBox="0 0 100 100" version="1.1" xmlns="http://www.w3.org/2000/svg" xmlns:xlink="http://www.w3.org/1999/xlink" xmlns:sketch="http://www.bohemiancoding.com/sketch/ns">
    <!-- Generator: Sketch 3.1 (8751) - http://www.bohemiancoding.com/sketch -->
    <title>github</title>
    <desc>Created with Sketch.</desc>
    <defs></defs>
    <g id="Icons" stroke="none" stroke-width="1" fill="none" fill-rule="evenodd" sketch:type="MSPage">
        <g id="github" sketch:type="MSArtboardGroup" fill="#000000">
            <g sketch:type="MSLayerGroup" transform="translate(10.000000, 11.000000)" id="Shape">
                <path d="M40.3204109,-0.580882353 C17.8804218,-0.580882353 -0.313627681,17.6858376 -0.313627681,40.2154563 C-0.313627681,58.2431353 11.3280244,73.5318022 27.4759278,78.925126 C29.5071536,79.2986675 30.2487248,78.0386821 30.2487248,76.9629974 C30.2487248,75.9918533 30.2115034,72.7748389 30.1916625,69.368504 C18.8923046,71.8335749 16.5039438,64.5578029 16.5039438,64.5578029 C14.6538252,59.8467023 11.9926131,58.5917368 11.9926131,58.5917368 C8.29975677,56.0618857 12.2727658,56.1116859 12.2727658,56.1116859 C16.3525185,56.3955073 18.5004084,60.3148243 18.5004084,60.3148243 C22.1263614,66.5498116 28.0140907,64.7470437 30.3255485,63.7012392 C30.6949056,61.0717876 31.74647,59.2690197 32.9048576,58.2530953 C23.8847359,57.2222706 14.3958943,53.7212755 14.3958943,38.0889472 C14.3958943,33.6317878 15.9807012,29.9964516 18.5748512,27.1403891 C18.1606538,26.1045446 16.7618747,21.9536765 18.9765885,16.3387617 C18.9765885,16.3387617 22.3842923,15.2431569 30.1519015,20.52198 C33.3908788,19.6131459 36.8655653,19.164944 40.3203315,19.1499641 C43.7726375,19.164944 47.2497049,19.6180861 50.4937615,20.5269202 C58.2466091,15.2431569 61.6592334,16.3437018 61.6592334,16.3437018 C63.8814074,21.9636365 62.4826282,26.1094848 62.0659706,27.1403891 C64.6700411,29.9964516 66.2424672,33.6318675 66.2424672,38.0889472 C66.2424672,53.7611156 56.7387053,57.2122309 47.6863621,58.2232152 C49.1496637,59.4881407 50.4442388,61.9681916 50.4442388,65.7729282 C50.4442388,71.226092 50.3896368,75.6234114 50.3896368,76.9680173 C50.3896368,78.053662 51.1286683,79.3235277 53.1871951,78.925126 C69.3227972,73.5218422 80.9544495,58.2331752 80.9544495,40.2154563 C80.9544495,17.6858376 62.7604,-0.580882353 40.3204109,-0.580882353 L40.3204109,-0.580882353 Z" sketch:type="MSShapeGroup"></path>
            </g>
        </g>
    </g>
</svg>