<?xml version="1.0" encoding="UTF-8" standalone="no"?>
<svg width="100px" height="100px" viewBox="0 0 100 100" version="1.1" xmlns="http://www.w3.org/2000/svg" xmlns:xlink="http://www.w3.org/1999/xlink" xmlns:sketch="http://www.bohemiancoding.com/sketch/ns">
    <!-- Generator: Sketch 3.1 (8751) - http://www.bohemiancoding.com/sketch -->
    <title>github</title>
    <desc>Created with Sketch.</desc>
    <defs></defs>
    <g id="Icons" stroke="none" stroke-width="1" fill="none" fill-rule="evenodd" sketch:type="MSPage">
        <g id="github" sketch:type="MSArtboardGroup" fill="#000000">
            <g sketch:type="MSLayerGroup" transform="translate(1.000000, 3.000000)" id="Shape">
                <path d="M48.7827194,-0.698529412 C21.6331029,-0.698529412 -0.379450775,21.2677794 -0.379450775,48.3603589 C-0.379450775,70.0392133 13.705511,88.4243191 33.2424806,94.9099616 C35.700013,95.3591571 36.5972226,93.8439848 36.5972226,92.5504399 C36.5972226,91.3826084 36.5521892,87.5140468 36.5281843,83.4178212 C22.8573562,86.3821471 19.9677344,77.632801 19.9677344,77.632801 C17.7293194,71.9675534 14.5095813,70.4584177 14.5095813,70.4584177 C10.041681,67.4161917 14.8485314,67.476078 14.8485314,67.476078 C19.7845285,67.8173822 22.3832101,72.530485 22.3832101,72.530485 C26.7701656,80.0282545 33.8935913,77.8603691 36.6901698,76.602756 C37.1370462,73.4407573 38.4093094,71.2728719 39.8108153,70.0511906 C28.8975817,68.8115913 17.4172548,64.6015338 17.4172548,45.8031643 C17.4172548,40.4432891 19.3346755,36.0716822 22.4732767,32.6371768 C21.9721491,31.391541 20.279799,26.3999907 22.9593293,19.6478779 C22.9593293,19.6478779 27.0822302,18.3303785 36.4800783,24.6783304 C40.398841,23.5854286 44.6027827,23.0464516 48.7826233,23.0284378 C52.9594874,23.0464516 57.1663097,23.5913694 61.0912176,24.6842711 C70.471206,18.3303785 74.6000602,19.6538187 74.6000602,19.6538187 C77.2886163,26.411968 75.5962663,31.3974817 75.092162,32.6371768 C78.2427657,36.0716822 80.1452073,40.4433849 80.1452073,45.8031643 C80.1452073,64.6494428 68.6468286,68.7995182 57.694611,70.0152587 C59.4650252,71.5363717 61.0313012,74.5187114 61.0313012,79.0940276 C61.0313012,85.6516296 60.9652395,90.9395453 60.9652395,92.5564765 C60.9652395,93.8619986 61.8593765,95.3890523 64.3499397,94.9099616 C83.8720262,88.4123418 97.9448895,70.027236 97.9448895,48.3603589 C97.9448895,21.2677794 75.9323358,-0.698529412 48.7827194,-0.698529412 L48.7827194,-0.698529412 Z" sketch:type="MSShapeGroup"></path>
            </g>
        </g>
    </g>
</svg>