<?xml version="1.0" encoding="UTF-8" standalone="no"?>
<svg
   xmlns:sketch="http://www.bohemiancoding.com/sketch/ns"
   xmlns:dc="http://purl.org/dc/elements/1.1/"
   xmlns:cc="http://creativecommons.org/ns#"
   xmlns:rdf="http://www.w3.org/1999/02/22-rdf-syntax-ns#"
   xmlns:svg="http://www.w3.org/2000/svg"
   xmlns="http://www.w3.org/2000/svg"
   xmlns:sodipodi="http://sodipodi.sourceforge.net/DTD/sodipodi-0.dtd"
   xmlns:inkscape="http://www.inkscape.org/namespaces/inkscape"
   width="2048"
   height="2048"
   viewBox="0 0 2048 2048"
   version="1.1"
   id="svg4047"
   inkscape:version="0.48.5 r10040"
   sodipodi:docname="uF006-github.svg">
  <metadata
     id="metadata4062">
    <rdf:RDF>
      <cc:Work
         rdf:about="">
        <dc:format>image/svg+xml</dc:format>
        <dc:type
           rdf:resource="http://purl.org/dc/dcmitype/StillImage" />
      </cc:Work>
    </rdf:RDF>
  </metadata>
  <sodipodi:namedview
     pagecolor="#ffffff"
     bordercolor="#666666"
     borderopacity="1"
     objecttolerance="10"
     gridtolerance="10"
     guidetolerance="10"
     inkscape:pageopacity="0"
     inkscape:pageshadow="2"
     inkscape:window-width="1920"
     inkscape:window-height="1018"
     id="namedview4060"
     showgrid="true"
     showguides="true"
     inkscape:guide-bbox="true"
     inkscape:zoom="0.295"
     inkscape:cx="599.64601"
     inkscape:cy="984.85497"
     inkscape:window-x="-8"
     inkscape:window-y="-8"
     inkscape:window-maximized="1"
     inkscape:current-layer="svg4047">
    <inkscape:grid
       type="xygrid"
       id="grid4064"
       empspacing="5"
       visible="true"
       enabled="true"
       snapvisiblegridlinesonly="true"
       spacingx="128px"
       spacingy="128px" />
    <sodipodi:guide
       orientation="0,1"
       position="-213.55932,-256"
       id="guide4066" />
  </sodipodi:namedview>
  <!-- Generator: Sketch 3.1 (8751) - http://www.bohemiancoding.com/sketch -->
  <title
     id="title4049">github</title>
  <desc
     id="desc4051">Created with Sketch.</desc>
  <defs
     id="defs4053" />
  <g
     id="Icons"
     sketch:type="MSPage"
     style="fill:none;stroke:none"
     transform="matrix(25.200546,0,0,25.200546,-244.10187,35.950892)">
    <g
       id="github"
       sketch:type="MSArtboardGroup"
       style="fill:#000000">
      <g
         sketch:type="MSLayerGroup"
         transform="translate(10,11)"
         id="Shape">
        <path
           d="m 40.320411,-0.58088235 c -22.439989,0 -40.63403868,18.26672035 -40.63403868,40.79633835 0,18.027679 11.64165168,33.316346 27.78955568,38.70967 2.031226,0.373541 2.772797,-0.886444 2.772797,-1.962129 0,-0.971144 -0.03722,-4.188158 -0.05706,-7.594493 -11.299357,2.465071 -13.687718,-4.810701 -13.687718,-4.810701 -1.850119,-4.711101 -4.511331,-5.966066 -4.511331,-5.966066 -3.6928562,-2.529851 0.280153,-2.480051 0.280153,-2.480051 4.079752,0.283821 6.227642,4.203138 6.227642,4.203138 3.625953,6.234988 9.513683,4.43222 11.82514,3.386415 0.369358,-2.629451 1.420922,-4.432219 2.57931,-5.448144 -9.020122,-1.030824 -18.508964,-4.53182 -18.508964,-20.164148 0,-4.457159 1.584807,-8.092495 4.178957,-10.948558 -0.414197,-1.035844 -1.812976,-5.186713 0.401737,-10.801627 0,0 3.407704,-1.095605 11.175313,4.183218 3.238978,-0.908834 6.713664,-1.357036 10.168431,-1.372016 3.452306,0.01498 6.929373,0.468122 10.173429,1.376956 7.752848,-5.283763 11.165472,-4.183218 11.165472,-4.183218 2.222174,5.619934 0.823395,9.765783 0.406738,10.796687 2.60407,2.856063 4.176496,6.491478 4.176496,10.948558 0,15.672169 -9.503762,19.123284 -18.556105,20.134268 1.463302,1.264926 2.757877,3.744977 2.757877,7.549713 0,5.453164 -0.0546,9.850483 -0.0546,11.195089 0,1.085645 0.739031,2.355511 2.797558,1.957109 16.135602,-5.403284 27.767254,-20.691951 27.767254,-38.70967 0,-22.529618 -18.194049,-40.79633835 -40.634038,-40.79633835 l 0,0 z"
           sketch:type="MSShapeGroup"
           id="path4058"
           inkscape:connector-curvature="0" />
      </g>
    </g>
  </g>
</svg>
