<?xml version="1.0" encoding="UTF-8" standalone="no"?>
<!-- Generator: Adobe Illustrator 16.0.5, SVG Export Plug-In . SVG Version: 6.00 Build 0)  -->

<svg
   xmlns:dc="http://purl.org/dc/elements/1.1/"
   xmlns:cc="http://creativecommons.org/ns#"
   xmlns:rdf="http://www.w3.org/1999/02/22-rdf-syntax-ns#"
   xmlns:svg="http://www.w3.org/2000/svg"
   xmlns="http://www.w3.org/2000/svg"
   xmlns:sodipodi="http://sodipodi.sourceforge.net/DTD/sodipodi-0.dtd"
   xmlns:inkscape="http://www.inkscape.org/namespaces/inkscape"
   version="1.1"
   id="Ebene_1"
   x="0px"
   y="0px"
   width="2048"
   height="2048"
   viewBox="0 0 2047.9999 2048"
   enable-background="new 0 0 38.775 38.096"
   xml:space="preserve"
   inkscape:version="0.48.5 r10040"
   sodipodi:docname="haekchen.svg"><metadata
   id="metadata9"><rdf:RDF><cc:Work
       rdf:about=""><dc:format>image/svg+xml</dc:format><dc:type
         rdf:resource="http://purl.org/dc/dcmitype/StillImage" /><dc:title></dc:title></cc:Work></rdf:RDF></metadata><defs
   id="defs7" /><sodipodi:namedview
   pagecolor="#ffffff"
   bordercolor="#666666"
   borderopacity="1"
   objecttolerance="10"
   gridtolerance="10"
   guidetolerance="10"
   inkscape:pageopacity="0"
   inkscape:pageshadow="2"
   inkscape:window-width="1920"
   inkscape:window-height="1018"
   id="namedview5"
   showgrid="true"
   inkscape:zoom="0.19358988"
   inkscape:cx="-398.15069"
   inkscape:cy="611.23345"
   inkscape:window-x="-8"
   inkscape:window-y="-8"
   inkscape:window-maximized="1"
   inkscape:current-layer="Ebene_1" />
<path
   d="m 1702.4211,594.57179 0.264,-0.53753 0,0 c 11.8296,-22.46887 19.1175,-48.00168 19.1175,-75.46961 0,-86.97281 -67.3337,-157.55087 -150.4578,-157.55087 -48.1105,0 -90.3591,24.02772 -117.8735,60.74121 l -0.1056,-0.0538 -0.4753,0.8063 c -7.6576,10.26688 -14.3645,21.23255 -19.3816,33.27329 L 807.70167,1529.2876 519.56633,1160.8089 l 0,0.054 c -26.98628,-42.3038 -72.93161,-70.148 -125.10861,-70.148 -83.07128,0 -150.45777,70.5781 -150.45777,157.5509 0,44.1314 17.48035,83.9626 45.41723,112.5593 l 382.56092,539.0917 h 0.10562 c 26.77504,43.2714 73.14286,72.0832 126.05921,72.0832 62.73914,0 116.44763,-40.3687 138.94503,-97.4547 L 1692.123,611.71939 c 3.8552,-5.53659 7.1294,-11.28819 10.2981,-17.30856 z"
   id="path3"
   inkscape:connector-curvature="0" />
</svg>