<?xml version="1.0" encoding="UTF-8" standalone="no"?>
<svg
   xmlns:dc="http://purl.org/dc/elements/1.1/"
   xmlns:cc="http://creativecommons.org/ns#"
   xmlns:rdf="http://www.w3.org/1999/02/22-rdf-syntax-ns#"
   xmlns:svg="http://www.w3.org/2000/svg"
   xmlns="http://www.w3.org/2000/svg"
   xmlns:sodipodi="http://sodipodi.sourceforge.net/DTD/sodipodi-0.dtd"
   xmlns:inkscape="http://www.inkscape.org/namespaces/inkscape"
   enable-background="new 0 0 32 32"
   height="2048"
   id="Layer_1"
   version="1.1"
   viewBox="0 0 2048 2048"
   width="2048"
   xml:space="preserve"
   inkscape:version="0.48.5 r10040"
   sodipodi:docname="1417716150_megaphone.svg"><metadata
     id="metadata8"><rdf:RDF><cc:Work
         rdf:about=""><dc:format>image/svg+xml</dc:format><dc:type
           rdf:resource="http://purl.org/dc/dcmitype/StillImage" /><dc:title></dc:title></cc:Work></rdf:RDF></metadata><defs
     id="defs6" /><sodipodi:namedview
     pagecolor="#ffffff"
     bordercolor="#666666"
     borderopacity="1"
     objecttolerance="10"
     gridtolerance="10"
     guidetolerance="10"
     inkscape:pageopacity="0"
     inkscape:pageshadow="2"
     inkscape:window-width="1920"
     inkscape:window-height="1018"
     id="namedview4"
     showgrid="true"
     inkscape:zoom="0.23046875"
     inkscape:cx="512.00001"
     inkscape:cy="665.21274"
     inkscape:window-x="-8"
     inkscape:window-y="-8"
     inkscape:window-maximized="1"
     inkscape:current-layer="Layer_1"><inkscape:grid
       type="xygrid"
       id="grid2985"
       empspacing="5"
       visible="true"
       enabled="true"
       snapvisiblegridlinesonly="true"
       spacingx="128px"
       spacingy="128px" /></sodipodi:namedview><path
     d="m 1600,256 c -131.392,0 -234.624,90.24 -308.736,229.504 l -1.344,-0.768 C 1182.272,695.488 1022.016,832 846.464,832 H 804.032 521.984 256 C 112.448,832 0,972.608 0,1152 c 0,179.52 112.448,320 256,320 70.592,0 127.68,57.344 127.68,128 v 576 c 0,70.72 57.344,128 128,128 h 256 c 70.656,0 128,-57.28 128,-128 v -64 c 0,-64 -64,-92.608 -64,-128 v -448 c 0,-1.472 1.024,-2.496 1.152,-3.968 0.64,-9.152 3.136,-17.6 7.168,-25.28 1.152,-2.112 2.368,-3.776 3.776,-5.632 5.12,-7.616 11.584,-13.888 19.456,-18.752 0.384,0 0.512,-0.64 0.896,-0.896 0.256,0 0.448,0 0.704,0 5.12,-2.88 11.264,-3.52 17.024,-5.12 161.536,17.152 307.776,147.52 408.128,343.872 l 1.6,-0.768 c 74.176,138.816 177.152,228.8 308.416,228.8 294.144,0 448,-450.752 448,-896 0,-445.248 -153.856,-896 -448,-896 z m -320,896 c 0,-66.368 3.904,-130.496 10.496,-192 H 1472 c 70.656,0 128,86.016 128,192 0,106.112 -57.344,192 -128,192 H 1290.496 C 1283.904,1282.496 1280,1218.496 1280,1152 z m -1152,0 c 0,-105.984 57.344,-192 128,-192 H 521.984 576 704.896 C 665.216,1006.656 640,1074.368 640,1152 c 0,77.76 25.216,145.472 64.896,192 H 576 256 c -70.656,0 -128,-85.888 -128,-192 z m 639.68,1024 h -256 v -576 c 0,-46.656 -12.48,-90.24 -34.368,-128 h 44.672 v 0.768 h 192.512 c -6.848,19.904 -10.816,41.024 -10.816,63.232 v 448 c 0,61.632 34.432,102.656 54.976,127.104 2.816,3.392 6.144,6.848 9.024,10.624 V 2176 z m 78.784,-831.232 H 832 V 1344 c -70.656,0 -128,-85.888 -128,-192 0,-105.984 57.344,-192 128,-192 h 14.464 c 120.704,0 233.728,-47.488 333.184,-129.152 C 1161.344,933.888 1152,1043.008 1152,1152 c 0,109.376 9.344,218.88 27.776,321.984 -99.52,-81.728 -212.608,-129.216 -333.312,-129.216 z M 1600,1920 c -129.152,0 -240,-183.744 -290.624,-448 H 1472 c 143.488,0 256,-140.48 256,-320 0,-179.392 -112.512,-320 -256,-320 H 1309.376 C 1360,567.872 1470.848,384 1600,384 c 176.768,0 320,343.872 320,768 0,424.128 -143.232,768 -320,768 z"
     id="megaphone"
     inkscape:connector-curvature="0"
     style="fill:#333333" /></svg>