<?xml version="1.0" encoding="UTF-8" standalone="no"?>
<svg
   xmlns:dc="http://purl.org/dc/elements/1.1/"
   xmlns:cc="http://creativecommons.org/ns#"
   xmlns:rdf="http://www.w3.org/1999/02/22-rdf-syntax-ns#"
   xmlns:svg="http://www.w3.org/2000/svg"
   xmlns="http://www.w3.org/2000/svg"
   xmlns:sodipodi="http://sodipodi.sourceforge.net/DTD/sodipodi-0.dtd"
   xmlns:inkscape="http://www.inkscape.org/namespaces/inkscape"
   enable-background="new 0 0 50 50"
   height="2048"
   id="Layer_1"
   version="1.1"
   viewBox="0 0 2048 2048"
   width="2048"
   xml:space="preserve"
   inkscape:version="0.48.5 r10040"
   sodipodi:docname="uF011-download.svg"><metadata
     id="metadata3013"><rdf:RDF><cc:Work
         rdf:about=""><dc:format>image/svg+xml</dc:format><dc:type
           rdf:resource="http://purl.org/dc/dcmitype/StillImage" /></cc:Work></rdf:RDF></metadata><defs
     id="defs3011" /><sodipodi:namedview
     pagecolor="#ffffff"
     bordercolor="#666666"
     borderopacity="1"
     objecttolerance="10"
     gridtolerance="10"
     guidetolerance="10"
     inkscape:pageopacity="0"
     inkscape:pageshadow="2"
     inkscape:window-width="1902"
     inkscape:window-height="1000"
     id="namedview3009"
     showgrid="true"
     inkscape:zoom="0.12984375"
     inkscape:cx="3740.5537"
     inkscape:cy="1060.2339"
     inkscape:window-x="1"
     inkscape:window-y="1"
     inkscape:window-maximized="1"
     inkscape:current-layer="Layer_1"><inkscape:grid
       type="xygrid"
       id="grid3015"
       empspacing="5"
       visible="true"
       enabled="true"
       snapvisiblegridlinesonly="true"
       spacingx="128px"
       spacingy="128px" /></sodipodi:namedview><path
     style="font-size:medium;font-style:normal;font-variant:normal;font-weight:normal;font-stretch:normal;text-indent:0;text-align:start;text-decoration:none;line-height:normal;letter-spacing:normal;word-spacing:normal;text-transform:none;direction:ltr;block-progression:tb;writing-mode:lr-tb;text-anchor:start;baseline-shift:baseline;color:#000000;fill:#000000;fill-opacity:1;stroke:none;stroke-width:81.91999817;marker:none;visibility:visible;display:inline;overflow:visible;enable-background:accumulate;font-family:Sans;-inkscape-font-specification:Sans"
     d="M 1187.5625 442.09375 C 975.96628 442.09375 792.95717 564.65062 705.03125 742.59375 C 659.66009 712.63713 605.2724 695.09375 547.0625 695.09375 C 395.59227 695.09375 270.88596 813.55627 260.71875 962.5 C 108.65508 1017.8845 0 1163.6191 0 1334.4062 C 0 1552.6568 177.80706 1730.4375 396.09375 1730.4375 L 737.28125 1730.4375 A 40.964095 40.964095 0 1 0 737.28125 1648.5312 L 396.09375 1648.5312 C 222.06564 1648.5312 81.90625 1508.3889 81.90625 1334.4062 C 81.90625 1189.5566 179.63043 1068.5966 312.375 1031.9062 A 40.964095 40.964095 0 0 0 342.40625 990.96875 C 342.2014 985.23388 341.90625 982.39405 341.90625 982.125 C 341.90625 868.35804 433.24784 777 547.0625 777 C 603.95249 777 655.03111 800.02523 692.1875 837.25 A 40.964095 40.964095 0 0 0 759.59375 822.53125 C 824.00756 648.45627 990.66272 524 1187.5625 524 C 1440.31 524 1644.25 728.01143 1644.25 980.71875 C 1644.25 999.35961 1642.7106 1018.114 1640.3438 1037.2812 A 40.964095 40.964095 0 0 0 1681 1083.2812 L 1683.375 1083.2812 C 1840.0323 1083.2812 1966.0938 1209.3512 1966.0938 1365.9688 C 1966.0938 1522.5863 1840.0386 1648.625 1683.375 1648.625 L 1310.7188 1648.625 A 40.96875 40.96875 0 0 0 1310.7188 1730.5625 L 1683.375 1730.5625 C 1884.2922 1730.5625 2048 1566.8501 2048 1365.9688 C 2048 1179.333 1906.6791 1024.8607 1725.5 1003.875 C 1725.8909 996.24628 1726.1875 988.56409 1726.1875 980.71875 C 1726.1875 683.74287 1484.58 442.09375 1187.5625 442.09375 z M 1023.375 1279.4062 A 40.964095 40.964095 0 0 0 983.03125 1320.9688 L 983.03125 2041.25 L 848.15625 1906.4062 A 40.964095 40.964095 0 1 0 790.25 1964.3125 L 995.03125 2169.125 A 40.964095 40.964095 0 0 0 1052.9688 2169.125 L 1257.75 1964.3125 A 40.964095 40.964095 0 1 0 1199.8438 1906.4062 L 1064.9688 2041.25 L 1064.9688 1320.9688 A 40.964095 40.964095 0 0 0 1023.375 1279.4062 z "
     id="path3003" /></svg>