<?xml version="1.0" encoding="UTF-8" standalone="no"?>
<!-- Generator: Adobe Illustrator 16.0.5, SVG Export Plug-In . SVG Version: 6.00 Build 0)  -->

<svg
   xmlns:dc="http://purl.org/dc/elements/1.1/"
   xmlns:cc="http://creativecommons.org/ns#"
   xmlns:rdf="http://www.w3.org/1999/02/22-rdf-syntax-ns#"
   xmlns:svg="http://www.w3.org/2000/svg"
   xmlns="http://www.w3.org/2000/svg"
   xmlns:sodipodi="http://sodipodi.sourceforge.net/DTD/sodipodi-0.dtd"
   xmlns:inkscape="http://www.inkscape.org/namespaces/inkscape"
   version="1.1"
   id="Brackets"
   x="0px"
   y="0px"
   width="2048"
   height="2048"
   viewBox="0 0 2048 2048"
   enable-background="new 0 0 512 512"
   xml:space="preserve"
   inkscape:version="0.48.5 r10040"
   sodipodi:docname="uF012-source.svg"><metadata
   id="metadata13"><rdf:RDF><cc:Work
       rdf:about=""><dc:format>image/svg+xml</dc:format><dc:type
         rdf:resource="http://purl.org/dc/dcmitype/StillImage" /></cc:Work></rdf:RDF></metadata><defs
   id="defs11" /><sodipodi:namedview
   pagecolor="#ffffff"
   bordercolor="#666666"
   borderopacity="1"
   objecttolerance="10"
   gridtolerance="10"
   guidetolerance="10"
   inkscape:pageopacity="0"
   inkscape:pageshadow="2"
   inkscape:window-width="2560"
   inkscape:window-height="1378"
   id="namedview9"
   showgrid="false"
   inkscape:zoom="0.4609375"
   inkscape:cx="-3.2542373"
   inkscape:cy="863.45763"
   inkscape:window-x="-8"
   inkscape:window-y="-8"
   inkscape:window-maximized="1"
   inkscape:current-layer="Brackets" />
<g
   id="g3"
   transform="matrix(4.5868272,0,0,4.5868272,-91.094387,100.91479)">
	<path
   d="m 114.799,69.493 c -13.651,18.396 -20.571,43.054 -20.571,73.284 v 35.185 c 0,17.099 -2.961,25.993 -5.457,30.471 -6.357,11.45 -19.459,18.202 -40.051,20.643 l -13.271,1.572 v 51.721 l 13.429,1.45 c 20.292,2.192 33.312,9.107 39.804,21.144 3.679,6.82 5.546,16.926 5.546,30.027 v 44.514 c 0,33.411 10.512,58.159 31.249,73.556 18.917,14.044 42.837,22.612 71.094,25.469 l 16.552,1.674 v -55.29 l -13.275,-1.569 c -10.512,-1.244 -20.014,-5.533 -29.038,-13.114 -7.625,-6.406 -11.489,-18.501 -11.489,-35.948 v -32.65 c 0,-22.942 -3.043,-40.929 -9.324,-55.043 -4.47,-9.927 -11.896,-21.096 -24.196,-29.903 10.425,-7.204 18.493,-16.933 24.135,-29.134 6.314,-13.659 9.385,-31.972 9.385,-55.985 v -24.188 c 0,-15.659 1.816,-27.705 5.394,-35.77 3.739,-8.396 11.402,-19.785 34.67,-21.808 l 13.738,-1.19 v -54.8 l -16.31,1.385 c -40.617,3.433 -67.444,14.655 -82.014,34.297 z"
   id="path5"
   inkscape:connector-curvature="0" />
	<path
   d="m 437.327,229.057 c -20.487,-2.192 -33.589,-8.987 -40.061,-20.771 -3.592,-6.539 -5.49,-17.021 -5.49,-30.311 v -35.179 c 0,-29.231 -5.083,-50.976 -15.468,-66.372 -15.87,-23.958 -45.122,-37.833 -86.951,-41.237 l -16.262,-1.322 v 54.748 l 13.748,1.186 c 23.558,2.035 31.106,12.761 34.716,20.612 2.437,5.337 5.342,16.078 5.342,36.916 v 24.172 c 0,24.158 3.068,42.547 9.396,56.233 4.441,9.561 11.853,20.345 24.191,28.875 -10.477,7.475 -18.653,17.544 -24.266,30.03 -6.273,13.932 -9.321,31.938 -9.321,55.051 v 32.628 c 0,15.813 -3.694,27.555 -10.975,34.889 -7.89,7.94 -17.621,12.573 -29.746,14.16 l -13.086,1.715 v 55.227 l 16.646,-1.786 c 28.008,-3.007 51.77,-11.423 70.616,-25.013 20.849,-15.033 31.419,-39.932 31.419,-74.004 V 334.99 c 0,-12.857 1.882,-22.917 5.551,-29.824 6.614,-12.285 19.676,-19.266 39.929,-21.337 l 13.512,-1.382 v -51.952 l -13.44,-1.438 z"
   id="path7"
   inkscape:connector-curvature="0" />
</g>
</svg>