<?xml version="1.0" encoding="UTF-8" standalone="no"?>
<svg xmlns:dc="http://purl.org/dc/elements/1.1/"
     xmlns:cc="http://creativecommons.org/ns#"
     xmlns:rdf="http://www.w3.org/1999/02/22-rdf-syntax-ns#"
     xmlns:svg="http://www.w3.org/2000/svg"
     xmlns="http://www.w3.org/2000/svg"
     xmlns:xlink="http://www.w3.org/1999/xlink"
     xmlns:sodipodi="http://sodipodi.sourceforge.net/DTD/sodipodi-0.dtd"
     xmlns:inkscape="http://www.inkscape.org/namespaces/inkscape"
     height="2048"
     width="2048"
     viewBox="0 0 2048 2048"
     id="svg4737"
     version="1.1"
     inkscape:version="0.48.5 r10040"
     sodipodi:docname="uF014-google-plus.svg">
    <metadata id="metadata4745">
        <rdf:RDF>
            <cc:Work rdf:about="">
                <dc:format>image/svg+xml</dc:format>
                <dc:type rdf:resource="http://purl.org/dc/dcmitype/StillImage" />
            </cc:Work>
        </rdf:RDF>
    </metadata>
    <defs id="defs4743">
        <linearGradient gradientTransform="matrix(29.135411,0,0,29.135411,160.44271,380.91979)"
                        inkscape:collect="always"
                        xlink:href="#SVGID_3_"
                        id="linearGradient3038"
                        gradientUnits="userSpaceOnUse"
                        x1="14.2192"
                        y1="5.6401"
                        x2="14.2192"
                        y2="79.640503" />
        <linearGradient id="SVGID_3_"
                        gradientUnits="userSpaceOnUse"
                        x1="14.2192"
                        y1="5.6401"
                        x2="14.2192"
                        y2="79.640503">
            <stop offset="0"
                  style="stop-color:#FFFFFF"
                  id="stop31" />
            <stop offset="1"
                  style="stop-color:#F9DAD6"
                  id="stop33" />
        </linearGradient>
        <linearGradient id="SVGID_1_"
                        gradientUnits="userSpaceOnUse"
                        x1="31.3335"
                        y1="68"
                        x2="31.3335"
                        y2="-4.164">
            <stop offset="0"
                  style="stop-color:#A5281A"
                  id="stop4" />
            <stop offset="1"
                  style="stop-color:#DA4A38"
                  id="stop6" />
        </linearGradient>
        <linearGradient gradientTransform="matrix(29.135411,0,0,29.135411,160.44271,380.91979)"
                        y2="-4.164"
                        x2="31.3335"
                        y1="68"
                        x1="31.3335"
                        gradientUnits="userSpaceOnUse"
                        id="linearGradient3064"
                        xlink:href="#SVGID_1_"
                        inkscape:collect="always" />
        <linearGradient inkscape:collect="always"
                        xlink:href="#SVGID_1_"
                        id="linearGradient3784"
                        gradientUnits="userSpaceOnUse"
                        gradientTransform="matrix(29.135411,0,0,29.135411,160.44271,380.91979)"
                        x1="31.3335"
                        y1="68"
                        x2="31.3335"
                        y2="-4.164" />
        <linearGradient id="SVGID_1_-1"
                        gradientUnits="userSpaceOnUse"
                        x1="31.3335"
                        y1="68"
                        x2="31.3335"
                        y2="-4.164">
            <stop offset="0"
                  style="stop-color:#A5281A"
                  id="stop4-7" />
            <stop offset="1"
                  style="stop-color:#DA4A38"
                  id="stop6-4" />
        </linearGradient>
        <mask maskUnits="userSpaceOnUse"
              x="-10.487"
              y="4"
              width="75.487"
              height="75.541"
              id="SVGID_2_">
            <g style="filter:url(#Adobe_OpacityMaskFilter)"
               id="g16">
                <path style="fill:#f5f5f5"
                      inkscape:connector-curvature="0"
                      d="m 64,56 c 0,4.418 -3.582,8 -8,8 H 8 C 3.582,64 0,60.418 0,56 V 8 C 0,3.582 3.582,0 8,0 h 48 c 4.418,0 8,3.582 8,8 v 48 z"
                      id="path18" />
            </g>
        </mask>
        <filter color-interpolation-filters="sRGB"
                id="Adobe_OpacityMaskFilter"
                filterUnits="userSpaceOnUse"
                x="-10.487"
                y="4"
                width="75.487"
                height="75.541">
            <feColorMatrix type="matrix"
                           values="1 0 0 0 0  0 1 0 0 0  0 0 1 0 0  0 0 0 1 0"
                           id="feColorMatrix13" />
        </filter>
        <linearGradient id="SVGID_3_-9"
                        gradientUnits="userSpaceOnUse"
                        x1="14.2192"
                        y1="5.6401"
                        x2="14.2192"
                        y2="79.640503">
            <stop offset="0"
                  style="stop-color:#FFFFFF"
                  id="stop31-4" />
            <stop offset="1"
                  style="stop-color:#F9DAD6"
                  id="stop33-8" />
        </linearGradient>
        <linearGradient gradientTransform="matrix(27.825328,0,0,27.825328,110.88757,394.45795)"
                        inkscape:collect="always"
                        xlink:href="#SVGID_3_-8"
                        id="linearGradient3036"
                        gradientUnits="userSpaceOnUse"
                        x1="14.2192"
                        y1="5.6401"
                        x2="14.2192"
                        y2="79.640503" />
        <linearGradient id="SVGID_3_-8"
                        gradientUnits="userSpaceOnUse"
                        x1="14.2192"
                        y1="5.6401"
                        x2="14.2192"
                        y2="79.640503">
            <stop offset="0"
                  style="stop-color:#FFFFFF"
                  id="stop31-2" />
            <stop offset="1"
                  style="stop-color:#F9DAD6"
                  id="stop33-4" />
        </linearGradient>
    </defs>
    <sodipodi:namedview pagecolor="#ffffff"
                        bordercolor="#666666"
                        borderopacity="1"
                        objecttolerance="10"
                        gridtolerance="10"
                        guidetolerance="10"
                        inkscape:pageopacity="0"
                        inkscape:pageshadow="2"
                        inkscape:window-width="1280"
                        inkscape:window-height="962"
                        id="namedview4741"
                        showgrid="true"
                        inkscape:zoom="0.236"
                        inkscape:cx="358.26091"
                        inkscape:cy="902.95184"
                        inkscape:window-x="-8"
                        inkscape:window-y="-8"
                        inkscape:window-maximized="1"
                        inkscape:current-layer="svg4737">
        <inkscape:grid type="xygrid"
                       id="grid2982"
                       empspacing="5"
                       visible="true"
                       enabled="true"
                       snapvisiblegridlinesonly="true"
                       spacingx="128px"
                       spacingy="128px" />
    </sodipodi:namedview>
    <path style="fill:#bb3627;fill-opacity:1;stroke:#000000;stroke-width:0.96968310999999996;stroke-opacity:1"
          d="M 0.5 256.5 L 0.5 855.40625 C 79.647476 664.76133 300.10037 519.65625 544.5 519.65625 L 1180.0938 519.65625 L 1018.8125 688.90625 L 899.75 688.90625 C 988.03983 758.99822 1039.5625 877.7984 1039.5625 1016.0625 C 1039.5625 1140.2468 976.09413 1255.5202 856 1349.375 C 755.41152 1427.926 740.21875 1457.6072 740.21875 1518.9062 C 740.21875 1565.4302 847.43626 1645.188 898.96875 1683.5312 L 912.21875 1693.4062 C 1118.6549 1848.2541 1152 1947.5296 1152 2125.25 C 1152.0073 2185.5973 1135.0852 2246.4924 1102.6875 2303.5 L 2047.5 2303.5 L 2047.5 256.5 L 0.5 256.5 z M 446.6875 645.1875 L 446.6875 645.46875 C 386.61262 645.46875 333.40281 669.95211 292.75 716.28125 C 234.01074 783.25687 208.9465 887.35282 224 1001.9375 C 250.01669 1199.6365 392.61009 1352.4152 555.75 1357.3125 L 563.59375 1357.3125 C 624.69817 1357.3125 676.31253 1335.2761 712.875 1293.5938 C 764.29623 1234.9658 784.41779 1140.2632 769.53125 1026.875 C 741.56683 814.01122 605.5971 650.05985 453.28125 645.46875 L 446.6875 645.1875 z M 0.5 1191.9375 L 0.5 1878.5625 C 107.34391 1786.0508 259.93122 1722.9375 442.5625 1722.9375 C 461.84546 1722.9375 480.30566 1722.66 498.53125 1722.4375 C 505.18151 1722.4375 511.78039 1722.1562 518.375 1722.1562 C 482.48033 1685.1763 451.34375 1643.3086 451.34375 1578.5312 C 451.34375 1545.7531 459.10917 1511.4871 474.46875 1476.3438 C 461.50214 1476.9836 449.99487 1477.2812 438.78125 1477.2812 C 225.20485 1477.2812 64.940292 1367.9883 0.5 1191.9375 z M 515.84375 1822 C 284.17008 1822 88.46875 1968.3845 88.46875 2141.625 C 88.46875 2200.9932 107.41196 2256.1511 140.84375 2303.5 L 899.4375 2303.5 C 924.29209 2260.8122 936.90625 2209.8854 936.90625 2151.0312 C 936.90625 2130.6076 934.43194 2109.8061 929.5625 2089.1875 C 908.16481 2005.4611 831.99609 1953.9414 726.59375 1882.625 C 709.25859 1870.8828 691.25378 1858.7303 672.75 1845.875 C 624.8904 1830.5989 574.12754 1822.5598 521.84375 1822.0312 L 515.84375 1822 z "
          id="rect3007" />
    <polygon transform="matrix(27.825328,0,0,27.825328,110.88757,394.45795)"
             points="48.5,21.5 38.5,21.5 38.5,15.5 48.5,15.5 48.5,5.5 54.5,5.5 54.5,15.5 64.5,15.5 64.5,21.5 54.5,21.5 54.5,31.5 48.5,31.5 "
             id="polygon24"
             style="fill:#ffffff" />
</svg>
