<?xml version="1.0" standalone="no"?>
<!DOCTYPE svg PUBLIC "-//W3C//DTD SVG 1.1//EN" "http://www.w3.org/Graphics/SVG/1.1/DTD/svg11.dtd">
<svg width="2048px"
     height="2048px"
     viewBox="0 0 2048 2048"
     version="1.1"
     xmlns="http://www.w3.org/2000/svg"
     xmlns:xlink="http://www.w3.org/1999/xlink"
     xml:space="preserve"
     style="fill-rule:evenodd;clip-rule:evenodd;stroke-linejoin:round;stroke-miterlimit:1.41421;">
<g id="Ebene_1">
<g>
<path d="M1278.45,1935.35C1274.15,1916.59 1271.26,1898.07 1269.15,1880.56L778.854,1880.56C774.399,1915.66 766.662,1955.36 752.906,1992.17C739.15,2029.14 719.766,2062.52 693.192,2086.2C666.618,2109.73 633.635,2124.5 587.521,2124.65L587.521,2168.66L1460.24,2168.66L1460.24,2124.65C1414.13,2124.5 1381.15,2109.73 1354.57,2086.2C1314.95,2050.87 1291.11,1992.57 1278.45,1935.35ZM1989.69,391.4L58.3066,391.4C26.1051,391.4 -2.27374e-13,417.505 -2.27374e-13,449.707L-2.27374e-13,1718.85C-2.27374e-13,1751.05 26.1051,1777.16 58.3066,1777.16L1989.69,1777.16C2021.89,1777.16 2048,1751.05 2048,1718.85L2048,449.707C2048,417.505 2021.89,391.4 1989.69,391.4ZM1906.45,1635.69L141.311,1635.69L141.311,532.946L1906.45,532.946L1906.45,1635.69Z" style="fill:black;fill-rule:nonzero;" />
        </g>
    </g>
</svg>
