<?xml version="1.0" encoding="UTF-8" standalone="no"?>
<!-- Generator: Adobe Illustrator 16.0.5, SVG Export Plug-In . SVG Version: 6.00 Build 0)  -->

<svg
   xmlns:dc="http://purl.org/dc/elements/1.1/"
   xmlns:cc="http://creativecommons.org/ns#"
   xmlns:rdf="http://www.w3.org/1999/02/22-rdf-syntax-ns#"
   xmlns:svg="http://www.w3.org/2000/svg"
   xmlns="http://www.w3.org/2000/svg"
   xmlns:sodipodi="http://sodipodi.sourceforge.net/DTD/sodipodi-0.dtd"
   xmlns:inkscape="http://www.inkscape.org/namespaces/inkscape"
   version="1.1"
   id="Ebene_1"
   x="0px"
   y="0px"
   width="2048"
   height="2048"
   viewBox="0 0 2048 2048"
   enable-background="new 0 0 40 40.25"
   xml:space="preserve"
   inkscape:version="0.48.4 r9939"
   sodipodi:docname="uF020-info-close.svg"><metadata
   id="metadata29"><rdf:RDF><cc:Work
       rdf:about=""><dc:format>image/svg+xml</dc:format><dc:type
         rdf:resource="http://purl.org/dc/dcmitype/StillImage" /><dc:title></dc:title></cc:Work></rdf:RDF></metadata><defs
   id="defs27" /><sodipodi:namedview
   pagecolor="#ffffff"
   bordercolor="#666666"
   borderopacity="1"
   objecttolerance="10"
   gridtolerance="10"
   guidetolerance="10"
   inkscape:pageopacity="0"
   inkscape:pageshadow="2"
   inkscape:window-width="1280"
   inkscape:window-height="1002"
   id="namedview25"
   showgrid="false"
   inkscape:zoom="0.18322981"
   inkscape:cx="404.4141"
   inkscape:cy="1572.7296"
   inkscape:window-x="-8"
   inkscape:window-y="-8"
   inkscape:window-maximized="1"
   inkscape:current-layer="Ebene_1" />
<path
   display="none"
   d="m 19.837,2036.229 h -3.576 l 1.992,-11.93 h 3.576 l -1.992,11.93 z m 2.138,-14.544 h -3.577 l 0.576,-3.384 h 3.576 l -0.575,3.384 z"
   id="path3"
   inkscape:connector-curvature="0"
   style="fill:#ffffff;display:none" />
<path
   d="M 1024,256 C 458.46253,256 0,714.46253 0,1280 0,1845.5375 458.46253,2304 1024,2304 1589.5375,2304 2048,1845.5375 2048,1280 2048,714.46253 1589.5375,256 1024,256 z m 435.9115,1354.0862 -67.7668,67.7668 -361.6123,-361.5554 -361.89624,361.5554 -67.7668,-67.7668 361.78264,-361.5554 -361.78264,-361.55549 67.8236,-67.76679 361.89624,361.55548 361.5555,-361.55548 67.7668,67.76679 -361.5555,361.55549 361.5555,361.5554 z"
   id="path5"
   inkscape:connector-curvature="0" />
</svg>