<svg xmlns="http://www.w3.org/2000/svg" height="2048" width="2048" viewBox="0 0 2048 2048">
    <title>Youtube</title>
    <defs>
        <linearGradient id="a">
            <stop offset="0" stop-color="#bc272a"/>
            <stop offset=".569" stop-color="#cc272c"/>
            <stop offset="1" stop-color="#d82b2f"/>
        </linearGradient>
    </defs>
    <path fill="#ca272c" stroke="#000" stroke-width=".256" stroke-linecap="round" d="M0 .128h2047.744v2047.744H0z"/>
    <path d="M1030.335 590.758c-145.168 0-359.663 8.793-423.867 10.94-69.735 6.235-95.55 9.89-133.742 42.573-58.194 51.756-72 153.452-72 309.04v148.073c0 177.59 23.584 267.812 62.417 300.812 44.825 38.453 74.38 41.527 104.228 46.135 11.59 1.754 93.603 16.283 457.537 16.283 226.95 0 422.022-10.72 442.186-13.314 32.417-4.092 78.984-10.03 114.15-49.105 52.06-59.17 62.42-157.4 62.42-299.71V929.99c0-92.117-5.132-222.306-62.42-276.812-43.396-36.736-59.29-47.13-149.09-51.648-25.397-1.254-247.012-10.77-401.818-10.77zM896 854l335.16 173.007L896 1201.37V854z"
          fill="#fff"/>
</svg>