<svg width="155" height="155" viewBox="0 0 155 155" xmlns="http://www.w3.org/2000/svg">
  <mask id="mask" fill="#fff">
    <path d="M.606 72.24C1.888 54.39 9.352 36.904 23 23.26 34.305 11.95 48.245 4.887 62.844 2.07h29.38c14.603 2.818 28.552 9.882 39.86 21.19 12.397 12.398 19.69 27.965 21.883 44.095v20.89c-2.192 16.13-9.486 31.696-21.884 44.096-13.564 13.563-30.923 21.02-48.656 22.368H71.656C53.92 153.358 36.564 145.903 23 132.34 9.353 118.693 1.888 101.205.606 83.357V72.24z"></path>
  </mask>
  <path d="M23.002 132.342c30.12 30.12 78.958 30.12 109.082 0 30.12-30.124 30.12-78.96 0-109.082-30.126-30.126-78.962-30.124-109.086-.002-30.122 30.124-30.122 78.956.004 109.084" fill="#004F94"></path>
  <path d="M45.48 47.103L1.045 91.537c1.09 9.4-.9 19.4-.336 35.753l62.58-62.376-17.81-17.81z" fill="#1C74A7" mask="url(#mask)"></path>
  <path d="M50.974 102.15l55.66 55.66c9.943-.356 30.015 1.22 34.428-1.165l-72.28-72.303-17.808 17.81z" fill="#F1827C" mask="url(#mask)"></path>
  <path d="M112.622 103.283l43.872-43.82c0-12.405.114-22.67-.244-35.428L94.804 85.46l17.818 17.823z" fill="#EB557D" mask="url(#mask)"></path>
  <path d="M107.196 48.14L61.502 2.447c-10.047-.325-24.48-.554-36.336-.2l64.22 63.702 17.81-17.81z" fill="#FFE398" mask="url(#mask)"></path>
  <path d="M62.494 64.117l2.815-2.81L49.51 45.515l-2.81 2.812 15.792 15.79z" fill="#FFF" mask="url(#mask)"></path>
  <path d="M36.418 79.113c1.234 1.236 1.123 3.346-.24 4.71-1.362 1.365-3.47 1.473-4.71.236L19.707 72.292c-1.234-1.235-1.13-3.34.234-4.71 1.365-1.363 3.475-1.47 4.71-.234L36.42 79.112z" fill="#E7BAA2" mask="url(#mask)"></path>
  <path d="M40.58 73.39c1.21 1.21 1.09 3.303-.276 4.67-1.366 1.366-3.457 1.487-4.67.275L24.083 66.783c-1.21-1.21-1.09-3.304.276-4.667 1.366-1.366 3.457-1.49 4.67-.278L40.582 73.39z" fill="#E7BAA2" mask="url(#mask)"></path>
  <path d="M46.3 69.227c1.24 1.235 1.135 3.343-.233 4.712-1.365 1.36-3.47 1.467-4.71.23L29.594 62.403c-1.235-1.234-1.13-3.345.235-4.707 1.367-1.367 3.473-1.467 4.71-.233L46.3 69.227z" fill="#E7BAA2" mask="url(#mask)"></path>
  <path d="M52.22 65.257c1.28 1.275 1.207 3.42-.16 4.785-1.362 1.363-3.506 1.433-4.784.16L35.143 58.064c-1.278-1.273-1.204-3.41.164-4.78 1.36-1.364 3.503-1.438 4.78-.163l12.134 12.137z" fill="#E7BAA2" mask="url(#mask)"></path>
  <path d="M28.06 80.648l9.745 9.74L57.067 70.1l-4.643-4.643-24.363 15.19z" fill="#E7BAA2" mask="url(#mask)"></path>
  <path d="M56.64 69.674s5.04 4.774 5.76 6.68c.92 2.435-.74 4.253-.687 4.636.053.378 4.68 4.768 4.68 4.768L53.246 99.195 49.37 95.39s-4.393 5.45-8.6 2.97c-3.675-2.16-6.633-4.305-6.633-4.305l3.665-3.667 7.255-9.632L56.64 69.674z" fill="#E7BAA2" mask="url(#mask)"></path>
  <path d="M65.176 82.32l-15.79 15.79 2.814 2.815 15.792-15.79-2.816-2.816z" fill="#FFF" mask="url(#mask)"></path>
  <path d="M89.587 117.84c1.234-1.234 3.344-1.134 4.714.234 1.364 1.363 1.47 3.477.233 4.713L82.77 134.552c-1.234 1.235-3.348 1.13-4.713-.236-1.368-1.366-1.47-3.478-.232-4.714l11.762-11.762z" fill="#E7BAA2" mask="url(#mask)"></path>
  <path d="M83.868 113.676c1.212-1.214 3.3-1.096 4.67.274 1.365 1.363 1.483 3.456.275 4.667L77.257 130.17c-1.213 1.213-3.304 1.09-4.667-.273-1.366-1.37-1.49-3.457-.276-4.67l11.554-11.55z" fill="#E7BAA2" mask="url(#mask)"></path>
  <path d="M79.7 107.954c1.238-1.233 3.345-1.136 4.71.232 1.366 1.363 1.468 3.475.235 4.713L72.88 124.657c-1.233 1.237-3.346 1.135-4.713-.234-1.364-1.363-1.465-3.473-.23-4.707L79.7 107.954z" fill="#E7BAA2" mask="url(#mask)"></path>
  <path d="M75.733 102.032c1.275-1.276 3.413-1.206 4.78.162 1.366 1.365 1.438 3.507.165 4.783L68.54 119.11c-1.273 1.278-3.418 1.204-4.783-.16-1.366-1.37-1.44-3.507-.16-4.784l12.136-12.134z" fill="#E7BAA2" mask="url(#mask)"></path>
  <path d="M91.124 126.192l9.74-9.744-20.288-19.26-4.643 4.64 15.19 24.364z" fill="#E7BAA2" mask="url(#mask)"></path>
  <path d="M80.152 97.612s4.772-5.038 6.675-5.76c2.437-.916 4.254.744 4.64.69.372-.053 3.856-3.746 3.856-3.746l13.875 12.694-3.334 3.395s5.446 4.39 2.975 8.598c-2.164 3.675-4.313 6.635-4.313 6.635l-3.663-3.66-9.633-7.262-11.078-11.584z" fill="#E7BAA2" mask="url(#mask)"></path>
  <path d="M95.606 86.267l-2.808 2.81 15.786 15.79 2.812-2.812-15.79-15.788z" fill="#FFF" mask="url(#mask)"></path>
  <path d="M101.527 80.613s-5.036-4.772-5.76-6.68c-.915-2.432.743-4.25.69-4.634-.047-.38-4.677-4.767-4.677-4.767l12.797-13.776 4.227 4.144s4.386-5.447 8.596-2.974a91.496 91.496 0 0 1 6.632 4.31L120.37 59.9l-7.26 9.634-11.583 11.08zM121.756 71.178c-1.236-1.234-1.132-3.344.236-4.71 1.366-1.365 3.47-1.473 4.71-.235l11.762 11.763c1.235 1.235 1.133 3.345-.236 4.713-1.366 1.364-3.473 1.466-4.71.23l-11.762-11.762z" fill="#E7BAA2" mask="url(#mask)"></path>
  <path d="M117.592 76.902c-1.217-1.218-1.094-3.31.272-4.676 1.367-1.364 3.454-1.484 4.67-.27l11.55 11.552c1.213 1.21 1.093 3.304-.27 4.667-1.368 1.368-3.46 1.49-4.676.274L117.592 76.9z" fill="#E7BAA2" mask="url(#mask)"></path>
  <path d="M111.868 81.067c-1.238-1.24-1.13-3.347.235-4.713 1.367-1.366 3.47-1.472 4.71-.234l11.763 11.765c1.236 1.233 1.132 3.343-.23 4.71-1.367 1.362-3.48 1.47-4.717.233l-11.762-11.76z" fill="#E7BAA2" mask="url(#mask)"></path>
  <path d="M105.948 85.032c-1.28-1.277-1.205-3.415.16-4.78 1.365-1.366 3.51-1.44 4.785-.167l12.136 12.14c1.274 1.27 1.2 3.418-.166 4.783-1.365 1.366-3.505 1.433-4.78.16l-12.136-12.136z" fill="#E7BAA2" mask="url(#mask)"></path>
  <path d="M130.107 69.64l-9.738-9.74-19.265 20.29 4.64 4.642 24.362-15.19z" fill="#E7BAA2" mask="url(#mask)"></path>
  <path d="M92.997 67.97l15.79-15.79-2.813-2.813-15.79 15.788 2.813 2.814z" fill="#FFF" mask="url(#mask)"></path>
  <path d="M67.297 23.87l-10.28 10.283L77.845 52.87l4.64-4.642L67.298 23.87z" fill="#E7BAA2" mask="url(#mask)"></path>
  <path d="M68.556 32.478c-1.238 1.236-3.345 1.13-4.713-.237-1.366-1.362-1.474-3.47-.235-4.71l11.76-11.762c1.24-1.236 3.35-1.132 4.714.234 1.366 1.366 1.472 3.475.234 4.715l-11.76 11.76z" fill="#E7BAA2" mask="url(#mask)"></path>
  <path d="M74.277 36.64c-1.214 1.213-3.305 1.095-4.67-.273-1.368-1.365-1.49-3.452-.274-4.67l11.55-11.548c1.212-1.214 3.305-1.09 4.666.27 1.367 1.368 1.49 3.457.275 4.67L74.277 36.64z" fill="#E7BAA2" mask="url(#mask)"></path>
  <path d="M78.44 42.366c-1.233 1.237-3.345 1.13-4.708-.235-1.367-1.364-1.472-3.47-.236-4.71L85.26 25.657c1.235-1.237 3.347-1.133 4.71.235 1.367 1.36 1.47 3.473.234 4.71L78.44 42.366z" fill="#E7BAA2" mask="url(#mask)"></path>
  <path d="M82.408 48.286c-1.275 1.275-3.417 1.203-4.785-.165-1.36-1.364-1.43-3.504-.16-4.777l12.14-12.138c1.273-1.277 3.413-1.203 4.78.16 1.366 1.367 1.436 3.507.16 4.784L82.407 48.285zM77.99 52.703s-4.773 5.04-6.68 5.758c-2.433.922-4.342-.82-4.723-.77l-2.45 2.454L50.862 46.87l1.417-1.438s-5.45-4.393-2.978-8.6c2.163-3.675 4.308-6.63 4.308-6.63l3.667 3.665 9.632 7.256 11.08 11.58z" fill="#E7BAA2" mask="url(#mask)"></path>
</svg>
