<svg width="155" height="155" viewBox="0 0 155 155" xmlns="http://www.w3.org/2000/svg">
  <path d="M22.595 131.676c30.12 30.12 78.958 30.12 109.082 0 30.12-30.124 30.12-78.96 0-109.082C101.55-7.532 52.717-7.53 22.59 22.592c-30.12 30.124-30.12 78.956.005 109.084" fill="#004F94"></path>
  <path d="M38.614 123.82c7.554-1.376 15.362-3.632 18.954-13.024 0-.126-.122-.38-.373-.38-3.22 1.88-7.433 2.128-8.794 2.128-.374 0-.496-.125-.496-.503-.122-1.375-.497-5.634.993-9.014.124-.124-.122-.377-.374-.377-8.793 4.76-10.156 12.77-10.65 20.54.12.383.488.63.74.63z" fill="#FF827D"></path>
  <path d="M28.948 86.25c-.373.502 0 1.252.742.874 9.787-3.254 19.446-1.755 22.794-1.005.742.124.994.874.866 1.377l-2.227 8.524c-.122.504.122 1.253.742 1.377 1.36.503 3.838 1.63 6.194 3.634 2.354 2.258 3.837 4.507 4.334 5.883.375.503.866.752 1.36.503l8.053-3.255c.743-.122 1.24 0 1.614.75.995 3.132 3.84 12.904 1.614 23.046-.124.503.496 1.006.993.503 4.71-5.39 14-17.41 13.253-35.067 0-.38.122-.503.373-.75 24.156-21.29 27.75-45.96 28.118-59.24-12.884 1.878-36.917 8.387-55 35.066-.376.123-.498.378-.873.378-17.342 1.376-28.116 12.145-32.95 17.4zm24.402 1.247l-2.227 8.524c-.122.504.122 1.253.742 1.377 1.36.503 3.838 1.63 6.194 3.634 2.354 2.258 3.837 4.507 4.334 5.883.375.503.866.752 1.36.503l8.053-3.255c.743-.122 17.595-11.27 17.846-11.517 24.156-21.29 27.75-45.96 28.118-59.24-12.884 1.878-36.917 8.387-55 35.066-.376.123-9.292 18.524-9.42 19.027z" fill="#FFE392"></path>
  <path d="M53.35 87.497l-2.227 8.524c-.122.504.122 1.253.742 1.377 1.36.503 3.838 1.63 6.194 3.634 2.354 2.258 3.837 4.507 4.334 5.883.375.503.866.752 1.36.503l8.053-3.255c.743-.122 17.595-11.27 17.846-11.517 24.156-21.29 27.75-45.96 28.118-59.24-12.884 1.878-36.917 8.387-55 35.066-.376.123-9.292 18.524-9.42 19.027z" fill="#DBEBF7"></path>
  <path d="M92.246 62.207c3.594 3.255 3.962 9.014.743 12.77-3.22 3.635-8.918 4.007-12.634.752-3.594-3.257-3.96-9.016-.742-12.773 3.342-3.757 9.046-4.128 12.632-.75z" fill="#004F94"></path>
</svg>
