<svg width="155" height="155" viewBox="0 0 155 155" xmlns="http://www.w3.org/2000/svg">
  <path d="M131.677 131.676c30.12-30.124 30.12-78.96 0-109.082C101.55-7.532 52.717-7.53 22.59 22.592c-30.12 30.124-30.12 78.956.005 109.084 30.12 30.12 78.958 30.12 109.082 0z" fill="#004F94"></path>
  <path d="M38.67 115.6c21.242 21.244 55.686 21.244 76.932 0 21.243-21.245 21.243-55.687 0-76.932-21.247-21.247-55.69-21.246-76.936 0-21.244 21.245-21.244 55.685.003 76.933" stroke="#DBEBF7" stroke-width="11" fill="#004F94"></path>
  <path d="M54.507 99.76c12.496 12.497 32.757 12.497 45.255 0 12.496-12.496 12.496-32.756 0-45.253-12.498-12.498-32.76-12.498-45.256 0-12.497 12.497-12.497 32.755 0 45.254" stroke="#DBEBF7" stroke-width="11" fill="#004F94"></path>
  <path d="M72.273 81.995a6.875 6.875 0 1 0 9.722-9.723 6.875 6.875 0 0 0-9.722 9.723" stroke="#DBEBF7" stroke-width="14" fill="#004F94"></path>
  <path d="M73.766 75.93c-1.202 1.2-.82 3.522.38 4.72 1.196 1.198 3.522 1.58 4.72.38l35.686-30.444c4.206-.966 9.365-3.567 10.652-4.854l14.025-14.024-14.605-2.325L122.3 14.78l-15.024 15.024c-1.503 1.503-3.105 6.96-4.07 11.443L73.766 75.93z" fill="#004F94"></path>
  <path d="M75.96 75.835c-1.148 1.15-1.74 2.413-.593 3.56 1.144 1.144 2.413.553 3.56-.594l31.25-30.064c4.022-.924 9.91-3.41 11.14-4.64l13.41-13.41-12.05.645.646-12.05-13.41 13.41c-1.437 1.437-2.97 7.61-3.89 11.898L75.96 75.835z" fill="#FF827D"></path>
</svg>
