<svg id="standards" xmlns="http://www.w3.org/2000/svg" xmlns:xlink="http://www.w3.org/1999/xlink" viewBox="0 0 286 57"><defs><style>.cls-1{fill:#005497;}.cls-2{clip-path:url(#clip-path);}.cls-3{fill:#f31048;}.cls-4{fill:#fff;}</style><clipPath id="clip-path" transform="translate(-99.21 -113.39)"><rect class="cls-1" x="99.21" y="113.39" width="56.69" height="56.69"/></clipPath></defs><title>logo_en</title><path class="cls-1" d="M294.35,161.31c0.23,1.41,1.89,1.95,3.14,1.95s2.52-.39,2.52-1.72c0-1.11-1.13-1.41-2-1.58l-1.7-.31c-1.6-.31-3.05-1-3.05-2.89,0-2.15,2-3.05,3.89-3.05s3.61,0.7,4.12,2.62l-1.48.31a2.61,2.61,0,0,0-2.66-1.64c-0.94,0-2.21.37-2.21,1.52s0.94,1.37,1.87,1.52l1.52,0.27a5.66,5.66,0,0,1,2.17.72,2.79,2.79,0,0,1,1.25,2.36c0,2.36-2.29,3.22-4.32,3.22s-4-.84-4.57-3Z" transform="translate(-99.21 -113.39)"/><path class="cls-1" d="M309.47,164.46l-1.54.12c-2.28,0-3-1.33-3-3.4v-6h-1.84v-1.27H305v-2.58l1.6-.16v2.75h2.32v1.27h-2.32v6.29c0,1.21.35,1.84,1.66,1.84l1.23-.1v1.27Z" transform="translate(-99.21 -113.39)"/><path class="cls-1" d="M318.21,157.93v-0.45c0-1.82-.8-2.52-2.64-2.52-1.31,0-2.56.41-2.85,1.84l-1.5-.25c0.29-2.17,2.58-2.85,4.49-2.85a4.07,4.07,0,0,1,3.2,1,4.78,4.78,0,0,1,.86,3.42v4a7.66,7.66,0,0,0,.23,2.19h-1.6l-0.18-1.95a3.73,3.73,0,0,1-3.65,2.15c-1.95,0-3.63-1.09-3.63-3.16a3.2,3.2,0,0,1,1.93-2.89,9.73,9.73,0,0,1,4-.62h1.35Zm0,1.21h-1.33c-1.64,0-4.22.23-4.22,2.38,0,1.29,1.11,1.82,2.25,1.82a3.39,3.39,0,0,0,3.3-3.53v-0.68Z" transform="translate(-99.21 -113.39)"/><path class="cls-1" d="M324.67,155.9h0a3.55,3.55,0,0,1,3.24-2.19,3.28,3.28,0,0,1,3,1.62,6.87,6.87,0,0,1,.49,3.3v5.76h-1.6v-6.43a4.06,4.06,0,0,0-.29-1.93,2.13,2.13,0,0,0-1.78-.94,2.8,2.8,0,0,0-2.15,1,4.13,4.13,0,0,0-.82,2.81v5.45h-1.6V154h1.52v1.93Z" transform="translate(-99.21 -113.39)"/><path class="cls-1" d="M341.41,150.32H343v14.06h-1.46v-1.84h0a3.43,3.43,0,0,1-3.26,2,3.71,3.71,0,0,1-3.18-1.76,6.51,6.51,0,0,1-1-3.65c0-2.6,1.29-5.47,4.3-5.47a3.53,3.53,0,0,1,3,1.68v-5.06Zm0,7.89a3.52,3.52,0,0,0-.53-2.07,2.88,2.88,0,0,0-2.34-1.17,2.48,2.48,0,0,0-2.11,1.31,5.37,5.37,0,0,0-.61,2.71c0,1.7.45,4.26,2.68,4.26A2.89,2.89,0,0,0,340.8,162a3.36,3.36,0,0,0,.62-2.13v-1.66Z" transform="translate(-99.21 -113.39)"/><path class="cls-1" d="M353,157.93v-0.45c0-1.82-.8-2.52-2.64-2.52-1.31,0-2.56.41-2.85,1.84l-1.5-.25c0.29-2.17,2.58-2.85,4.49-2.85a4.08,4.08,0,0,1,3.2,1,4.78,4.78,0,0,1,.86,3.42v4a7.66,7.66,0,0,0,.23,2.19h-1.6L353,162.44a3.73,3.73,0,0,1-3.65,2.15c-1.95,0-3.63-1.09-3.63-3.16a3.2,3.2,0,0,1,1.93-2.89,9.73,9.73,0,0,1,4-.62H353Zm0,1.21h-1.33c-1.64,0-4.22.23-4.22,2.38,0,1.29,1.11,1.82,2.25,1.82a3.39,3.39,0,0,0,3.3-3.53v-0.68Z" transform="translate(-99.21 -113.39)"/><path class="cls-1" d="M359.39,154v2.44h0c0.49-1.41,1.37-2.73,3.05-2.73l0.59,0v1.54h-0.33a2.93,2.93,0,0,0-2.68,1.64,4.13,4.13,0,0,0-.51,2.23v5.25H358V154h1.43Z" transform="translate(-99.21 -113.39)"/><path class="cls-1" d="M371.65,150.32h1.6v14.06h-1.46v-1.84h0a3.43,3.43,0,0,1-3.26,2,3.72,3.72,0,0,1-3.18-1.76,6.52,6.52,0,0,1-1-3.65c0-2.6,1.29-5.47,4.3-5.47a3.52,3.52,0,0,1,3,1.68v-5.06Zm0,7.89a3.52,3.52,0,0,0-.53-2.07,2.88,2.88,0,0,0-2.34-1.17,2.47,2.47,0,0,0-2.11,1.31,5.36,5.36,0,0,0-.62,2.71c0,1.7.45,4.26,2.68,4.26A2.89,2.89,0,0,0,371,162a3.37,3.37,0,0,0,.61-2.13v-1.66Z" transform="translate(-99.21 -113.39)"/><path class="cls-1" d="M377.58,161.31c0.22,1.41,1.88,1.95,3.13,1.95s2.52-.39,2.52-1.72c0-1.11-1.13-1.41-2-1.58l-1.7-.31c-1.6-.31-3.05-1-3.05-2.89,0-2.15,2-3.05,3.89-3.05s3.61,0.7,4.12,2.62l-1.47.31a2.62,2.62,0,0,0-2.66-1.64c-0.94,0-2.21.37-2.21,1.52S379,157.89,380,158l1.52,0.27a5.66,5.66,0,0,1,2.17.72,2.78,2.78,0,0,1,1.25,2.36c0,2.36-2.29,3.22-4.32,3.22s-4-.84-4.57-3Z" transform="translate(-99.21 -113.39)"/><rect class="cls-1" width="56.69" height="56.69"/><g class="cls-2"><polygon class="cls-3" points="35.13 28 56.69 0 53.51 0 31.88 28 35.13 28"/><path class="cls-4" d="M142.53,153.88c1,2.76,3,10,3.83,10.53H141a8.91,8.91,0,0,0-.25-1.89c-0.23-.82-2.16-7-2.16-7h-8.49l-1.34,1.89s1.6,5,1.7,5.27c0.17,0.44.94,1.77,0.94,1.77H126.3s-0.13-.77-0.18-1.09-0.49-1.67-.49-1.67a15.2,15.2,0,0,0-1.48,1.86c-0.32.59-.46,0.89-0.46,0.89h-4s-0.13-.77-0.18-1.09-0.53-1.78-.53-1.78a20.23,20.23,0,0,0-1.44,2c-0.32.59-.45,0.92-0.45,0.92h-4s1.12-1.07,1.51-1.52c0.66-.78,3.12-4,3.12-4l-1-3.41h-8.43s-4.8,6.31-5,6.51a19.2,19.2,0,0,0-1.62,2.42h-2.5v-1.59l0.1-.1c0.08-.06,3.64-4.48,6.92-8.85,2.94-3.81,5.71-7.51,5.95-7.86a24.67,24.67,0,0,0,1.43-2.69H118a19.48,19.48,0,0,0,.26,2.1c0.11,0.36,2.77,9.07,2.83,9.17l1.47-1.88L120,145a13.75,13.75,0,0,0-.78-1.67h5.09a4.43,4.43,0,0,0,.17,1.38c0.21,0.64,1.3,4.57,1.3,4.57s3.47-4.35,3.67-4.66a2.82,2.82,0,0,0,.43-1.29h4.24a13.22,13.22,0,0,0-2.14,2.29l-4.93,6.27,0.58,2c0.05,0.19.09,0.32,0.09,0.33l0.27-.33c1.16-1.46,6.41-8.35,6.73-8.94a13.14,13.14,0,0,0,.86-1.61h4.14a10.66,10.66,0,0,0,.22,1.58Zm-6.29-6.52a56,56,0,0,1-4.18,5.66h5.66s-1.1-3.38-1.29-4.14a6,6,0,0,1-.11-1.48C136.32,147.32,136.3,147.21,136.24,147.36Zm-21.75,0A56,56,0,0,1,110.3,153H116s-1.1-3.38-1.29-4.14a6,6,0,0,1-.11-1.48C114.56,147.32,114.55,147.21,114.48,147.36Zm8.52,13.2,1.56-2.14c-0.14-.15-1-2.82-1-2.82l-1.51,2Z" transform="translate(-99.21 -113.39)"/></g><path class="cls-1" d="M173.58,156.12c0.35-1.46,1.11-2.48,2.73-2.36l0.55,0v3.67a3.29,3.29,0,0,0-.78-0.1,1.74,1.74,0,0,0-1.66.72,3.77,3.77,0,0,0-.29,1.8v4.55h-4.06V154h3.46v2.15h0Z" transform="translate(-99.21 -113.39)"/><path class="cls-1" d="M188.85,160.93c-0.64,2.54-2.89,3.71-5.37,3.71a6.17,6.17,0,0,1-4.22-1.37,5.14,5.14,0,0,1-1.7-3.93,5.72,5.72,0,0,1,1.52-4,5.82,5.82,0,0,1,4.16-1.62c3.48,0,5.61,2.25,5.61,5.7V160h-7c0,1.13.37,1.95,1.6,1.95a1.4,1.4,0,0,0,1.6-1.27Zm-4.1-3c0-1-.33-1.8-1.48-1.8s-1.45.84-1.45,1.8h2.93Z" transform="translate(-99.21 -113.39)"/><path class="cls-1" d="M196.58,164.44V163h0a2.8,2.8,0,0,1-2.79,1.6c-3,0-4.06-2.81-4.06-5.39s1-5.49,4.18-5.49a3.51,3.51,0,0,1,2.5,1.07v-4.45h4.06v14.06h-3.85Zm-0.2-6.5a1.94,1.94,0,0,0-.25-1.23,1.1,1.1,0,0,0-.88-0.41,1.14,1.14,0,0,0-1.15,1.11,10.46,10.46,0,0,0-.21,1.95c0,0.92.06,2.56,1.33,2.56a1,1,0,0,0,.9-0.53,2.14,2.14,0,0,0,.25-1.33v-2.11Z" transform="translate(-99.21 -113.39)"/><path class="cls-1" d="M213,160.93c-0.64,2.54-2.89,3.71-5.37,3.71a6.17,6.17,0,0,1-4.22-1.37,5.14,5.14,0,0,1-1.7-3.93,5.72,5.72,0,0,1,1.52-4,5.82,5.82,0,0,1,4.16-1.62c3.48,0,5.61,2.25,5.61,5.7V160h-7c0,1.13.37,1.95,1.6,1.95a1.4,1.4,0,0,0,1.6-1.27Zm-4.1-3c0-1-.33-1.8-1.48-1.8S206,157,206,158h2.93Z" transform="translate(-99.21 -113.39)"/><path class="cls-1" d="M219,164.44H215V156.9H213.5v-2.58H215v-0.14a4.18,4.18,0,0,1,.76-2.85,4,4,0,0,1,3.28-1.15,25.09,25.09,0,0,1,3,.27V153a15.85,15.85,0,0,0-2.09-.16c-0.74,0-1,.49-0.94,1.47h2.58v2.58H219v7.54Z" transform="translate(-99.21 -113.39)"/><path class="cls-1" d="M226.76,153H222.7v-2.79h4.06V153Zm0,11.48H222.7V154h4.06v10.47Z" transform="translate(-99.21 -113.39)"/><path class="cls-1" d="M228.73,154h3.83v1.48h0a3,3,0,0,1,3-1.68,3.43,3.43,0,0,1,2.73,1.09A5.1,5.1,0,0,1,239,158v6.46H234.9v-6.35c0-.63,0-1.52-0.88-1.52-1.13,0-1.23,1-1.23,1.82v6h-4.06V154Z" transform="translate(-99.21 -113.39)"/><path class="cls-1" d="M244.8,153h-4.06v-2.79h4.06V153Zm0,11.48h-4.06V154h4.06v10.47Z" transform="translate(-99.21 -113.39)"/><path class="cls-1" d="M246.77,154h3.83v1.48h0a3,3,0,0,1,3-1.68,3.43,3.43,0,0,1,2.72,1.09A5.1,5.1,0,0,1,257,158v6.46h-4.06v-6.35c0-.63,0-1.52-0.88-1.52-1.13,0-1.23,1-1.23,1.82v6h-4.06V154Z" transform="translate(-99.21 -113.39)"/><path class="cls-1" d="M260.4,159.46a2.45,2.45,0,0,1-1.7-2.42c0-2.71,3-3.28,5.12-3.28a7.76,7.76,0,0,1,1.95.21c0.22-1.52,1-2.46,2.6-2.46a12.21,12.21,0,0,1,1.46.08l-0.1,2.81a6,6,0,0,0-1,0,1.29,1.29,0,0,0-1.15.39,3,3,0,0,1,1.17,2.36c0,2.62-2.68,3.2-4.79,3.2-0.35,0-.59,0-0.94,0-0.63,0-1,.14-1,0.51s0.35,0.45,1.13.49l2.87,0.12a4.62,4.62,0,0,1,2.6.72,3.26,3.26,0,0,1,1.21,2.6,3,3,0,0,1-2.34,2.89,13.43,13.43,0,0,1-4,.45c-1.74,0-5.68-.12-5.68-2.58a2.08,2.08,0,0,1,1.52-2,2,2,0,0,1-1-1.66A2.63,2.63,0,0,1,260.4,159.46Zm1.66,6.27a8.39,8.39,0,0,0,2,.18c0.62,0,2.13.1,2.13-.82,0-.7-0.7-0.66-1.21-0.68-0.92,0-1.82-.12-2.75-0.12-0.47,0-1,0-1,.66A0.84,0.84,0,0,0,262.06,165.73Zm3-8.63a1.23,1.23,0,1,0-2.46,0,1.14,1.14,0,0,0,1.29,1.27A1.13,1.13,0,0,0,265,157.1Z" transform="translate(-99.21 -113.39)"/><polygon class="cls-3" points="177.12 54.35 190.6 36.85 187.38 36.85 173.86 54.35 177.12 54.35"/></svg>
