<?xml version="1.0" encoding="UTF-8" standalone="no"?>
<!-- Generator: Adobe Illustrator 16.0.5, SVG Export Plug-In . SVG Version: 6.00 Build 0)  -->

<svg
   xmlns:dc="http://purl.org/dc/elements/1.1/"
   xmlns:cc="http://creativecommons.org/ns#"
   xmlns:rdf="http://www.w3.org/1999/02/22-rdf-syntax-ns#"
   xmlns:svg="http://www.w3.org/2000/svg"
   xmlns="http://www.w3.org/2000/svg"
   xmlns:xlink="http://www.w3.org/1999/xlink"
   xmlns:sodipodi="http://sodipodi.sourceforge.net/DTD/sodipodi-0.dtd"
   xmlns:inkscape="http://www.inkscape.org/namespaces/inkscape"
   version="1.1"
   id="Ebene_1"
   x="0px"
   y="0px"
   width="64"
   height="65"
   viewBox="0 0 64 65"
   enable-background="new 0 0 217.333 219.667"
   xml:space="preserve"
   inkscape:version="0.48.5 r10040"
   sodipodi:docname="axa-world.svg"><metadata
   id="metadata278"><rdf:RDF><cc:Work
       rdf:about=""><dc:format>image/svg+xml</dc:format><dc:type
         rdf:resource="http://purl.org/dc/dcmitype/StillImage" /></cc:Work></rdf:RDF></metadata><defs
   id="defs276" /><sodipodi:namedview
   pagecolor="#ffffff"
   bordercolor="#666666"
   borderopacity="1"
   objecttolerance="10"
   gridtolerance="10"
   guidetolerance="10"
   inkscape:pageopacity="0"
   inkscape:pageshadow="2"
   inkscape:window-width="1280"
   inkscape:window-height="962"
   id="namedview274"
   showgrid="false"
   fit-margin-top="0"
   fit-margin-left="0"
   fit-margin-right="0"
   fit-margin-bottom="0"
   inkscape:zoom="2.8284271"
   inkscape:cx="48.640202"
   inkscape:cy="39.819379"
   inkscape:window-x="-8"
   inkscape:window-y="-8"
   inkscape:window-maximized="1"
   inkscape:current-layer="g3" />
<g
   id="g3"
   transform="translate(-2.6199999,-152.61698)">
	<defs
   id="defs5">
		<rect
   id="SVGID_1_"
   width="217.33299"
   height="219.66701"
   x="0"
   y="0" />
	</defs>
	<clipPath
   id="SVGID_2_">
		<use
   xlink:href="#SVGID_1_"
   overflow="visible"
   id="use9"
   style="overflow:visible"
   x="0"
   y="0"
   width="217.33299"
   height="219.66701" />
	</clipPath>
	<g
   clip-path="url(#SVGID_2_)"
   id="g11"
   transform="matrix(0.30093996,0,0,0.30185806,1.8315372,151.92754)">
		<defs
   id="defs13">
			<rect
   id="SVGID_3_"
   x="0.308"
   width="217.02499"
   height="219.487"
   y="0" />
		</defs>
		<clipPath
   id="SVGID_4_">
			<use
   xlink:href="#SVGID_3_"
   overflow="visible"
   id="use17"
   style="overflow:visible"
   x="0"
   y="0"
   width="217.33299"
   height="219.66701" />
		</clipPath>
	</g>
	<g
   clip-path="url(#SVGID_2_)"
   id="g19"
   transform="matrix(0.30093996,0,0,0.30185806,1.8315372,151.92754)">
		<defs
   id="defs21">
			<rect
   id="SVGID_5_"
   x="2.6199999"
   y="2.2839999"
   width="212.66701"
   height="215.33299" />
		</defs>
		<clipPath
   id="SVGID_6_">
			<use
   xlink:href="#SVGID_5_"
   overflow="visible"
   id="use25"
   style="overflow:visible"
   x="0"
   y="0"
   width="217.33299"
   height="219.66701" />
		</clipPath>
		
			<linearGradient
   id="SVGID_7_"
   gradientUnits="userSpaceOnUse"
   x1="0.00048828131"
   y1="219.66701"
   x2="1.0005"
   y2="219.66701"
   gradientTransform="matrix(0,-215.3335,-215.3335,0,47410.66,217.667)">
			<stop
   offset="0"
   style="stop-color:#BBDEEF"
   id="stop28" />
			<stop
   offset="1"
   style="stop-color:#CAE7EC"
   id="stop30" />
		</linearGradient>
		<rect
   x="2.6199999"
   y="2.2839999"
   clip-path="url(#SVGID_6_)"
   width="212.66701"
   height="215.33299"
   id="rect32"
   style="fill:url(#SVGID_7_)" />
	</g>
	
	<rect
   x="166.14"
   y="37.333"
   clip-path="url(#SVGID_2_)"
   width="7.1630001"
   height="7.3169999"
   id="rect36"
   transform="matrix(0.30093996,0,0,0.30185806,1.8315372,151.92754)"
   style="fill:#223a7b" />
	<rect
   x="156.96201"
   y="37.333"
   clip-path="url(#SVGID_2_)"
   width="7.1630001"
   height="7.3169999"
   id="rect38"
   transform="matrix(0.30093996,0,0,0.30185806,1.8315372,151.92754)"
   style="fill:#223a7b" />
	<rect
   x="147.66701"
   y="37.333"
   clip-path="url(#SVGID_2_)"
   width="7.1630001"
   height="7.3169999"
   id="rect40"
   transform="matrix(0.30093996,0,0,0.30185806,1.8315372,151.92754)"
   style="fill:#223a7b" />
	<rect
   x="138.521"
   y="37.333"
   clip-path="url(#SVGID_2_)"
   width="7.1620002"
   height="7.3169999"
   id="rect42"
   transform="matrix(0.30093996,0,0,0.30185806,1.8315372,151.92754)"
   style="fill:#223a7b" />
	<rect
   x="92.667"
   y="37.333"
   clip-path="url(#SVGID_2_)"
   width="7.1630001"
   height="7.3169999"
   id="rect44"
   transform="matrix(0.30093996,0,0,0.30185806,1.8315372,151.92754)"
   style="fill:#223a7b" />
	<rect
   x="83.355003"
   y="37.333"
   clip-path="url(#SVGID_2_)"
   width="7.1630001"
   height="7.3169999"
   id="rect46"
   transform="matrix(0.30093996,0,0,0.30185806,1.8315372,151.92754)"
   style="fill:#223a7b" />
	<rect
   x="83.292"
   y="46.583"
   clip-path="url(#SVGID_2_)"
   width="7.1630001"
   height="7.3169999"
   id="rect48"
   transform="matrix(0.30093996,0,0,0.30185806,1.8315372,151.92754)"
   style="fill:#223a7b" />
	<rect
   x="92.667"
   y="28"
   clip-path="url(#SVGID_2_)"
   width="7.1630001"
   height="7.3169999"
   id="rect50"
   transform="matrix(0.30093996,0,0,0.30185806,1.8315372,151.92754)"
   style="fill:#223a7b" />
	<rect
   x="83.417"
   y="28"
   clip-path="url(#SVGID_2_)"
   width="7.1630001"
   height="7.3169999"
   id="rect52"
   transform="matrix(0.30093996,0,0,0.30185806,1.8315372,151.92754)"
   style="fill:#223a7b" />
	<rect
   x="74.167"
   y="37.333"
   clip-path="url(#SVGID_2_)"
   width="7.1630001"
   height="7.3169999"
   id="rect54"
   transform="matrix(0.30093996,0,0,0.30185806,1.8315372,151.92754)"
   style="fill:#223a7b" />
	<rect
   x="64.916"
   y="37.333"
   clip-path="url(#SVGID_2_)"
   width="7.1630001"
   height="7.3169999"
   id="rect56"
   transform="matrix(0.30093996,0,0,0.30185806,1.8315372,151.92754)"
   style="fill:#223a7b" />
	<rect
   x="55.638"
   y="37.333"
   clip-path="url(#SVGID_2_)"
   width="7.1630001"
   height="7.3169999"
   id="rect58"
   transform="matrix(0.30093996,0,0,0.30185806,1.8315372,151.92754)"
   style="fill:#223a7b" />
	<rect
   x="64.929001"
   y="28"
   clip-path="url(#SVGID_2_)"
   width="7.1630001"
   height="7.3169999"
   id="rect60"
   transform="matrix(0.30093996,0,0,0.30185806,1.8315372,151.92754)"
   style="fill:#223a7b" />
	<rect
   x="55.655998"
   y="28"
   clip-path="url(#SVGID_2_)"
   width="7.1630001"
   height="7.3169999"
   id="rect62"
   transform="matrix(0.30093996,0,0,0.30185806,1.8315372,151.92754)"
   style="fill:#223a7b" />
	<rect
   x="46.433998"
   y="37.333"
   clip-path="url(#SVGID_2_)"
   width="7.1630001"
   height="7.3169999"
   id="rect64"
   transform="matrix(0.30093996,0,0,0.30185806,1.8315372,151.92754)"
   style="fill:#223a7b" />
	<rect
   x="64.863998"
   y="46.583"
   clip-path="url(#SVGID_2_)"
   width="7.1630001"
   height="7.3169999"
   id="rect66"
   transform="matrix(0.30093996,0,0,0.30185806,1.8315372,151.92754)"
   style="fill:#223a7b" />
	<rect
   x="55.620998"
   y="46.583"
   clip-path="url(#SVGID_2_)"
   width="7.1630001"
   height="7.3169999"
   id="rect68"
   transform="matrix(0.30093996,0,0,0.30185806,1.8315372,151.92754)"
   style="fill:#223a7b" />
	<rect
   x="46.408001"
   y="46.583"
   clip-path="url(#SVGID_2_)"
   width="7.1630001"
   height="7.3169999"
   id="rect70"
   transform="matrix(0.30093996,0,0,0.30185806,1.8315372,151.92754)"
   style="fill:#223a7b" />
	<rect
   x="37.386002"
   y="46.583"
   clip-path="url(#SVGID_2_)"
   width="7.1630001"
   height="7.3169999"
   id="rect72"
   transform="matrix(0.30093996,0,0,0.30185806,1.8315372,151.92754)"
   style="fill:#223a7b" />
	<rect
   x="28.23"
   y="46.583"
   clip-path="url(#SVGID_2_)"
   width="7.1630001"
   height="7.3169999"
   id="rect74"
   transform="matrix(0.30093996,0,0,0.30185806,1.8315372,151.92754)"
   style="fill:#223a7b" />
	<rect
   x="64.942001"
   y="55.583"
   clip-path="url(#SVGID_2_)"
   width="7.1630001"
   height="7.3169999"
   id="rect76"
   transform="matrix(0.30093996,0,0,0.30185806,1.8315372,151.92754)"
   style="fill:#223a7b" />
	<rect
   x="55.673"
   y="55.583"
   clip-path="url(#SVGID_2_)"
   width="7.1630001"
   height="7.3169999"
   id="rect78"
   transform="matrix(0.30093996,0,0,0.30185806,1.8315372,151.92754)"
   style="fill:#223a7b" />
	<rect
   x="46.459999"
   y="55.583"
   clip-path="url(#SVGID_2_)"
   width="7.1630001"
   height="7.3169999"
   id="rect80"
   transform="matrix(0.30093996,0,0,0.30185806,1.8315372,151.92754)"
   style="fill:#223a7b" />
	<rect
   x="37.438"
   y="55.583"
   clip-path="url(#SVGID_2_)"
   width="7.1630001"
   height="7.3169999"
   id="rect82"
   transform="matrix(0.30093996,0,0,0.30185806,1.8315372,151.92754)"
   style="fill:#223a7b" />
	<rect
   x="64.837997"
   y="64.771004"
   clip-path="url(#SVGID_2_)"
   width="7.1630001"
   height="7.3169999"
   id="rect84"
   transform="matrix(0.30093996,0,0,0.30185806,1.8315372,151.92754)"
   style="fill:#223a7b" />
	<rect
   x="74.167"
   y="64.771004"
   clip-path="url(#SVGID_2_)"
   width="7.1630001"
   height="7.3169999"
   id="rect86"
   transform="matrix(0.30093996,0,0,0.30185806,1.8315372,151.92754)"
   style="fill:#223a7b" />
	<rect
   x="55.569"
   y="64.771004"
   clip-path="url(#SVGID_2_)"
   width="7.1630001"
   height="7.3169999"
   id="rect88"
   transform="matrix(0.30093996,0,0,0.30185806,1.8315372,151.92754)"
   style="fill:#223a7b" />
	<rect
   x="46.355999"
   y="64.771004"
   clip-path="url(#SVGID_2_)"
   width="7.1630001"
   height="7.3169999"
   id="rect90"
   transform="matrix(0.30093996,0,0,0.30185806,1.8315372,151.92754)"
   style="fill:#223a7b" />
	<rect
   x="55.603001"
   y="74.021004"
   clip-path="url(#SVGID_2_)"
   width="7.1630001"
   height="7.3169999"
   id="rect92"
   transform="matrix(0.30093996,0,0,0.30185806,1.8315372,151.92754)"
   style="fill:#223a7b" />
	<rect
   x="55.585999"
   y="83.146004"
   clip-path="url(#SVGID_2_)"
   width="7.1630001"
   height="7.3169999"
   id="rect94"
   transform="matrix(0.30093996,0,0,0.30185806,1.8315372,151.92754)"
   style="fill:#223a7b" />
	<rect
   x="64.850998"
   y="92.458"
   clip-path="url(#SVGID_2_)"
   width="7.1630001"
   height="7.3169999"
   id="rect96"
   transform="matrix(0.30093996,0,0,0.30185806,1.8315372,151.92754)"
   style="fill:#223a7b" />
	<rect
   x="64.903"
   y="101.682"
   clip-path="url(#SVGID_2_)"
   width="7.1630001"
   height="7.3169999"
   id="rect98"
   transform="matrix(0.30093996,0,0,0.30185806,1.8315372,151.92754)"
   style="fill:#223a7b" />
	<rect
   x="64.889999"
   y="110.995"
   clip-path="url(#SVGID_2_)"
   width="7.1630001"
   height="7.316"
   id="rect100"
   transform="matrix(0.30093996,0,0,0.30185806,1.8315372,151.92754)"
   style="fill:#223a7b" />
	<rect
   x="74.167"
   y="92.414001"
   clip-path="url(#SVGID_2_)"
   width="7.1630001"
   height="7.3169999"
   id="rect102"
   transform="matrix(0.30093996,0,0,0.30185806,1.8315372,151.92754)"
   style="fill:#223a7b" />
	<rect
   x="74.167"
   y="101.638"
   clip-path="url(#SVGID_2_)"
   width="7.1630001"
   height="7.3169999"
   id="rect104"
   transform="matrix(0.30093996,0,0,0.30185806,1.8315372,151.92754)"
   style="fill:#223a7b" />
	<rect
   x="83.167"
   y="101.638"
   clip-path="url(#SVGID_2_)"
   width="7.1630001"
   height="7.3169999"
   id="rect106"
   transform="matrix(0.30093996,0,0,0.30185806,1.8315372,151.92754)"
   style="fill:#223a7b" />
	<rect
   x="83.230003"
   y="101.638"
   clip-path="url(#SVGID_2_)"
   width="7.1630001"
   height="7.3169999"
   id="rect108"
   transform="matrix(0.30093996,0,0,0.30185806,1.8315372,151.92754)"
   style="fill:#223a7b" />
	<rect
   x="74.167"
   y="110.95"
   clip-path="url(#SVGID_2_)"
   width="7.1630001"
   height="7.316"
   id="rect110"
   transform="matrix(0.30093996,0,0,0.30185806,1.8315372,151.92754)"
   style="fill:#223a7b" />
	<rect
   x="64.876999"
   y="120.12"
   clip-path="url(#SVGID_2_)"
   width="7.1630001"
   height="7.316"
   id="rect112"
   transform="matrix(0.30093996,0,0,0.30185806,1.8315372,151.92754)"
   style="fill:#223a7b" />
	<rect
   x="46.382"
   y="74.021004"
   clip-path="url(#SVGID_2_)"
   width="7.1630001"
   height="7.3169999"
   id="rect114"
   transform="matrix(0.30093996,0,0,0.30185806,1.8315372,151.92754)"
   style="fill:#223a7b" />
	<rect
   x="37.334"
   y="64.771004"
   clip-path="url(#SVGID_2_)"
   width="7.1630001"
   height="7.3169999"
   id="rect116"
   transform="matrix(0.30093996,0,0,0.30185806,1.8315372,151.92754)"
   style="fill:#223a7b" />
	<rect
   x="28.23"
   y="55.583"
   clip-path="url(#SVGID_2_)"
   width="7.1630001"
   height="7.3169999"
   id="rect118"
   transform="matrix(0.30093996,0,0,0.30185806,1.8315372,151.92754)"
   style="fill:#223a7b" />
	<rect
   x="19"
   y="46.583"
   clip-path="url(#SVGID_2_)"
   width="7.1630001"
   height="7.3169999"
   id="rect120"
   transform="matrix(0.30093996,0,0,0.30185806,1.8315372,151.92754)"
   style="fill:#223a7b" />
	<rect
   x="110.703"
   y="46.583"
   clip-path="url(#SVGID_2_)"
   width="7.1630001"
   height="7.3169999"
   id="rect122"
   transform="matrix(0.30093996,0,0,0.30185806,1.8315372,151.92754)"
   style="fill:#223a7b" />
	<rect
   x="120.107"
   y="46.583"
   clip-path="url(#SVGID_2_)"
   width="7.1620002"
   height="7.3169999"
   id="rect124"
   transform="matrix(0.30093996,0,0,0.30185806,1.8315372,151.92754)"
   style="fill:#223a7b" />
	<rect
   x="129.34"
   y="46.583"
   clip-path="url(#SVGID_2_)"
   width="7.1630001"
   height="7.3169999"
   id="rect126"
   transform="matrix(0.30093996,0,0,0.30185806,1.8315372,151.92754)"
   style="fill:#223a7b" />
	<rect
   x="138.505"
   y="46.583"
   clip-path="url(#SVGID_2_)"
   width="7.1630001"
   height="7.3169999"
   id="rect128"
   transform="matrix(0.30093996,0,0,0.30185806,1.8315372,151.92754)"
   style="fill:#223a7b" />
	<rect
   x="147.694"
   y="46.583"
   clip-path="url(#SVGID_2_)"
   width="7.1630001"
   height="7.3169999"
   id="rect130"
   transform="matrix(0.30093996,0,0,0.30185806,1.8315372,151.92754)"
   style="fill:#223a7b" />
	<rect
   x="156.985"
   y="46.583"
   clip-path="url(#SVGID_2_)"
   width="7.1630001"
   height="7.3169999"
   id="rect132"
   transform="matrix(0.30093996,0,0,0.30185806,1.8315372,151.92754)"
   style="fill:#223a7b" />
	<rect
   x="166.127"
   y="46.583"
   clip-path="url(#SVGID_2_)"
   width="7.1630001"
   height="7.3169999"
   id="rect134"
   transform="matrix(0.30093996,0,0,0.30185806,1.8315372,151.92754)"
   style="fill:#223a7b" />
	<rect
   x="175.39"
   y="46.583"
   clip-path="url(#SVGID_2_)"
   width="7.1630001"
   height="7.3169999"
   id="rect136"
   transform="matrix(0.30093996,0,0,0.30185806,1.8315372,151.92754)"
   style="fill:#223a7b" />
	<rect
   x="184.58099"
   y="46.583"
   clip-path="url(#SVGID_2_)"
   width="7.1630001"
   height="7.3169999"
   id="rect138"
   transform="matrix(0.30093996,0,0,0.30185806,1.8315372,151.92754)"
   style="fill:#223a7b" />
	<rect
   x="193.79201"
   y="46.583"
   clip-path="url(#SVGID_2_)"
   width="7.1630001"
   height="7.3169999"
   id="rect140"
   transform="matrix(0.30093996,0,0,0.30185806,1.8315372,151.92754)"
   style="fill:#223a7b" />
	<rect
   x="101.79"
   y="55.583"
   clip-path="url(#SVGID_2_)"
   width="7.1630001"
   height="7.3169999"
   id="rect142"
   transform="matrix(0.30093996,0,0,0.30185806,1.8315372,151.92754)"
   style="fill:#223a7b" />
	<rect
   x="110.807"
   y="55.583"
   clip-path="url(#SVGID_2_)"
   width="7.1630001"
   height="7.3169999"
   id="rect144"
   transform="matrix(0.30093996,0,0,0.30185806,1.8315372,151.92754)"
   style="fill:#223a7b" />
	<rect
   x="120.166"
   y="55.583"
   clip-path="url(#SVGID_2_)"
   width="7.1630001"
   height="7.3169999"
   id="rect146"
   transform="matrix(0.30093996,0,0,0.30185806,1.8315372,151.92754)"
   style="fill:#223a7b" />
	<rect
   x="129.405"
   y="55.583"
   clip-path="url(#SVGID_2_)"
   width="7.1630001"
   height="7.3169999"
   id="rect148"
   transform="matrix(0.30093996,0,0,0.30185806,1.8315372,151.92754)"
   style="fill:#223a7b" />
	<rect
   x="138.537"
   y="55.583"
   clip-path="url(#SVGID_2_)"
   width="7.1630001"
   height="7.3169999"
   id="rect150"
   transform="matrix(0.30093996,0,0,0.30185806,1.8315372,151.92754)"
   style="fill:#223a7b" />
	<rect
   x="147.77499"
   y="55.583"
   clip-path="url(#SVGID_2_)"
   width="7.1630001"
   height="7.3169999"
   id="rect152"
   transform="matrix(0.30093996,0,0,0.30185806,1.8315372,151.92754)"
   style="fill:#223a7b" />
	<rect
   x="157.03"
   y="55.583"
   clip-path="url(#SVGID_2_)"
   width="7.1630001"
   height="7.3169999"
   id="rect154"
   transform="matrix(0.30093996,0,0,0.30185806,1.8315372,151.92754)"
   style="fill:#223a7b" />
	<rect
   x="166.16499"
   y="55.583"
   clip-path="url(#SVGID_2_)"
   width="7.1630001"
   height="7.3169999"
   id="rect156"
   transform="matrix(0.30093996,0,0,0.30185806,1.8315372,151.92754)"
   style="fill:#223a7b" />
	<rect
   x="175.427"
   y="55.583"
   clip-path="url(#SVGID_2_)"
   width="7.1630001"
   height="7.3169999"
   id="rect158"
   transform="matrix(0.30093996,0,0,0.30185806,1.8315372,151.92754)"
   style="fill:#223a7b" />
	<rect
   x="184.677"
   y="55.583"
   clip-path="url(#SVGID_2_)"
   width="7.1630001"
   height="7.3169999"
   id="rect160"
   transform="matrix(0.30093996,0,0,0.30185806,1.8315372,151.92754)"
   style="fill:#223a7b" />
	<rect
   x="110.833"
   y="64.771004"
   clip-path="url(#SVGID_2_)"
   width="7.1630001"
   height="7.3169999"
   id="rect162"
   transform="matrix(0.30093996,0,0,0.30185806,1.8315372,151.92754)"
   style="fill:#223a7b" />
	<rect
   x="110.677"
   y="83.146004"
   clip-path="url(#SVGID_2_)"
   width="7.1630001"
   height="7.3169999"
   id="rect164"
   transform="matrix(0.30093996,0,0,0.30185806,1.8315372,151.92754)"
   style="fill:#223a7b" />
	<rect
   x="110.781"
   y="92.458"
   clip-path="url(#SVGID_2_)"
   width="7.1630001"
   height="7.3169999"
   id="rect166"
   transform="matrix(0.30093996,0,0,0.30185806,1.8315372,151.92754)"
   style="fill:#223a7b" />
	<rect
   x="110.755"
   y="101.682"
   clip-path="url(#SVGID_2_)"
   width="7.1630001"
   height="7.3169999"
   id="rect168"
   transform="matrix(0.30093996,0,0,0.30185806,1.8315372,151.92754)"
   style="fill:#223a7b" />
	<rect
   x="120.154"
   y="64.771004"
   clip-path="url(#SVGID_2_)"
   width="7.1630001"
   height="7.3169999"
   id="rect170"
   transform="matrix(0.30093996,0,0,0.30185806,1.8315372,151.92754)"
   style="fill:#223a7b" />
	<rect
   x="129.383"
   y="64.771004"
   clip-path="url(#SVGID_2_)"
   width="7.1630001"
   height="7.3169999"
   id="rect172"
   transform="matrix(0.30093996,0,0,0.30185806,1.8315372,151.92754)"
   style="fill:#223a7b" />
	<rect
   x="138.552"
   y="64.771004"
   clip-path="url(#SVGID_2_)"
   width="7.1630001"
   height="7.3169999"
   id="rect174"
   transform="matrix(0.30093996,0,0,0.30185806,1.8315372,151.92754)"
   style="fill:#223a7b" />
	<rect
   x="147.748"
   y="64.771004"
   clip-path="url(#SVGID_2_)"
   width="7.1630001"
   height="7.3169999"
   id="rect176"
   transform="matrix(0.30093996,0,0,0.30185806,1.8315372,151.92754)"
   style="fill:#223a7b" />
	<rect
   x="157.052"
   y="64.771004"
   clip-path="url(#SVGID_2_)"
   width="7.1630001"
   height="7.3169999"
   id="rect178"
   transform="matrix(0.30093996,0,0,0.30185806,1.8315372,151.92754)"
   style="fill:#223a7b" />
	<rect
   x="166.177"
   y="64.771004"
   clip-path="url(#SVGID_2_)"
   width="7.1630001"
   height="7.3169999"
   id="rect180"
   transform="matrix(0.30093996,0,0,0.30185806,1.8315372,151.92754)"
   style="fill:#223a7b" />
	<rect
   x="101.79"
   y="74.021004"
   clip-path="url(#SVGID_2_)"
   width="7.1630001"
   height="7.3169999"
   id="rect182"
   transform="matrix(0.30093996,0,0,0.30185806,1.8315372,151.92754)"
   style="fill:#223a7b" />
	<rect
   x="101.79"
   y="83.146004"
   clip-path="url(#SVGID_2_)"
   width="7.1630001"
   height="7.3169999"
   id="rect184"
   transform="matrix(0.30093996,0,0,0.30185806,1.8315372,151.92754)"
   style="fill:#223a7b" />
	<rect
   x="120.142"
   y="74.021004"
   clip-path="url(#SVGID_2_)"
   width="7.1630001"
   height="7.3169999"
   id="rect186"
   transform="matrix(0.30093996,0,0,0.30185806,1.8315372,151.92754)"
   style="fill:#223a7b" />
	<rect
   x="129.362"
   y="74.021004"
   clip-path="url(#SVGID_2_)"
   width="7.1630001"
   height="7.3169999"
   id="rect188"
   transform="matrix(0.30093996,0,0,0.30185806,1.8315372,151.92754)"
   style="fill:#223a7b" />
	<rect
   x="120.177"
   y="83.146004"
   clip-path="url(#SVGID_2_)"
   width="7.1630001"
   height="7.3169999"
   id="rect190"
   transform="matrix(0.30093996,0,0,0.30185806,1.8315372,151.92754)"
   style="fill:#223a7b" />
	<rect
   x="120.119"
   y="92.458"
   clip-path="url(#SVGID_2_)"
   width="7.1630001"
   height="7.3169999"
   id="rect192"
   transform="matrix(0.30093996,0,0,0.30185806,1.8315372,151.92754)"
   style="fill:#223a7b" />
	<rect
   x="120.13"
   y="101.682"
   clip-path="url(#SVGID_2_)"
   width="7.1630001"
   height="7.3169999"
   id="rect194"
   transform="matrix(0.30093996,0,0,0.30185806,1.8315372,151.92754)"
   style="fill:#223a7b" />
	<rect
   x="110.729"
   y="110.995"
   clip-path="url(#SVGID_2_)"
   width="7.1630001"
   height="7.316"
   id="rect196"
   transform="matrix(0.30093996,0,0,0.30185806,1.8315372,151.92754)"
   style="fill:#223a7b" />
	<rect
   x="129.427"
   y="83.146004"
   clip-path="url(#SVGID_2_)"
   width="7.1630001"
   height="7.3169999"
   id="rect198"
   transform="matrix(0.30093996,0,0,0.30185806,1.8315372,151.92754)"
   style="fill:#223a7b" />
	<rect
   x="129.31799"
   y="92.458"
   clip-path="url(#SVGID_2_)"
   width="7.1630001"
   height="7.3169999"
   id="rect200"
   transform="matrix(0.30093996,0,0,0.30185806,1.8315372,151.92754)"
   style="fill:#223a7b" />
	<rect
   x="138.49001"
   y="74.021004"
   clip-path="url(#SVGID_2_)"
   width="7.1630001"
   height="7.3169999"
   id="rect202"
   transform="matrix(0.30093996,0,0,0.30185806,1.8315372,151.92754)"
   style="fill:#223a7b" />
	<rect
   x="147.72099"
   y="74.021004"
   clip-path="url(#SVGID_2_)"
   width="7.1630001"
   height="7.3169999"
   id="rect204"
   transform="matrix(0.30093996,0,0,0.30185806,1.8315372,151.92754)"
   style="fill:#223a7b" />
	<rect
   x="147.802"
   y="83.146004"
   clip-path="url(#SVGID_2_)"
   width="7.1630001"
   height="7.3169999"
   id="rect206"
   transform="matrix(0.30093996,0,0,0.30185806,1.8315372,151.92754)"
   style="fill:#223a7b" />
	<rect
   x="157.007"
   y="74.021004"
   clip-path="url(#SVGID_2_)"
   width="7.1630001"
   height="7.3169999"
   id="rect208"
   transform="matrix(0.30093996,0,0,0.30185806,1.8315372,151.92754)"
   style="fill:#223a7b" />
	<rect
   x="156.94"
   y="83.146004"
   clip-path="url(#SVGID_2_)"
   width="7.1620002"
   height="7.3169999"
   id="rect210"
   transform="matrix(0.30093996,0,0,0.30185806,1.8315372,151.92754)"
   style="fill:#223a7b" />
	<rect
   x="156.91701"
   y="92.458"
   clip-path="url(#SVGID_2_)"
   width="7.1630001"
   height="7.3169999"
   id="rect212"
   transform="matrix(0.30093996,0,0,0.30185806,1.8315372,151.92754)"
   style="fill:#223a7b" />
	<rect
   x="175.371"
   y="101.682"
   clip-path="url(#SVGID_2_)"
   width="7.1630001"
   height="7.3169999"
   id="rect214"
   transform="matrix(0.30093996,0,0,0.30185806,1.8315372,151.92754)"
   style="fill:#223a7b" />
	<rect
   x="184.629"
   y="110.995"
   clip-path="url(#SVGID_2_)"
   width="7.1630001"
   height="7.316"
   id="rect216"
   transform="matrix(0.30093996,0,0,0.30185806,1.8315372,151.92754)"
   style="fill:#223a7b" />
	<rect
   x="175.408"
   y="110.995"
   clip-path="url(#SVGID_2_)"
   width="7.1630001"
   height="7.316"
   id="rect218"
   transform="matrix(0.30093996,0,0,0.30185806,1.8315372,151.92754)"
   style="fill:#223a7b" />
	<rect
   x="166.15199"
   y="101.682"
   clip-path="url(#SVGID_2_)"
   width="7.1630001"
   height="7.3169999"
   id="rect220"
   transform="matrix(0.30093996,0,0,0.30185806,1.8315372,151.92754)"
   style="fill:#223a7b" />
	<rect
   x="166.11501"
   y="74.021004"
   clip-path="url(#SVGID_2_)"
   width="7.1630001"
   height="7.3169999"
   id="rect222"
   transform="matrix(0.30093996,0,0,0.30185806,1.8315372,151.92754)"
   style="fill:#223a7b" />
	<g
   clip-path="url(#SVGID_2_)"
   id="g224"
   transform="matrix(0.30093996,0,0,0.30185806,1.8315372,151.92754)">
		<defs
   id="defs226">
			<rect
   id="SVGID_8_"
   width="217.33299"
   height="219.66701"
   x="0"
   y="0" />
		</defs>
		<clipPath
   id="SVGID_9_">
			<use
   xlink:href="#SVGID_8_"
   overflow="visible"
   id="use230"
   style="overflow:visible"
   x="0"
   y="0"
   width="217.33299"
   height="219.66701" />
		</clipPath>
		<g
   clip-path="url(#SVGID_9_)"
   id="g232"
   style="opacity:0.75">
			<g
   id="g234">
				<defs
   id="defs236">
					<rect
   id="SVGID_10_"
   x="17.57"
   y="161.642"
   width="181.334"
   height="44.112" />
				</defs>
				<clipPath
   id="SVGID_11_">
					<use
   xlink:href="#SVGID_10_"
   overflow="visible"
   id="use240"
   style="overflow:visible"
   x="0"
   y="0"
   width="217.33299"
   height="219.66701" />
				</clipPath>
				<g
   clip-path="url(#SVGID_11_)"
   id="g242">
					<path
   d="m 36.049,188.275 h -9.041 l -1.256,4.254 h -8.13 l 9.686,-25.77 h 8.686 l 9.684,25.77 h -8.339 l -1.29,-4.254 z m -1.652,-5.572 -2.844,-9.264 -2.814,9.264 h 5.658 z"
   id="path244"
   inkscape:connector-curvature="0"
   style="fill:#ffffff" />
					<path
   d="m 46.451,166.76 h 8.771 l 4.562,7.928 4.438,-7.928 h 8.684 l -8.021,12.48 8.777,13.289 h -8.947 l -5.089,-8.279 -5.089,8.279 h -8.895 l 8.889,-13.43 -8.08,-12.339 z"
   id="path246"
   inkscape:connector-curvature="0"
   style="fill:#ffffff" />
					<path
   d="m 92.053,188.275 h -9.041 l -1.256,4.254 h -8.13 l 9.686,-25.77 h 8.686 l 9.684,25.77 h -8.339 l -1.29,-4.254 z m -1.652,-5.572 -2.844,-9.264 -2.814,9.264 h 5.658 z"
   id="path248"
   inkscape:connector-curvature="0"
   style="fill:#ffffff" />
					<path
   d="m 103.755,185.357 h 7.647 v 7.172 h -7.647 v -7.172 z"
   id="path250"
   inkscape:connector-curvature="0"
   style="fill:#ffffff" />
					<path
   d="m 129.648,185.217 6.803,0.773 c -0.375,1.418 -0.99,2.646 -1.846,3.683 -0.856,1.037 -1.948,1.843 -3.278,2.417 -1.33,0.574 -3.021,0.861 -5.071,0.861 -1.98,0 -3.63,-0.185 -4.948,-0.553 -1.318,-0.369 -2.452,-0.966 -3.401,-1.792 -0.949,-0.825 -1.693,-1.794 -2.232,-2.906 -0.539,-1.112 -0.809,-2.588 -0.809,-4.426 0,-1.92 0.328,-3.519 0.984,-4.795 0.48,-0.937 1.137,-1.776 1.969,-2.52 0.832,-0.744 1.688,-1.297 2.566,-1.66 1.395,-0.573 3.182,-0.86 5.361,-0.86 3.047,0 5.37,0.545 6.97,1.635 1.6,1.09 2.722,2.684 3.366,4.781 l -6.732,0.896 c -0.211,-0.797 -0.595,-1.397 -1.151,-1.802 -0.556,-0.405 -1.304,-0.606 -2.241,-0.606 -1.184,0 -2.142,0.424 -2.874,1.272 -0.732,0.848 -1.099,2.132 -1.099,3.852 0,1.532 0.363,2.696 1.09,3.491 0.727,0.796 1.652,1.193 2.777,1.193 0.938,0 1.726,-0.24 2.364,-0.721 0.638,-0.481 1.116,-1.217 1.432,-2.213 z"
   id="path252"
   inkscape:connector-curvature="0"
   style="fill:#ffffff" />
					<path
   d="m 138.859,183.248 c 0,-2.848 0.961,-5.194 2.883,-7.04 1.922,-1.846 4.518,-2.769 7.787,-2.769 3.738,0 6.563,1.084 8.473,3.252 1.535,1.746 2.303,3.896 2.303,6.451 0,2.871 -0.952,5.224 -2.856,7.058 -1.904,1.834 -4.538,2.751 -7.901,2.751 -3,0 -5.426,-0.762 -7.277,-2.285 -2.275,-1.887 -3.412,-4.359 -3.412,-7.418 z m 7.172,-0.018 c 0,1.664 0.337,2.895 1.011,3.691 0.674,0.796 1.521,1.195 2.54,1.195 1.031,0 1.878,-0.393 2.54,-1.178 0.662,-0.785 0.993,-2.045 0.993,-3.779 0,-1.617 -0.334,-2.821 -1.002,-3.612 -0.668,-0.791 -1.494,-1.187 -2.479,-1.187 -1.043,0 -1.904,0.401 -2.584,1.204 -0.68,0.803 -1.019,2.026 -1.019,3.666 z"
   id="path254"
   inkscape:connector-curvature="0"
   style="fill:#ffffff" />
					<path
   d="m 163.803,173.861 h 6.68 v 2.725 c 0.963,-1.137 1.934,-1.945 2.913,-2.426 0.98,-0.48 2.163,-0.721 3.548,-0.721 1.49,0 2.67,0.264 3.538,0.791 0.868,0.527 1.578,1.313 2.13,2.355 1.123,-1.219 2.147,-2.048 3.072,-2.487 0.924,-0.439 2.065,-0.659 3.423,-0.659 2.001,0 3.563,0.595 4.687,1.784 1.124,1.189 1.686,3.05 1.686,5.581 v 11.725 h -7.172 v -10.635 c 0,-0.844 -0.164,-1.471 -0.49,-1.881 -0.479,-0.645 -1.075,-0.967 -1.787,-0.967 -0.841,0 -1.519,0.305 -2.032,0.914 -0.513,0.609 -0.771,1.588 -0.771,2.936 v 9.633 h -7.172 v -10.283 c 0,-0.82 -0.047,-1.377 -0.142,-1.67 -0.152,-0.469 -0.417,-0.847 -0.793,-1.134 -0.377,-0.287 -0.817,-0.431 -1.323,-0.431 -0.823,0 -1.5,0.311 -2.028,0.932 -0.529,0.621 -0.794,1.641 -0.794,3.059 v 9.527 h -7.172 v -18.668 z"
   id="path256"
   inkscape:connector-curvature="0"
   style="fill:#ffffff" />
				</g>
			</g>
		</g>
	</g>
	<g
   clip-path="url(#SVGID_2_)"
   id="g258"
   transform="matrix(0.30093996,0,0,0.30185806,1.8315372,151.92754)">
		<path
   d="m 35.766,186.292 h -9.041 l -1.256,4.254 h -8.13 l 9.686,-25.77 h 8.686 l 9.684,25.77 h -8.339 l -1.29,-4.254 z m -1.652,-5.572 -2.844,-9.264 -2.814,9.264 h 5.658 z"
   id="path260"
   inkscape:connector-curvature="0"
   style="fill:#243877" />
		<path
   d="m 46.167,164.776 h 8.771 l 4.562,7.928 4.438,-7.928 h 8.684 l -8.021,12.48 8.777,13.289 h -8.947 l -5.089,-8.279 -5.089,8.279 h -8.895 l 8.889,-13.43 -8.08,-12.339 z"
   id="path262"
   inkscape:connector-curvature="0"
   style="fill:#243877" />
		<path
   d="m 91.77,186.292 h -9.041 l -1.256,4.254 h -8.13 l 9.686,-25.77 h 8.686 l 9.684,25.77 H 93.06 l -1.29,-4.254 z m -1.652,-5.572 -2.844,-9.264 -2.814,9.264 h 5.658 z"
   id="path264"
   inkscape:connector-curvature="0"
   style="fill:#243877" />
		<path
   d="m 103.472,183.374 h 7.647 v 7.172 h -7.647 v -7.172 z"
   id="path266"
   inkscape:connector-curvature="0"
   style="fill:#243877" />
		<path
   d="m 129.365,183.233 6.803,0.773 c -0.375,1.418 -0.99,2.646 -1.846,3.683 -0.856,1.037 -1.948,1.843 -3.278,2.417 -1.33,0.574 -3.021,0.861 -5.071,0.861 -1.98,0 -3.63,-0.185 -4.948,-0.553 -1.318,-0.369 -2.452,-0.966 -3.401,-1.792 -0.949,-0.825 -1.693,-1.794 -2.232,-2.906 -0.539,-1.112 -0.809,-2.588 -0.809,-4.426 0,-1.92 0.328,-3.519 0.984,-4.795 0.48,-0.937 1.137,-1.776 1.969,-2.52 0.832,-0.744 1.688,-1.297 2.566,-1.66 1.395,-0.573 3.182,-0.86 5.361,-0.86 3.047,0 5.37,0.545 6.97,1.635 1.6,1.09 2.722,2.684 3.366,4.781 l -6.732,0.896 c -0.211,-0.797 -0.595,-1.397 -1.151,-1.802 -0.556,-0.405 -1.304,-0.606 -2.241,-0.606 -1.184,0 -2.142,0.424 -2.874,1.272 -0.732,0.848 -1.099,2.132 -1.099,3.852 0,1.532 0.363,2.696 1.09,3.491 0.727,0.796 1.652,1.193 2.777,1.193 0.938,0 1.726,-0.24 2.364,-0.721 0.638,-0.481 1.116,-1.217 1.432,-2.213 z"
   id="path268"
   inkscape:connector-curvature="0"
   style="fill:#243877" />
		<path
   d="m 138.576,181.265 c 0,-2.848 0.961,-5.194 2.883,-7.04 1.922,-1.846 4.518,-2.769 7.787,-2.769 3.738,0 6.563,1.084 8.473,3.252 1.535,1.746 2.303,3.896 2.303,6.451 0,2.871 -0.952,5.224 -2.856,7.058 -1.904,1.834 -4.538,2.751 -7.901,2.751 -3,0 -5.426,-0.762 -7.277,-2.285 -2.275,-1.887 -3.412,-4.36 -3.412,-7.418 z m 7.172,-0.018 c 0,1.664 0.337,2.895 1.011,3.691 0.674,0.796 1.521,1.195 2.54,1.195 1.031,0 1.878,-0.393 2.54,-1.178 0.662,-0.785 0.993,-2.045 0.993,-3.779 0,-1.617 -0.334,-2.821 -1.002,-3.612 -0.668,-0.791 -1.494,-1.187 -2.479,-1.187 -1.043,0 -1.904,0.401 -2.584,1.204 -0.68,0.803 -1.019,2.025 -1.019,3.666 z"
   id="path270"
   inkscape:connector-curvature="0"
   style="fill:#243877" />
		<path
   d="m 163.52,171.878 h 6.68 v 2.725 c 0.963,-1.137 1.934,-1.945 2.913,-2.426 0.98,-0.48 2.163,-0.721 3.548,-0.721 1.49,0 2.67,0.264 3.538,0.791 0.868,0.527 1.578,1.313 2.13,2.355 1.123,-1.219 2.147,-2.048 3.072,-2.487 0.924,-0.439 2.065,-0.659 3.423,-0.659 2.001,0 3.563,0.595 4.687,1.784 1.124,1.189 1.686,3.05 1.686,5.581 v 11.725 h -7.172 v -10.635 c 0,-0.844 -0.164,-1.471 -0.49,-1.881 -0.479,-0.645 -1.075,-0.967 -1.787,-0.967 -0.841,0 -1.519,0.305 -2.032,0.914 -0.513,0.609 -0.771,1.588 -0.771,2.936 v 9.633 h -7.172 v -10.283 c 0,-0.82 -0.047,-1.377 -0.142,-1.67 -0.152,-0.469 -0.417,-0.847 -0.793,-1.134 -0.377,-0.287 -0.817,-0.431 -1.323,-0.431 -0.823,0 -1.5,0.311 -2.028,0.932 -0.529,0.621 -0.794,1.641 -0.794,3.059 v 9.527 h -7.172 v -18.668 z"
   id="path272"
   inkscape:connector-curvature="0"
   style="fill:#243877" />
	</g>
</g>
</svg>