<?xml version="1.0" encoding="UTF-8" standalone="no"?>
<svg width="56px" height="82px" viewBox="0 0 56 82" version="1.1" xmlns="http://www.w3.org/2000/svg" xmlns:xlink="http://www.w3.org/1999/xlink" xmlns:sketch="http://www.bohemiancoding.com/sketch/ns">
    <!-- Generator: Sketch 3.1 (8751) - http://www.bohemiancoding.com/sketch -->
    <title>worldwide-axa-switzerland</title>
    <desc>Created with Sketch.</desc>
    <defs></defs>
    <g id="Page-1" stroke="none" stroke-width="1" fill="none" fill-rule="evenodd" sketch:type="MSPage">
        <g id="worldwide-axa-switzerland" sketch:type="MSLayerGroup">
            <g id="Page-1" sketch:type="MSShapeGroup">
                <g id="axa-switzerland">
                    <path d="M3,9 L3,11 L5,11 L5,9 L3,9 L3,9 Z" id="Path" fill-opacity="0.4" fill="#143FB4"></path>
                    <path d="M0,6 L0,8 L2,8 L2,6 L0,6 L0,6 Z" id="Path" fill-opacity="0.4" fill="#143FB4"></path>
                    <path d="M3,6 L3,8 L5,8 L5,6 L3,6 L3,6 Z" id="Path" fill-opacity="0.4" fill="#143FB4"></path>
                    <path d="M6,9 L6,11 L8,11 L8,9 L6,9 L6,9 Z" id="Path" fill-opacity="0.4" fill="#143FB4"></path>
                    <path d="M6,6 L6,8 L8,8 L8,6 L6,6 L6,6 Z" id="Path" fill-opacity="0.4" fill="#143FB4"></path>
                    <path d="M9,15 L9,17 L11,17 L11,15 L9,15 L9,15 Z" id="Path" fill-opacity="0.4" fill="#143FB4"></path>
                    <path d="M9,12 L9,14 L11,14 L11,12 L9,12 L9,12 Z" id="Path" fill-opacity="0.4" fill="#143FB4"></path>
                    <path d="M9,9 L9,11 L11,11 L11,9 L9,9 L9,9 Z" id="Path" fill-opacity="0.4" fill="#143FB4"></path>
                    <path d="M9,6 L9,8 L11,8 L11,6 L9,6 L9,6 Z" id="Path" fill-opacity="0.4" fill="#143FB4"></path>
                    <path d="M9,3 L9,5 L11,5 L11,3 L9,3 L9,3 Z" id="Path" fill-opacity="0.4" fill="#143FB4"></path>
                    <path d="M12,18 L12,20 L14,20 L14,18 L12,18 L12,18 Z" id="Path" fill-opacity="0.4" fill="#143FB4"></path>
                    <path d="M12,15 L12,17 L14,17 L14,15 L12,15 L12,15 Z" id="Path" fill-opacity="0.4" fill="#143FB4"></path>
                    <path d="M15,30 L15,32 L17,32 L17,30 L15,30 L15,30 Z" id="Path" fill-opacity="0.4" fill="#143FB4"></path>
                    <path d="M18,27 L18,29 L20,29 L20,27 L18,27 L18,27 Z" id="Path" fill-opacity="0.4" fill="#143FB4"></path>
                    <path d="M15,27 L15,29 L17,29 L17,27 L15,27 L15,27 Z" id="Path" fill-opacity="0.4" fill="#143FB4"></path>
                    <path d="M21,24 L21,26 L23,26 L23,24 L21,24 L21,24 Z" id="Path" fill-opacity="0.4" fill="#143FB4"></path>
                    <path d="M18,24 L18,26 L20,26 L20,24 L18,24 L18,24 Z" id="Path" fill-opacity="0.4" fill="#143FB4"></path>
                    <path d="M15,24 L15,26 L17,26 L17,24 L15,24 L15,24 Z" id="Path" fill-opacity="0.4" fill="#143FB4"></path>
                    <path d="M18,21 L18,23 L20,23 L20,21 L18,21 L18,21 Z" id="Path" fill-opacity="0.4" fill="#143FB4"></path>
                    <path d="M15,21 L15,23 L17,23 L17,21 L15,21 L15,21 Z" id="Path" fill-opacity="0.4" fill="#143FB4"></path>
                    <path d="M18,12 L18,14 L20,14 L20,12 L18,12 L18,12 Z" id="Path" fill-opacity="0.4" fill="#143FB4"></path>
                    <path d="M15,12 L15,14 L17,14 L17,12 L15,12 L15,12 Z" id="Path" fill-opacity="0.4" fill="#143FB4"></path>
                    <path d="M12,12 L12,14 L14,14 L14,12 L12,12 L12,12 Z" id="Path" fill-opacity="0.4" fill="#143FB4"></path>
                    <path d="M15,9 L15,11 L17,11 L17,9 L15,9 L15,9 Z" id="Path" fill-opacity="0.4" fill="#143FB4"></path>
                    <path d="M12,9 L12,11 L14,11 L14,9 L12,9 L12,9 Z" id="Path" fill-opacity="0.4" fill="#143FB4"></path>
                    <path d="M15,6 L15,8 L17,8 L17,6 L15,6 L15,6 Z" id="Path" fill-opacity="0.4" fill="#143FB4"></path>
                    <path d="M12,6 L12,8 L14,8 L14,6 L12,6 L12,6 Z" id="Path" fill-opacity="0.4" fill="#143FB4"></path>
                    <path d="M54,6 L54,8 L56,8 L56,6 L54,6 L54,6 Z" id="Path" fill-opacity="0.4" fill="#143FB4"></path>
                    <path d="M51,9 L51,11 L53,11 L53,9 L51,9 L51,9 Z" id="Path" fill-opacity="0.4" fill="#143FB4"></path>
                    <path d="M48,9 L48,11 L50,11 L50,9 L48,9 L48,9 Z" id="Path" fill-opacity="0.4" fill="#143FB4"></path>
                    <path d="M45,9 L45,11 L47,11 L47,9 L45,9 L45,9 Z" id="Path" fill-opacity="0.4" fill="#143FB4"></path>
                    <path d="M48,27 L48,29 L50,29 L50,27 L48,27 L48,27 Z" id="Path" fill-opacity="0.4" fill="#143FB4"></path>
                    <path d="M45,27 L45,29 L47,29 L47,27 L45,27 L45,27 Z" id="Path" fill-opacity="0.4" fill="#143FB4"></path>
                    <path d="M45,24 L45,26 L47,26 L47,24 L45,24 L45,24 Z" id="Path" fill-opacity="0.4" fill="#143FB4"></path>
                    <path d="M42,24 L42,26 L44,26 L44,24 L42,24 L42,24 Z" id="Path" fill-opacity="0.4" fill="#143FB4"></path>
                    <path d="M42,21 L42,23 L44,23 L44,21 L42,21 L42,21 Z" id="Path" fill-opacity="0.4" fill="#143FB4"></path>
                    <path d="M42,18 L42,20 L44,20 L44,18 L42,18 L42,18 Z" id="Path" fill-opacity="0.4" fill="#143FB4"></path>
                    <path d="M39,18 L39,20 L41,20 L41,18 L39,18 L39,18 Z" id="Path" fill-opacity="0.4" fill="#143FB4"></path>
                    <path d="M42,15 L42,17 L44,17 L44,15 L42,15 L42,15 Z" id="Path" fill-opacity="0.4" fill="#143FB4"></path>
                    <path d="M39,15 L39,17 L41,17 L41,15 L39,15 L39,15 Z" id="Path" fill-opacity="0.4" fill="#143FB4"></path>
                    <path d="M36,15 L36,17 L38,17 L38,15 L36,15 L36,15 Z" id="Path" fill-opacity="0.4" fill="#143FB4"></path>
                    <path d="M33,15 L33,17 L35,17 L35,15 L33,15 L33,15 Z" id="Path" fill-opacity="0.4" fill="#143FB4"></path>
                    <path d="M24,18 L24,20 L26,20 L26,18 L24,18 L24,18 Z" id="Path" fill-opacity="0.4" fill="#143FB4"></path>
                    <path d="M24,15 L24,17 L26,17 L26,15 L24,15 L24,15 Z" id="Path" fill-opacity="0.4" fill="#143FB4"></path>
                    <path d="M30,15 L30,17 L32,17 L32,15 L30,15 L30,15 Z" id="Path" fill-opacity="0.4" fill="#143FB4"></path>
                    <path d="M42,12 L42,14 L44,14 L44,12 L42,12 L42,12 Z" id="Path" fill-opacity="0.4" fill="#143FB4"></path>
                    <path d="M39,12 L39,14 L41,14 L41,12 L39,12 L39,12 Z" id="Path" fill-opacity="0.4" fill="#143FB4"></path>
                    <path d="M36,12 L36,14 L38,14 L38,12 L36,12 L36,12 Z" id="Path" fill-opacity="0.4" fill="#143FB4"></path>
                    <path d="M33,21 L33,23 L35,23 L35,21 L33,21 L33,21 Z" id="Path" fill-opacity="0.4" fill="#143FB4"></path>
                    <path d="M30,24 L30,26 L32,26 L32,24 L30,24 L30,24 Z" id="Path" fill-opacity="0.4" fill="#143FB4"></path>
                    <path d="M27,27 L27,29 L29,29 L29,27 L27,27 L27,27 Z" id="Path" fill-opacity="0.4" fill="#143FB4"></path>
                    <path d="M27,24 L27,26 L29,26 L29,24 L27,24 L27,24 Z" id="Path" fill-opacity="0.4" fill="#143FB4"></path>
                    <path d="M30,21 L30,23 L32,23 L32,21 L30,21 L30,21 Z" id="Path" fill-opacity="0.4" fill="#143FB4"></path>
                    <path d="M27,21 L27,23 L29,23 L29,21 L27,21 L27,21 Z" id="Path" fill-opacity="0.4" fill="#143FB4"></path>
                    <path d="M33,18 L33,20 L35,20 L35,18 L33,18 L33,18 Z" id="Path" fill-opacity="0.4" fill="#143FB4"></path>
                    <path d="M30,18 L30,20 L32,20 L32,18 L30,18 L30,18 Z" id="Path" fill-opacity="0.4" fill="#143FB4"></path>
                    <path d="M27,18 L27,20 L29,20 L29,18 L27,18 L27,18 Z" id="Path" fill-opacity="0.4" fill="#143FB4"></path>
                    <path d="M33,12 L33,14 L35,14 L35,12 L33,12 L33,12 Z" id="Path" fill-opacity="0.4" fill="#143FB4"></path>
                    <path d="M30,12 L30,14 L32,14 L32,12 L30,12 L30,12 Z" id="Path" fill-opacity="0.4" fill="#143FB4"></path>
                    <path d="M27,12 L27,14 L29,14 L29,12 L27,12 L27,12 Z" id="Path" fill-opacity="0.4" fill="#143FB4"></path>
                    <path d="M42,9 L42,11 L44,11 L44,9 L42,9 L42,9 Z" id="Path" fill-opacity="0.4" fill="#143FB4"></path>
                    <path d="M39,9 L39,11 L41,11 L41,9 L39,9 L39,9 Z" id="Path" fill-opacity="0.4" fill="#143FB4"></path>
                    <path d="M36,9 L36,11 L38,11 L38,9 L36,9 L36,9 Z" id="Path" fill-opacity="0.4" fill="#143FB4"></path>
                    <path d="M33,9 L33,11 L35,11 L35,9 L33,9 L33,9 Z" id="Path" fill-opacity="0.4" fill="#143FB4"></path>
                    <path d="M30,6 L30,8 L32,8 L32,6 L30,6 L30,6 Z" id="Path" fill-opacity="0.4" fill="#143FB4"></path>
                    <path d="M24,9 L24,11 L26,11 L26,9 L24,9 L24,9 Z" id="Path" fill-opacity="0.4" fill="#143FB4"></path>
                    <path d="M27,9 L27,11 L29,11 L29,9 L27,9 L27,9 Z" id="Path" fill-opacity="0.4" fill="#143FB4"></path>
                    <path d="M51,6 L51,8 L53,8 L53,6 L51,6 L51,6 Z" id="Path" fill-opacity="0.4" fill="#143FB4"></path>
                    <path d="M48,6 L48,8 L50,8 L50,6 L48,6 L48,6 Z" id="Path" fill-opacity="0.4" fill="#143FB4"></path>
                    <path d="M45,3 L45,5 L47,5 L47,3 L45,3 L45,3 Z" id="Path" fill-opacity="0.4" fill="#143FB4"></path>
                    <path d="M42,3 L42,5 L44,5 L44,3 L42,3 L42,3 Z" id="Path" fill-opacity="0.4" fill="#143FB4"></path>
                    <path d="M39,3 L39,5 L41,5 L41,3 L39,3 L39,3 Z" id="Path" fill-opacity="0.4" fill="#143FB4"></path>
                    <path d="M36,3 L36,5 L38,5 L38,3 L36,3 L36,3 Z" id="Path" fill-opacity="0.4" fill="#143FB4"></path>
                    <path d="M45,6 L45,8 L47,8 L47,6 L45,6 L45,6 Z" id="Path" fill-opacity="0.4" fill="#143FB4"></path>
                    <path d="M42,6 L42,8 L44,8 L44,6 L42,6 L42,6 Z" id="Path" fill-opacity="0.4" fill="#143FB4"></path>
                    <path d="M39,6 L39,8 L41,8 L41,6 L39,6 L39,6 Z" id="Path" fill-opacity="0.4" fill="#143FB4"></path>
                    <path d="M36,6 L36,8 L38,8 L38,6 L36,6 L36,6 Z" id="Path" fill-opacity="0.4" fill="#143FB4"></path>
                    <path d="M33,6 L33,8 L35,8 L35,6 L33,6 L33,6 Z" id="Path" fill-opacity="0.4" fill="#143FB4"></path>
                    <path d="M30,9 L30,11 L32,11 L32,9 L30,9 L30,9 Z" id="Path" fill="#143FB4"></path>
                    <path d="M27,6 L27,8 L29,8 L29,6 L27,6 L27,6 Z" id="Path" fill-opacity="0.4" fill="#143FB4"></path>
                    <path d="M21,6 L21,8 L23,8 L23,6 L21,6 L21,6 Z" id="Path" fill-opacity="0.4" fill="#143FB4"></path>
                    <path d="M24,3 L24,5 L26,5 L26,3 L24,3 L24,3 Z" id="Path" fill-opacity="0.4" fill="#143FB4"></path>
                    <path d="M24,0 L24,2 L26,2 L26,0 L24,0 L24,0 Z" id="Path" fill-opacity="0.4" fill="#143FB4"></path>
                    <path d="M21,0 L21,2 L23,2 L23,0 L21,0 L21,0 Z" id="Path" fill-opacity="0.4" fill="#143FB4"></path>
                    <path d="M21,3 L21,5 L23,5 L23,3 L21,3 L21,3 Z" id="Path" fill-opacity="0.4" fill="#143FB4"></path>
                    <path d="M18,3 L18,5 L20,5 L20,3 L18,3 L18,3 Z" id="Path" fill-opacity="0.4" fill="#143FB4"></path>
                    <path d="M15,3 L15,5 L17,5 L17,3 L15,3 L15,3 Z" id="Path" fill-opacity="0.4" fill="#143FB4"></path>
                    <path d="M12,3 L12,5 L14,5 L14,3 L12,3 L12,3 Z" id="Path" fill-opacity="0.4" fill="#143FB4"></path>
                    <path d="M15,0 L15,2 L17,2 L17,0 L15,0 L15,0 Z" id="Path" fill-opacity="0.4" fill="#143FB4"></path>
                    <path d="M12,0 L12,2 L14,2 L14,0 L12,0 L12,0 Z" id="Path" fill-opacity="0.4" fill="#143FB4"></path>
                    <path d="M3,59 L3,61 L5,61 L5,59 L3,59 L3,59 Z" id="Path" fill-opacity="0.4" fill="#243980"></path>
                    <path d="M0,56 L0,58 L2,58 L2,56 L0,56 L0,56 Z" id="Path" fill-opacity="0.4" fill="#243980"></path>
                    <path d="M3,56 L3,58 L5,58 L5,56 L3,56 L3,56 Z" id="Path" fill-opacity="0.4" fill="#243980"></path>
                    <path d="M6,59 L6,61 L8,61 L8,59 L6,59 L6,59 Z" id="Path" fill-opacity="0.4" fill="#243980"></path>
                    <path d="M6,56 L6,58 L8,58 L8,56 L6,56 L6,56 Z" id="Path" fill-opacity="0.4" fill="#243980"></path>
                    <path d="M9,65 L9,67 L11,67 L11,65 L9,65 L9,65 Z" id="Path" fill-opacity="0.4" fill="#243980"></path>
                    <path d="M9,62 L9,64 L11,64 L11,62 L9,62 L9,62 Z" id="Path" fill-opacity="0.4" fill="#243980"></path>
                    <path d="M9,59 L9,61 L11,61 L11,59 L9,59 L9,59 Z" id="Path" fill-opacity="0.4" fill="#243980"></path>
                    <path d="M9,56 L9,58 L11,58 L11,56 L9,56 L9,56 Z" id="Path" fill-opacity="0.4" fill="#243980"></path>
                    <path d="M9,53 L9,55 L11,55 L11,53 L9,53 L9,53 Z" id="Path" fill-opacity="0.4" fill="#243980"></path>
                    <path d="M12,68 L12,70 L14,70 L14,68 L12,68 L12,68 Z" id="Path" fill-opacity="0.4" fill="#243980"></path>
                    <path d="M12,65 L12,67 L14,67 L14,65 L12,65 L12,65 Z" id="Path" fill-opacity="0.4" fill="#243980"></path>
                    <path d="M15,80 L15,82 L17,82 L17,80 L15,80 L15,80 Z" id="Path" fill-opacity="0.4" fill="#243980"></path>
                    <path d="M18,77 L18,79 L20,79 L20,77 L18,77 L18,77 Z" id="Path" fill-opacity="0.4" fill="#243980"></path>
                    <path d="M15,77 L15,79 L17,79 L17,77 L15,77 L15,77 Z" id="Path" fill-opacity="0.4" fill="#243980"></path>
                    <path d="M21,74 L21,76 L23,76 L23,74 L21,74 L21,74 Z" id="Path" fill-opacity="0.4" fill="#243980"></path>
                    <path d="M18,74 L18,76 L20,76 L20,74 L18,74 L18,74 Z" id="Path" fill-opacity="0.4" fill="#243980"></path>
                    <path d="M15,74 L15,76 L17,76 L17,74 L15,74 L15,74 Z" id="Path" fill-opacity="0.4" fill="#243980"></path>
                    <path d="M18,71 L18,73 L20,73 L20,71 L18,71 L18,71 Z" id="Path" fill-opacity="0.4" fill="#243980"></path>
                    <path d="M15,71 L15,73 L17,73 L17,71 L15,71 L15,71 Z" id="Path" fill-opacity="0.4" fill="#243980"></path>
                    <path d="M18,62 L18,64 L20,64 L20,62 L18,62 L18,62 Z" id="Path" fill-opacity="0.4" fill="#243980"></path>
                    <path d="M15,62 L15,64 L17,64 L17,62 L15,62 L15,62 Z" id="Path" fill-opacity="0.4" fill="#243980"></path>
                    <path d="M12,62 L12,64 L14,64 L14,62 L12,62 L12,62 Z" id="Path" fill-opacity="0.4" fill="#243980"></path>
                    <path d="M15,59 L15,61 L17,61 L17,59 L15,59 L15,59 Z" id="Path" fill-opacity="0.4" fill="#243980"></path>
                    <path d="M12,59 L12,61 L14,61 L14,59 L12,59 L12,59 Z" id="Path" fill-opacity="0.4" fill="#243980"></path>
                    <path d="M15,56 L15,58 L17,58 L17,56 L15,56 L15,56 Z" id="Path" fill-opacity="0.4" fill="#243980"></path>
                    <path d="M12,56 L12,58 L14,58 L14,56 L12,56 L12,56 Z" id="Path" fill-opacity="0.4" fill="#243980"></path>
                    <path d="M54,56 L54,58 L56,58 L56,56 L54,56 L54,56 Z" id="Path" fill-opacity="0.4" fill="#243980"></path>
                    <path d="M51,59 L51,61 L53,61 L53,59 L51,59 L51,59 Z" id="Path" fill-opacity="0.4" fill="#243980"></path>
                    <path d="M48,59 L48,61 L50,61 L50,59 L48,59 L48,59 Z" id="Path" fill-opacity="0.4" fill="#243980"></path>
                    <path d="M45,59 L45,61 L47,61 L47,59 L45,59 L45,59 Z" id="Path" fill-opacity="0.4" fill="#243980"></path>
                    <path d="M48,77 L48,79 L50,79 L50,77 L48,77 L48,77 Z" id="Path" fill-opacity="0.4" fill="#243980"></path>
                    <path d="M45,77 L45,79 L47,79 L47,77 L45,77 L45,77 Z" id="Path" fill-opacity="0.4" fill="#243980"></path>
                    <path d="M45,74 L45,76 L47,76 L47,74 L45,74 L45,74 Z" id="Path" fill-opacity="0.4" fill="#243980"></path>
                    <path d="M42,74 L42,76 L44,76 L44,74 L42,74 L42,74 Z" id="Path" fill-opacity="0.4" fill="#243980"></path>
                    <path d="M42,71 L42,73 L44,73 L44,71 L42,71 L42,71 Z" id="Path" fill-opacity="0.4" fill="#243980"></path>
                    <path d="M42,68 L42,70 L44,70 L44,68 L42,68 L42,68 Z" id="Path" fill-opacity="0.4" fill="#243980"></path>
                    <path d="M39,68 L39,70 L41,70 L41,68 L39,68 L39,68 Z" id="Path" fill-opacity="0.4" fill="#243980"></path>
                    <path d="M42,65 L42,67 L44,67 L44,65 L42,65 L42,65 Z" id="Path" fill-opacity="0.4" fill="#243980"></path>
                    <path d="M39,65 L39,67 L41,67 L41,65 L39,65 L39,65 Z" id="Path" fill-opacity="0.4" fill="#243980"></path>
                    <path d="M36,65 L36,67 L38,67 L38,65 L36,65 L36,65 Z" id="Path" fill-opacity="0.4" fill="#243980"></path>
                    <path d="M33,65 L33,67 L35,67 L35,65 L33,65 L33,65 Z" id="Path" fill-opacity="0.4" fill="#243980"></path>
                    <path d="M24,68 L24,70 L26,70 L26,68 L24,68 L24,68 Z" id="Path" fill-opacity="0.4" fill="#243980"></path>
                    <path d="M24,65 L24,67 L26,67 L26,65 L24,65 L24,65 Z" id="Path" fill-opacity="0.4" fill="#243980"></path>
                    <path d="M30,65 L30,67 L32,67 L32,65 L30,65 L30,65 Z" id="Path" fill-opacity="0.4" fill="#243980"></path>
                    <path d="M42,62 L42,64 L44,64 L44,62 L42,62 L42,62 Z" id="Path" fill-opacity="0.4" fill="#243980"></path>
                    <path d="M39,62 L39,64 L41,64 L41,62 L39,62 L39,62 Z" id="Path" fill-opacity="0.4" fill="#243980"></path>
                    <path d="M36,62 L36,64 L38,64 L38,62 L36,62 L36,62 Z" id="Path" fill-opacity="0.4" fill="#243980"></path>
                    <path d="M33,71 L33,73 L35,73 L35,71 L33,71 L33,71 Z" id="Path" fill-opacity="0.4" fill="#243980"></path>
                    <path d="M30,74 L30,76 L32,76 L32,74 L30,74 L30,74 Z" id="Path" fill-opacity="0.4" fill="#243980"></path>
                    <path d="M27,77 L27,79 L29,79 L29,77 L27,77 L27,77 Z" id="Path" fill-opacity="0.4" fill="#243980"></path>
                    <path d="M27,74 L27,76 L29,76 L29,74 L27,74 L27,74 Z" id="Path" fill-opacity="0.4" fill="#243980"></path>
                    <path d="M30,71 L30,73 L32,73 L32,71 L30,71 L30,71 Z" id="Path" fill-opacity="0.4" fill="#243980"></path>
                    <path d="M27,71 L27,73 L29,73 L29,71 L27,71 L27,71 Z" id="Path" fill-opacity="0.4" fill="#243980"></path>
                    <path d="M33,68 L33,70 L35,70 L35,68 L33,68 L33,68 Z" id="Path" fill-opacity="0.4" fill="#243980"></path>
                    <path d="M30,68 L30,70 L32,70 L32,68 L30,68 L30,68 Z" id="Path" fill-opacity="0.4" fill="#243980"></path>
                    <path d="M27,68 L27,70 L29,70 L29,68 L27,68 L27,68 Z" id="Path" fill-opacity="0.4" fill="#243980"></path>
                    <path d="M33,62 L33,64 L35,64 L35,62 L33,62 L33,62 Z" id="Path" fill-opacity="0.4" fill="#243980"></path>
                    <path d="M30,62 L30,64 L32,64 L32,62 L30,62 L30,62 Z" id="Path" fill-opacity="0.4" fill="#243980"></path>
                    <path d="M27,62 L27,64 L29,64 L29,62 L27,62 L27,62 Z" id="Path" fill-opacity="0.4" fill="#243980"></path>
                    <path d="M42,59 L42,61 L44,61 L44,59 L42,59 L42,59 Z" id="Path" fill-opacity="0.4" fill="#243980"></path>
                    <path d="M39,59 L39,61 L41,61 L41,59 L39,59 L39,59 Z" id="Path" fill-opacity="0.4" fill="#243980"></path>
                    <path d="M36,59 L36,61 L38,61 L38,59 L36,59 L36,59 Z" id="Path" fill-opacity="0.4" fill="#243980"></path>
                    <path d="M33,59 L33,61 L35,61 L35,59 L33,59 L33,59 Z" id="Path" fill-opacity="0.4" fill="#243980"></path>
                    <path d="M30,56 L30,58 L32,58 L32,56 L30,56 L30,56 Z" id="Path" fill-opacity="0.4" fill="#243980"></path>
                    <path d="M24,59 L24,61 L26,61 L26,59 L24,59 L24,59 Z" id="Path" fill-opacity="0.4" fill="#243980"></path>
                    <path d="M27,59 L27,61 L29,61 L29,59 L27,59 L27,59 Z" id="Path" fill-opacity="0.4" fill="#243980"></path>
                    <path d="M51,56 L51,58 L53,58 L53,56 L51,56 L51,56 Z" id="Path" fill-opacity="0.4" fill="#243980"></path>
                    <path d="M48,56 L48,58 L50,58 L50,56 L48,56 L48,56 Z" id="Path" fill-opacity="0.4" fill="#243980"></path>
                    <path d="M45,53 L45,55 L47,55 L47,53 L45,53 L45,53 Z" id="Path" fill-opacity="0.4" fill="#243980"></path>
                    <path d="M42,53 L42,55 L44,55 L44,53 L42,53 L42,53 Z" id="Path" fill-opacity="0.4" fill="#243980"></path>
                    <path d="M39,53 L39,55 L41,55 L41,53 L39,53 L39,53 Z" id="Path" fill-opacity="0.4" fill="#243980"></path>
                    <path d="M36,53 L36,55 L38,55 L38,53 L36,53 L36,53 Z" id="Path" fill-opacity="0.4" fill="#243980"></path>
                    <path d="M45,56 L45,58 L47,58 L47,56 L45,56 L45,56 Z" id="Path" fill-opacity="0.4" fill="#243980"></path>
                    <path d="M42,56 L42,58 L44,58 L44,56 L42,56 L42,56 Z" id="Path" fill-opacity="0.4" fill="#243980"></path>
                    <path d="M39,56 L39,58 L41,58 L41,56 L39,56 L39,56 Z" id="Path" fill-opacity="0.4" fill="#243980"></path>
                    <path d="M36,56 L36,58 L38,58 L38,56 L36,56 L36,56 Z" id="Path" fill-opacity="0.4" fill="#243980"></path>
                    <path d="M33,56 L33,58 L35,58 L35,56 L33,56 L33,56 Z" id="Path" fill-opacity="0.4" fill="#243980"></path>
                    <path d="M30,61 L32,61 L32,59 L30,59 L30,61 Z" id="Path" fill="#243980"></path>
                    <path d="M27,56 L27,58 L29,58 L29,56 L27,56 L27,56 Z" id="Path" fill-opacity="0.4" fill="#243980"></path>
                    <path d="M21,56 L21,58 L23,58 L23,56 L21,56 L21,56 Z" id="Path" fill-opacity="0.4" fill="#243980"></path>
                    <path d="M24,53 L24,55 L26,55 L26,53 L24,53 L24,53 Z" id="Path" fill-opacity="0.4" fill="#243980"></path>
                    <path d="M24,50 L24,52 L26,52 L26,50 L24,50 L24,50 Z" id="Path" fill-opacity="0.4" fill="#243980"></path>
                    <path d="M21,50 L21,52 L23,52 L23,50 L21,50 L21,50 Z" id="Path" fill-opacity="0.4" fill="#243980"></path>
                    <path d="M21,53 L21,55 L23,55 L23,53 L21,53 L21,53 Z" id="Path" fill-opacity="0.4" fill="#243980"></path>
                    <path d="M18,53 L18,55 L20,55 L20,53 L18,53 L18,53 Z" id="Path" fill-opacity="0.4" fill="#243980"></path>
                    <path d="M15,53 L15,55 L17,55 L17,53 L15,53 L15,53 Z" id="Path" fill-opacity="0.4" fill="#243980"></path>
                    <path d="M12,53 L12,55 L14,55 L14,53 L12,53 L12,53 Z" id="Path" fill-opacity="0.4" fill="#243980"></path>
                    <path d="M15,50 L15,52 L17,52 L17,50 L15,50 L15,50 Z" id="Path" fill-opacity="0.4" fill="#243980"></path>
                    <path d="M12,50 L12,52 L14,52 L14,50 L12,50 L12,50 Z" id="Path" fill-opacity="0.4" fill="#243980"></path>
                    <path d="M6,12 L6,14 L8,14 L8,12 L6,12 L6,12 Z" id="Path" fill-opacity="0.4" fill="#143FB4"></path>
                    <path d="M6,62 L6,64 L8,64 L8,62 L6,62 L6,62 Z" id="Path" fill-opacity="0.4" fill="#243980"></path>
                </g>
            </g>
        </g>
    </g>
</svg>