<?xml version="1.0" encoding="utf-8"?>
<!-- Generator: Adobe Illustrator 16.0.5, SVG Export Plug-In . SVG Version: 6.00 Build 0)  -->
<!DOCTYPE svg PUBLIC "-//W3C//DTD SVG 1.1//EN" "http://www.w3.org/Graphics/SVG/1.1/DTD/svg11.dtd">
<svg version="1.1" id="Ebene_1" xmlns="http://www.w3.org/2000/svg" xmlns:xlink="http://www.w3.org/1999/xlink" x="0px" y="0px"
	 width="155.915px" height="37.128px" viewBox="0 0 155.915 37.128" enable-background="new 0 0 155.915 37.128"
	 xml:space="preserve">
<g>
	<g>
		<defs>
			<rect id="SVGID_1_" x="0.004" width="33.833" height="33.833"/>
		</defs>
		<use xlink:href="#SVGID_1_"  overflow="visible" fill="#103184"/>
		<clipPath id="SVGID_2_">
			<use xlink:href="#SVGID_1_"  overflow="visible"/>
		</clipPath>
		<g clip-path="url(#SVGID_2_)">
			<g>
				<polygon fill="#FF1821" points="20.971,16.706 33.837,0 31.937,0 19.027,16.706 				"/>
			</g>
			<g>
				<path fill="#FFFFFF" d="M25.854,24.018c0.59,1.649,1.805,5.942,2.287,6.284h-3.188c0,0-0.012-0.635-0.15-1.126
					c-0.138-0.489-1.291-4.202-1.291-4.202h-5.067l-0.797,1.13c0,0,0.958,2.995,1.017,3.142c0.104,0.264,0.561,1.057,0.561,1.057
					h-3.057c0,0-0.08-0.457-0.109-0.648c-0.024-0.152-0.29-0.995-0.29-0.995s-0.692,0.759-0.882,1.11
					c-0.19,0.352-0.275,0.533-0.275,0.533H12.22c0,0-0.08-0.457-0.109-0.648c-0.023-0.152-0.316-1.063-0.316-1.063
					s-0.67,0.813-0.859,1.164c-0.19,0.352-0.271,0.547-0.271,0.547H8.298c0,0,0.668-0.635,0.901-0.909
					c0.394-0.463,1.862-2.382,1.862-2.382l-0.588-2.037H5.444c0,0-2.867,3.768-2.98,3.884c-0.113,0.114-0.949,1.315-0.969,1.444
					H0.004v-0.948c0.028-0.03,0.05-0.05,0.06-0.058c0.045-0.033,2.173-2.674,4.128-5.278c1.756-2.271,3.403-4.479,3.549-4.69
					c0.35-0.509,0.854-1.607,0.854-1.607h2.6c0,0,0.08,1.011,0.156,1.256c0.067,0.216,1.65,5.413,1.688,5.469l0.876-1.121
					l-1.497-4.608c0,0-0.351-0.867-0.465-0.997h3.036c0,0-0.023,0.446,0.1,0.825c0.123,0.381,0.774,2.73,0.774,2.73
					s2.071-2.596,2.192-2.783c0.228-0.313,0.256-0.772,0.256-0.772h2.529c0,0-0.463,0.338-1.273,1.366
					c-0.273,0.345-2.945,3.741-2.945,3.741s0.233,0.795,0.347,1.19c0.03,0.114,0.053,0.189,0.053,0.198
					c0,0.004,0.059-0.068,0.159-0.198c0.689-0.873,3.825-4.986,4.016-5.338c0.153-0.284,0.379-0.607,0.512-0.959h2.468
					c0,0,0.058,0.737,0.133,0.94L25.854,24.018z M22.099,20.126c-0.364,0.78-2.497,3.377-2.497,3.377h3.378
					c0,0-0.654-2.018-0.769-2.472c-0.091-0.362-0.066-0.828-0.066-0.884C22.145,20.107,22.138,20.04,22.099,20.126z M9.115,20.126
					c-0.362,0.78-2.495,3.377-2.495,3.377h3.379c0,0-0.655-2.018-0.77-2.472c-0.09-0.362-0.066-0.828-0.066-0.884
					C9.163,20.107,9.155,20.04,9.115,20.126z M14.202,28.001l0.93-1.277c-0.086-0.092-0.609-1.682-0.609-1.682l-0.899,1.166
					L14.202,28.001z"/>
			</g>
		</g>
	</g>
</g>
<polygon fill="#FF1821" points="0.004,36.472 155.909,36.472 155.909,37.128 0.004,37.128 0.004,36.472 "/>
<g>
	<polygon fill="#103184" points="49.785,30.303 46.859,30.303 46.233,21.049 41.131,30.303 38.205,30.303 36.803,17.748
		39.881,17.748 40.48,26.777 45.559,17.748 48.635,17.748 49.26,26.751 54.088,17.748 57.039,17.748 49.785,30.303 49.785,30.303
		"/>
	<path fill="#103184" d="M59.264,30.303h-3.076l2.678-12.555h3.05L59.264,30.303L59.264,30.303L59.264,30.303z M62.217,16.547
		h-3.151l0.575-2.652h3.15L62.217,16.547L62.217,16.547L62.217,16.547z"/>
	<path fill="#103184" d="M75.173,23.201l-1.501,7.103h-3.077l1.502-6.952c0.122-0.576,0.274-1.4,0.274-2.052
		c0-0.726-0.326-1.352-1.326-1.352c-1.576,0-3.102,1.701-3.951,3.304c-0.426,0.823-0.701,1.85-0.9,2.774l-0.926,4.277h-3.076
		l2.675-12.555h3.026l-0.474,2.227c0.699-0.952,2.176-2.602,4.8-2.602c2.178,0,3.328,1.15,3.328,3.002
		C75.547,21.25,75.372,22.2,75.173,23.201L75.173,23.201L75.173,23.201z"/>
	<path fill="#103184" d="M85.229,19.948h-2.854l-1.401,6.603c-0.073,0.326-0.15,0.805-0.124,1.077
		c0.051,0.627,0.576,0.876,1.273,0.876c0.553,0,1.152-0.125,1.628-0.225l-0.401,1.9c-0.498,0.199-1.55,0.375-2.399,0.375
		c-2.052,0-3.229-0.852-3.229-2.502c0-0.425,0.101-1.176,0.228-1.775l1.35-6.329h-2.328l0.477-2.2h2.326l0.826-3.853h3.076
		l-0.824,3.853h2.877L85.229,19.948L85.229,19.948L85.229,19.948z"/>
	<path fill="#103184" d="M96.883,24.751h-8.153c-0.054,0.3-0.077,0.65-0.077,0.949c0,1.752,1.152,2.602,3.102,2.602
		c1.553,0,3.002-0.35,4.227-0.825l-0.499,2.302c-0.497,0.324-2.2,0.899-4.377,0.899c-4.179,0-5.752-2.225-5.752-5.177
		c0-4.152,2.799-8.129,7.327-8.129c2.877,0,4.854,1.351,4.854,4.252C97.534,22.824,97.207,23.901,96.883,24.751L96.883,24.751
		L96.883,24.751z M92.529,19.423c-1.873,0-3.076,1.853-3.428,3.252h5.205c0.051-0.125,0.275-0.625,0.275-1.451
		C94.582,20.298,94.082,19.423,92.529,19.423L92.529,19.423L92.529,19.423z"/>
	<path fill="#103184" d="M107.736,20.625c-0.124-0.026-0.35-0.076-0.775-0.076c-1.525,0-3.024,1.326-3.727,2.626
		c-0.523,0.976-0.775,2.051-0.975,3.027l-0.876,4.101h-3.075l2.676-12.555h3l-0.522,2.475c0.674-1.125,2.023-2.525,4.075-2.525
		c0.426,0,0.701,0.023,0.799,0.05L107.736,20.625L107.736,20.625L107.736,20.625z"/>
	<path fill="#103184" d="M117.09,19.948h-2.848l-1.402,6.603c-0.074,0.326-0.15,0.805-0.125,1.077
		c0.051,0.627,0.575,0.876,1.275,0.876c0.551,0,1.149-0.125,1.626-0.225l-0.399,1.9c-0.5,0.199-1.551,0.375-2.401,0.375
		c-2.054,0-3.226-0.852-3.226-2.502c0-0.425,0.099-1.176,0.223-1.775l1.352-6.329h-2.325l0.476-2.2h2.324l0.824-3.853h3.079
		l-0.825,3.853h2.877L117.09,19.948L117.09,19.948L117.09,19.948z"/>
	<path fill="#103184" d="M130.021,23.201l-1.499,7.103h-3.075l1.498-6.929c0.129-0.574,0.276-1.398,0.276-2.05
		c0-0.726-0.325-1.35-1.325-1.35c-1.579,0-3.103,1.7-3.951,3.302c-0.428,0.823-0.701,1.85-0.9,2.775l-0.928,4.251h-3.075
		l3.452-16.408h3.023l-1.247,6.08c0.7-0.952,2.351-2.602,4.774-2.602c2.201,0,3.354,1.15,3.354,3.002
		C130.398,21.25,130.223,22.2,130.021,23.201L130.021,23.201L130.021,23.201z"/>
	<path fill="#103184" d="M142.877,30.303h-3.025l0.477-2.2c-0.902,1.151-2.252,2.575-4.777,2.575c-2.201,0-3.354-1.126-3.354-3.001
		c0-0.873,0.176-1.826,0.375-2.826l1.504-7.103h3.074l-1.5,6.977c-0.1,0.401-0.273,1.327-0.273,2.026
		c0,0.801,0.299,1.377,1.324,1.377c1.551,0,3.201-1.677,3.979-3.301c0.449-0.952,0.699-1.802,0.898-2.777l0.9-4.302h3.078
		L142.877,30.303L142.877,30.303L142.877,30.303z"/>
	<path fill="#103184" d="M155.26,20.625c-0.125-0.026-0.352-0.076-0.777-0.076c-1.523,0-3.025,1.326-3.725,2.626
		c-0.523,0.976-0.775,2.051-0.975,3.027l-0.879,4.101h-3.072l2.676-12.555h2.998l-0.523,2.475c0.676-1.125,2.027-2.525,4.078-2.525
		c0.426,0,0.697,0.023,0.801,0.05L155.26,20.625L155.26,20.625L155.26,20.625z"/>
</g>
</svg>
