<?xml version="1.0" encoding="UTF-8" standalone="no"?>
<svg
   xmlns:sketch="http://www.bohemiancoding.com/sketch/ns"
   xmlns:dc="http://purl.org/dc/elements/1.1/"
   xmlns:cc="http://creativecommons.org/ns#"
   xmlns:rdf="http://www.w3.org/1999/02/22-rdf-syntax-ns#"
   xmlns:svg="http://www.w3.org/2000/svg"
   xmlns="http://www.w3.org/2000/svg"
   xmlns:xlink="http://www.w3.org/1999/xlink"
   xmlns:sodipodi="http://sodipodi.sourceforge.net/DTD/sodipodi-0.dtd"
   xmlns:inkscape="http://www.inkscape.org/namespaces/inkscape"
   width="230"
   height="54"
   viewBox="0 0 230 54"
   version="1.1"
   id="svg2"
   inkscape:version="0.48.5 r10040"
   sodipodi:docname="logo.svg">
  <metadata
     id="metadata53">
    <rdf:RDF>
      <cc:Work
         rdf:about="">
        <dc:format>image/svg+xml</dc:format>
        <dc:type
           rdf:resource="http://purl.org/dc/dcmitype/StillImage" />
      </cc:Work>
    </rdf:RDF>
  </metadata>
  <sodipodi:namedview
     pagecolor="#ffffff"
     bordercolor="#666666"
     borderopacity="1"
     objecttolerance="10"
     gridtolerance="10"
     guidetolerance="10"
     inkscape:pageopacity="0"
     inkscape:pageshadow="2"
     inkscape:window-width="1184"
     inkscape:window-height="537"
     id="namedview51"
     showgrid="false"
     inkscape:zoom="2.1826087"
     inkscape:cx="-3.036985"
     inkscape:cy="28.141378"
     inkscape:window-x="0"
     inkscape:window-y="0"
     inkscape:window-maximized="0"
     inkscape:current-layer="svg2" />
  <!-- Generator: Sketch 3.1 (8751) - http://www.bohemiancoding.com/sketch -->
  <title
     id="title4">logo</title>
  <desc
     id="desc6">Created with Sketch.</desc>
  <defs
     id="defs8">
    <rect
       id="path-1"
       x="0"
       y="0"
       width="33.833"
       height="33.833" />
  </defs>
  <g
     id="Page-1"
     sketch:type="MSPage"
     style="fill:none;stroke:none"
     transform="scale(1.4752195,1.4544279)">
    <g
       id="logo"
       sketch:type="MSLayerGroup">
      <g
         id="Group">
        <g
           id="SVGID_1_-link"
           sketch:type="MSShapeGroup"
           style="fill:#103184">
          <rect
             id="SVGID_1_"
             x="0"
             y="0"
             width="33.833"
             height="33.833" />
        </g>
        <g
           id="Clipped">
          <mask
             id="mask-2"
             sketch:name="SVGID_1_"
             fill="white">
            <use
               xlink:href="#path-1"
               id="use18"
               x="0"
               y="0"
               width="156"
               height="38" />
          </mask>
          <g
             id="g20" />
          <g
             id="g22"
             mask="url(#mask-2)"
             sketch:type="MSShapeGroup">
            <path
               d="M 20.971,16.706 33.837,0 l -1.9,0 -12.91,16.706 1.944,0 z"
               id="Shape"
               inkscape:connector-curvature="0"
               style="fill:#ff1821" />
            <path
               d="m 25.854,24.018 c 0.59,1.649 1.805,5.942 2.287,6.284 l -3.188,0 c 0,0 -0.012,-0.635 -0.15,-1.126 -0.138,-0.489 -1.291,-4.202 -1.291,-4.202 l -5.067,0 -0.797,1.13 c 0,0 0.958,2.995 1.017,3.142 0.104,0.264 0.561,1.057 0.561,1.057 l -3.057,0 c 0,0 -0.08,-0.457 -0.109,-0.648 -0.024,-0.152 -0.29,-0.995 -0.29,-0.995 0,0 -0.692,0.759 -0.882,1.11 -0.19,0.352 -0.275,0.533 -0.275,0.533 l -2.393,0 c 0,0 -0.08,-0.457 -0.109,-0.648 -0.023,-0.152 -0.316,-1.063 -0.316,-1.063 0,0 -0.67,0.813 -0.859,1.164 -0.19,0.352 -0.271,0.547 -0.271,0.547 l -2.367,0 c 0,0 0.668,-0.635 0.901,-0.909 0.394,-0.463 1.862,-2.382 1.862,-2.382 l -0.588,-2.037 -5.029,0 c 0,0 -2.867,3.768 -2.98,3.884 -0.113,0.114 -0.949,1.315 -0.969,1.444 l -1.491,0 0,-0.948 c 0.028,-0.03 0.05,-0.05 0.06,-0.058 0.045,-0.033 2.173,-2.674 4.128,-5.278 1.756,-2.271 3.403,-4.479 3.549,-4.69 0.35,-0.509 0.854,-1.607 0.854,-1.607 l 2.6,0 c 0,0 0.08,1.011 0.156,1.256 0.067,0.216 1.65,5.413 1.688,5.469 l 0.876,-1.121 -1.497,-4.608 c 0,0 -0.351,-0.867 -0.465,-0.997 l 3.036,0 c 0,0 -0.023,0.446 0.1,0.825 0.123,0.381 0.774,2.73 0.774,2.73 0,0 2.071,-2.596 2.192,-2.783 0.228,-0.313 0.256,-0.772 0.256,-0.772 l 2.529,0 c 0,0 -0.463,0.338 -1.273,1.366 -0.273,0.345 -2.945,3.741 -2.945,3.741 0,0 0.233,0.795 0.347,1.19 0.03,0.114 0.053,0.189 0.053,0.198 0,0.004 0.059,-0.068 0.159,-0.198 0.689,-0.873 3.825,-4.986 4.016,-5.338 0.153,-0.284 0.379,-0.607 0.512,-0.959 l 2.468,0 c 0,0 0.058,0.737 0.133,0.94 l 1.544,5.357 0,0 z m -3.755,-3.892 c -0.364,0.78 -2.497,3.377 -2.497,3.377 l 3.378,0 c 0,0 -0.654,-2.018 -0.769,-2.472 -0.091,-0.362 -0.066,-0.828 -0.066,-0.884 0,-0.04 -0.007,-0.107 -0.046,-0.021 l 0,0 z m -12.984,0 C 8.753,20.906 6.62,23.503 6.62,23.503 l 3.379,0 c 0,0 -0.655,-2.018 -0.77,-2.472 -0.09,-0.362 -0.066,-0.828 -0.066,-0.884 0,-0.04 -0.008,-0.107 -0.048,-0.021 l 0,0 z m 5.087,7.875 0.93,-1.277 c -0.086,-0.092 -0.609,-1.682 -0.609,-1.682 l -0.899,1.166 0.578,1.793 0,0 z"
               id="path25"
               inkscape:connector-curvature="0"
               style="fill:#ffffff" />
          </g>
        </g>
      </g>
      <path
         d="m 0.004,36.472 155.905,0 0,0.656 -155.905,0 0,-0.656 0,0 z"
         id="path27"
         sketch:type="MSShapeGroup"
         inkscape:connector-curvature="0"
         style="fill:#ff1821" />
      <g
         id="g29"
         transform="translate(37,14)"
         sketch:type="MSShapeGroup"
         style="fill:#103184">
        <path
           d="m 12.785,16.303 -2.926,0 -0.626,-9.254 -5.102,9.254 -2.926,0 -1.402,-12.555 3.078,0 0.599,9.029 5.079,-9.029 3.076,0 0.625,9.003 4.828,-9.003 2.951,0 -7.254,12.555 0,0 z"
           id="path31"
           inkscape:connector-curvature="0" />
        <path
           d="m 22.264,16.303 -3.076,0 2.678,-12.555 3.05,0 -2.652,12.555 0,0 z m 2.953,-13.756 -3.151,0 0.575,-2.652 3.15,0 -0.574,2.652 0,0 z"
           id="path33"
           inkscape:connector-curvature="0" />
        <path
           d="m 38.173,9.201 -1.501,7.103 -3.077,0 1.502,-6.952 c 0.122,-0.576 0.274,-1.4 0.274,-2.052 0,-0.726 -0.326,-1.352 -1.326,-1.352 -1.576,0 -3.102,1.701 -3.951,3.304 -0.426,0.823 -0.701,1.85 -0.9,2.774 l -0.926,4.277 -3.076,0 2.675,-12.555 3.026,0 -0.474,2.227 c 0.699,-0.952 2.176,-2.602 4.8,-2.602 2.178,0 3.328,1.15 3.328,3.002 0,0.875 -0.175,1.825 -0.374,2.826 l 0,0 0,0 z"
           id="path35"
           inkscape:connector-curvature="0" />
        <path
           d="m 48.229,5.948 -2.854,0 -1.401,6.603 c -0.073,0.326 -0.15,0.805 -0.124,1.077 0.051,0.627 0.576,0.876 1.273,0.876 0.553,0 1.152,-0.125 1.628,-0.225 l -0.401,1.9 c -0.498,0.199 -1.55,0.375 -2.399,0.375 -2.052,0 -3.229,-0.852 -3.229,-2.502 0,-0.425 0.101,-1.176 0.228,-1.775 l 1.35,-6.329 -2.328,0 0.477,-2.2 2.326,0 0.826,-3.853 3.076,0 -0.824,3.853 2.877,0 -0.501,2.2 0,0 z"
           id="path37"
           inkscape:connector-curvature="0" />
        <path
           d="m 59.883,10.751 -8.153,0 c -0.054,0.3 -0.077,0.65 -0.077,0.949 0,1.752 1.152,2.602 3.102,2.602 1.553,0 3.002,-0.35 4.227,-0.825 l -0.499,2.302 c -0.497,0.324 -2.2,0.899 -4.377,0.899 -4.179,0 -5.752,-2.225 -5.752,-5.177 0,-4.152 2.799,-8.129 7.327,-8.129 2.877,0 4.854,1.351 4.854,4.252 -10e-4,1.2 -0.328,2.277 -0.652,3.127 l 0,0 0,0 z M 55.529,5.423 c -1.873,0 -3.076,1.853 -3.428,3.252 l 5.205,0 C 57.357,8.55 57.581,8.05 57.581,7.224 57.582,6.298 57.082,5.423 55.529,5.423 l 0,0 0,0 z"
           id="path39"
           inkscape:connector-curvature="0" />
        <path
           d="m 70.736,6.625 c -0.124,-0.026 -0.35,-0.076 -0.775,-0.076 -1.525,0 -3.024,1.326 -3.727,2.626 -0.523,0.976 -0.775,2.051 -0.975,3.027 l -0.876,4.101 -3.075,0 2.676,-12.555 3,0 -0.522,2.475 c 0.674,-1.125 2.023,-2.525 4.075,-2.525 0.426,0 0.701,0.023 0.799,0.05 l -0.6,2.877 0,0 z"
           id="path41"
           inkscape:connector-curvature="0" />
        <path
           d="m 80.09,5.948 -2.848,0 -1.402,6.603 c -0.074,0.326 -0.15,0.805 -0.125,1.077 0.051,0.627 0.575,0.876 1.275,0.876 0.551,0 1.149,-0.125 1.626,-0.225 l -0.399,1.9 c -0.5,0.199 -1.551,0.375 -2.401,0.375 -2.054,0 -3.226,-0.852 -3.226,-2.502 0,-0.425 0.099,-1.176 0.223,-1.775 l 1.352,-6.329 -2.325,0 0.476,-2.2 2.324,0 0.824,-3.853 3.079,0 -0.825,3.853 2.877,0 -0.505,2.2 0,0 z"
           id="path43"
           inkscape:connector-curvature="0" />
        <path
           d="m 93.021,9.201 -1.499,7.103 -3.075,0 1.498,-6.929 c 0.129,-0.574 0.276,-1.398 0.276,-2.05 0,-0.726 -0.325,-1.35 -1.325,-1.35 -1.579,0 -3.103,1.7 -3.951,3.302 -0.428,0.823 -0.701,1.85 -0.9,2.775 l -0.928,4.251 -3.075,0 3.452,-16.408 3.023,0 -1.247,6.08 c 0.7,-0.952 2.351,-2.602 4.774,-2.602 2.201,0 3.354,1.15 3.354,3.002 0,0.875 -0.175,1.825 -0.377,2.826 l 0,0 0,0 z"
           id="path45"
           inkscape:connector-curvature="0" />
        <path
           d="m 105.877,16.303 -3.025,0 0.477,-2.2 c -0.902,1.151 -2.252,2.575 -4.777,2.575 -2.201,0 -3.354,-1.126 -3.354,-3.001 0,-0.873 0.176,-1.826 0.375,-2.826 l 1.504,-7.103 3.074,0 -1.5,6.977 c -0.1,0.401 -0.273,1.327 -0.273,2.026 0,0.801 0.299,1.377 1.324,1.377 1.551,0 3.201,-1.677 3.979,-3.301 0.449,-0.952 0.699,-1.802 0.898,-2.777 l 0.9,-4.302 3.078,0 -2.68,12.555 0,0 z"
           id="path47"
           inkscape:connector-curvature="0" />
        <path
           d="m 118.26,6.625 c -0.125,-0.026 -0.352,-0.076 -0.777,-0.076 -1.523,0 -3.025,1.326 -3.725,2.626 -0.523,0.976 -0.775,2.051 -0.975,3.027 l -0.879,4.101 -3.072,0 2.676,-12.555 2.998,0 -0.523,2.475 c 0.676,-1.125 2.027,-2.525 4.078,-2.525 0.426,0 0.697,0.023 0.801,0.05 l -0.602,2.877 0,0 z"
           id="path49"
           inkscape:connector-curvature="0" />
      </g>
    </g>
  </g>
</svg>
