<svg xmlns="http://www.w3.org/2000/svg" width="230" height="54" viewBox="0 0 230 54">
    <g fill="none">
        <path d="M0 0h49.911v49.208H0z" fill="#103184"/>
        <g transform="scale(1.47522 1.45443)">
            <mask id="a" fill="#fff">
                <path d="M0 0h33.833v33.833H0z"/>
            </mask>
            <g mask="url(#a)">
                <path d="M20.971 16.706L33.837 0h-1.9l-12.91 16.706h1.944z" fill="#ff1821"/>
                <path d="M25.854 24.018c.59 1.649 1.805 5.942 2.287 6.284h-3.188s-.012-.635-.15-1.126c-.138-.489-1.291-4.202-1.291-4.202h-5.067l-.797 1.13s.958 2.995 1.017 3.142c.104.264.561 1.057.561 1.057h-3.057s-.08-.457-.109-.648c-.024-.152-.29-.995-.29-.995s-.692.759-.882 1.11c-.19.352-.275.533-.275.533H12.22s-.08-.457-.109-.648c-.023-.152-.316-1.063-.316-1.063s-.67.813-.859 1.164c-.19.352-.271.547-.271.547H8.298s.668-.635.901-.909c.394-.463 1.862-2.382 1.862-2.382l-.588-2.037H5.444s-2.867 3.768-2.98 3.884c-.113.114-.949 1.315-.969 1.444H.004v-.948c.028-.03.05-.05.06-.058.045-.033 2.173-2.674 4.128-5.278a251.217 251.217 0 0 0 3.549-4.69c.35-.509.854-1.607.854-1.607h2.6s.08 1.011.156 1.256c.067.216 1.65 5.413 1.688 5.469l.876-1.121-1.497-4.608s-.351-.867-.465-.997h3.036s-.023.446.1.825c.123.381.774 2.73.774 2.73s2.071-2.596 2.192-2.783c.228-.313.256-.772.256-.772h2.529s-.463.338-1.273 1.366c-.273.345-2.945 3.741-2.945 3.741s.233.795.347 1.19c.03.114.053.189.053.198 0 .004.059-.068.159-.198.689-.873 3.825-4.986 4.016-5.338.153-.284.379-.607.512-.959h2.468s.058.737.133.94l1.544 5.357zm-3.755-3.892c-.364.78-2.497 3.377-2.497 3.377h3.378s-.654-2.018-.769-2.472c-.091-.362-.066-.828-.066-.884 0-.04-.007-.107-.046-.021zm-12.984 0c-.362.78-2.495 3.377-2.495 3.377h3.379s-.655-2.018-.77-2.472c-.09-.362-.066-.828-.066-.884 0-.04-.008-.107-.048-.021zm5.087 7.875l.93-1.277c-.086-.092-.609-1.682-.609-1.682l-.899 1.166.578 1.793z" fill="#fff"/>
            </g>
        </g>
        <path d="M.006 53.046H230V54H.006v-.954z" fill="#ff1821"/>
        <path d="M73.444 44.074h-4.317l-.923-13.46-7.527 13.46h-4.316l-2.068-18.26h4.54l.884 13.131 7.493-13.132h4.537l.922 13.094 7.123-13.094h4.353l-10.701 18.26zm13.983 0H82.89l3.95-18.26h4.5l-3.913 18.26zm4.357-20.008h-4.649l.849-3.857h4.647l-.847 3.857zm19.113 9.678l-2.215 10.331h-4.539l2.216-10.111c.18-.838.404-2.036.404-2.985 0-1.056-.48-1.966-1.956-1.966-2.325 0-4.576 2.474-5.829 4.805-.628 1.197-1.034 2.691-1.327 4.035l-1.366 6.22h-4.538l3.946-18.26h4.464l-.7 3.24c1.032-1.385 3.21-3.785 7.082-3.785 3.213 0 4.91 1.672 4.91 4.366 0 1.273-.259 2.654-.552 4.11zm14.834-4.731h-4.21l-2.067 9.604c-.107.474-.22 1.17-.183 1.566.076.912.85 1.274 1.878 1.274.816 0 1.7-.182 2.402-.327l-.591 2.763c-.735.29-2.287.546-3.54.546-3.027 0-4.763-1.24-4.763-3.64 0-.618.149-1.71.336-2.581l1.992-9.205h-3.434l.703-3.2h3.432l1.218-5.604h4.538l-1.216 5.604h4.245l-.74 3.2zm17.193 6.986h-12.028a8.08 8.08 0 0 0-.113 1.38c0 2.548 1.7 3.784 4.576 3.784 2.29 0 4.428-.509 6.236-1.2l-.737 3.348c-.733.472-3.245 1.308-6.457 1.308-6.165 0-8.485-3.236-8.485-7.53 0-6.038 4.129-11.823 10.809-11.823 4.244 0 7.16 1.965 7.16 6.185 0 1.745-.483 3.311-.961 4.548zm-6.423-7.75c-2.764 0-4.538 2.695-5.057 4.73h7.678c.075-.182.406-.909.406-2.11.001-1.347-.736-2.62-3.027-2.62zm22.433 1.749c-.183-.038-.516-.111-1.143-.111-2.25 0-4.461 1.929-5.498 3.82-.772 1.419-1.143 2.982-1.439 4.402l-1.292 5.965h-4.536l3.948-18.26h4.425l-.77 3.599c.994-1.636 2.985-3.673 6.012-3.673.628 0 1.034.034 1.178.073l-.885 4.185zm13.799-.985h-4.201l-2.068 9.604c-.11.474-.222 1.17-.185 1.566.076.912.849 1.274 1.881 1.274.813 0 1.695-.182 2.399-.327l-.589 2.763c-.737.29-2.288.546-3.542.546-3.03 0-4.759-1.24-4.759-3.64 0-.618.146-1.71.33-2.581l1.994-9.205h-3.43l.702-3.2h3.429l1.215-5.604h4.542l-1.217 5.604h4.244l-.745 3.2zm19.077 4.731l-2.212 10.331h-4.536l2.21-10.078c.19-.835.407-2.033.407-2.981 0-1.056-.48-1.964-1.955-1.964-2.33 0-4.577 2.473-5.828 4.803-.632 1.197-1.034 2.69-1.328 4.036l-1.37 6.183h-4.535l5.092-23.865h4.46l-1.84 8.843c1.033-1.384 3.468-3.784 7.043-3.784 3.247 0 4.948 1.672 4.948 4.366 0 1.273-.258 2.654-.556 4.11zm18.965 10.33h-4.463l.704-3.2c-1.33 1.674-3.322 3.745-7.047 3.745-3.247 0-4.948-1.638-4.948-4.365 0-1.27.26-2.656.553-4.11l2.219-10.33h4.535l-2.213 10.147c-.148.583-.403 1.93-.403 2.946 0 1.165.441 2.003 1.953 2.003 2.289 0 4.723-2.439 5.87-4.8.663-1.386 1.032-2.622 1.325-4.04l1.328-6.257h4.54l-3.953 18.26zm18.268-14.076c-.185-.038-.52-.111-1.147-.111-2.246 0-4.462 1.929-5.495 3.82-.771 1.419-1.143 2.982-1.438 4.402l-1.297 5.965h-4.532l3.948-18.26h4.423l-.772 3.599c.997-1.636 2.99-3.673 6.016-3.673.628 0 1.028.034 1.182.073l-.888 4.185z" fill="#103184"/>
    </g>
</svg>
