<?xml version="1.0" encoding="utf-8"?>
<!-- Generator: Adobe Illustrator 16.0.5, SVG Export Plug-In . SVG Version: 6.00 Build 0)  -->
<!DOCTYPE svg PUBLIC "-//W3C//DTD SVG 1.1//EN" "http://www.w3.org/Graphics/SVG/1.1/DTD/svg11.dtd">
<svg version="1.1" id="Ebene_1" xmlns="http://www.w3.org/2000/svg" xmlns:xlink="http://www.w3.org/1999/xlink" x="0px" y="0px"
	 width="155.915px" height="14.464px" viewBox="0 0 155.915 14.464" enable-background="new 0 0 155.915 14.464"
	 xml:space="preserve">
<g>
	<g>
		<path fill="#103184" d="M0.831,6.871v2.07h2.618v0.664H0.831v3.077h-0.83V6.169h3.985v0.702H0.831z"/>
		<path fill="#103184" d="M4.795,7.008V6.169h0.81v0.839H4.795z M4.834,12.683V7.859h0.741v4.823H4.834z"/>
		<path fill="#103184" d="M10.166,12.683V9.586c0-0.662-0.264-1.21-1.007-1.21c-0.898,0-1.348,0.86-1.348,1.659v2.647H7.079V7.868
			h0.694v0.88c0.313-0.617,0.81-1.017,1.523-1.017c0.664,0,1.299,0.399,1.485,1.055c0.097,0.342,0.087,0.761,0.087,1.112v2.784
			H10.166z"/>
		<path fill="#103184" d="M15.399,12.683c-0.059-0.283-0.069-0.576-0.088-0.87c-0.234,0.421-0.419,0.685-0.879,0.859
			c-0.253,0.1-0.527,0.138-0.8,0.138c-0.889,0-1.69-0.487-1.69-1.456c0-0.408,0.196-0.819,0.489-1.093
			c0.537-0.499,1.563-0.577,2.246-0.577c0.215,0,0.42,0.011,0.635,0.02V9.566c0-0.907-0.321-1.249-1.23-1.249
			c-0.625,0-1.173,0.195-1.319,0.869L12.079,9.06c0.185-1.045,1.162-1.328,2.1-1.328c1.436,0,1.855,0.615,1.855,1.972v2.042
			c0,0.313,0.029,0.635,0.107,0.938H15.399z M15.311,10.27c-0.214-0.009-0.429-0.02-0.645-0.02c-0.742,0-1.924,0.146-1.924,1.124
			c0,0.576,0.479,0.859,1.006,0.859c0.928,0,1.572-0.743,1.572-1.65C15.32,10.475,15.32,10.377,15.311,10.27z"/>
		<path fill="#103184" d="M20.613,12.683V9.586c0-0.662-0.263-1.21-1.006-1.21c-0.899,0-1.348,0.86-1.348,1.659v2.647h-0.732V7.868
			h0.694v0.88c0.313-0.617,0.811-1.017,1.523-1.017c0.664,0,1.299,0.399,1.485,1.055c0.097,0.342,0.088,0.761,0.088,1.112v2.784
			H20.613z"/>
		<path fill="#103184" d="M22.389,12.683v-0.576l2.56-3.653h-2.364V7.868h3.359v0.409l-2.657,3.829h2.657v0.576H22.389z"/>
		<path fill="#103184" d="M26.911,7.008V6.169h0.81v0.839H26.911z M26.949,12.683V7.859h0.743v4.823H26.949z"/>
		<path fill="#103184" d="M29.654,10.338c0,0.411,0.009,0.742,0.195,1.113c0.235,0.46,0.723,0.732,1.24,0.732
			c0.654,0,1.036-0.35,1.289-0.938l0.693,0.148c-0.312,0.917-1.084,1.415-2.041,1.415c-1.455,0-2.217-1.152-2.217-2.51
			c0-1.348,0.782-2.568,2.237-2.568c1.543,0,2.081,1.24,2.1,2.606H29.654z M31.07,8.308c-0.87,0-1.299,0.684-1.387,1.474h2.646
			C32.32,9.001,31.93,8.308,31.07,8.308z"/>
		<path fill="#103184" d="M34.282,12.683V6.169h0.752v6.514H34.282z"/>
		<path fill="#103184" d="M36.538,12.683V6.169h0.752v6.514H36.538z"/>
		<path fill="#103184" d="M39.252,10.338c0,0.411,0.01,0.742,0.196,1.113c0.234,0.46,0.723,0.732,1.241,0.732
			c0.654,0,1.035-0.35,1.29-0.938l0.693,0.148c-0.313,0.917-1.084,1.415-2.042,1.415c-1.455,0-2.217-1.152-2.217-2.51
			c0-1.348,0.782-2.568,2.237-2.568c1.543,0,2.08,1.24,2.099,2.606H39.252z M40.668,8.308c-0.869,0-1.299,0.684-1.387,1.474h2.647
			C41.918,9.001,41.528,8.308,40.668,8.308z"/>
		<path fill="#103184" d="M48.333,12.81c-0.723,0-1.368-0.138-1.915-0.645c-0.41-0.382-0.557-0.694-0.751-1.211l0.732-0.166
			c0.312,0.917,0.967,1.327,1.924,1.327c0.762,0,1.563-0.303,1.563-1.182c0-0.596-0.479-0.898-0.996-1.035
			c-0.43-0.117-0.869-0.225-1.299-0.332c-0.391-0.098-0.762-0.205-1.065-0.487c-0.361-0.331-0.537-0.771-0.537-1.26
			c0-1.23,1.104-1.778,2.198-1.778c1.133,0,1.953,0.529,2.324,1.611l-0.732,0.207c-0.205-0.764-0.849-1.163-1.622-1.163
			c-0.644,0-1.368,0.342-1.368,1.074c0,0.645,0.509,0.85,1.056,0.986c0.4,0.098,0.811,0.195,1.211,0.292
			c0.947,0.235,1.679,0.742,1.679,1.797C50.736,12.203,49.554,12.81,48.333,12.81z"/>
		<path fill="#103184" d="M51.838,7.008V6.169h0.81v0.839H51.838z M51.877,12.683V7.859h0.742v4.823H51.877z"/>
		<path fill="#103184" d="M57.082,12.292c-0.371,0.371-0.781,0.518-1.308,0.518c-1.427,0-2.032-1.26-2.032-2.529
			c0-1.279,0.635-2.549,2.07-2.549c1.064,0,1.661,0.684,1.835,1.688l-0.683,0.127c-0.098-0.673-0.42-1.181-1.152-1.181
			c-1.006,0-1.28,1.083-1.28,1.895c0,0.811,0.244,1.913,1.26,1.913c0.713,0,1.045-0.547,1.172-1.181l0.683,0.117
			C57.551,11.608,57.453,11.931,57.082,12.292z"/>
		<path fill="#103184" d="M61.641,12.683v-2.93c0-0.713-0.078-1.406-0.948-1.406c-0.361,0-0.703,0.194-0.938,0.459
			c-0.322,0.361-0.4,0.81-0.4,1.279v2.598h-0.742V6.169h0.742v2.588c0.332-0.635,0.732-1.025,1.484-1.025
			c0.508,0,0.967,0.216,1.26,0.635c0.313,0.45,0.293,0.858,0.293,1.387v2.93H61.641z"/>
		<path fill="#103184" d="M64.355,10.338c0,0.411,0.01,0.742,0.196,1.113c0.234,0.46,0.723,0.732,1.24,0.732
			c0.654,0,1.036-0.35,1.289-0.938l0.694,0.148c-0.313,0.917-1.084,1.415-2.041,1.415c-1.456,0-2.218-1.152-2.218-2.51
			c0-1.348,0.782-2.568,2.237-2.568c1.543,0,2.08,1.24,2.099,2.606H64.355z M65.771,8.308c-0.87,0-1.299,0.684-1.387,1.474h2.646
			C67.021,9.001,66.63,8.308,65.771,8.308z"/>
		<path fill="#103184" d="M71.19,8.453c-0.947,0-1.475,0.791-1.475,1.68v2.55h-0.732V7.868h0.654v1.123
			c0.264-0.664,0.645-1.271,1.437-1.271c0.097,0,0.185,0.011,0.283,0.02v0.724C71.298,8.453,71.25,8.453,71.19,8.453z"/>
		<path fill="#103184" d="M75.233,12.683v-2.93c0-0.713-0.078-1.406-0.948-1.406c-0.36,0-0.703,0.194-0.937,0.459
			c-0.322,0.361-0.401,0.81-0.401,1.279v2.598h-0.741V6.169h0.741v2.588c0.333-0.635,0.733-1.025,1.485-1.025
			c0.509,0,0.966,0.216,1.261,0.635c0.312,0.45,0.292,0.858,0.292,1.387v2.93H75.233z"/>
		<path fill="#103184" d="M77.946,10.338c0,0.411,0.008,0.742,0.193,1.113c0.235,0.46,0.724,0.732,1.242,0.732
			c0.654,0,1.035-0.35,1.289-0.938l0.694,0.148c-0.313,0.917-1.086,1.415-2.042,1.415c-1.455,0-2.217-1.152-2.217-2.51
			c0-1.348,0.78-2.568,2.236-2.568c1.542,0,2.08,1.24,2.1,2.606H77.946z M79.362,8.308c-0.87,0-1.301,0.684-1.388,1.474h2.646
			C80.612,9.001,80.221,8.308,79.362,8.308z"/>
		<path fill="#103184" d="M82.536,7.008V6.169h0.81v0.839H82.536z M82.574,12.683V7.859h0.742v4.823H82.574z"/>
		<path fill="#103184" d="M86.294,12.81c-0.957,0-1.377-0.527-1.377-1.456v-2.9h-0.858V7.868h0.858l0.028-1.211l0.694-0.068v1.279
			h1.084v0.585H85.64v3.018c0,0.509,0.274,0.752,0.771,0.752c0.196,0,0.392-0.028,0.587-0.058v0.596
			C86.763,12.791,86.529,12.81,86.294,12.81z"/>
	</g>
	<path fill="#103184" d="M99.618,12.684V9.626c0-0.302-0.039-0.584-0.4-0.584c-0.44,0-0.528,0.359-0.528,0.731v2.91h-1.902V7.829
		h1.768v0.694c0.321-0.586,0.76-0.791,1.416-0.791c0.419,0,0.85,0.128,1.161,0.42c0.42,0.391,0.391,0.89,0.391,1.425v3.106H99.618z"
		/>
	<path fill="#103184" d="M107.508,10.643h-3.241c0,0.547,0.137,0.898,0.742,0.898c0.428,0,0.635-0.177,0.731-0.595l1.768,0.116
		c-0.272,1.2-1.366,1.719-2.509,1.719c-1.494,0-2.726-0.878-2.726-2.462c0-1.552,1.144-2.587,2.667-2.587
		c1.591,0,2.578,1.065,2.578,2.636C107.519,10.456,107.519,10.555,107.508,10.643z M104.94,8.854c-0.508,0-0.674,0.362-0.674,0.82
		h1.346C105.594,9.207,105.467,8.854,104.94,8.854z"/>
	<path fill="#103184" d="M111.218,12.684v-0.791c-0.271,0.635-0.829,0.889-1.503,0.889c-0.947,0-1.455-0.547-1.455-1.485V7.829
		h1.914v3.057c0,0.304,0.029,0.529,0.381,0.529c0.392,0,0.548-0.323,0.548-0.676v-2.91h1.893v4.854H111.218z"/>
	<path fill="#103184" d="M119.381,12.684V12.04c-0.313,0.536-0.674,0.741-1.298,0.741c-1.417,0-1.885-1.309-1.885-2.52
		c0-1.212,0.487-2.578,1.914-2.578c0.517,0,0.84,0.177,1.18,0.546V6.17h1.877v6.514H119.381z M119.292,9.558
		c0-0.359-0.137-0.643-0.536-0.643c-0.615,0-0.615,1.014-0.615,1.424c0,0.411,0.03,1.183,0.605,1.183
		c0.42,0,0.546-0.401,0.546-0.752V9.558z"/>
	<path fill="#103184" d="M127.145,10.643h-3.242c0,0.547,0.137,0.898,0.742,0.898c0.43,0,0.635-0.177,0.731-0.595l1.769,0.116
		c-0.274,1.2-1.368,1.719-2.511,1.719c-1.494,0-2.726-0.878-2.726-2.462c0-1.552,1.144-2.587,2.668-2.587
		c1.591,0,2.577,1.065,2.577,2.636C127.153,10.456,127.153,10.555,127.145,10.643z M124.576,8.854c-0.51,0-0.674,0.362-0.674,0.82
		h1.348C125.23,9.207,125.103,8.854,124.576,8.854z"/>
	<path fill="#103184" d="M130.532,7.127c-0.411,0-0.607,0.116-0.607,0.546c0,0.049,0,0.107,0.011,0.156h1.24V9.07h-1.231v3.613
		h-1.787V9.07h-0.731V7.829h0.731V7.673c0-0.498,0.01-0.946,0.362-1.338c0.381-0.419,0.948-0.488,1.485-0.488
		c0.469,0,0.918,0.05,1.377,0.127v1.241C131.108,7.155,130.806,7.127,130.532,7.127z"/>
	<path fill="#103184" d="M131.723,7.478V5.974h1.904v1.504H131.723z M131.723,12.684V7.829h1.904v4.854H131.723z"/>
	<path fill="#103184" d="M137.454,12.684V9.626c0-0.302-0.038-0.584-0.4-0.584c-0.439,0-0.527,0.359-0.527,0.731v2.91h-1.903V7.829
		h1.768v0.694c0.323-0.586,0.762-0.791,1.416-0.791c0.419,0,0.851,0.128,1.162,0.42c0.42,0.391,0.391,0.89,0.391,1.425v3.106
		H137.454z"/>
	<path fill="#103184" d="M140.363,7.478V5.974h1.904v1.504H140.363z M140.363,12.684V7.829h1.904v4.854H140.363z"/>
	<path fill="#103184" d="M148.244,10.643h-3.242c0,0.547,0.138,0.898,0.742,0.898c0.429,0,0.636-0.177,0.732-0.595l1.768,0.116
		c-0.272,1.2-1.367,1.719-2.51,1.719c-1.493,0-2.724-0.878-2.724-2.462c0-1.552,1.142-2.587,2.666-2.587
		c1.591,0,2.578,1.065,2.578,2.636C148.255,10.456,148.255,10.555,148.244,10.643z M145.677,8.854c-0.508,0-0.675,0.362-0.675,0.82
		h1.347C146.329,9.207,146.204,8.854,145.677,8.854z"/>
	<path fill="#103184" d="M151.76,9.411c-0.693,0-0.938,0.401-0.938,1.055v2.218h-1.828V7.829h1.593v1.007
		c0.205-0.703,0.509-1.095,1.28-1.095c0.088,0,0.165,0.011,0.253,0.02V9.45C152.004,9.421,151.887,9.411,151.76,9.411z"/>
	<path fill="#103184" d="M154.794,12.742c-0.5,0-0.957-0.039-1.328-0.41c-0.323-0.322-0.392-0.674-0.392-1.113
		c0-0.205,0.012-0.421,0.012-0.624V9.07h-0.724V7.829h0.812l0.126-1.542l1.66-0.06l-0.039,1.602h0.968V9.07h-0.968v1.787
		c0,0.342,0.078,0.507,0.439,0.507c0.176,0,0.353-0.038,0.528-0.088v1.358C155.526,12.692,155.165,12.742,154.794,12.742z"/>
</g>
<polygon fill="#FF1821" points="94.326,6.187 87.93,14.464 89.402,14.464 95.778,6.187 "/>
</svg>
