<?xml version="1.0" encoding="UTF-8" standalone="no"?>
<svg width="156px" height="10px" viewBox="0 0 156 10" version="1.1" xmlns="http://www.w3.org/2000/svg" xmlns:xlink="http://www.w3.org/1999/xlink" xmlns:sketch="http://www.bohemiancoding.com/sketch/ns">
    <!-- Generator: Sketch 3.1 (8751) - http://www.bohemiancoding.com/sketch -->
    <title>tagline-de</title>
    <desc>Created with Sketch.</desc>
    <defs></defs>
    <g id="Page-1" stroke="none" stroke-width="1" fill="none" fill-rule="evenodd" sketch:type="MSPage">
        <g id="tagline-de" sketch:type="MSLayerGroup" transform="translate(0.000000, 1.000000)">
            <g id="Group" fill="#103184" sketch:type="MSShapeGroup">
                <g id="Shape">
                    <path d="M0.831,0.871 L0.831,2.941 L3.449,2.941 L3.449,3.605 L0.831,3.605 L0.831,6.682 L0.001,6.682 L0.001,0.169 L3.986,0.169 L3.986,0.871 L0.831,0.871 L0.831,0.871 Z"></path>
                    <path d="M4.795,1.008 L4.795,0.169 L5.605,0.169 L5.605,1.008 L4.795,1.008 L4.795,1.008 Z M4.834,6.683 L4.834,1.859 L5.575,1.859 L5.575,6.682 L4.834,6.682 L4.834,6.683 Z"></path>
                    <path d="M10.166,6.683 L10.166,3.586 C10.166,2.924 9.902,2.376 9.159,2.376 C8.261,2.376 7.811,3.236 7.811,4.035 L7.811,6.682 L7.079,6.682 L7.079,1.868 L7.773,1.868 L7.773,2.748 C8.086,2.131 8.583,1.731 9.296,1.731 C9.96,1.731 10.595,2.13 10.781,2.786 C10.878,3.128 10.868,3.547 10.868,3.898 L10.868,6.682 L10.166,6.682 L10.166,6.683 Z"></path>
                    <path d="M15.399,6.683 C15.34,6.4 15.33,6.107 15.311,5.813 C15.077,6.234 14.892,6.498 14.432,6.672 C14.179,6.772 13.905,6.81 13.632,6.81 C12.743,6.81 11.942,6.323 11.942,5.354 C11.942,4.946 12.138,4.535 12.431,4.261 C12.968,3.762 13.994,3.684 14.677,3.684 C14.892,3.684 15.097,3.695 15.312,3.704 L15.312,3.566 C15.312,2.659 14.991,2.317 14.082,2.317 C13.457,2.317 12.909,2.512 12.763,3.186 L12.079,3.06 C12.264,2.015 13.241,1.732 14.179,1.732 C15.615,1.732 16.034,2.347 16.034,3.704 L16.034,5.746 C16.034,6.059 16.063,6.381 16.141,6.684 L15.399,6.684 L15.399,6.683 Z M15.311,4.27 C15.097,4.261 14.882,4.25 14.666,4.25 C13.924,4.25 12.742,4.396 12.742,5.374 C12.742,5.95 13.221,6.233 13.748,6.233 C14.676,6.233 15.32,5.49 15.32,4.583 C15.32,4.475 15.32,4.377 15.311,4.27 L15.311,4.27 Z"></path>
                    <path d="M20.613,6.683 L20.613,3.586 C20.613,2.924 20.35,2.376 19.607,2.376 C18.708,2.376 18.259,3.236 18.259,4.035 L18.259,6.682 L17.527,6.682 L17.527,1.868 L18.221,1.868 L18.221,2.748 C18.534,2.131 19.032,1.731 19.744,1.731 C20.408,1.731 21.043,2.13 21.229,2.786 C21.326,3.128 21.317,3.547 21.317,3.898 L21.317,6.682 L20.613,6.682 L20.613,6.683 Z"></path>
                    <path d="M22.389,6.683 L22.389,6.107 L24.949,2.454 L22.585,2.454 L22.585,1.868 L25.944,1.868 L25.944,2.277 L23.287,6.106 L25.944,6.106 L25.944,6.682 L22.389,6.682 L22.389,6.683 Z"></path>
                    <path d="M26.911,1.008 L26.911,0.169 L27.721,0.169 L27.721,1.008 L26.911,1.008 L26.911,1.008 Z M26.949,6.683 L26.949,1.859 L27.692,1.859 L27.692,6.682 L26.949,6.682 L26.949,6.683 Z"></path>
                    <path d="M29.654,4.338 C29.654,4.749 29.663,5.08 29.849,5.451 C30.084,5.911 30.572,6.183 31.089,6.183 C31.743,6.183 32.125,5.833 32.378,5.245 L33.071,5.393 C32.759,6.31 31.987,6.808 31.03,6.808 C29.575,6.808 28.813,5.656 28.813,4.298 C28.813,2.95 29.595,1.73 31.05,1.73 C32.593,1.73 33.131,2.97 33.15,4.336 L29.654,4.336 L29.654,4.338 Z M31.07,2.308 C30.2,2.308 29.771,2.992 29.683,3.782 L32.329,3.782 C32.32,3.001 31.93,2.308 31.07,2.308 L31.07,2.308 Z"></path>
                    <path d="M34.282,6.683 L34.282,0.169 L35.034,0.169 L35.034,6.683 L34.282,6.683 L34.282,6.683 Z"></path>
                    <path d="M36.538,6.683 L36.538,0.169 L37.29,0.169 L37.29,6.683 L36.538,6.683 L36.538,6.683 Z"></path>
                    <path d="M39.252,4.338 C39.252,4.749 39.262,5.08 39.448,5.451 C39.682,5.911 40.171,6.183 40.689,6.183 C41.343,6.183 41.724,5.833 41.979,5.245 L42.672,5.393 C42.359,6.31 41.588,6.808 40.63,6.808 C39.175,6.808 38.413,5.656 38.413,4.298 C38.413,2.95 39.195,1.73 40.65,1.73 C42.193,1.73 42.73,2.97 42.749,4.336 L39.252,4.336 L39.252,4.338 Z M40.668,2.308 C39.799,2.308 39.369,2.992 39.281,3.782 L41.928,3.782 C41.918,3.001 41.528,2.308 40.668,2.308 L40.668,2.308 Z"></path>
                    <path d="M48.333,6.81 C47.61,6.81 46.965,6.672 46.418,6.165 C46.008,5.783 45.861,5.471 45.667,4.954 L46.399,4.788 C46.711,5.705 47.366,6.115 48.323,6.115 C49.085,6.115 49.886,5.812 49.886,4.933 C49.886,4.337 49.407,4.035 48.89,3.898 C48.46,3.781 48.021,3.673 47.591,3.566 C47.2,3.468 46.829,3.361 46.526,3.079 C46.165,2.748 45.989,2.308 45.989,1.819 C45.989,0.589 47.093,0.041 48.187,0.041 C49.32,0.041 50.14,0.57 50.511,1.652 L49.779,1.859 C49.574,1.095 48.93,0.696 48.157,0.696 C47.513,0.696 46.789,1.038 46.789,1.77 C46.789,2.415 47.298,2.62 47.845,2.756 C48.245,2.854 48.656,2.951 49.056,3.048 C50.003,3.283 50.735,3.79 50.735,4.845 C50.736,6.203 49.554,6.81 48.333,6.81 L48.333,6.81 Z"></path>
                    <path d="M51.838,1.008 L51.838,0.169 L52.648,0.169 L52.648,1.008 L51.838,1.008 L51.838,1.008 Z M51.877,6.683 L51.877,1.859 L52.619,1.859 L52.619,6.682 L51.877,6.682 L51.877,6.683 Z"></path>
                    <path d="M57.082,6.292 C56.711,6.663 56.301,6.81 55.774,6.81 C54.347,6.81 53.742,5.55 53.742,4.281 C53.742,3.002 54.377,1.732 55.812,1.732 C56.876,1.732 57.473,2.416 57.647,3.42 L56.964,3.547 C56.866,2.874 56.544,2.366 55.812,2.366 C54.806,2.366 54.532,3.449 54.532,4.261 C54.532,5.072 54.776,6.174 55.792,6.174 C56.505,6.174 56.837,5.627 56.964,4.993 L57.647,5.11 C57.551,5.608 57.453,5.931 57.082,6.292 L57.082,6.292 Z"></path>
                    <path d="M61.641,6.683 L61.641,3.753 C61.641,3.04 61.563,2.347 60.693,2.347 C60.332,2.347 59.99,2.541 59.755,2.806 C59.433,3.167 59.355,3.616 59.355,4.085 L59.355,6.683 L58.613,6.683 L58.613,0.169 L59.355,0.169 L59.355,2.757 C59.687,2.122 60.087,1.732 60.839,1.732 C61.347,1.732 61.806,1.948 62.099,2.367 C62.412,2.817 62.392,3.225 62.392,3.754 L62.392,6.684 L61.641,6.684 L61.641,6.683 Z"></path>
                    <path d="M64.355,4.338 C64.355,4.749 64.365,5.08 64.551,5.451 C64.785,5.911 65.274,6.183 65.791,6.183 C66.445,6.183 66.827,5.833 67.08,5.245 L67.774,5.393 C67.461,6.31 66.69,6.808 65.733,6.808 C64.277,6.808 63.515,5.656 63.515,4.298 C63.515,2.95 64.297,1.73 65.752,1.73 C67.295,1.73 67.832,2.97 67.851,4.336 L64.355,4.336 L64.355,4.338 Z M65.771,2.308 C64.901,2.308 64.472,2.992 64.384,3.782 L67.03,3.782 C67.021,3.001 66.63,2.308 65.771,2.308 L65.771,2.308 Z"></path>
                    <path d="M71.19,2.453 C70.243,2.453 69.715,3.244 69.715,4.133 L69.715,6.683 L68.983,6.683 L68.983,1.868 L69.637,1.868 L69.637,2.991 C69.901,2.327 70.282,1.72 71.074,1.72 C71.171,1.72 71.259,1.731 71.357,1.74 L71.357,2.464 C71.298,2.453 71.25,2.453 71.19,2.453 L71.19,2.453 Z"></path>
                    <path d="M75.233,6.683 L75.233,3.753 C75.233,3.04 75.155,2.347 74.285,2.347 C73.925,2.347 73.582,2.541 73.348,2.806 C73.026,3.167 72.947,3.616 72.947,4.085 L72.947,6.683 L72.206,6.683 L72.206,0.169 L72.947,0.169 L72.947,2.757 C73.28,2.122 73.68,1.732 74.432,1.732 C74.941,1.732 75.398,1.948 75.693,2.367 C76.005,2.817 75.985,3.225 75.985,3.754 L75.985,6.684 L75.233,6.684 L75.233,6.683 Z"></path>
                    <path d="M77.946,4.338 C77.946,4.749 77.954,5.08 78.139,5.451 C78.374,5.911 78.863,6.183 79.381,6.183 C80.035,6.183 80.416,5.833 80.67,5.245 L81.364,5.393 C81.051,6.31 80.278,6.808 79.322,6.808 C77.867,6.808 77.105,5.656 77.105,4.298 C77.105,2.95 77.885,1.73 79.341,1.73 C80.883,1.73 81.421,2.97 81.441,4.336 L77.946,4.336 L77.946,4.338 Z M79.362,2.308 C78.492,2.308 78.061,2.992 77.974,3.782 L80.62,3.782 C80.612,3.001 80.221,2.308 79.362,2.308 L79.362,2.308 Z"></path>
                    <path d="M82.536,1.008 L82.536,0.169 L83.346,0.169 L83.346,1.008 L82.536,1.008 L82.536,1.008 Z M82.574,6.683 L82.574,1.859 L83.316,1.859 L83.316,6.682 L82.574,6.682 L82.574,6.683 Z"></path>
                    <path d="M86.294,6.81 C85.337,6.81 84.917,6.283 84.917,5.354 L84.917,2.454 L84.059,2.454 L84.059,1.868 L84.917,1.868 L84.945,0.657 L85.639,0.589 L85.639,1.868 L86.723,1.868 L86.723,2.453 L85.64,2.453 L85.64,5.471 C85.64,5.98 85.914,6.223 86.411,6.223 C86.607,6.223 86.803,6.195 86.998,6.165 L86.998,6.761 C86.763,6.791 86.529,6.81 86.294,6.81 L86.294,6.81 Z"></path>
                </g>
                <path d="M99.618,6.684 L99.618,3.626 C99.618,3.324 99.579,3.042 99.218,3.042 C98.778,3.042 98.69,3.401 98.69,3.773 L98.69,6.683 L96.788,6.683 L96.788,1.829 L98.556,1.829 L98.556,2.523 C98.877,1.937 99.316,1.732 99.972,1.732 C100.391,1.732 100.822,1.86 101.133,2.152 C101.553,2.543 101.524,3.042 101.524,3.577 L101.524,6.683 L99.618,6.683 L99.618,6.684 Z" id="Shape"></path>
                <path d="M107.508,4.643 L104.267,4.643 C104.267,5.19 104.404,5.541 105.009,5.541 C105.437,5.541 105.644,5.364 105.74,4.946 L107.508,5.062 C107.236,6.262 106.142,6.781 104.999,6.781 C103.505,6.781 102.273,5.903 102.273,4.319 C102.273,2.767 103.417,1.732 104.94,1.732 C106.531,1.732 107.518,2.797 107.518,4.368 C107.519,4.456 107.519,4.555 107.508,4.643 L107.508,4.643 Z M104.94,2.854 C104.432,2.854 104.266,3.216 104.266,3.674 L105.612,3.674 C105.594,3.207 105.467,2.854 104.94,2.854 L104.94,2.854 Z" id="Shape"></path>
                <path d="M111.218,6.684 L111.218,5.893 C110.947,6.528 110.389,6.782 109.715,6.782 C108.768,6.782 108.26,6.235 108.26,5.297 L108.26,1.829 L110.174,1.829 L110.174,4.886 C110.174,5.19 110.203,5.415 110.555,5.415 C110.947,5.415 111.103,5.092 111.103,4.739 L111.103,1.829 L112.996,1.829 L112.996,6.683 L111.218,6.683 L111.218,6.684 Z" id="Shape"></path>
                <path d="M119.381,6.684 L119.381,6.04 C119.068,6.576 118.707,6.781 118.083,6.781 C116.666,6.781 116.198,5.472 116.198,4.261 C116.198,3.049 116.685,1.683 118.112,1.683 C118.629,1.683 118.952,1.86 119.292,2.229 L119.292,0.17 L121.169,0.17 L121.169,6.684 L119.381,6.684 L119.381,6.684 Z M119.292,3.558 C119.292,3.199 119.155,2.915 118.756,2.915 C118.141,2.915 118.141,3.929 118.141,4.339 C118.141,4.75 118.171,5.522 118.746,5.522 C119.166,5.522 119.292,5.121 119.292,4.77 L119.292,3.558 L119.292,3.558 Z" id="Shape"></path>
                <path d="M127.145,4.643 L123.903,4.643 C123.903,5.19 124.04,5.541 124.645,5.541 C125.075,5.541 125.28,5.364 125.376,4.946 L127.145,5.062 C126.871,6.262 125.777,6.781 124.634,6.781 C123.14,6.781 121.908,5.903 121.908,4.319 C121.908,2.767 123.052,1.732 124.576,1.732 C126.167,1.732 127.153,2.797 127.153,4.368 C127.153,4.456 127.153,4.555 127.145,4.643 L127.145,4.643 Z M124.576,2.854 C124.066,2.854 123.902,3.216 123.902,3.674 L125.25,3.674 C125.23,3.207 125.103,2.854 124.576,2.854 L124.576,2.854 Z" id="Shape"></path>
                <path d="M130.532,1.127 C130.121,1.127 129.925,1.243 129.925,1.673 C129.925,1.722 129.925,1.78 129.936,1.829 L131.176,1.829 L131.176,3.07 L129.945,3.07 L129.945,6.683 L128.158,6.683 L128.158,3.07 L127.427,3.07 L127.427,1.829 L128.158,1.829 L128.158,1.673 C128.158,1.175 128.168,0.727 128.52,0.335 C128.901,-0.084 129.468,-0.153 130.005,-0.153 C130.474,-0.153 130.923,-0.103 131.382,-0.026 L131.382,1.215 C131.108,1.155 130.806,1.127 130.532,1.127 L130.532,1.127 Z" id="Shape"></path>
                <path d="M131.723,1.478 L131.723,-0.026 L133.627,-0.026 L133.627,1.478 L131.723,1.478 L131.723,1.478 Z M131.723,6.684 L131.723,1.829 L133.627,1.829 L133.627,6.683 L131.723,6.683 L131.723,6.684 Z" id="Shape"></path>
                <path d="M137.454,6.684 L137.454,3.626 C137.454,3.324 137.416,3.042 137.054,3.042 C136.615,3.042 136.527,3.401 136.527,3.773 L136.527,6.683 L134.624,6.683 L134.624,1.829 L136.392,1.829 L136.392,2.523 C136.715,1.937 137.154,1.732 137.808,1.732 C138.227,1.732 138.659,1.86 138.97,2.152 C139.39,2.543 139.361,3.042 139.361,3.577 L139.361,6.683 L137.454,6.683 L137.454,6.684 Z" id="Shape"></path>
                <path d="M140.363,1.478 L140.363,-0.026 L142.267,-0.026 L142.267,1.478 L140.363,1.478 L140.363,1.478 Z M140.363,6.684 L140.363,1.829 L142.267,1.829 L142.267,6.683 L140.363,6.683 L140.363,6.684 Z" id="Shape"></path>
                <path d="M148.244,4.643 L145.002,4.643 C145.002,5.19 145.14,5.541 145.744,5.541 C146.173,5.541 146.38,5.364 146.476,4.946 L148.244,5.062 C147.972,6.262 146.877,6.781 145.734,6.781 C144.241,6.781 143.01,5.903 143.01,4.319 C143.01,2.767 144.152,1.732 145.676,1.732 C147.267,1.732 148.254,2.797 148.254,4.368 C148.255,4.456 148.255,4.555 148.244,4.643 L148.244,4.643 Z M145.677,2.854 C145.169,2.854 145.002,3.216 145.002,3.674 L146.349,3.674 C146.329,3.207 146.204,2.854 145.677,2.854 L145.677,2.854 Z" id="Shape"></path>
                <path d="M151.76,3.411 C151.067,3.411 150.822,3.812 150.822,4.466 L150.822,6.684 L148.994,6.684 L148.994,1.829 L150.587,1.829 L150.587,2.836 C150.792,2.133 151.096,1.741 151.867,1.741 C151.955,1.741 152.032,1.752 152.12,1.761 L152.12,3.45 C152.004,3.421 151.887,3.411 151.76,3.411 L151.76,3.411 Z" id="Shape"></path>
                <path d="M154.794,6.742 C154.294,6.742 153.837,6.703 153.466,6.332 C153.143,6.01 153.074,5.658 153.074,5.219 C153.074,5.014 153.086,4.798 153.086,4.595 L153.086,3.07 L152.362,3.07 L152.362,1.829 L153.174,1.829 L153.3,0.287 L154.96,0.227 L154.921,1.829 L155.889,1.829 L155.889,3.07 L154.921,3.07 L154.921,4.857 C154.921,5.199 154.999,5.364 155.36,5.364 C155.536,5.364 155.713,5.326 155.888,5.276 L155.888,6.634 C155.526,6.692 155.165,6.742 154.794,6.742 L154.794,6.742 Z" id="Shape"></path>
            </g>
            <path d="M94.326,0.187 L87.93,8.464 L89.402,8.464 L95.778,0.187 L94.326,0.187 Z" id="Shape" fill="#FF1821" sketch:type="MSShapeGroup"></path>
        </g>
    </g>
</svg>