<?xml version="1.0" encoding="UTF-8" standalone="no"?>
<svg width="620px" height="460px" viewBox="0 0 620 460" version="1.1" xmlns="http://www.w3.org/2000/svg" xmlns:xlink="http://www.w3.org/1999/xlink" xmlns:sketch="http://www.bohemiancoding.com/sketch/ns">
    <!-- Generator: Sketch 3.1.1 (8761) - http://www.bohemiancoding.com/sketch -->
    <title>navigations</title>
    <desc>Created with Sketch.</desc>
    <defs></defs>
    <g id="Page-1" stroke="none" stroke-width="1" fill="none" fill-rule="evenodd" sketch:type="MSPage">
        <g id="navigations" sketch:type="MSArtboardGroup">
            <path d="M20,96.961717 L20,58.0993386 C20,54.7799122 22.6902658,52.1006168 26.0088769,52.1006168 L592.444248,52.1006168 C595.761644,52.1006168 598.453125,54.786336 598.453125,58.0993386 L598.453125,96.961717 L598.453125,135.824095 L20,135.824095 L20,96.961717 Z" id="Rectangle-1" stroke="#DADADA" fill="#EFEFEF" sketch:type="MSShapeGroup"></path>
            <path d="M20,406.825672 L20,419.045587 C20,422.362096 22.6914811,425.050658 26.0088769,425.050658 L592.444248,425.050658 C595.762859,425.050658 598.453125,422.370823 598.453125,419.045587 L598.453125,406.825672 L598.453125,394.605757 L20,394.605757 L20,406.825672 Z" id="mask-2" stroke="#DADADA" fill="#EFEFEF" sketch:type="MSShapeGroup"></path>
            <rect id="Rectangle-5" stroke="#DADADA" fill="#EFEFEF" sketch:type="MSShapeGroup" x="20" y="310.882278" width="578.453125" height="83.7234786"></rect>
            <rect id="Rectangle-3" stroke="#DADADA" fill="#EFEFEF" sketch:type="MSShapeGroup" x="20" y="135.824095" width="182.669408" height="175.058183"></rect>
            <rect id="Rectangle-9" stroke="#DADADA" sketch:type="MSShapeGroup" x="202.669408" y="135.824095" width="395.783717" height="175.058183"></rect>
            <ellipse id="Oval-1" fill="#DEDEE2" sketch:type="MSShapeGroup" cx="573.716643" cy="76.8370991" rx="9.51403166" ry="9.51403166"></ellipse>
            <ellipse id="Oval-2" fill="#DEDEE2" sketch:type="MSShapeGroup" cx="550.882967" cy="76.8370991" rx="9.51403166" ry="9.51403166"></ellipse>
            <ellipse id="Oval-3" fill="#DEDEE2" sketch:type="MSShapeGroup" cx="528.049291" cy="76.8370991" rx="9.51403166" ry="9.51403166"></ellipse>
            <path d="M35.394364,135.824095 C35.2820147,135.365332 35.2224507,134.885856 35.2224507,134.392467 L35.2224507,115.183171 C35.2224507,111.872424 37.9105341,109.184807 41.2264531,109.184807 L97.7194761,109.184807 C101.038157,109.184807 103.723479,111.870366 103.723479,115.183171 L103.723479,134.392467 C103.723479,134.885788 103.663796,135.365274 103.551246,135.824095 L35.394364,135.824095 Z" id="Rectangle-8" fill="#0F2E86" sketch:type="MSShapeGroup"></path>
            <path d="M111.506617,135.824095 C111.394268,135.365332 111.334704,134.885856 111.334704,134.392467 L111.334704,115.183171 C111.334704,111.872424 114.022787,109.184807 117.338706,109.184807 L173.831729,109.184807 C177.15041,109.184807 179.835732,111.870366 179.835732,115.183171 L179.835732,134.392467 C179.835732,134.885788 179.776049,135.365274 179.663499,135.824095 L111.506617,135.824095 Z" id="Rectangle-10" fill="#0F2E86" sketch:type="MSShapeGroup"></path>
            <path d="M187.618871,135.824095 C187.506521,135.365332 187.446957,134.885856 187.446957,134.392467 L187.446957,115.183171 C187.446957,111.872424 190.135041,109.184807 193.45096,109.184807 L249.943983,109.184807 C253.262664,109.184807 255.947985,111.870366 255.947985,115.183171 L255.947985,134.392467 C255.947985,134.885788 255.888302,135.365274 255.775752,135.824095 L187.618871,135.824095 Z" id="Rectangle-11" fill="#0F2E86" sketch:type="MSShapeGroup"></path>
            <rect id="Rectangle-35" stroke="#DADADA" fill="#EFEFEF" sketch:type="MSShapeGroup" x="20" y="109.184807" width="578.453125" height="26.6392887"></rect>
            <path d="M40.7304767,116.03491 L40.7304767,18.3616005 L62.0419076,18.3616005" id="Path-1" stroke="#6F6F6F" sketch:type="MSShapeGroup"></path>
            <path d="M182.999147,161.669557 L182.999147,40.1062963 L206.007453,40.1062963" id="Path-2" stroke="#6F6F6F" sketch:type="MSShapeGroup"></path>
            <path d="M513.347139,76.5011349 L513.347139,19 L492.760549,19" id="Path-3" stroke="#6F6F6F" sketch:type="MSShapeGroup"></path>
            <path d="M42.7206969,376.666674 L42.7206969,440.12481 L65.7645426,440.12481" id="Path-4" stroke="#6F6F6F" sketch:type="MSShapeGroup"></path>
            <text id="horizontal-navigatio" sketch:type="MSTextLayer" font-family="Helvetica" font-size="14" font-weight="normal" fill="#000000">
                <tspan x="91.8288857" y="22.0222451">horizontal navigation</tspan>
            </text>
            <text id="vertical-navigation" sketch:type="MSTextLayer" font-family="Helvetica" font-size="14" font-weight="normal" fill="#000000">
                <tspan x="234.636554" y="43.7669408">vertical navigation</tspan>
            </text>
            <text id="footer-navigation" sketch:type="MSTextLayer" font-family="Helvetica" font-size="14" font-weight="normal" fill="#000000">
                <tspan x="96.8733758" y="445.728618">footer navigation</tspan>
            </text>
            <text id="meta-navigation" sketch:type="MSTextLayer" font-family="Helvetica" font-size="14" font-weight="normal" sketch:alignment="right" fill="#000000">
                <tspan x="364.893616" y="23.1557155">meta navigation</tspan>
            </text>
            <rect id="Rectangle-15" fill="#7A9F35" sketch:type="MSShapeGroup" x="68.2340872" y="8" width="18.2669408" height="18.2669408" rx="6"></rect>
            <text id="2" sketch:type="MSTextLayer" font-family="Helvetica" font-size="14" font-weight="bold" fill="#FFFFFF">
                <tspan x="74.3230674" y="22.2833676">2</tspan>
            </text>
            <rect id="Rectangle-18" fill="#7A9F35" sketch:type="MSShapeGroup" x="210.280633" y="29.7446957" width="18.2669408" height="18.2669408" rx="6"></rect>
            <text id="3" sketch:type="MSTextLayer" font-family="Helvetica" font-size="14" font-weight="bold" fill="#FFFFFF">
                <tspan x="216.369613" y="44.0280633">3</tspan>
            </text>
            <rect id="Rectangle-19" fill="#7A9F35" sketch:type="MSShapeGroup" x="73.2785773" y="431.706373" width="18.2669408" height="18.2669408" rx="6"></rect>
            <text id="4" sketch:type="MSTextLayer" font-family="Helvetica" font-size="14" font-weight="bold" fill="#FFFFFF">
                <tspan x="79.3675576" y="445.989741">4</tspan>
            </text>
            <rect id="Rectangle-17" fill="#7A9F35" sketch:type="MSShapeGroup" x="469.062294" y="9.89459293" width="18.2669408" height="18.2669408" rx="6"></rect>
            <text id="-3" sketch:type="MSTextLayer" font-family="Helvetica" font-size="14" font-weight="bold" fill="#FFFFFF">
                <tspan x="475.151275" y="24.1779605">1</tspan>
            </text>
            <path d="M35.6030119,158.5 L121.613226,158.5" id="Line" stroke="#DEDEE2" stroke-width="3" stroke-linecap="square" sketch:type="MSShapeGroup"></path>
            <path d="M35.6030119,122.5 L96.4928146,122.5" id="Line-4" stroke="#DEDEE2" stroke-width="3" stroke-linecap="square" sketch:type="MSShapeGroup"></path>
            <path d="M111.715265,122.5 L172.605068,122.5" id="Line-8" stroke="#DEDEE2" stroke-width="3" stroke-linecap="square" sketch:type="MSShapeGroup"></path>
            <path d="M187.827519,122.5 L248.717321,122.5" id="Line-9" stroke="#DEDEE2" stroke-width="3" stroke-linecap="square" sketch:type="MSShapeGroup"></path>
            <path d="M35.6030119,173.5 L121.613226,173.5" id="Line-2" stroke="#DEDEE2" stroke-width="3" stroke-linecap="square" sketch:type="MSShapeGroup"></path>
            <path d="M35.6030119,333.5 L121.613226,333.5" id="Line-11" stroke="#DEDEE2" stroke-width="3" stroke-linecap="square" sketch:type="MSShapeGroup"></path>
            <path d="M35.6030119,348.5 L121.613226,348.5" id="Line-10" stroke="#DEDEE2" stroke-width="3" stroke-linecap="square" sketch:type="MSShapeGroup"></path>
            <path d="M35.6030119,363.5 L121.613226,363.5" id="Line-12" stroke="#DEDEE2" stroke-width="3" stroke-linecap="square" sketch:type="MSShapeGroup"></path>
            <path d="M164.993843,333.5 L251.004057,333.5" id="Line-15" stroke="#DEDEE2" stroke-width="3" stroke-linecap="square" sketch:type="MSShapeGroup"></path>
            <path d="M164.993843,348.5 L251.004057,348.5" id="Line-14" stroke="#DEDEE2" stroke-width="3" stroke-linecap="square" sketch:type="MSShapeGroup"></path>
            <path d="M164.993843,363.5 L251.004057,363.5" id="Line-13" stroke="#DEDEE2" stroke-width="3" stroke-linecap="square" sketch:type="MSShapeGroup"></path>
            <path d="M294.384673,333.5 L380.394887,333.5" id="Line-18" stroke="#DEDEE2" stroke-width="3" stroke-linecap="square" sketch:type="MSShapeGroup"></path>
            <path d="M294.384673,348.5 L380.394887,348.5" id="Line-17" stroke="#DEDEE2" stroke-width="3" stroke-linecap="square" sketch:type="MSShapeGroup"></path>
            <path d="M294.384673,363.5 L380.394887,363.5" id="Line-16" stroke="#DEDEE2" stroke-width="3" stroke-linecap="square" sketch:type="MSShapeGroup"></path>
            <path d="M50.8254626,188.5 L136.835677,188.5" id="Line-5" stroke="#DEDEE2" stroke-width="3" stroke-linecap="square" sketch:type="MSShapeGroup"></path>
            <path d="M50.8254626,203.5 L136.835677,203.5" id="Line-6" stroke="#DEDEE2" stroke-width="3" stroke-linecap="square" sketch:type="MSShapeGroup"></path>
            <path d="M50.8254626,219.5 L136.835677,219.5" id="Line-7" stroke="#DEDEE2" stroke-width="3" stroke-linecap="square" sketch:type="MSShapeGroup"></path>
            <path d="M35.6030119,234.5 L121.613226,234.5" id="Line-3" stroke="#DEDEE2" stroke-width="3" stroke-linecap="square" sketch:type="MSShapeGroup"></path>
        </g>
    </g>
</svg>