<?xml version="1.0" encoding="utf-8"?>
<!-- Generator: Adobe Illustrator 16.0.5, SVG Export Plug-In . SVG Version: 6.00 Build 0)  -->
<!DOCTYPE svg PUBLIC "-//W3C//DTD SVG 1.1//EN" "http://www.w3.org/Graphics/SVG/1.1/DTD/svg11.dtd">
<svg version="1.1" id="Layer_1" xmlns="http://www.w3.org/2000/svg" xmlns:xlink="http://www.w3.org/1999/xlink" x="0px" y="0px"
	 width="701px" height="173px" viewBox="0 0 701 173" enable-background="new 0 0 701 173" xml:space="preserve">
<g>
	<rect x="-3668.5" y="320" fill="#E6E6E6" width="566" height="198"/>
	<g>
		<circle fill="#FFFFFF" cx="-3412" cy="502.5" r="4.5"/>
		<circle fill="#FFFFFF" cx="-3398.75" cy="502.5" r="4.5"/>
		<circle fill="#FFFFFF" cx="-3372.25" cy="502.5" r="4.5"/>
		<circle fill="#0BC3D6" cx="-3386" cy="502.5" r="4.5"/>
		<circle fill="#FFFFFF" cx="-3359" cy="502.5" r="4.5"/>
	</g>
	<g>
		<polygon fill="#F7F7F7" points="-3600.5,486.926 -3180.5,486.926 -3212.502,383.014 -3245.686,409.361 -3284.844,351.785 
			-3471.365,448.818 -3544.082,425.619 		"/>
		<g>
			<path fill="#F7F7F7" d="M-3477.088,396.867c12.646,0,22.896-10.248,22.896-22.893c0-12.65-10.25-22.9-22.896-22.9
				c-12.647,0-22.9,10.25-22.9,22.9C-3499.989,386.619-3489.736,396.867-3477.088,396.867z"/>
		</g>
	</g>
</g>
<rect x="-3062.5" y="254" fill="#E6E6E6" width="566" height="23"/>
<rect x="-3668.5" y="960" fill="#FCFCFC" width="172" height="106"/>
<text transform="matrix(1 0 0 1 -3668.5005 117.4258)" fill="#757575" font-family="'OstrichSans-Medium'" font-size="62.5424">Wireframe/Blueprint KIT</text>
<rect x="-3668.5" y="256" fill="#E6E6E6" width="95" height="6"/>
<rect x="-3053.5" y="263" fill="#FFFFFF" width="82" height="6"/>
<rect x="-2960.5" y="263" fill="#FFFFFF" width="82" height="6"/>
<rect x="-2867.5" y="263" fill="#FFFFFF" width="82" height="6"/>
<rect x="-2773.5" y="263" fill="#FFFFFF" width="82" height="6"/>
<rect x="-2680.5" y="263" fill="#FFFFFF" width="82" height="6"/>
<rect x="-2587.5" y="263" fill="#FFFFFF" width="82" height="6"/>
<rect x="-3550.5" y="256" fill="#E6E6E6" width="95" height="6"/>
<rect x="-3433.5" y="256" fill="#E6E6E6" width="95" height="6"/>
<rect x="-3315.5" y="256" fill="#0BC3D6" width="95" height="6"/>
<rect x="-3197.5" y="256" fill="#E6E6E6" width="95" height="6"/>
<circle fill="#0BC3D6" cx="-3599.25" cy="203.213" r="18.213"/>
<rect x="-3338.5" y="285" fill="#F7F7F7" width="140" height="14"/>
<rect x="-3338.5" y="270" fill="#F7F7F7" width="140" height="14"/>
<rect x="-3668.5" y="635" fill="#E6E6E6" width="270" height="3"/>
<rect x="-3138.5" y="189" fill="#E6E6E6" width="34" height="3"/>
<rect x="-3176.5" y="189" fill="#E6E6E6" width="34" height="3"/>
<rect x="-3214.5" y="189" fill="#E6E6E6" width="34" height="3"/>
<rect x="-3657.5" y="996" fill="#E6E6E6" width="150" height="3"/>
<rect x="-3657.5" y="1004" fill="#E6E6E6" width="150" height="3"/>
<rect x="-3657.5" y="1012" fill="#E6E6E6" width="150" height="3"/>
<rect x="-3657.5" y="1020" fill="#E6E6E6" width="78" height="3"/>
<rect x="-3668.5" y="643" fill="#E6E6E6" width="270" height="3"/>
<rect x="-3668.5" y="652" fill="#E6E6E6" width="270" height="3"/>
<rect x="-3668.5" y="660" fill="#E6E6E6" width="270" height="3"/>
<rect x="-3668.5" y="669" fill="#E6E6E6" width="270" height="3"/>
<rect x="-3668.5" y="677" fill="#E6E6E6" width="270" height="3"/>
<rect x="-3668.5" y="686" fill="#E6E6E6" width="270" height="3"/>
<rect x="-3668.5" y="694" fill="#E6E6E6" width="93" height="3"/>
<rect x="-3668.5" y="618" fill="#E6E6E6" width="38" height="11"/>
<rect x="-3634.5" y="878" fill="#E6E6E6" width="496" height="3"/>
<rect x="-3670.5" y="886" fill="#E6E6E6" width="568" height="3"/>
<rect x="-3650.5" y="894" fill="#E6E6E6" width="528" height="3"/>
<rect x="-3565.5" y="902" fill="#E6E6E6" width="358" height="3"/>
<rect x="-3454.5" y="861" fill="#E6E6E6" width="136" height="11"/>
<rect x="-3670.5" y="793" fill="#E6E6E6" width="568" height="3"/>
<rect x="-3670.5" y="801" fill="#E6E6E6" width="568" height="3"/>
<rect x="-3670.5" y="809" fill="#E6E6E6" width="568" height="3"/>
<rect x="-3670.5" y="818" fill="#E6E6E6" width="358" height="3"/>
<rect x="-3670.5" y="776" fill="#E6E6E6" width="136" height="11"/>
<rect x="-3531.5" y="776" fill="#E6E6E6" width="146" height="11"/>
<rect x="-3062.5" y="956" fill="#E6E6E6" width="72" height="11"/>
<rect x="-2987.5" y="956" fill="#E6E6E6" width="48" height="11"/>
<rect x="-3627.5" y="618" fill="#E6E6E6" width="79" height="11"/>
<rect x="-3062.5" y="1046" fill="#E6E6E6" width="369" height="3"/>
<rect x="-3062.5" y="1054" fill="#E6E6E6" width="369" height="3"/>
<rect x="-3062.5" y="1063" fill="#E6E6E6" width="369" height="3"/>
<rect x="-3062.5" y="1071" fill="#E6E6E6" width="369" height="3"/>
<rect x="-3062.5" y="1080" fill="#E6E6E6" width="369" height="3"/>
<rect x="-3062.5" y="1088" fill="#E6E6E6" width="369" height="3"/>
<rect x="-3062.5" y="1097" fill="#E6E6E6" width="369" height="3"/>
<rect x="-3062.5" y="1105" fill="#E6E6E6" width="204" height="3"/>
<rect x="-3062.5" y="1029" fill="#E6E6E6" width="141" height="11"/>
<rect x="-2918.5" y="1029" fill="#E6E6E6" width="79" height="11"/>
<g>
	<rect x="-3303.5" y="635" fill="#F7F7F7" width="201" height="3"/>
	<rect x="-3303.5" y="643" fill="#F7F7F7" width="120" height="3"/>
	<rect x="-3303.5" y="660" fill="#E6E6E6" width="201" height="3"/>
	<rect x="-3303.5" y="669" fill="#E6E6E6" width="201" height="3"/>
	<rect x="-3303.5" y="677" fill="#E6E6E6" width="201" height="3"/>
	<rect x="-3303.5" y="686" fill="#E6E6E6" width="201" height="3"/>
	<rect x="-3303.5" y="694" fill="#E6E6E6" width="64" height="3"/>
	<rect x="-3303.5" y="618" fill="#E6E6E6" width="81" height="11"/>
	<rect x="-3219.5" y="618" fill="#E6E6E6" width="59" height="11"/>
</g>
<g>
	<rect x="-2746.5" y="328" fill="#F7F7F7" width="250" height="3"/>
	<rect x="-2746.5" y="336" fill="#F7F7F7" width="120" height="3"/>
	<rect x="-2746.5" y="353" fill="#E6E6E6" width="250" height="3"/>
	<rect x="-2746.5" y="362" fill="#E6E6E6" width="250" height="3"/>
	<rect x="-2746.5" y="370" fill="#E6E6E6" width="250" height="3"/>
	<rect x="-2746.5" y="379" fill="#E6E6E6" width="250" height="3"/>
	<rect x="-2746.5" y="387" fill="#E6E6E6" width="64" height="3"/>
	<rect x="-2746.5" y="311" fill="#E6E6E6" width="81" height="11"/>
	<rect x="-2662.5" y="311" fill="#E6E6E6" width="59" height="11"/>
</g>
<path fill="#0BC3D6" d="M-3601.5,722.761c0,2.894-2.345,5.239-5.238,5.239h-56.523c-2.893,0-5.238-2.346-5.238-5.239v-0.521
	c0-2.894,2.345-5.239,5.238-5.239h56.523c2.893,0,5.238,2.346,5.238,5.239V722.761z"/>
<path fill="#0BC3D6" d="M-3308.5,564c0,6.627-5.373,12-12,12h-130c-6.627,0-12-5.373-12-12v-1c0-6.627,5.373-12,12-12h130
	c6.627,0,12,5.373,12,12V564z"/>
<g>
	<defs>
		<path id="SVGID_1_" d="M-3583.5,1042.233c0,3.185-2.582,5.767-5.766,5.767h-62.468c-3.185,0-5.766-2.582-5.766-5.767v-0.467
			c0-3.185,2.582-5.767,5.766-5.767h62.468c3.185,0,5.766,2.582,5.766,5.767V1042.233z"/>
	</defs>
	<clipPath id="SVGID_2_">
		<use xlink:href="#SVGID_1_"  overflow="visible"/>
	</clipPath>
	<g clip-path="url(#SVGID_2_)">
		
			<line fill="none" stroke="#0BC3D6" stroke-width="2" stroke-miterlimit="10" x1="-3618.167" y1="1012" x2="-3568.999" y2="1061.167"/>
		
			<line fill="none" stroke="#0BC3D6" stroke-width="2" stroke-miterlimit="10" x1="-3652.167" y1="1021" x2="-3602.999" y2="1070.167"/>
		
			<line fill="none" stroke="#0BC3D6" stroke-width="2" stroke-miterlimit="10" x1="-3635.167" y1="1016" x2="-3585.999" y2="1065.167"/>
		
			<line fill="none" stroke="#0BC3D6" stroke-width="2" stroke-miterlimit="10" x1="-3669.167" y1="1025" x2="-3619.999" y2="1074.167"/>
		
			<line fill="none" stroke="#0BC3D6" stroke-width="2" stroke-miterlimit="10" x1="-3627.167" y1="1014" x2="-3577.999" y2="1063.167"/>
		
			<line fill="none" stroke="#0BC3D6" stroke-width="2" stroke-miterlimit="10" x1="-3661.167" y1="1023" x2="-3611.999" y2="1072.167"/>
		
			<line fill="none" stroke="#0BC3D6" stroke-width="2" stroke-miterlimit="10" x1="-3644.167" y1="1018" x2="-3594.999" y2="1067.167"/>
		
			<line fill="none" stroke="#0BC3D6" stroke-width="2" stroke-miterlimit="10" x1="-3678.167" y1="1027" x2="-3628.999" y2="1076.167"/>
	</g>
	<use xlink:href="#SVGID_1_"  overflow="visible" fill="none" stroke="#0BC3D6" stroke-width="2" stroke-miterlimit="10"/>
</g>
<path fill="#0BC3D6" d="M-3527.5,722.761c0,2.894-2.345,5.239-5.238,5.239h-56.523c-2.893,0-5.238-2.346-5.238-5.239v-0.521
	c0-2.894,2.345-5.239,5.238-5.239h56.523c2.893,0,5.238,2.346,5.238,5.239V722.761z"/>
<g>
	<rect x="-3062.5" y="874" fill="#E6E6E6" width="172" height="76"/>
	<g>
		<polygon fill="#F7F7F7" points="-3050.653,942.535 -2902.347,942.535 -2913.647,905.843 -2925.365,915.146 -2939.192,894.815 
			-3005.054,929.079 -3030.731,920.887 		"/>
		<g>
			<circle fill="#F7F7F7" cx="-3007.075" cy="902.649" r="8.085"/>
		</g>
	</g>
</g>
<g>
	<rect x="-2865.5" y="874" fill="#E6E6E6" width="172" height="76"/>
	<g>
		<polygon fill="#F7F7F7" points="-2853.653,942.535 -2705.347,942.535 -2716.646,905.843 -2728.365,915.146 -2742.191,894.815 
			-2808.055,929.079 -2833.731,920.887 		"/>
		<g>
			<circle fill="#F7F7F7" cx="-2810.075" cy="902.649" r="8.085"/>
		</g>
	</g>
</g>
<g>
	<rect x="-2668.5" y="874" fill="#E6E6E6" width="172" height="76"/>
	<g>
		<polygon fill="#F7F7F7" points="-2656.653,942.535 -2508.347,942.535 -2519.646,905.843 -2531.365,915.146 -2545.191,894.815 
			-2611.055,929.079 -2636.731,920.887 		"/>
		<g>
			<circle fill="#F7F7F7" cx="-2613.075" cy="902.649" r="8.085"/>
		</g>
	</g>
</g>
<circle fill="#E6E6E6" cx="-3341.833" cy="640.667" r="22.667"/>
<circle fill="#E6E6E6" cx="-3039.833" cy="664.667" r="22.667"/>
<circle fill="#E6E6E6" cx="-2965.452" cy="664.667" r="22.667"/>
<circle fill="#E6E6E6" cx="-2891.071" cy="664.667" r="22.667"/>
<circle fill="#E6E6E6" cx="-2816.69" cy="664.667" r="22.667"/>
<circle fill="#E6E6E6" cx="-2667.929" cy="664.667" r="22.667"/>
<circle fill="#E6E6E6" cx="-2593.548" cy="664.667" r="22.667"/>
<circle fill="#E6E6E6" cx="-2519.167" cy="664.667" r="22.667"/>
<rect x="-3657.5" y="978" fill="#E6E6E6" width="110" height="11"/>
<rect x="-3471.5" y="960" fill="#FCFCFC" width="172" height="47"/>
<rect x="-3274.5" y="960" fill="#FCFCFC" width="172" height="19"/>
<rect x="-3426.5" y="972" fill="#E6E6E6" width="74" height="11"/>
<rect x="-3266.5" y="966" fill="#E6E6E6" width="54" height="8"/>
<rect x="-3461.5" y="970" fill="#E6E6E6" width="27" height="28"/>
<rect x="-3471.5" y="1008" fill="#FCFCFC" width="172" height="104"/>
<g>
	<rect x="-3461.5" y="1019" fill="#E6E6E6" width="27" height="28"/>
	<rect x="-3430.5" y="1019" fill="#E6E6E6" width="27" height="28"/>
	<rect x="-3399.5" y="1019" fill="#E6E6E6" width="27" height="28"/>
	<rect x="-3367.5" y="1019" fill="#E6E6E6" width="27" height="28"/>
	<rect x="-3336.5" y="1019" fill="#E6E6E6" width="27" height="28"/>
	<rect x="-3461.5" y="1052" fill="#E6E6E6" width="27" height="3"/>
	<rect x="-3430.5" y="1052" fill="#E6E6E6" width="27" height="3"/>
	<rect x="-3399.5" y="1052" fill="#E6E6E6" width="27" height="3"/>
	<rect x="-3367.5" y="1052" fill="#E6E6E6" width="27" height="3"/>
	<rect x="-3336.5" y="1052" fill="#E6E6E6" width="27" height="3"/>
</g>
<g>
	<rect x="-3461.5" y="1066" fill="#E6E6E6" width="27" height="28"/>
	<rect x="-3430.5" y="1066" fill="#E6E6E6" width="27" height="28"/>
	<rect x="-3399.5" y="1066" fill="#E6E6E6" width="27" height="28"/>
	<rect x="-3367.5" y="1066" fill="#E6E6E6" width="27" height="28"/>
	<rect x="-3336.5" y="1066" fill="#E6E6E6" width="27" height="28"/>
	<rect x="-3461.5" y="1099" fill="#E6E6E6" width="27" height="3"/>
	<rect x="-3430.5" y="1099" fill="#E6E6E6" width="27" height="3"/>
	<rect x="-3399.5" y="1099" fill="#E6E6E6" width="27" height="3"/>
	<rect x="-3367.5" y="1099" fill="#E6E6E6" width="27" height="3"/>
	<rect x="-3336.5" y="1099" fill="#E6E6E6" width="27" height="3"/>
</g>
<rect x="-3471.5" y="1113" fill="#FCFCFC" width="172" height="18"/>
<rect x="-3448.5" y="1121" fill="#E6E6E6" width="77" height="3"/>
<rect x="-3461.5" y="1118" fill="#E6E6E6" width="9" height="9"/>
<path fill="#0BC3D6" d="M-3401.5,991.705c0,2.372-1.923,4.295-4.295,4.295h-16.41c-2.372,0-4.295-1.923-4.295-4.295v-0.41
	c0-2.372,1.923-4.295,4.295-4.295h16.41c2.372,0,4.295,1.923,4.295,4.295V991.705z"/>
<path fill="#0BC3D6" d="M-3109.5,969.705c0,2.372-1.923,4.295-4.295,4.295h-16.41c-2.372,0-4.295-1.923-4.295-4.295v-0.41
	c0-2.372,1.923-4.295,4.295-4.295h16.41c2.372,0,4.295,1.923,4.295,4.295V969.705z"/>
<g>
	<rect x="-3274.5" y="980" fill="#FCFCFC" width="172" height="40"/>
	<g>
		<rect x="-3266.5" y="986" fill="#E6E6E6" width="27" height="28"/>
		<rect x="-3235.5" y="990" fill="#E6E6E6" width="126" height="3"/>
		<rect x="-3235.5" y="996" fill="#E6E6E6" width="126" height="3"/>
		<rect x="-3235.5" y="1002" fill="#E6E6E6" width="126" height="3"/>
		<rect x="-3235.5" y="1008" fill="#E6E6E6" width="78" height="3"/>
	</g>
</g>
<g>
	<rect x="-3274.5" y="1021" fill="#FCFCFC" width="172" height="40"/>
	<g>
		<rect x="-3266.5" y="1027" fill="#E6E6E6" width="27" height="28"/>
		<rect x="-3235.5" y="1031" fill="#E6E6E6" width="126" height="3"/>
		<rect x="-3235.5" y="1037" fill="#E6E6E6" width="126" height="3"/>
		<rect x="-3235.5" y="1043" fill="#E6E6E6" width="126" height="3"/>
		<rect x="-3235.5" y="1049" fill="#E6E6E6" width="78" height="3"/>
	</g>
</g>
<g>
	<rect x="-3274.5" y="1062" fill="#FCFCFC" width="172" height="40"/>
	<g>
		<rect x="-3266.5" y="1068" fill="#E6E6E6" width="27" height="28"/>
		<rect x="-3235.5" y="1072" fill="#E6E6E6" width="126" height="3"/>
		<rect x="-3235.5" y="1078" fill="#E6E6E6" width="126" height="3"/>
		<rect x="-3235.5" y="1084" fill="#E6E6E6" width="126" height="3"/>
		<rect x="-3235.5" y="1090" fill="#E6E6E6" width="78" height="3"/>
	</g>
</g>
<g>
	<rect x="-2576.5" y="193" fill="#E6E6E6" width="17" height="17"/>
	<rect x="-2555.5" y="193" fill="#E6E6E6" width="17" height="17"/>
	<rect x="-2534.5" y="193" fill="#E6E6E6" width="17" height="17"/>
	<rect x="-2513.5" y="193" fill="#E6E6E6" width="17" height="17"/>
</g>
<rect x="-2534.5" y="956" fill="#E6E6E6" width="8" height="8"/>
<rect x="-2524.5" y="956" fill="#E6E6E6" width="8" height="8"/>
<rect x="-2514.5" y="956" fill="#E6E6E6" width="8" height="8"/>
<rect x="-2504.5" y="956" fill="#E6E6E6" width="8" height="8"/>
<rect x="-2554.5" y="956" fill="#E6E6E6" width="8" height="8"/>
<rect x="-2544.5" y="956" fill="#0BC3D6" width="8" height="8"/>
<g>
	<rect x="-3062.5" y="311" fill="#E6E6E6" width="301" height="169"/>
	<g>
		<polygon fill="#FFFFFF" points="-3028.677,473.063 -3014.608,466.042 -3028.677,459 		"/>
	</g>
	<g>
		<path fill="#F7F7F7" d="M-2862.051,366.734h-21.272c-0.017-0.032-0.022-0.063-0.038-0.095l-3.052-6.097
			c-0.786-1.569-2.862-2.853-4.618-2.853h-40.945c-1.755,0-3.832,1.284-4.618,2.853l-3.052,6.097
			c-0.016,0.032-0.021,0.063-0.037,0.095h-22.266c-1.755,0-3.19,1.435-3.19,3.19v60.569c0,1.755,1.435,3.19,3.19,3.19h99.898
			c1.756,0,3.19-1.435,3.19-3.19v-60.569C-2858.86,368.169-2860.295,366.734-2862.051,366.734z M-2911.938,424.5
			c-13.833,0-25.048-11.213-25.048-25.05c0-13.831,11.215-25.044,25.048-25.044s25.05,11.214,25.05,25.044
			C-2886.888,413.287-2898.105,424.5-2911.938,424.5z"/>
		<path fill="#F7F7F7" d="M-2911.938,383.267c-8.925,0-16.187,7.26-16.187,16.183c0,8.926,7.262,16.189,16.187,16.189
			c8.928,0,16.189-7.263,16.189-16.189C-2895.748,390.526-2903.01,383.267-2911.938,383.267z"/>
	</g>
	<g>
		<rect x="-3048.5" y="459" fill="#FFFFFF" width="5" height="14"/>
		<rect x="-3041.5" y="459" fill="#FFFFFF" width="5" height="14"/>
	</g>
	<g>
		<polygon fill="#FFFFFF" points="-2787.208,462.792 -2790.132,462.792 -2790.132,468.628 -2787.188,468.628 -2781.379,474.445 
			-2781.379,456.943 -2787.208,462.781 		"/>
		<path fill="#FFFFFF" d="M-2779.139,462.012l-0.88,1.727v0.042c0.553,0.449,0.912,1.124,0.912,1.89s-0.359,1.441-0.912,1.89v0.007
			l0.894,1.754c1.182-0.785,1.961-2.125,1.961-3.65C-2777.164,464.14-2777.949,462.795-2779.139,462.012z"/>
		<path fill="#FFFFFF" d="M-2772.702,465.67c0-3.256-1.79-6.089-4.438-7.583l-0.867,1.703v0.041c2.007,1.176,3.362,3.35,3.362,5.839
			c0,2.49-1.355,4.664-3.362,5.839v0.006l0.883,1.731C-2774.485,471.749-2772.702,468.92-2772.702,465.67z"/>
	</g>
</g>
<rect x="-2865.5" y="956" fill="#E6E6E6" width="171" height="3"/>
<rect x="-2865.5" y="965" fill="#E6E6E6" width="121" height="3"/>
<rect x="-3568.5" y="186" fill="#0BC3D6" width="35" height="35"/>
<polygon fill="#0BC3D6" points="-3667.861,221 -3647.5,185.733 -3627.139,221 "/>
<g>
	<rect x="-3062.5" y="509" fill="#E6E6E6" width="281" height="76"/>
	<g>
		<polygon fill="#F7F7F7" points="-2996.154,571.122 -2847.846,571.122 -2859.146,534.431 -2870.864,543.734 -2884.692,523.403 
			-2950.555,557.667 -2976.232,549.475 		"/>
		<g>
			<circle fill="#F7F7F7" cx="-2952.576" cy="531.237" r="8.085"/>
		</g>
	</g>
</g>
<g>
	<rect x="-2777.5" y="509" fill="#E6E6E6" width="281" height="76"/>
	<g>
		<polygon fill="#F7F7F7" points="-2711.154,571.122 -2562.846,571.122 -2574.146,534.431 -2585.863,543.734 -2599.691,523.403 
			-2665.555,557.667 -2691.232,549.475 		"/>
		<g>
			<circle fill="#F7F7F7" cx="-2667.576" cy="531.237" r="8.085"/>
		</g>
	</g>
</g>
<g>
	<rect x="-2842.5" y="808" fill="#E6E6E6" width="125" height="22"/>
	<rect x="-2810.5" y="799" fill="#E6E6E6" width="93" height="12"/>
</g>
<line fill="#FCFCFC" stroke="#E6E6E6" stroke-width="2" stroke-miterlimit="10" x1="-3040.5" y1="687" x2="-3040.5" y2="730"/>
<line fill="#FCFCFC" stroke="#E6E6E6" stroke-width="2" stroke-miterlimit="10" x1="-2965.5" y1="687" x2="-2965.5" y2="730"/>
<line fill="#FCFCFC" stroke="#E6E6E6" stroke-width="2" stroke-miterlimit="10" x1="-2891.5" y1="687" x2="-2891.5" y2="730"/>
<line fill="#FCFCFC" stroke="#E6E6E6" stroke-width="2" stroke-miterlimit="10" x1="-2816.5" y1="687" x2="-2816.5" y2="730"/>
<line fill="#FCFCFC" stroke="#E6E6E6" stroke-width="2" stroke-miterlimit="10" x1="-2741.5" y1="687" x2="-2741.5" y2="730"/>
<line fill="#FCFCFC" stroke="#E6E6E6" stroke-width="2" stroke-miterlimit="10" x1="-2667.5" y1="687" x2="-2667.5" y2="730"/>
<line fill="#FCFCFC" stroke="#E6E6E6" stroke-width="2" stroke-miterlimit="10" x1="-2593.5" y1="687" x2="-2593.5" y2="730"/>
<line fill="#FCFCFC" stroke="#E6E6E6" stroke-width="2" stroke-miterlimit="10" x1="-2519.5" y1="687" x2="-2519.5" y2="730"/>
<line fill="none" stroke="#E6E6E6" stroke-width="2" stroke-miterlimit="10" x1="-3040.5" y1="730" x2="-2519.5" y2="730"/>
<line fill="none" stroke="#E6E6E6" stroke-width="2" stroke-miterlimit="10" x1="-2779.5" y1="730" x2="-2779.5" y2="772"/>
<polygon fill="#E6E6E6" points="-2768.755,768 -2779.5,786.61 -2790.245,768 "/>
<rect x="-2668.5" y="1071" fill="#E6E6E6" width="55" height="57"/>
<rect x="-2609.5" y="1071" fill="#E6E6E6" width="55" height="57"/>
<rect x="-2550.5" y="1071" fill="#E6E6E6" width="55" height="57"/>
<rect x="-2668.5" y="1010" fill="#E6E6E6" width="55" height="57"/>
<rect x="-2609.5" y="1010" fill="#E6E6E6" width="55" height="57"/>
<rect x="-2550.5" y="1010" fill="#E6E6E6" width="55" height="57"/>
<circle fill="#0BC3D6" cx="-2742.31" cy="664.667" r="22.667"/>
<g>
	<rect x="-2048.5" y="74" fill="#E6E6E6" width="209" height="18"/>
	<rect x="-1786.5" y="60" fill="#E6E6E6" width="327" height="45"/>
	<rect x="-2003.5" y="129" fill="#E6E6E6" width="164" height="19"/>
	<rect x="-1786.5" y="115" fill="#E6E6E6" width="327" height="44"/>
	<rect x="-2087.5" y="183" fill="#E6E6E6" width="248" height="20"/>
	<rect x="-1786.5" y="170" fill="#E6E6E6" width="327" height="45"/>
	<rect x="-2062.5" y="239" fill="#E6E6E6" width="223" height="19"/>
	<rect x="-1786.5" y="225" fill="#E6E6E6" width="327" height="45"/>
	<rect x="-2116.5" fill="#E6E6E6" width="277" height="25"/>
	<rect x="-1786.5" y="416" fill="#E6E6E6" width="163" height="45"/>
	<rect x="-1786.5" y="331" fill="#E6E6E6" width="11" height="11"/>
	<rect x="-1744.5" y="327" fill="#E6E6E6" width="286" height="20"/>
	<rect x="-1744.5" y="360" fill="#E6E6E6" width="286" height="20"/>
	<g>
		<g>
			<line fill="none" stroke="#0062A9" stroke-miterlimit="10" x1="-1813" y1="13" x2="-1813" y2="429"/>
			<g>
				<polygon fill="#0062A9" points="-1820.357,427 -1813.391,439.064 -1806.424,427 				"/>
			</g>
		</g>
	</g>
</g>
<g>
	<rect x="-1438.5" y="74" fill="#E6E6E6" width="210" height="18"/>
	<rect x="-1066.5" y="60" fill="#E6E6E6" width="328" height="45"/>
	<rect x="-1438.5" y="127" fill="#E6E6E6" width="165" height="20"/>
	<rect x="-1066.5" y="115" fill="#E6E6E6" width="328" height="45"/>
	<rect x="-1438.5" y="183" fill="#E6E6E6" width="248" height="20"/>
	<rect x="-1066.5" y="171" fill="#E6E6E6" width="328" height="45"/>
	<rect x="-1438.5" y="238" fill="#E6E6E6" width="224" height="20"/>
	<rect x="-1066.5" y="225" fill="#E6E6E6" width="328" height="45"/>
	<rect x="-1438.5" fill="#E6E6E6" width="277" height="25"/>
	<rect x="-1438.5" y="332" fill="#E6E6E6" width="11" height="11"/>
	<rect x="-1404.5" y="328" fill="#E6E6E6" width="520" height="19"/>
	<rect x="-1066.5" y="389" fill="#E6E6E6" width="164" height="45"/>
	<g>
		<g>
			<polyline fill="none" stroke="#0062A9" stroke-miterlimit="10" points="-1143.8,13.028 -1213.8,83.5 -1079.4,83.5 
				-1263.5,137.979 -1079.4,139.139 -1178.8,193.5 -1079.4,193.5 -1204,248.5 -1079.4,248.5 -1393.7,317.078 -1432.2,327.567 
				-1089.172,409.466 			"/>
			<g>
				<polygon fill="#0062A9" points="-1092.779,415.716 -1079.4,411.731 -1089.539,402.136 				"/>
			</g>
		</g>
	</g>
	<path fill="none" stroke="#0062A9" stroke-width="1.4" stroke-miterlimit="10" d="M-1079.4,83.956"/>
</g>
<g>
	<g>
		<path fill="#0062A9" d="M-689.803,74h-10.657V57.535h10.417v1.776h-8.353v5.232h6.624v1.656h-6.624v6.024h8.593V74z"/>
		<path fill="#0062A9" d="M-687.116,74V57.535h1.872V74H-687.116z"/>
		<path fill="#0062A9" d="M-671.636,70.664c-0.72,2.232-2.856,3.577-5.185,3.577c-3.696,0-5.593-2.929-5.593-6.337
			c0-3.36,1.992-6.408,5.641-6.408c3.793,0,5.425,3.168,5.329,6.552h-8.857c0,0.96,0.048,1.848,0.504,2.76
			c0.576,1.152,1.849,1.848,3.121,1.848c1.584,0,2.735-0.912,3.264-2.352L-671.636,70.664z M-673.508,66.655
			c0.023-2.016-1.104-3.72-3.265-3.72c-2.04,0-3.36,1.8-3.432,3.72H-673.508z"/>
		<path fill="#0062A9" d="M-667.005,61.807v2.352h0.049c0.624-1.464,1.943-2.664,3.647-2.664c1.776,0,3.049,1.2,3.433,2.904
			c0.672-1.68,2.064-2.904,3.937-2.904c1.248,0,2.448,0.696,3.072,1.752c0.6,1.008,0.576,2.352,0.576,3.48V74h-1.872v-7.272
			c0-0.816,0.048-1.68-0.336-2.424c-0.408-0.792-1.2-1.272-2.041-1.272c-0.936,0-1.8,0.576-2.352,1.368
			c-0.696,0.984-0.672,1.872-0.672,3.024V74h-1.873v-7.729c0-0.672-0.048-1.464-0.407-2.064c-0.433-0.72-1.225-1.176-2.04-1.176
			c-0.841,0-1.705,0.552-2.209,1.2c-0.624,0.792-0.744,1.776-0.744,2.785V74h-1.872V61.807H-667.005z"/>
		<path fill="#0062A9" d="M-638.995,70.664c-0.72,2.232-2.856,3.577-5.185,3.577c-3.696,0-5.593-2.929-5.593-6.337
			c0-3.36,1.992-6.408,5.641-6.408c3.793,0,5.425,3.168,5.329,6.552h-8.857c0,0.96,0.048,1.848,0.504,2.76
			c0.576,1.152,1.849,1.848,3.121,1.848c1.584,0,2.735-0.912,3.264-2.352L-638.995,70.664z M-640.867,66.655
			c0.023-2.016-1.104-3.72-3.265-3.72c-2.04,0-3.36,1.8-3.432,3.72H-640.867z"/>
		<path fill="#0062A9" d="M-634.269,64.063h0.048c0.696-1.512,2.064-2.568,3.792-2.568c1.464,0,2.688,0.624,3.456,1.896
			c0.624,1.032,0.576,2.664,0.576,3.864V74h-1.872v-7.537c0-0.72,0.024-1.632-0.336-2.256c-0.408-0.696-1.296-1.104-2.088-1.104
			c-0.984,0-1.872,0.456-2.521,1.224c-0.792,0.96-0.96,2.064-0.96,3.288V74h-1.872V61.807h1.776V64.063z"/>
		<path fill="#0062A9" d="M-617.253,74.096l-1.8,0.144c-2.664,0-3.456-1.561-3.456-3.984v-7.057h-2.16v-1.488h2.16v-3.024
			l1.872-0.192v3.216h2.712v1.488h-2.712v7.369c0,1.416,0.408,2.16,1.944,2.16l1.439-0.12V74.096z"/>
	</g>
	<rect x="-719.5" y="126" fill="#E6E6E6" width="700" height="42"/>
	<rect x="-702.5" y="143" fill="#FFFFFF" width="149" height="11"/>
	<rect x="-532.5" y="143" fill="#FFFFFF" width="149" height="11"/>
	<rect x="-362.5" y="143" fill="#FFFFFF" width="149" height="11"/>
	<rect x="-191.5" y="143" fill="#FFFFFF" width="150" height="11"/>
	<g>
		<path fill="#0062A9" d="M-519.803,74h-10.657V57.535h10.417v1.776h-8.353v5.232h6.624v1.656h-6.624v6.024h8.593V74z"/>
		<path fill="#0062A9" d="M-517.116,74V57.535h1.872V74H-517.116z"/>
		<path fill="#0062A9" d="M-501.636,70.664c-0.72,2.232-2.856,3.577-5.185,3.577c-3.696,0-5.593-2.929-5.593-6.337
			c0-3.36,1.992-6.408,5.641-6.408c3.793,0,5.425,3.168,5.329,6.552h-8.857c0,0.96,0.048,1.848,0.504,2.76
			c0.576,1.152,1.849,1.848,3.121,1.848c1.584,0,2.735-0.912,3.264-2.352L-501.636,70.664z M-503.508,66.655
			c0.023-2.016-1.104-3.72-3.265-3.72c-2.04,0-3.36,1.8-3.432,3.72H-503.508z"/>
		<path fill="#0062A9" d="M-497.005,61.807v2.352h0.049c0.624-1.464,1.943-2.664,3.647-2.664c1.776,0,3.049,1.2,3.433,2.904
			c0.672-1.68,2.064-2.904,3.937-2.904c1.248,0,2.448,0.696,3.072,1.752c0.6,1.008,0.576,2.352,0.576,3.48V74h-1.872v-7.272
			c0-0.816,0.048-1.68-0.336-2.424c-0.408-0.792-1.2-1.272-2.041-1.272c-0.936,0-1.8,0.576-2.352,1.368
			c-0.696,0.984-0.672,1.872-0.672,3.024V74h-1.873v-7.729c0-0.672-0.048-1.464-0.407-2.064c-0.433-0.72-1.225-1.176-2.04-1.176
			c-0.841,0-1.705,0.552-2.209,1.2c-0.624,0.792-0.744,1.776-0.744,2.785V74h-1.872V61.807H-497.005z"/>
		<path fill="#0062A9" d="M-468.995,70.664c-0.72,2.232-2.856,3.577-5.185,3.577c-3.696,0-5.593-2.929-5.593-6.337
			c0-3.36,1.992-6.408,5.641-6.408c3.793,0,5.425,3.168,5.329,6.552h-8.857c0,0.96,0.048,1.848,0.504,2.76
			c0.576,1.152,1.849,1.848,3.121,1.848c1.584,0,2.735-0.912,3.264-2.352L-468.995,70.664z M-470.867,66.655
			c0.023-2.016-1.104-3.72-3.265-3.72c-2.04,0-3.36,1.8-3.432,3.72H-470.867z"/>
		<path fill="#0062A9" d="M-464.269,64.063h0.048c0.696-1.512,2.064-2.568,3.792-2.568c1.464,0,2.688,0.624,3.456,1.896
			c0.624,1.032,0.576,2.664,0.576,3.864V74h-1.872v-7.537c0-0.72,0.024-1.632-0.336-2.256c-0.408-0.696-1.296-1.104-2.088-1.104
			c-0.984,0-1.872,0.456-2.521,1.224c-0.792,0.96-0.96,2.064-0.96,3.288V74h-1.872V61.807h1.776V64.063z"/>
		<path fill="#0062A9" d="M-447.253,74.096l-1.8,0.144c-2.664,0-3.456-1.561-3.456-3.984v-7.057h-2.16v-1.488h2.16v-3.024
			l1.872-0.192v3.216h2.712v1.488h-2.712v7.369c0,1.416,0.408,2.16,1.944,2.16l1.439-0.12V74.096z"/>
	</g>
	<g>
		<path fill="#0062A9" d="M-349.803,74h-10.657V57.535h10.417v1.776h-8.353v5.232h6.624v1.656h-6.624v6.024h8.593V74z"/>
		<path fill="#0062A9" d="M-347.116,74V57.535h1.872V74H-347.116z"/>
		<path fill="#0062A9" d="M-331.636,70.664c-0.72,2.232-2.856,3.577-5.185,3.577c-3.696,0-5.593-2.929-5.593-6.337
			c0-3.36,1.992-6.408,5.641-6.408c3.793,0,5.425,3.168,5.329,6.552h-8.857c0,0.96,0.048,1.848,0.504,2.76
			c0.576,1.152,1.849,1.848,3.121,1.848c1.584,0,2.735-0.912,3.264-2.352L-331.636,70.664z M-333.508,66.655
			c0.023-2.016-1.104-3.72-3.265-3.72c-2.04,0-3.36,1.8-3.432,3.72H-333.508z"/>
		<path fill="#0062A9" d="M-327.005,61.807v2.352h0.049c0.624-1.464,1.943-2.664,3.647-2.664c1.776,0,3.049,1.2,3.433,2.904
			c0.672-1.68,2.064-2.904,3.937-2.904c1.248,0,2.448,0.696,3.072,1.752c0.6,1.008,0.576,2.352,0.576,3.48V74h-1.872v-7.272
			c0-0.816,0.048-1.68-0.336-2.424c-0.408-0.792-1.2-1.272-2.041-1.272c-0.936,0-1.8,0.576-2.352,1.368
			c-0.696,0.984-0.672,1.872-0.672,3.024V74h-1.873v-7.729c0-0.672-0.048-1.464-0.407-2.064c-0.433-0.72-1.225-1.176-2.04-1.176
			c-0.841,0-1.705,0.552-2.209,1.2c-0.624,0.792-0.744,1.776-0.744,2.785V74h-1.872V61.807H-327.005z"/>
		<path fill="#0062A9" d="M-298.995,70.664c-0.72,2.232-2.856,3.577-5.185,3.577c-3.696,0-5.593-2.929-5.593-6.337
			c0-3.36,1.992-6.408,5.641-6.408c3.793,0,5.425,3.168,5.329,6.552h-8.857c0,0.96,0.048,1.848,0.504,2.76
			c0.576,1.152,1.849,1.848,3.121,1.848c1.584,0,2.735-0.912,3.264-2.352L-298.995,70.664z M-300.867,66.655
			c0.023-2.016-1.104-3.72-3.265-3.72c-2.04,0-3.36,1.8-3.432,3.72H-300.867z"/>
		<path fill="#0062A9" d="M-294.269,64.063h0.048c0.696-1.512,2.064-2.568,3.792-2.568c1.464,0,2.688,0.624,3.456,1.896
			c0.624,1.032,0.576,2.664,0.576,3.864V74h-1.872v-7.537c0-0.72,0.024-1.632-0.336-2.256c-0.408-0.696-1.296-1.104-2.088-1.104
			c-0.984,0-1.872,0.456-2.521,1.224c-0.792,0.96-0.96,2.064-0.96,3.288V74h-1.872V61.807h1.776V64.063z"/>
		<path fill="#0062A9" d="M-277.253,74.096l-1.8,0.144c-2.664,0-3.456-1.561-3.456-3.984v-7.057h-2.16v-1.488h2.16v-3.024
			l1.872-0.192v3.216h2.712v1.488h-2.712v7.369c0,1.416,0.408,2.16,1.944,2.16l1.439-0.12V74.096z"/>
	</g>
	<g>
		<path fill="#0062A9" d="M-178.803,74h-10.657V57.535h10.417v1.776h-8.353v5.232h6.624v1.656h-6.624v6.024h8.593V74z"/>
		<path fill="#0062A9" d="M-176.116,74V57.535h1.872V74H-176.116z"/>
		<path fill="#0062A9" d="M-160.636,70.664c-0.72,2.232-2.856,3.577-5.185,3.577c-3.696,0-5.593-2.929-5.593-6.337
			c0-3.36,1.992-6.408,5.641-6.408c3.793,0,5.425,3.168,5.329,6.552h-8.857c0,0.96,0.048,1.848,0.504,2.76
			c0.576,1.152,1.849,1.848,3.121,1.848c1.584,0,2.735-0.912,3.264-2.352L-160.636,70.664z M-162.508,66.655
			c0.023-2.016-1.104-3.72-3.265-3.72c-2.04,0-3.36,1.8-3.432,3.72H-162.508z"/>
		<path fill="#0062A9" d="M-156.005,61.807v2.352h0.049c0.624-1.464,1.943-2.664,3.647-2.664c1.776,0,3.049,1.2,3.433,2.904
			c0.672-1.68,2.064-2.904,3.937-2.904c1.248,0,2.448,0.696,3.072,1.752c0.6,1.008,0.576,2.352,0.576,3.48V74h-1.872v-7.272
			c0-0.816,0.048-1.68-0.336-2.424c-0.408-0.792-1.2-1.272-2.041-1.272c-0.936,0-1.8,0.576-2.352,1.368
			c-0.696,0.984-0.672,1.872-0.672,3.024V74h-1.873v-7.729c0-0.672-0.048-1.464-0.407-2.064c-0.433-0.72-1.225-1.176-2.04-1.176
			c-0.841,0-1.705,0.552-2.209,1.2c-0.624,0.792-0.744,1.776-0.744,2.785V74h-1.872V61.807H-156.005z"/>
		<path fill="#0062A9" d="M-127.995,70.664c-0.72,2.232-2.856,3.577-5.185,3.577c-3.696,0-5.593-2.929-5.593-6.337
			c0-3.36,1.992-6.408,5.641-6.408c3.793,0,5.425,3.168,5.329,6.552h-8.857c0,0.96,0.048,1.848,0.504,2.76
			c0.576,1.152,1.849,1.848,3.121,1.848c1.584,0,2.735-0.912,3.264-2.352L-127.995,70.664z M-129.867,66.655
			c0.023-2.016-1.104-3.72-3.265-3.72c-2.04,0-3.36,1.8-3.432,3.72H-129.867z"/>
		<path fill="#0062A9" d="M-123.269,64.063h0.048c0.696-1.512,2.064-2.568,3.792-2.568c1.464,0,2.688,0.624,3.456,1.896
			c0.624,1.032,0.576,2.664,0.576,3.864V74h-1.872v-7.537c0-0.72,0.024-1.632-0.336-2.256c-0.408-0.696-1.296-1.104-2.088-1.104
			c-0.984,0-1.872,0.456-2.521,1.224c-0.792,0.96-0.96,2.064-0.96,3.288V74h-1.872V61.807h1.776V64.063z"/>
		<path fill="#0062A9" d="M-106.253,74.096l-1.8,0.144c-2.664,0-3.456-1.561-3.456-3.984v-7.057h-2.16v-1.488h2.16v-3.024
			l1.872-0.192v3.216h2.712v1.488h-2.712v7.369c0,1.416,0.408,2.16,1.944,2.16l1.439-0.12V74.096z"/>
	</g>
	<g>
		<g>
			<path fill="none" stroke="#0062A9" stroke-miterlimit="10" d="M-651.5,92c0,0,19.442,11.834,22.576,37.834"/>
			<g>
				<polygon fill="#0062A9" points="-634.125,128.767 -628.5,137 -624.182,128.013 				"/>
			</g>
		</g>
	</g>
	<g>
		<g>
			<path fill="none" stroke="#0062A9" stroke-miterlimit="10" d="M-480.5,92c0,0,19.442,11.834,22.576,37.834"/>
			<g>
				<polygon fill="#0062A9" points="-463.125,128.767 -457.5,137 -453.182,128.013 				"/>
			</g>
		</g>
	</g>
	<g>
		<g>
			<path fill="none" stroke="#0062A9" stroke-miterlimit="10" d="M-310.5,92c0,0,19.442,11.834,22.576,37.834"/>
			<g>
				<polygon fill="#0062A9" points="-293.125,128.767 -287.5,137 -283.182,128.013 				"/>
			</g>
		</g>
	</g>
	<g>
		<g>
			<path fill="none" stroke="#0062A9" stroke-miterlimit="10" d="M-139.5,95c0,0,19.442,11.834,22.576,37.834"/>
			<g>
				<polygon fill="#0062A9" points="-122.125,131.767 -116.5,140 -112.182,131.013 				"/>
			</g>
		</g>
	</g>
</g>
<rect x="17.5" y="83" fill="#FFFFFF" width="149" height="11"/>
<rect x="187.5" y="83" fill="#FFFFFF" width="149" height="11"/>
<rect x="357.5" y="83" fill="#FFFFFF" width="149" height="11"/>
<rect x="528.5" y="83" fill="#FFFFFF" width="150" height="11"/>
<g>
	<path fill="#0062A9" d="M323.886,19.92V3.455h6.217c1.271,0,2.279,0.048,3.384,0.768c1.104,0.744,1.729,1.896,1.729,3.24
		c0,1.872-1.104,3.264-2.904,3.696v0.048c2.04,0.432,3.408,2.064,3.408,4.176c0,1.393-0.48,2.617-1.584,3.48
		c-1.248,0.984-2.545,1.056-4.057,1.056H323.886z M329.142,10.511c1.032,0,2.16,0.024,3.001-0.624
		c0.672-0.48,1.032-1.368,1.032-2.16c0-0.984-0.385-1.68-1.225-2.185c-0.72-0.408-1.464-0.408-2.28-0.408h-3.72v5.376H329.142z
		 M329.982,18.168c0.912,0,1.92-0.096,2.64-0.672c0.696-0.528,1.032-1.32,1.032-2.208c0-0.984-0.432-1.968-1.2-2.568
		c-0.792-0.624-1.824-0.624-2.76-0.624h-3.744v6.073H329.982z"/>
	<path fill="#0062A9" d="M338.766,19.92V3.455h1.872V19.92H338.766z"/>
	<path fill="#0062A9" d="M349.182,7.415c3.576,0,5.353,3.12,5.353,6.336c0,3.408-1.969,6.409-5.665,6.409
		c-3.647,0-5.28-3.216-5.28-6.433C343.589,10.343,345.51,7.415,349.182,7.415z M346.373,17.063c0.528,0.937,1.561,1.536,2.665,1.536
		c1.248,0,2.231-0.648,2.808-1.752c0.504-0.96,0.601-2.064,0.601-3.12c0-1.152-0.145-2.353-0.769-3.336
		c-0.576-0.888-1.584-1.44-2.64-1.44c-1.177,0-2.232,0.672-2.761,1.728c-0.456,0.888-0.6,2.064-0.6,3.048
		C345.678,14.832,345.846,16.104,346.373,17.063z"/>
	<path fill="#0062A9" d="M366.246,15.888c-0.433,2.472-2.088,4.272-4.704,4.272c-3.625,0-5.185-3.145-5.185-6.337
		c0-3.168,1.584-6.408,5.208-6.408c2.641,0,4.272,1.704,4.681,4.224l-1.729,0.312c-0.168-1.608-1.152-2.952-2.904-2.952
		c-2.544,0-3.264,2.664-3.264,4.705c0,1.968,0.6,4.848,3.144,4.848c1.824,0,2.713-1.32,3.024-2.976L366.246,15.888z"/>
	<path fill="#0062A9" d="M376.877,19.92l-3.552-6.792l-2.616,3.024v3.769h-1.872V3.455h1.872v10.537l5.641-6.216h2.016l-3.792,4.272
		l4.296,7.873H376.877z"/>
</g>
<path fill="none" stroke="#0062A9" stroke-miterlimit="10" d="M0.5,55.261c0,0,0-19.761,18.189-19.761H343.95
	c8.023-1,6.42-8.25,6.42-8.25"/>
<path fill="none" stroke="#0062A9" stroke-miterlimit="10" d="M700.5,55.261c0,0,0-19.761-18.188-19.761H357.05
	c-8.022-1-6.419-8.25-6.419-8.25"/>
<g>
	<g>
		<path fill="#0062A9" d="M30.197,79H19.54V62.535h10.417v1.776h-8.353v5.232h6.624v1.656h-6.624v6.024h8.593V79z"/>
		<path fill="#0062A9" d="M32.884,79V62.535h1.872V79H32.884z"/>
		<path fill="#0062A9" d="M48.364,75.664c-0.72,2.232-2.856,3.577-5.185,3.577c-3.696,0-5.593-2.929-5.593-6.337
			c0-3.36,1.992-6.408,5.641-6.408c3.793,0,5.425,3.168,5.329,6.552h-8.857c0,0.96,0.048,1.848,0.504,2.76
			c0.576,1.152,1.849,1.848,3.121,1.848c1.584,0,2.735-0.912,3.264-2.352L48.364,75.664z M46.492,71.655
			c0.023-2.016-1.104-3.72-3.265-3.72c-2.04,0-3.36,1.8-3.432,3.72H46.492z"/>
		<path fill="#0062A9" d="M52.995,66.807v2.352h0.049c0.624-1.464,1.943-2.664,3.647-2.664c1.776,0,3.049,1.2,3.433,2.904
			c0.672-1.68,2.064-2.904,3.937-2.904c1.248,0,2.448,0.696,3.072,1.752c0.6,1.008,0.576,2.352,0.576,3.48V79h-1.872v-7.272
			c0-0.816,0.048-1.68-0.336-2.424c-0.408-0.792-1.2-1.272-2.041-1.272c-0.936,0-1.8,0.576-2.352,1.368
			c-0.696,0.984-0.672,1.872-0.672,3.024V79h-1.873v-7.729c0-0.672-0.048-1.464-0.407-2.064c-0.433-0.72-1.225-1.176-2.04-1.176
			c-0.841,0-1.705,0.552-2.209,1.2c-0.624,0.792-0.744,1.776-0.744,2.785V79h-1.872V66.807H52.995z"/>
		<path fill="#0062A9" d="M81.005,75.664c-0.72,2.232-2.856,3.577-5.185,3.577c-3.696,0-5.593-2.929-5.593-6.337
			c0-3.36,1.992-6.408,5.641-6.408c3.793,0,5.425,3.168,5.329,6.552H72.34c0,0.96,0.048,1.848,0.504,2.76
			c0.576,1.152,1.849,1.848,3.121,1.848c1.584,0,2.735-0.912,3.264-2.352L81.005,75.664z M79.133,71.655
			c0.023-2.016-1.104-3.72-3.265-3.72c-2.04,0-3.36,1.8-3.432,3.72H79.133z"/>
		<path fill="#0062A9" d="M85.731,69.063h0.048c0.696-1.512,2.064-2.568,3.792-2.568c1.464,0,2.688,0.624,3.456,1.896
			c0.624,1.032,0.576,2.664,0.576,3.864V79h-1.872v-7.537c0-0.72,0.024-1.632-0.336-2.256c-0.408-0.696-1.296-1.104-2.088-1.104
			c-0.984,0-1.872,0.456-2.521,1.224c-0.792,0.96-0.96,2.064-0.96,3.288V79h-1.872V66.807h1.776V69.063z"/>
		<path fill="#0062A9" d="M102.747,79.096l-1.8,0.144c-2.664,0-3.456-1.561-3.456-3.984v-7.057h-2.16v-1.488h2.16v-3.024
			l1.872-0.192v3.216h2.712v1.488h-2.712v7.369c0,1.416,0.408,2.16,1.944,2.16l1.439-0.12V79.096z"/>
	</g>
	<rect x="0.5" y="131" fill="#E6E6E6" width="700" height="42"/>
	<rect x="17.5" y="148" fill="#FFFFFF" width="149" height="11"/>
	<rect x="187.5" y="148" fill="#FFFFFF" width="149" height="11"/>
	<rect x="357.5" y="148" fill="#FFFFFF" width="149" height="11"/>
	<rect x="528.5" y="148" fill="#FFFFFF" width="150" height="11"/>
	<g>
		<path fill="#0062A9" d="M200.197,79H189.54V62.535h10.417v1.776h-8.353v5.232h6.624v1.656h-6.624v6.024h8.593V79z"/>
		<path fill="#0062A9" d="M202.884,79V62.535h1.872V79H202.884z"/>
		<path fill="#0062A9" d="M218.364,75.664c-0.72,2.232-2.856,3.577-5.185,3.577c-3.696,0-5.593-2.929-5.593-6.337
			c0-3.36,1.992-6.408,5.641-6.408c3.793,0,5.425,3.168,5.329,6.552h-8.857c0,0.96,0.048,1.848,0.504,2.76
			c0.576,1.152,1.849,1.848,3.121,1.848c1.584,0,2.735-0.912,3.264-2.352L218.364,75.664z M216.492,71.655
			c0.023-2.016-1.104-3.72-3.265-3.72c-2.04,0-3.36,1.8-3.432,3.72H216.492z"/>
		<path fill="#0062A9" d="M222.995,66.807v2.352h0.049c0.624-1.464,1.943-2.664,3.647-2.664c1.776,0,3.049,1.2,3.433,2.904
			c0.672-1.68,2.064-2.904,3.937-2.904c1.248,0,2.448,0.696,3.072,1.752c0.6,1.008,0.576,2.352,0.576,3.48V79h-1.872v-7.272
			c0-0.816,0.048-1.68-0.336-2.424c-0.408-0.792-1.2-1.272-2.041-1.272c-0.936,0-1.8,0.576-2.352,1.368
			c-0.696,0.984-0.672,1.872-0.672,3.024V79h-1.873v-7.729c0-0.672-0.048-1.464-0.407-2.064c-0.433-0.72-1.225-1.176-2.04-1.176
			c-0.841,0-1.705,0.552-2.209,1.2c-0.624,0.792-0.744,1.776-0.744,2.785V79h-1.872V66.807H222.995z"/>
		<path fill="#0062A9" d="M251.005,75.664c-0.72,2.232-2.856,3.577-5.185,3.577c-3.696,0-5.593-2.929-5.593-6.337
			c0-3.36,1.992-6.408,5.641-6.408c3.793,0,5.425,3.168,5.329,6.552h-8.857c0,0.96,0.048,1.848,0.504,2.76
			c0.576,1.152,1.849,1.848,3.121,1.848c1.584,0,2.735-0.912,3.264-2.352L251.005,75.664z M249.133,71.655
			c0.023-2.016-1.104-3.72-3.265-3.72c-2.04,0-3.36,1.8-3.432,3.72H249.133z"/>
		<path fill="#0062A9" d="M255.731,69.063h0.048c0.696-1.512,2.064-2.568,3.792-2.568c1.464,0,2.688,0.624,3.456,1.896
			c0.624,1.032,0.576,2.664,0.576,3.864V79h-1.872v-7.537c0-0.72,0.024-1.632-0.336-2.256c-0.408-0.696-1.296-1.104-2.088-1.104
			c-0.984,0-1.872,0.456-2.521,1.224c-0.792,0.96-0.96,2.064-0.96,3.288V79h-1.872V66.807h1.776V69.063z"/>
		<path fill="#0062A9" d="M272.747,79.096l-1.8,0.144c-2.664,0-3.456-1.561-3.456-3.984v-7.057h-2.16v-1.488h2.16v-3.024
			l1.872-0.192v3.216h2.712v1.488h-2.712v7.369c0,1.416,0.408,2.16,1.944,2.16l1.439-0.12V79.096z"/>
	</g>
	<g>
		<path fill="#0062A9" d="M370.197,79H359.54V62.535h10.417v1.776h-8.353v5.232h6.624v1.656h-6.624v6.024h8.593V79z"/>
		<path fill="#0062A9" d="M372.884,79V62.535h1.872V79H372.884z"/>
		<path fill="#0062A9" d="M388.364,75.664c-0.72,2.232-2.856,3.577-5.185,3.577c-3.696,0-5.593-2.929-5.593-6.337
			c0-3.36,1.992-6.408,5.641-6.408c3.793,0,5.425,3.168,5.329,6.552h-8.857c0,0.96,0.048,1.848,0.504,2.76
			c0.576,1.152,1.849,1.848,3.121,1.848c1.584,0,2.735-0.912,3.264-2.352L388.364,75.664z M386.492,71.655
			c0.023-2.016-1.104-3.72-3.265-3.72c-2.04,0-3.36,1.8-3.432,3.72H386.492z"/>
		<path fill="#0062A9" d="M392.995,66.807v2.352h0.049c0.624-1.464,1.943-2.664,3.647-2.664c1.776,0,3.049,1.2,3.433,2.904
			c0.672-1.68,2.064-2.904,3.937-2.904c1.248,0,2.448,0.696,3.072,1.752c0.6,1.008,0.576,2.352,0.576,3.48V79h-1.872v-7.272
			c0-0.816,0.048-1.68-0.336-2.424c-0.408-0.792-1.2-1.272-2.041-1.272c-0.936,0-1.8,0.576-2.352,1.368
			c-0.696,0.984-0.672,1.872-0.672,3.024V79h-1.873v-7.729c0-0.672-0.048-1.464-0.407-2.064c-0.433-0.72-1.225-1.176-2.04-1.176
			c-0.841,0-1.705,0.552-2.209,1.2c-0.624,0.792-0.744,1.776-0.744,2.785V79h-1.872V66.807H392.995z"/>
		<path fill="#0062A9" d="M421.005,75.664c-0.72,2.232-2.856,3.577-5.185,3.577c-3.696,0-5.593-2.929-5.593-6.337
			c0-3.36,1.992-6.408,5.641-6.408c3.793,0,5.425,3.168,5.329,6.552h-8.857c0,0.96,0.048,1.848,0.504,2.76
			c0.576,1.152,1.849,1.848,3.121,1.848c1.584,0,2.735-0.912,3.264-2.352L421.005,75.664z M419.133,71.655
			c0.023-2.016-1.104-3.72-3.265-3.72c-2.04,0-3.36,1.8-3.432,3.72H419.133z"/>
		<path fill="#0062A9" d="M425.731,69.063h0.048c0.696-1.512,2.064-2.568,3.792-2.568c1.464,0,2.688,0.624,3.456,1.896
			c0.624,1.032,0.576,2.664,0.576,3.864V79h-1.872v-7.537c0-0.72,0.024-1.632-0.336-2.256c-0.408-0.696-1.296-1.104-2.088-1.104
			c-0.984,0-1.872,0.456-2.521,1.224c-0.792,0.96-0.96,2.064-0.96,3.288V79h-1.872V66.807h1.776V69.063z"/>
		<path fill="#0062A9" d="M442.747,79.096l-1.8,0.144c-2.664,0-3.456-1.561-3.456-3.984v-7.057h-2.16v-1.488h2.16v-3.024
			l1.872-0.192v3.216h2.712v1.488h-2.712v7.369c0,1.416,0.408,2.16,1.944,2.16l1.439-0.12V79.096z"/>
	</g>
	<g>
		<path fill="#0062A9" d="M541.197,79H530.54V62.535h10.417v1.776h-8.353v5.232h6.624v1.656h-6.624v6.024h8.593V79z"/>
		<path fill="#0062A9" d="M543.884,79V62.535h1.872V79H543.884z"/>
		<path fill="#0062A9" d="M559.364,75.664c-0.72,2.232-2.856,3.577-5.185,3.577c-3.696,0-5.593-2.929-5.593-6.337
			c0-3.36,1.992-6.408,5.641-6.408c3.793,0,5.425,3.168,5.329,6.552h-8.857c0,0.96,0.048,1.848,0.504,2.76
			c0.576,1.152,1.849,1.848,3.121,1.848c1.584,0,2.735-0.912,3.264-2.352L559.364,75.664z M557.492,71.655
			c0.023-2.016-1.104-3.72-3.265-3.72c-2.04,0-3.36,1.8-3.432,3.72H557.492z"/>
		<path fill="#0062A9" d="M563.995,66.807v2.352h0.049c0.624-1.464,1.943-2.664,3.647-2.664c1.776,0,3.049,1.2,3.433,2.904
			c0.672-1.68,2.064-2.904,3.937-2.904c1.248,0,2.448,0.696,3.072,1.752c0.6,1.008,0.576,2.352,0.576,3.48V79h-1.872v-7.272
			c0-0.816,0.048-1.68-0.336-2.424c-0.408-0.792-1.2-1.272-2.041-1.272c-0.936,0-1.8,0.576-2.352,1.368
			c-0.696,0.984-0.672,1.872-0.672,3.024V79h-1.873v-7.729c0-0.672-0.048-1.464-0.407-2.064c-0.433-0.72-1.225-1.176-2.04-1.176
			c-0.841,0-1.705,0.552-2.209,1.2c-0.624,0.792-0.744,1.776-0.744,2.785V79h-1.872V66.807H563.995z"/>
		<path fill="#0062A9" d="M592.005,75.664c-0.72,2.232-2.856,3.577-5.185,3.577c-3.696,0-5.593-2.929-5.593-6.337
			c0-3.36,1.992-6.408,5.641-6.408c3.793,0,5.425,3.168,5.329,6.552h-8.857c0,0.96,0.048,1.848,0.504,2.76
			c0.576,1.152,1.849,1.848,3.121,1.848c1.584,0,2.735-0.912,3.264-2.352L592.005,75.664z M590.133,71.655
			c0.023-2.016-1.104-3.72-3.265-3.72c-2.04,0-3.36,1.8-3.432,3.72H590.133z"/>
		<path fill="#0062A9" d="M596.731,69.063h0.048c0.696-1.512,2.064-2.568,3.792-2.568c1.464,0,2.688,0.624,3.456,1.896
			c0.624,1.032,0.576,2.664,0.576,3.864V79h-1.872v-7.537c0-0.72,0.024-1.632-0.336-2.256c-0.408-0.696-1.296-1.104-2.088-1.104
			c-0.984,0-1.872,0.456-2.521,1.224c-0.792,0.96-0.96,2.064-0.96,3.288V79h-1.872V66.807h1.776V69.063z"/>
		<path fill="#0062A9" d="M613.747,79.096l-1.8,0.144c-2.664,0-3.456-1.561-3.456-3.984v-7.057h-2.16v-1.488h2.16v-3.024
			l1.872-0.192v3.216h2.712v1.488h-2.712v7.369c0,1.416,0.408,2.16,1.944,2.16l1.439-0.12V79.096z"/>
	</g>
	<g>
		<g>
			<path fill="none" stroke="#0062A9" stroke-miterlimit="10" d="M68.5,97c0,0,19.442,11.834,22.576,37.834"/>
			<g>
				<polygon fill="#0062A9" points="85.875,133.767 91.5,142 95.818,133.013 				"/>
			</g>
		</g>
	</g>
	<g>
		<g>
			<path fill="none" stroke="#0062A9" stroke-miterlimit="10" d="M239.5,97c0,0,19.442,11.834,22.576,37.834"/>
			<g>
				<polygon fill="#0062A9" points="256.875,133.767 262.5,142 266.818,133.013 				"/>
			</g>
		</g>
	</g>
	<g>
		<g>
			<path fill="none" stroke="#0062A9" stroke-miterlimit="10" d="M409.5,97c0,0,19.441,11.834,22.576,37.834"/>
			<g>
				<polygon fill="#0062A9" points="426.875,133.767 432.5,142 436.818,133.013 				"/>
			</g>
		</g>
	</g>
	<g>
		<g>
			<path fill="none" stroke="#0062A9" stroke-miterlimit="10" d="M580.5,100c0,0,19.441,11.834,22.576,37.834"/>
			<g>
				<polygon fill="#0062A9" points="597.875,136.767 603.5,145 607.818,136.013 				"/>
			</g>
		</g>
	</g>
</g>
</svg>
