<?xml version="1.0" encoding="utf-8"?>
<!-- Generator: Adobe Illustrator 16.0.5, SVG Export Plug-In . SVG Version: 6.00 Build 0)  -->
<!DOCTYPE svg PUBLIC "-//W3C//DTD SVG 1.1//EN" "http://www.w3.org/Graphics/SVG/1.1/DTD/svg11.dtd">
<svg version="1.1" id="Layer_1" xmlns="http://www.w3.org/2000/svg" xmlns:xlink="http://www.w3.org/1999/xlink" x="0px" y="0px"
	 width="700px" height="113.92px" viewBox="0 0 700 113.92" enable-background="new 0 0 700 113.92" xml:space="preserve">
<g>
	<rect x="-2949" y="265.92" fill="#E6E6E6" width="566" height="198"/>
	<g>
		<circle fill="#FFFFFF" cx="-2692.5" cy="448.42" r="4.5"/>
		<circle fill="#FFFFFF" cx="-2679.25" cy="448.42" r="4.5"/>
		<circle fill="#FFFFFF" cx="-2652.75" cy="448.42" r="4.5"/>
		<circle fill="#0BC3D6" cx="-2666.5" cy="448.42" r="4.5"/>
		<circle fill="#FFFFFF" cx="-2639.5" cy="448.42" r="4.5"/>
	</g>
	<g>
		<polygon fill="#F7F7F7" points="-2881,432.846 -2461,432.846 -2493.002,328.934 -2526.186,355.281 -2565.344,297.705 
			-2751.865,394.738 -2824.582,371.539 		"/>
		<g>
			<path fill="#F7F7F7" d="M-2757.588,342.787c12.646,0,22.896-10.248,22.896-22.893c0-12.65-10.25-22.9-22.896-22.9
				c-12.647,0-22.9,10.25-22.9,22.9C-2780.489,332.539-2770.236,342.787-2757.588,342.787z"/>
		</g>
	</g>
</g>
<rect x="-2343" y="199.92" fill="#E6E6E6" width="566" height="23"/>
<rect x="-2949" y="905.92" fill="#FCFCFC" width="172" height="106"/>
<text transform="matrix(1 0 0 1 -2949.0005 63.3457)" fill="#757575" font-family="'OstrichSans-Medium'" font-size="62.5424">Wireframe/Blueprint KIT</text>
<rect x="-2949" y="201.92" fill="#E6E6E6" width="95" height="6"/>
<rect x="-2334" y="208.92" fill="#FFFFFF" width="82" height="6"/>
<rect x="-2241" y="208.92" fill="#FFFFFF" width="82" height="6"/>
<rect x="-2148" y="208.92" fill="#FFFFFF" width="82" height="6"/>
<rect x="-2054" y="208.92" fill="#FFFFFF" width="82" height="6"/>
<rect x="-1961" y="208.92" fill="#FFFFFF" width="82" height="6"/>
<rect x="-1868" y="208.92" fill="#FFFFFF" width="82" height="6"/>
<rect x="-2831" y="201.92" fill="#E6E6E6" width="95" height="6"/>
<rect x="-2714" y="201.92" fill="#E6E6E6" width="95" height="6"/>
<rect x="-2596" y="201.92" fill="#0BC3D6" width="95" height="6"/>
<rect x="-2478" y="201.92" fill="#E6E6E6" width="95" height="6"/>
<circle fill="#0BC3D6" cx="-2879.75" cy="149.133" r="18.213"/>
<rect x="-2619" y="230.92" fill="#F7F7F7" width="140" height="14"/>
<rect x="-2619" y="215.92" fill="#F7F7F7" width="140" height="14"/>
<rect x="-2949" y="580.92" fill="#E6E6E6" width="270" height="3"/>
<rect x="-2419" y="134.92" fill="#E6E6E6" width="34" height="3"/>
<rect x="-2457" y="134.92" fill="#E6E6E6" width="34" height="3"/>
<rect x="-2495" y="134.92" fill="#E6E6E6" width="34" height="3"/>
<rect x="-2938" y="941.92" fill="#E6E6E6" width="150" height="3"/>
<rect x="-2938" y="949.92" fill="#E6E6E6" width="150" height="3"/>
<rect x="-2938" y="957.92" fill="#E6E6E6" width="150" height="3"/>
<rect x="-2938" y="965.92" fill="#E6E6E6" width="78" height="3"/>
<rect x="-2949" y="588.92" fill="#E6E6E6" width="270" height="3"/>
<rect x="-2949" y="597.92" fill="#E6E6E6" width="270" height="3"/>
<rect x="-2949" y="605.92" fill="#E6E6E6" width="270" height="3"/>
<rect x="-2949" y="614.92" fill="#E6E6E6" width="270" height="3"/>
<rect x="-2949" y="622.92" fill="#E6E6E6" width="270" height="3"/>
<rect x="-2949" y="631.92" fill="#E6E6E6" width="270" height="3"/>
<rect x="-2949" y="639.92" fill="#E6E6E6" width="93" height="3"/>
<rect x="-2949" y="563.92" fill="#E6E6E6" width="38" height="11"/>
<rect x="-2915" y="823.92" fill="#E6E6E6" width="496" height="3"/>
<rect x="-2951" y="831.92" fill="#E6E6E6" width="568" height="3"/>
<rect x="-2931" y="839.92" fill="#E6E6E6" width="528" height="3"/>
<rect x="-2846" y="847.92" fill="#E6E6E6" width="358" height="3"/>
<rect x="-2735" y="806.92" fill="#E6E6E6" width="136" height="11"/>
<rect x="-2951" y="738.92" fill="#E6E6E6" width="568" height="3"/>
<rect x="-2951" y="746.92" fill="#E6E6E6" width="568" height="3"/>
<rect x="-2951" y="754.92" fill="#E6E6E6" width="568" height="3"/>
<rect x="-2951" y="763.92" fill="#E6E6E6" width="358" height="3"/>
<rect x="-2951" y="721.92" fill="#E6E6E6" width="136" height="11"/>
<rect x="-2812" y="721.92" fill="#E6E6E6" width="146" height="11"/>
<rect x="-2343" y="901.92" fill="#E6E6E6" width="72" height="11"/>
<rect x="-2268" y="901.92" fill="#E6E6E6" width="48" height="11"/>
<rect x="-2908" y="563.92" fill="#E6E6E6" width="79" height="11"/>
<rect x="-2343" y="991.92" fill="#E6E6E6" width="369" height="3"/>
<rect x="-2343" y="999.92" fill="#E6E6E6" width="369" height="3"/>
<rect x="-2343" y="1008.92" fill="#E6E6E6" width="369" height="3"/>
<rect x="-2343" y="1016.92" fill="#E6E6E6" width="369" height="3"/>
<rect x="-2343" y="1025.92" fill="#E6E6E6" width="369" height="3"/>
<rect x="-2343" y="1033.92" fill="#E6E6E6" width="369" height="3"/>
<rect x="-2343" y="1042.92" fill="#E6E6E6" width="369" height="3"/>
<rect x="-2343" y="1050.92" fill="#E6E6E6" width="204" height="3"/>
<rect x="-2343" y="974.92" fill="#E6E6E6" width="141" height="11"/>
<rect x="-2199" y="974.92" fill="#E6E6E6" width="79" height="11"/>
<g>
	<rect x="-2584" y="580.92" fill="#F7F7F7" width="201" height="3"/>
	<rect x="-2584" y="588.92" fill="#F7F7F7" width="120" height="3"/>
	<rect x="-2584" y="605.92" fill="#E6E6E6" width="201" height="3"/>
	<rect x="-2584" y="614.92" fill="#E6E6E6" width="201" height="3"/>
	<rect x="-2584" y="622.92" fill="#E6E6E6" width="201" height="3"/>
	<rect x="-2584" y="631.92" fill="#E6E6E6" width="201" height="3"/>
	<rect x="-2584" y="639.92" fill="#E6E6E6" width="64" height="3"/>
	<rect x="-2584" y="563.92" fill="#E6E6E6" width="81" height="11"/>
	<rect x="-2500" y="563.92" fill="#E6E6E6" width="59" height="11"/>
</g>
<g>
	<rect x="-2027" y="273.92" fill="#F7F7F7" width="250" height="3"/>
	<rect x="-2027" y="281.92" fill="#F7F7F7" width="120" height="3"/>
	<rect x="-2027" y="298.92" fill="#E6E6E6" width="250" height="3"/>
	<rect x="-2027" y="307.92" fill="#E6E6E6" width="250" height="3"/>
	<rect x="-2027" y="315.92" fill="#E6E6E6" width="250" height="3"/>
	<rect x="-2027" y="324.92" fill="#E6E6E6" width="250" height="3"/>
	<rect x="-2027" y="332.92" fill="#E6E6E6" width="64" height="3"/>
	<rect x="-2027" y="256.92" fill="#E6E6E6" width="81" height="11"/>
	<rect x="-1943" y="256.92" fill="#E6E6E6" width="59" height="11"/>
</g>
<path fill="#0BC3D6" d="M-2882,668.681c0,2.894-2.345,5.239-5.238,5.239h-56.523c-2.893,0-5.238-2.346-5.238-5.239v-0.521
	c0-2.894,2.345-5.239,5.238-5.239h56.523c2.893,0,5.238,2.346,5.238,5.239V668.681z"/>
<path fill="#0BC3D6" d="M-2589,509.92c0,6.627-5.373,12-12,12h-130c-6.627,0-12-5.373-12-12v-1c0-6.627,5.373-12,12-12h130
	c6.627,0,12,5.373,12,12V509.92z"/>
<g>
	<defs>
		<path id="SVGID_1_" d="M-2864,988.153c0,3.185-2.582,5.767-5.766,5.767h-62.468c-3.185,0-5.766-2.582-5.766-5.767v-0.467
			c0-3.185,2.582-5.767,5.766-5.767h62.468c3.185,0,5.766,2.582,5.766,5.767V988.153z"/>
	</defs>
	<clipPath id="SVGID_2_">
		<use xlink:href="#SVGID_1_"  overflow="visible"/>
	</clipPath>
	<g clip-path="url(#SVGID_2_)">
		
			<line fill="none" stroke="#0BC3D6" stroke-width="2" stroke-miterlimit="10" x1="-2898.667" y1="957.92" x2="-2849.499" y2="1007.087"/>
		
			<line fill="none" stroke="#0BC3D6" stroke-width="2" stroke-miterlimit="10" x1="-2932.667" y1="966.92" x2="-2883.499" y2="1016.087"/>
		
			<line fill="none" stroke="#0BC3D6" stroke-width="2" stroke-miterlimit="10" x1="-2915.667" y1="961.92" x2="-2866.499" y2="1011.087"/>
		
			<line fill="none" stroke="#0BC3D6" stroke-width="2" stroke-miterlimit="10" x1="-2949.667" y1="970.92" x2="-2900.499" y2="1020.087"/>
		
			<line fill="none" stroke="#0BC3D6" stroke-width="2" stroke-miterlimit="10" x1="-2907.667" y1="959.92" x2="-2858.499" y2="1009.087"/>
		
			<line fill="none" stroke="#0BC3D6" stroke-width="2" stroke-miterlimit="10" x1="-2941.667" y1="968.92" x2="-2892.499" y2="1018.087"/>
		
			<line fill="none" stroke="#0BC3D6" stroke-width="2" stroke-miterlimit="10" x1="-2924.667" y1="963.92" x2="-2875.499" y2="1013.087"/>
		
			<line fill="none" stroke="#0BC3D6" stroke-width="2" stroke-miterlimit="10" x1="-2958.667" y1="972.92" x2="-2909.499" y2="1022.087"/>
	</g>
	<use xlink:href="#SVGID_1_"  overflow="visible" fill="none" stroke="#0BC3D6" stroke-width="2" stroke-miterlimit="10"/>
</g>
<path fill="#0BC3D6" d="M-2808,668.681c0,2.894-2.345,5.239-5.238,5.239h-56.523c-2.893,0-5.238-2.346-5.238-5.239v-0.521
	c0-2.894,2.345-5.239,5.238-5.239h56.523c2.893,0,5.238,2.346,5.238,5.239V668.681z"/>
<g>
	<rect x="-2343" y="819.92" fill="#E6E6E6" width="172" height="76"/>
	<g>
		<polygon fill="#F7F7F7" points="-2331.153,888.455 -2182.847,888.455 -2194.147,851.763 -2205.865,861.066 -2219.692,840.735 
			-2285.554,874.999 -2311.231,866.807 		"/>
		<g>
			<circle fill="#F7F7F7" cx="-2287.575" cy="848.569" r="8.085"/>
		</g>
	</g>
</g>
<g>
	<rect x="-2146" y="819.92" fill="#E6E6E6" width="172" height="76"/>
	<g>
		<polygon fill="#F7F7F7" points="-2134.153,888.455 -1985.847,888.455 -1997.146,851.763 -2008.865,861.066 -2022.691,840.735 
			-2088.555,874.999 -2114.231,866.807 		"/>
		<g>
			<circle fill="#F7F7F7" cx="-2090.575" cy="848.569" r="8.085"/>
		</g>
	</g>
</g>
<g>
	<rect x="-1949" y="819.92" fill="#E6E6E6" width="172" height="76"/>
	<g>
		<polygon fill="#F7F7F7" points="-1937.153,888.455 -1788.847,888.455 -1800.146,851.763 -1811.865,861.066 -1825.691,840.735 
			-1891.555,874.999 -1917.231,866.807 		"/>
		<g>
			<circle fill="#F7F7F7" cx="-1893.575" cy="848.569" r="8.085"/>
		</g>
	</g>
</g>
<circle fill="#E6E6E6" cx="-2622.333" cy="586.587" r="22.667"/>
<circle fill="#E6E6E6" cx="-2320.333" cy="610.587" r="22.667"/>
<circle fill="#E6E6E6" cx="-2245.952" cy="610.587" r="22.667"/>
<circle fill="#E6E6E6" cx="-2171.571" cy="610.587" r="22.667"/>
<circle fill="#E6E6E6" cx="-2097.19" cy="610.587" r="22.667"/>
<circle fill="#E6E6E6" cx="-1948.429" cy="610.587" r="22.667"/>
<circle fill="#E6E6E6" cx="-1874.048" cy="610.587" r="22.667"/>
<circle fill="#E6E6E6" cx="-1799.667" cy="610.587" r="22.667"/>
<rect x="-2938" y="923.92" fill="#E6E6E6" width="110" height="11"/>
<rect x="-2752" y="905.92" fill="#FCFCFC" width="172" height="47"/>
<rect x="-2555" y="905.92" fill="#FCFCFC" width="172" height="19"/>
<rect x="-2707" y="917.92" fill="#E6E6E6" width="74" height="11"/>
<rect x="-2547" y="911.92" fill="#E6E6E6" width="54" height="8"/>
<rect x="-2742" y="915.92" fill="#E6E6E6" width="27" height="28"/>
<rect x="-2752" y="953.92" fill="#FCFCFC" width="172" height="104"/>
<g>
	<rect x="-2742" y="964.92" fill="#E6E6E6" width="27" height="28"/>
	<rect x="-2711" y="964.92" fill="#E6E6E6" width="27" height="28"/>
	<rect x="-2680" y="964.92" fill="#E6E6E6" width="27" height="28"/>
	<rect x="-2648" y="964.92" fill="#E6E6E6" width="27" height="28"/>
	<rect x="-2617" y="964.92" fill="#E6E6E6" width="27" height="28"/>
	<rect x="-2742" y="997.92" fill="#E6E6E6" width="27" height="3"/>
	<rect x="-2711" y="997.92" fill="#E6E6E6" width="27" height="3"/>
	<rect x="-2680" y="997.92" fill="#E6E6E6" width="27" height="3"/>
	<rect x="-2648" y="997.92" fill="#E6E6E6" width="27" height="3"/>
	<rect x="-2617" y="997.92" fill="#E6E6E6" width="27" height="3"/>
</g>
<g>
	<rect x="-2742" y="1011.92" fill="#E6E6E6" width="27" height="28"/>
	<rect x="-2711" y="1011.92" fill="#E6E6E6" width="27" height="28"/>
	<rect x="-2680" y="1011.92" fill="#E6E6E6" width="27" height="28"/>
	<rect x="-2648" y="1011.92" fill="#E6E6E6" width="27" height="28"/>
	<rect x="-2617" y="1011.92" fill="#E6E6E6" width="27" height="28"/>
	<rect x="-2742" y="1044.92" fill="#E6E6E6" width="27" height="3"/>
	<rect x="-2711" y="1044.92" fill="#E6E6E6" width="27" height="3"/>
	<rect x="-2680" y="1044.92" fill="#E6E6E6" width="27" height="3"/>
	<rect x="-2648" y="1044.92" fill="#E6E6E6" width="27" height="3"/>
	<rect x="-2617" y="1044.92" fill="#E6E6E6" width="27" height="3"/>
</g>
<rect x="-2752" y="1058.92" fill="#FCFCFC" width="172" height="18"/>
<rect x="-2729" y="1066.92" fill="#E6E6E6" width="77" height="3"/>
<rect x="-2742" y="1063.92" fill="#E6E6E6" width="9" height="9"/>
<path fill="#0BC3D6" d="M-2682,937.625c0,2.372-1.923,4.295-4.295,4.295h-16.41c-2.372,0-4.295-1.923-4.295-4.295v-0.41
	c0-2.372,1.923-4.295,4.295-4.295h16.41c2.372,0,4.295,1.923,4.295,4.295V937.625z"/>
<path fill="#0BC3D6" d="M-2390,915.625c0,2.372-1.923,4.295-4.295,4.295h-16.41c-2.372,0-4.295-1.923-4.295-4.295v-0.41
	c0-2.372,1.923-4.295,4.295-4.295h16.41c2.372,0,4.295,1.923,4.295,4.295V915.625z"/>
<g>
	<rect x="-2555" y="925.92" fill="#FCFCFC" width="172" height="40"/>
	<g>
		<rect x="-2547" y="931.92" fill="#E6E6E6" width="27" height="28"/>
		<rect x="-2516" y="935.92" fill="#E6E6E6" width="126" height="3"/>
		<rect x="-2516" y="941.92" fill="#E6E6E6" width="126" height="3"/>
		<rect x="-2516" y="947.92" fill="#E6E6E6" width="126" height="3"/>
		<rect x="-2516" y="953.92" fill="#E6E6E6" width="78" height="3"/>
	</g>
</g>
<g>
	<rect x="-2555" y="966.92" fill="#FCFCFC" width="172" height="40"/>
	<g>
		<rect x="-2547" y="972.92" fill="#E6E6E6" width="27" height="28"/>
		<rect x="-2516" y="976.92" fill="#E6E6E6" width="126" height="3"/>
		<rect x="-2516" y="982.92" fill="#E6E6E6" width="126" height="3"/>
		<rect x="-2516" y="988.92" fill="#E6E6E6" width="126" height="3"/>
		<rect x="-2516" y="994.92" fill="#E6E6E6" width="78" height="3"/>
	</g>
</g>
<g>
	<rect x="-2555" y="1007.92" fill="#FCFCFC" width="172" height="40"/>
	<g>
		<rect x="-2547" y="1013.92" fill="#E6E6E6" width="27" height="28"/>
		<rect x="-2516" y="1017.92" fill="#E6E6E6" width="126" height="3"/>
		<rect x="-2516" y="1023.92" fill="#E6E6E6" width="126" height="3"/>
		<rect x="-2516" y="1029.92" fill="#E6E6E6" width="126" height="3"/>
		<rect x="-2516" y="1035.92" fill="#E6E6E6" width="78" height="3"/>
	</g>
</g>
<g>
	<rect x="-1857" y="138.92" fill="#E6E6E6" width="17" height="17"/>
	<rect x="-1836" y="138.92" fill="#E6E6E6" width="17" height="17"/>
	<rect x="-1815" y="138.92" fill="#E6E6E6" width="17" height="17"/>
	<rect x="-1794" y="138.92" fill="#E6E6E6" width="17" height="17"/>
</g>
<rect x="-1815" y="901.92" fill="#E6E6E6" width="8" height="8"/>
<rect x="-1805" y="901.92" fill="#E6E6E6" width="8" height="8"/>
<rect x="-1795" y="901.92" fill="#E6E6E6" width="8" height="8"/>
<rect x="-1785" y="901.92" fill="#E6E6E6" width="8" height="8"/>
<rect x="-1835" y="901.92" fill="#E6E6E6" width="8" height="8"/>
<rect x="-1825" y="901.92" fill="#0BC3D6" width="8" height="8"/>
<g>
	<rect x="-2343" y="256.92" fill="#E6E6E6" width="301" height="169"/>
	<g>
		<polygon fill="#FFFFFF" points="-2309.177,418.983 -2295.108,411.962 -2309.177,404.92 		"/>
	</g>
	<g>
		<path fill="#F7F7F7" d="M-2142.551,312.654h-21.272c-0.017-0.032-0.022-0.063-0.038-0.095l-3.052-6.097
			c-0.786-1.569-2.862-2.853-4.618-2.853h-40.945c-1.755,0-3.832,1.284-4.618,2.853l-3.052,6.097
			c-0.016,0.032-0.021,0.063-0.037,0.095h-22.266c-1.755,0-3.19,1.435-3.19,3.19v60.569c0,1.755,1.435,3.19,3.19,3.19h99.898
			c1.756,0,3.19-1.435,3.19-3.19v-60.569C-2139.36,314.089-2140.795,312.654-2142.551,312.654z M-2192.438,370.42
			c-13.833,0-25.048-11.213-25.048-25.05c0-13.831,11.215-25.044,25.048-25.044s25.05,11.214,25.05,25.044
			C-2167.388,359.207-2178.605,370.42-2192.438,370.42z"/>
		<path fill="#F7F7F7" d="M-2192.438,329.187c-8.925,0-16.187,7.26-16.187,16.183c0,8.926,7.262,16.189,16.187,16.189
			c8.928,0,16.189-7.263,16.189-16.189C-2176.248,336.446-2183.51,329.187-2192.438,329.187z"/>
	</g>
	<g>
		<rect x="-2329" y="404.92" fill="#FFFFFF" width="5" height="14"/>
		<rect x="-2322" y="404.92" fill="#FFFFFF" width="5" height="14"/>
	</g>
	<g>
		<polygon fill="#FFFFFF" points="-2067.708,408.712 -2070.632,408.712 -2070.632,414.548 -2067.688,414.548 -2061.879,420.365 
			-2061.879,402.863 -2067.708,408.701 		"/>
		<path fill="#FFFFFF" d="M-2059.639,407.932l-0.88,1.727v0.042c0.553,0.449,0.912,1.124,0.912,1.89s-0.359,1.441-0.912,1.89v0.007
			l0.894,1.754c1.182-0.785,1.961-2.125,1.961-3.65C-2057.664,410.06-2058.449,408.715-2059.639,407.932z"/>
		<path fill="#FFFFFF" d="M-2053.202,411.59c0-3.256-1.79-6.089-4.438-7.583l-0.867,1.703v0.041c2.007,1.176,3.362,3.35,3.362,5.839
			c0,2.49-1.355,4.664-3.362,5.839v0.006l0.883,1.731C-2054.985,417.669-2053.202,414.84-2053.202,411.59z"/>
	</g>
</g>
<rect x="-2146" y="901.92" fill="#E6E6E6" width="171" height="3"/>
<rect x="-2146" y="910.92" fill="#E6E6E6" width="121" height="3"/>
<rect x="-2849" y="131.92" fill="#0BC3D6" width="35" height="35"/>
<polygon fill="#0BC3D6" points="-2948.361,166.92 -2928,131.653 -2907.639,166.92 "/>
<g>
	<rect x="-2343" y="454.92" fill="#E6E6E6" width="281" height="76"/>
	<g>
		<polygon fill="#F7F7F7" points="-2276.654,517.042 -2128.346,517.042 -2139.646,480.351 -2151.364,489.654 -2165.192,469.323 
			-2231.055,503.587 -2256.732,495.395 		"/>
		<g>
			<circle fill="#F7F7F7" cx="-2233.076" cy="477.157" r="8.085"/>
		</g>
	</g>
</g>
<g>
	<rect x="-2058" y="454.92" fill="#E6E6E6" width="281" height="76"/>
	<g>
		<polygon fill="#F7F7F7" points="-1991.654,517.042 -1843.346,517.042 -1854.646,480.351 -1866.363,489.654 -1880.191,469.323 
			-1946.055,503.587 -1971.732,495.395 		"/>
		<g>
			<circle fill="#F7F7F7" cx="-1948.076" cy="477.157" r="8.085"/>
		</g>
	</g>
</g>
<g>
	<rect x="-2123" y="753.92" fill="#E6E6E6" width="125" height="22"/>
	<rect x="-2091" y="744.92" fill="#E6E6E6" width="93" height="12"/>
</g>
<line fill="#FCFCFC" stroke="#E6E6E6" stroke-width="2" stroke-miterlimit="10" x1="-2321" y1="632.92" x2="-2321" y2="675.92"/>
<line fill="#FCFCFC" stroke="#E6E6E6" stroke-width="2" stroke-miterlimit="10" x1="-2246" y1="632.92" x2="-2246" y2="675.92"/>
<line fill="#FCFCFC" stroke="#E6E6E6" stroke-width="2" stroke-miterlimit="10" x1="-2172" y1="632.92" x2="-2172" y2="675.92"/>
<line fill="#FCFCFC" stroke="#E6E6E6" stroke-width="2" stroke-miterlimit="10" x1="-2097" y1="632.92" x2="-2097" y2="675.92"/>
<line fill="#FCFCFC" stroke="#E6E6E6" stroke-width="2" stroke-miterlimit="10" x1="-2022" y1="632.92" x2="-2022" y2="675.92"/>
<line fill="#FCFCFC" stroke="#E6E6E6" stroke-width="2" stroke-miterlimit="10" x1="-1948" y1="632.92" x2="-1948" y2="675.92"/>
<line fill="#FCFCFC" stroke="#E6E6E6" stroke-width="2" stroke-miterlimit="10" x1="-1874" y1="632.92" x2="-1874" y2="675.92"/>
<line fill="#FCFCFC" stroke="#E6E6E6" stroke-width="2" stroke-miterlimit="10" x1="-1800" y1="632.92" x2="-1800" y2="675.92"/>
<line fill="none" stroke="#E6E6E6" stroke-width="2" stroke-miterlimit="10" x1="-2321" y1="675.92" x2="-1800" y2="675.92"/>
<line fill="none" stroke="#E6E6E6" stroke-width="2" stroke-miterlimit="10" x1="-2060" y1="675.92" x2="-2060" y2="717.92"/>
<polygon fill="#E6E6E6" points="-2049.255,713.92 -2060,732.53 -2070.745,713.92 "/>
<rect x="-1949" y="1016.92" fill="#E6E6E6" width="55" height="57"/>
<rect x="-1890" y="1016.92" fill="#E6E6E6" width="55" height="57"/>
<rect x="-1831" y="1016.92" fill="#E6E6E6" width="55" height="57"/>
<rect x="-1949" y="955.92" fill="#E6E6E6" width="55" height="57"/>
<rect x="-1890" y="955.92" fill="#E6E6E6" width="55" height="57"/>
<rect x="-1831" y="955.92" fill="#E6E6E6" width="55" height="57"/>
<circle fill="#0BC3D6" cx="-2022.81" cy="610.587" r="22.667"/>
<g>
	<rect x="-1329" y="19.92" fill="#E6E6E6" width="209" height="18"/>
	<rect x="-1067" y="5.92" fill="#E6E6E6" width="327" height="45"/>
	<rect x="-1284" y="74.92" fill="#E6E6E6" width="164" height="19"/>
	<rect x="-1067" y="60.92" fill="#E6E6E6" width="327" height="44"/>
	<rect x="-1368" y="128.92" fill="#E6E6E6" width="248" height="20"/>
	<rect x="-1067" y="115.92" fill="#E6E6E6" width="327" height="45"/>
	<rect x="-1343" y="184.92" fill="#E6E6E6" width="223" height="19"/>
	<rect x="-1067" y="170.92" fill="#E6E6E6" width="327" height="45"/>
	<rect x="-1397" y="-54.08" fill="#E6E6E6" width="277" height="25"/>
	<rect x="-1067" y="361.92" fill="#E6E6E6" width="163" height="45"/>
	<rect x="-1067" y="276.92" fill="#E6E6E6" width="11" height="11"/>
	<rect x="-1025" y="272.92" fill="#E6E6E6" width="286" height="20"/>
	<rect x="-1025" y="305.92" fill="#E6E6E6" width="286" height="20"/>
	<g>
		<g>
			<line fill="none" stroke="#0062A9" stroke-miterlimit="10" x1="-1093.5" y1="-41.08" x2="-1093.5" y2="374.92"/>
			<g>
				<polygon fill="#0062A9" points="-1100.857,372.92 -1093.891,384.984 -1086.924,372.92 				"/>
			</g>
		</g>
	</g>
</g>
<g>
	<rect x="-719" y="19.92" fill="#E6E6E6" width="210" height="18"/>
	<rect x="-347" y="5.92" fill="#E6E6E6" width="328" height="45"/>
	<rect x="-719" y="72.92" fill="#E6E6E6" width="165" height="20"/>
	<rect x="-347" y="60.92" fill="#E6E6E6" width="328" height="45"/>
	<rect x="-719" y="128.92" fill="#E6E6E6" width="248" height="20"/>
	<rect x="-347" y="116.92" fill="#E6E6E6" width="328" height="45"/>
	<rect x="-719" y="183.92" fill="#E6E6E6" width="224" height="20"/>
	<rect x="-347" y="170.92" fill="#E6E6E6" width="328" height="45"/>
	<rect x="-719" y="-54.08" fill="#E6E6E6" width="277" height="25"/>
	<rect x="-719" y="277.92" fill="#E6E6E6" width="11" height="11"/>
	<rect x="-685" y="273.92" fill="#E6E6E6" width="520" height="19"/>
	<rect x="-347" y="334.92" fill="#E6E6E6" width="164" height="45"/>
	<g>
		<g>
			<polyline fill="none" stroke="#0062A9" stroke-miterlimit="10" points="-424.3,-41.052 -494.3,29.42 -359.9,29.42 -544,83.898 
				-359.9,85.059 -459.3,139.42 -359.9,139.42 -484.5,194.42 -359.9,194.42 -674.2,262.998 -712.7,273.487 -369.672,355.386 			"/>
			<g>
				<polygon fill="#0062A9" points="-373.279,361.636 -359.9,357.651 -370.039,348.056 				"/>
			</g>
		</g>
	</g>
	<path fill="none" stroke="#0062A9" stroke-width="1.4" stroke-miterlimit="10" d="M-359.9,29.876"/>
</g>
<g>
	<g>
		<path fill="#0062A9" d="M29.697,19.92H19.04V3.455h10.417V5.23h-8.353v5.232h6.624v1.656h-6.624v6.024h8.593V19.92z"/>
		<path fill="#0062A9" d="M32.384,19.92V3.455h1.872V19.92H32.384z"/>
		<path fill="#0062A9" d="M47.864,16.583c-0.72,2.232-2.856,3.577-5.185,3.577c-3.696,0-5.593-2.929-5.593-6.337
			c0-3.36,1.992-6.408,5.641-6.408c3.793,0,5.425,3.168,5.329,6.552h-8.857c0,0.96,0.048,1.848,0.504,2.76
			c0.576,1.152,1.849,1.848,3.121,1.848c1.584,0,2.735-0.912,3.264-2.352L47.864,16.583z M45.992,12.575
			c0.023-2.016-1.104-3.72-3.265-3.72c-2.04,0-3.36,1.8-3.432,3.72H45.992z"/>
		<path fill="#0062A9" d="M52.495,7.727v2.352h0.049c0.624-1.464,1.943-2.664,3.647-2.664c1.776,0,3.049,1.2,3.433,2.904
			c0.672-1.68,2.064-2.904,3.937-2.904c1.248,0,2.448,0.696,3.072,1.752c0.6,1.008,0.576,2.352,0.576,3.48v7.272h-1.872v-7.272
			c0-0.816,0.048-1.68-0.336-2.424c-0.408-0.792-1.2-1.272-2.041-1.272c-0.936,0-1.8,0.576-2.352,1.368
			c-0.696,0.984-0.672,1.872-0.672,3.024v6.577h-1.873v-7.729c0-0.672-0.048-1.464-0.407-2.064c-0.433-0.72-1.225-1.176-2.04-1.176
			c-0.841,0-1.705,0.552-2.209,1.2c-0.624,0.792-0.744,1.776-0.744,2.785v6.984h-1.872V7.727H52.495z"/>
		<path fill="#0062A9" d="M80.505,16.583c-0.72,2.232-2.856,3.577-5.185,3.577c-3.696,0-5.593-2.929-5.593-6.337
			c0-3.36,1.992-6.408,5.641-6.408c3.793,0,5.425,3.168,5.329,6.552H71.84c0,0.96,0.048,1.848,0.504,2.76
			c0.576,1.152,1.849,1.848,3.121,1.848c1.584,0,2.735-0.912,3.264-2.352L80.505,16.583z M78.633,12.575
			c0.023-2.016-1.104-3.72-3.265-3.72c-2.04,0-3.36,1.8-3.432,3.72H78.633z"/>
		<path fill="#0062A9" d="M85.231,9.983h0.048c0.696-1.512,2.064-2.568,3.792-2.568c1.464,0,2.688,0.624,3.456,1.896
			c0.624,1.032,0.576,2.664,0.576,3.864v6.745h-1.872v-7.537c0-0.72,0.024-1.632-0.336-2.256c-0.408-0.696-1.296-1.104-2.088-1.104
			c-0.984,0-1.872,0.456-2.521,1.224c-0.792,0.96-0.96,2.064-0.96,3.288v6.385h-1.872V7.727h1.776V9.983z"/>
		<path fill="#0062A9" d="M102.247,20.016l-1.8,0.144c-2.664,0-3.456-1.561-3.456-3.984V9.119h-2.16V7.631h2.16V4.606l1.872-0.192
			v3.216h2.712v1.488h-2.712v7.369c0,1.416,0.408,2.16,1.944,2.16l1.439-0.12V20.016z"/>
	</g>
	<rect y="71.92" fill="#E6E6E6" width="700" height="42"/>
	<rect x="17" y="88.92" fill="#FFFFFF" width="149" height="11"/>
	<rect x="187" y="88.92" fill="#FFFFFF" width="149" height="11"/>
	<rect x="357" y="88.92" fill="#FFFFFF" width="149" height="11"/>
	<rect x="528" y="88.92" fill="#FFFFFF" width="150" height="11"/>
	<g>
		<path fill="#0062A9" d="M199.697,19.92H189.04V3.455h10.417V5.23h-8.353v5.232h6.624v1.656h-6.624v6.024h8.593V19.92z"/>
		<path fill="#0062A9" d="M202.384,19.92V3.455h1.872V19.92H202.384z"/>
		<path fill="#0062A9" d="M217.864,16.583c-0.72,2.232-2.856,3.577-5.185,3.577c-3.696,0-5.593-2.929-5.593-6.337
			c0-3.36,1.992-6.408,5.641-6.408c3.793,0,5.425,3.168,5.329,6.552h-8.857c0,0.96,0.048,1.848,0.504,2.76
			c0.576,1.152,1.849,1.848,3.121,1.848c1.584,0,2.735-0.912,3.264-2.352L217.864,16.583z M215.992,12.575
			c0.023-2.016-1.104-3.72-3.265-3.72c-2.04,0-3.36,1.8-3.432,3.72H215.992z"/>
		<path fill="#0062A9" d="M222.495,7.727v2.352h0.049c0.624-1.464,1.943-2.664,3.647-2.664c1.776,0,3.049,1.2,3.433,2.904
			c0.672-1.68,2.064-2.904,3.937-2.904c1.248,0,2.448,0.696,3.072,1.752c0.6,1.008,0.576,2.352,0.576,3.48v7.272h-1.872v-7.272
			c0-0.816,0.048-1.68-0.336-2.424c-0.408-0.792-1.2-1.272-2.041-1.272c-0.936,0-1.8,0.576-2.352,1.368
			c-0.696,0.984-0.672,1.872-0.672,3.024v6.577h-1.873v-7.729c0-0.672-0.048-1.464-0.407-2.064c-0.433-0.72-1.225-1.176-2.04-1.176
			c-0.841,0-1.705,0.552-2.209,1.2c-0.624,0.792-0.744,1.776-0.744,2.785v6.984h-1.872V7.727H222.495z"/>
		<path fill="#0062A9" d="M250.505,16.583c-0.72,2.232-2.856,3.577-5.185,3.577c-3.696,0-5.593-2.929-5.593-6.337
			c0-3.36,1.992-6.408,5.641-6.408c3.793,0,5.425,3.168,5.329,6.552h-8.857c0,0.96,0.048,1.848,0.504,2.76
			c0.576,1.152,1.849,1.848,3.121,1.848c1.584,0,2.735-0.912,3.264-2.352L250.505,16.583z M248.633,12.575
			c0.023-2.016-1.104-3.72-3.265-3.72c-2.04,0-3.36,1.8-3.432,3.72H248.633z"/>
		<path fill="#0062A9" d="M255.231,9.983h0.048c0.696-1.512,2.064-2.568,3.792-2.568c1.464,0,2.688,0.624,3.456,1.896
			c0.624,1.032,0.576,2.664,0.576,3.864v6.745h-1.872v-7.537c0-0.72,0.024-1.632-0.336-2.256c-0.408-0.696-1.296-1.104-2.088-1.104
			c-0.984,0-1.872,0.456-2.521,1.224c-0.792,0.96-0.96,2.064-0.96,3.288v6.385h-1.872V7.727h1.776V9.983z"/>
		<path fill="#0062A9" d="M272.247,20.016l-1.8,0.144c-2.664,0-3.456-1.561-3.456-3.984V9.119h-2.16V7.631h2.16V4.606l1.872-0.192
			v3.216h2.712v1.488h-2.712v7.369c0,1.416,0.408,2.16,1.944,2.16l1.439-0.12V20.016z"/>
	</g>
	<g>
		<path fill="#0062A9" d="M369.697,19.92H359.04V3.455h10.417V5.23h-8.353v5.232h6.624v1.656h-6.624v6.024h8.593V19.92z"/>
		<path fill="#0062A9" d="M372.384,19.92V3.455h1.872V19.92H372.384z"/>
		<path fill="#0062A9" d="M387.864,16.583c-0.72,2.232-2.856,3.577-5.185,3.577c-3.696,0-5.593-2.929-5.593-6.337
			c0-3.36,1.992-6.408,5.641-6.408c3.793,0,5.425,3.168,5.329,6.552h-8.857c0,0.96,0.048,1.848,0.504,2.76
			c0.576,1.152,1.849,1.848,3.121,1.848c1.584,0,2.735-0.912,3.264-2.352L387.864,16.583z M385.992,12.575
			c0.023-2.016-1.104-3.72-3.265-3.72c-2.04,0-3.36,1.8-3.432,3.72H385.992z"/>
		<path fill="#0062A9" d="M392.495,7.727v2.352h0.049c0.624-1.464,1.943-2.664,3.647-2.664c1.776,0,3.049,1.2,3.433,2.904
			c0.672-1.68,2.064-2.904,3.937-2.904c1.248,0,2.448,0.696,3.072,1.752c0.6,1.008,0.576,2.352,0.576,3.48v7.272h-1.872v-7.272
			c0-0.816,0.048-1.68-0.336-2.424c-0.408-0.792-1.2-1.272-2.041-1.272c-0.936,0-1.8,0.576-2.352,1.368
			c-0.696,0.984-0.672,1.872-0.672,3.024v6.577h-1.873v-7.729c0-0.672-0.048-1.464-0.407-2.064c-0.433-0.72-1.225-1.176-2.04-1.176
			c-0.841,0-1.705,0.552-2.209,1.2c-0.624,0.792-0.744,1.776-0.744,2.785v6.984h-1.872V7.727H392.495z"/>
		<path fill="#0062A9" d="M420.505,16.583c-0.72,2.232-2.856,3.577-5.185,3.577c-3.696,0-5.593-2.929-5.593-6.337
			c0-3.36,1.992-6.408,5.641-6.408c3.793,0,5.425,3.168,5.329,6.552h-8.857c0,0.96,0.048,1.848,0.504,2.76
			c0.576,1.152,1.849,1.848,3.121,1.848c1.584,0,2.735-0.912,3.264-2.352L420.505,16.583z M418.633,12.575
			c0.023-2.016-1.104-3.72-3.265-3.72c-2.04,0-3.36,1.8-3.432,3.72H418.633z"/>
		<path fill="#0062A9" d="M425.231,9.983h0.048c0.696-1.512,2.064-2.568,3.792-2.568c1.464,0,2.688,0.624,3.456,1.896
			c0.624,1.032,0.576,2.664,0.576,3.864v6.745h-1.872v-7.537c0-0.72,0.024-1.632-0.336-2.256c-0.408-0.696-1.296-1.104-2.088-1.104
			c-0.984,0-1.872,0.456-2.521,1.224c-0.792,0.96-0.96,2.064-0.96,3.288v6.385h-1.872V7.727h1.776V9.983z"/>
		<path fill="#0062A9" d="M442.247,20.016l-1.8,0.144c-2.664,0-3.456-1.561-3.456-3.984V9.119h-2.16V7.631h2.16V4.606l1.872-0.192
			v3.216h2.712v1.488h-2.712v7.369c0,1.416,0.408,2.16,1.944,2.16l1.439-0.12V20.016z"/>
	</g>
	<g>
		<path fill="#0062A9" d="M540.697,19.92H530.04V3.455h10.417V5.23h-8.353v5.232h6.624v1.656h-6.624v6.024h8.593V19.92z"/>
		<path fill="#0062A9" d="M543.384,19.92V3.455h1.872V19.92H543.384z"/>
		<path fill="#0062A9" d="M558.864,16.583c-0.72,2.232-2.856,3.577-5.185,3.577c-3.696,0-5.593-2.929-5.593-6.337
			c0-3.36,1.992-6.408,5.641-6.408c3.793,0,5.425,3.168,5.329,6.552h-8.857c0,0.96,0.048,1.848,0.504,2.76
			c0.576,1.152,1.849,1.848,3.121,1.848c1.584,0,2.735-0.912,3.264-2.352L558.864,16.583z M556.992,12.575
			c0.023-2.016-1.104-3.72-3.265-3.72c-2.04,0-3.36,1.8-3.432,3.72H556.992z"/>
		<path fill="#0062A9" d="M563.495,7.727v2.352h0.049c0.624-1.464,1.943-2.664,3.647-2.664c1.776,0,3.049,1.2,3.433,2.904
			c0.672-1.68,2.064-2.904,3.937-2.904c1.248,0,2.448,0.696,3.072,1.752c0.6,1.008,0.576,2.352,0.576,3.48v7.272h-1.872v-7.272
			c0-0.816,0.048-1.68-0.336-2.424c-0.408-0.792-1.2-1.272-2.041-1.272c-0.936,0-1.8,0.576-2.352,1.368
			c-0.696,0.984-0.672,1.872-0.672,3.024v6.577h-1.873v-7.729c0-0.672-0.048-1.464-0.407-2.064c-0.433-0.72-1.225-1.176-2.04-1.176
			c-0.841,0-1.705,0.552-2.209,1.2c-0.624,0.792-0.744,1.776-0.744,2.785v6.984h-1.872V7.727H563.495z"/>
		<path fill="#0062A9" d="M591.505,16.583c-0.72,2.232-2.856,3.577-5.185,3.577c-3.696,0-5.593-2.929-5.593-6.337
			c0-3.36,1.992-6.408,5.641-6.408c3.793,0,5.425,3.168,5.329,6.552h-8.857c0,0.96,0.048,1.848,0.504,2.76
			c0.576,1.152,1.849,1.848,3.121,1.848c1.584,0,2.735-0.912,3.264-2.352L591.505,16.583z M589.633,12.575
			c0.023-2.016-1.104-3.72-3.265-3.72c-2.04,0-3.36,1.8-3.432,3.72H589.633z"/>
		<path fill="#0062A9" d="M596.231,9.983h0.048c0.696-1.512,2.064-2.568,3.792-2.568c1.464,0,2.688,0.624,3.456,1.896
			c0.624,1.032,0.576,2.664,0.576,3.864v6.745h-1.872v-7.537c0-0.72,0.024-1.632-0.336-2.256c-0.408-0.696-1.296-1.104-2.088-1.104
			c-0.984,0-1.872,0.456-2.521,1.224c-0.792,0.96-0.96,2.064-0.96,3.288v6.385h-1.872V7.727h1.776V9.983z"/>
		<path fill="#0062A9" d="M613.247,20.016l-1.8,0.144c-2.664,0-3.456-1.561-3.456-3.984V9.119h-2.16V7.631h2.16V4.606l1.872-0.192
			v3.216h2.712v1.488h-2.712v7.369c0,1.416,0.408,2.16,1.944,2.16l1.439-0.12V20.016z"/>
	</g>
	<g>
		<g>
			<path fill="none" stroke="#0062A9" stroke-miterlimit="10" d="M68,37.92c0,0,19.442,11.834,22.576,37.834"/>
			<g>
				<polygon fill="#0062A9" points="85.375,74.687 91,82.92 95.318,73.933 				"/>
			</g>
		</g>
	</g>
	<g>
		<g>
			<path fill="none" stroke="#0062A9" stroke-miterlimit="10" d="M239,37.92c0,0,19.442,11.834,22.576,37.834"/>
			<g>
				<polygon fill="#0062A9" points="256.375,74.687 262,82.92 266.318,73.933 				"/>
			</g>
		</g>
	</g>
	<g>
		<g>
			<path fill="none" stroke="#0062A9" stroke-miterlimit="10" d="M409,37.92c0,0,19.442,11.834,22.576,37.834"/>
			<g>
				<polygon fill="#0062A9" points="426.375,74.687 432,82.92 436.318,73.933 				"/>
			</g>
		</g>
	</g>
	<g>
		<g>
			<path fill="none" stroke="#0062A9" stroke-miterlimit="10" d="M580,40.92c0,0,19.442,11.834,22.576,37.834"/>
			<g>
				<polygon fill="#0062A9" points="597.375,77.687 603,85.92 607.318,76.933 				"/>
			</g>
		</g>
	</g>
</g>
<rect x="737" y="28.92" fill="#FFFFFF" width="149" height="11"/>
<rect x="907" y="28.92" fill="#FFFFFF" width="149" height="11"/>
<rect x="1077" y="28.92" fill="#FFFFFF" width="149" height="11"/>
<rect x="1248" y="28.92" fill="#FFFFFF" width="150" height="11"/>
<g>
	<path fill="#0062A9" d="M1043.386-34.16v-16.465h6.217c1.271,0,2.279,0.048,3.384,0.768c1.104,0.744,1.729,1.896,1.729,3.24
		c0,1.872-1.104,3.264-2.904,3.696v0.048c2.04,0.432,3.408,2.064,3.408,4.176c0,1.393-0.48,2.617-1.584,3.48
		c-1.248,0.984-2.545,1.056-4.057,1.056H1043.386z M1048.642-43.569c1.032,0,2.16,0.024,3.001-0.624
		c0.672-0.48,1.032-1.368,1.032-2.16c0-0.984-0.385-1.68-1.225-2.185c-0.72-0.408-1.464-0.408-2.28-0.408h-3.72v5.376H1048.642z
		 M1049.482-35.912c0.912,0,1.92-0.096,2.64-0.672c0.696-0.528,1.032-1.32,1.032-2.208c0-0.984-0.432-1.968-1.2-2.568
		c-0.792-0.624-1.824-0.624-2.76-0.624h-3.744v6.073H1049.482z"/>
	<path fill="#0062A9" d="M1058.266-34.16v-16.465h1.872v16.465H1058.266z"/>
	<path fill="#0062A9" d="M1068.682-46.665c3.576,0,5.353,3.12,5.353,6.336c0,3.408-1.969,6.409-5.665,6.409
		c-3.647,0-5.28-3.216-5.28-6.433C1063.089-43.737,1065.01-46.665,1068.682-46.665z M1065.873-37.017
		c0.528,0.937,1.561,1.536,2.665,1.536c1.248,0,2.231-0.648,2.808-1.752c0.504-0.96,0.601-2.064,0.601-3.12
		c0-1.152-0.145-2.353-0.769-3.336c-0.576-0.888-1.584-1.44-2.64-1.44c-1.177,0-2.232,0.672-2.761,1.728
		c-0.456,0.888-0.6,2.064-0.6,3.048C1065.178-39.249,1065.346-37.977,1065.873-37.017z"/>
	<path fill="#0062A9" d="M1085.746-38.192c-0.433,2.472-2.088,4.272-4.704,4.272c-3.625,0-5.185-3.145-5.185-6.337
		c0-3.168,1.584-6.408,5.208-6.408c2.641,0,4.272,1.704,4.681,4.224l-1.729,0.312c-0.168-1.608-1.152-2.952-2.904-2.952
		c-2.544,0-3.264,2.664-3.264,4.705c0,1.968,0.6,4.848,3.144,4.848c1.824,0,2.713-1.32,3.024-2.976L1085.746-38.192z"/>
	<path fill="#0062A9" d="M1096.377-34.16l-3.552-6.792l-2.616,3.024v3.769h-1.872v-16.465h1.872v10.537l5.641-6.216h2.016
		l-3.792,4.272l4.296,7.873H1096.377z"/>
</g>
<path fill="none" stroke="#0062A9" stroke-miterlimit="10" d="M720,1.181c0,0,0-19.761,18.189-19.761h325.261
	c8.023-1,6.42-8.25,6.42-8.25"/>
<path fill="none" stroke="#0062A9" stroke-miterlimit="10" d="M1420,1.181c0,0,0-19.761-18.188-19.761H1076.55
	c-8.022-1-6.419-8.25-6.419-8.25"/>
<g>
	<g>
		<path fill="#0062A9" d="M749.697,24.92H739.04V8.455h10.417v1.776h-8.353v5.232h6.624v1.656h-6.624v6.024h8.593V24.92z"/>
		<path fill="#0062A9" d="M752.384,24.92V8.455h1.872V24.92H752.384z"/>
		<path fill="#0062A9" d="M767.864,21.583c-0.72,2.232-2.856,3.577-5.185,3.577c-3.696,0-5.593-2.929-5.593-6.337
			c0-3.36,1.992-6.408,5.641-6.408c3.793,0,5.425,3.168,5.329,6.552h-8.857c0,0.96,0.048,1.848,0.504,2.76
			c0.576,1.152,1.849,1.848,3.121,1.848c1.584,0,2.735-0.912,3.264-2.352L767.864,21.583z M765.992,17.575
			c0.023-2.016-1.104-3.72-3.265-3.72c-2.04,0-3.36,1.8-3.432,3.72H765.992z"/>
		<path fill="#0062A9" d="M772.495,12.727v2.352h0.049c0.624-1.464,1.943-2.664,3.647-2.664c1.776,0,3.049,1.2,3.433,2.904
			c0.672-1.68,2.064-2.904,3.937-2.904c1.248,0,2.448,0.696,3.072,1.752c0.6,1.008,0.576,2.352,0.576,3.48v7.272h-1.872v-7.272
			c0-0.816,0.048-1.68-0.336-2.424c-0.408-0.792-1.2-1.272-2.041-1.272c-0.936,0-1.8,0.576-2.352,1.368
			c-0.696,0.984-0.672,1.872-0.672,3.024v6.577h-1.873v-7.729c0-0.672-0.048-1.464-0.407-2.064c-0.433-0.72-1.225-1.176-2.04-1.176
			c-0.841,0-1.705,0.552-2.209,1.2c-0.624,0.792-0.744,1.776-0.744,2.785v6.984h-1.872V12.727H772.495z"/>
		<path fill="#0062A9" d="M800.505,21.583c-0.72,2.232-2.856,3.577-5.185,3.577c-3.696,0-5.593-2.929-5.593-6.337
			c0-3.36,1.992-6.408,5.641-6.408c3.793,0,5.425,3.168,5.329,6.552h-8.857c0,0.96,0.048,1.848,0.504,2.76
			c0.576,1.152,1.849,1.848,3.121,1.848c1.584,0,2.735-0.912,3.264-2.352L800.505,21.583z M798.633,17.575
			c0.023-2.016-1.104-3.72-3.265-3.72c-2.04,0-3.36,1.8-3.432,3.72H798.633z"/>
		<path fill="#0062A9" d="M805.231,14.983h0.048c0.696-1.512,2.064-2.568,3.792-2.568c1.464,0,2.688,0.624,3.456,1.896
			c0.624,1.032,0.576,2.664,0.576,3.864v6.745h-1.872v-7.537c0-0.72,0.024-1.632-0.336-2.256c-0.408-0.696-1.296-1.104-2.088-1.104
			c-0.984,0-1.872,0.456-2.521,1.224c-0.792,0.96-0.96,2.064-0.96,3.288v6.385h-1.872V12.727h1.776V14.983z"/>
		<path fill="#0062A9" d="M822.247,25.016l-1.8,0.144c-2.664,0-3.456-1.561-3.456-3.984v-7.057h-2.16v-1.488h2.16V9.606l1.872-0.192
			v3.216h2.712v1.488h-2.712v7.369c0,1.416,0.408,2.16,1.944,2.16l1.439-0.12V25.016z"/>
	</g>
	<rect x="720" y="76.92" fill="#E6E6E6" width="700" height="42"/>
	<rect x="737" y="93.92" fill="#FFFFFF" width="149" height="11"/>
	<rect x="907" y="93.92" fill="#FFFFFF" width="149" height="11"/>
	<rect x="1077" y="93.92" fill="#FFFFFF" width="149" height="11"/>
	<rect x="1248" y="93.92" fill="#FFFFFF" width="150" height="11"/>
	<g>
		<path fill="#0062A9" d="M919.697,24.92H909.04V8.455h10.417v1.776h-8.353v5.232h6.624v1.656h-6.624v6.024h8.593V24.92z"/>
		<path fill="#0062A9" d="M922.384,24.92V8.455h1.872V24.92H922.384z"/>
		<path fill="#0062A9" d="M937.864,21.583c-0.72,2.232-2.856,3.577-5.185,3.577c-3.696,0-5.593-2.929-5.593-6.337
			c0-3.36,1.992-6.408,5.641-6.408c3.793,0,5.425,3.168,5.329,6.552h-8.857c0,0.96,0.048,1.848,0.504,2.76
			c0.576,1.152,1.849,1.848,3.121,1.848c1.584,0,2.735-0.912,3.264-2.352L937.864,21.583z M935.992,17.575
			c0.023-2.016-1.104-3.72-3.265-3.72c-2.04,0-3.36,1.8-3.432,3.72H935.992z"/>
		<path fill="#0062A9" d="M942.495,12.727v2.352h0.049c0.624-1.464,1.943-2.664,3.647-2.664c1.776,0,3.049,1.2,3.433,2.904
			c0.672-1.68,2.064-2.904,3.937-2.904c1.248,0,2.448,0.696,3.072,1.752c0.6,1.008,0.576,2.352,0.576,3.48v7.272h-1.872v-7.272
			c0-0.816,0.048-1.68-0.336-2.424c-0.408-0.792-1.2-1.272-2.041-1.272c-0.936,0-1.8,0.576-2.352,1.368
			c-0.696,0.984-0.672,1.872-0.672,3.024v6.577h-1.873v-7.729c0-0.672-0.048-1.464-0.407-2.064c-0.433-0.72-1.225-1.176-2.04-1.176
			c-0.841,0-1.705,0.552-2.209,1.2c-0.624,0.792-0.744,1.776-0.744,2.785v6.984h-1.872V12.727H942.495z"/>
		<path fill="#0062A9" d="M970.505,21.583c-0.72,2.232-2.856,3.577-5.185,3.577c-3.696,0-5.593-2.929-5.593-6.337
			c0-3.36,1.992-6.408,5.641-6.408c3.793,0,5.425,3.168,5.329,6.552h-8.857c0,0.96,0.048,1.848,0.504,2.76
			c0.576,1.152,1.849,1.848,3.121,1.848c1.584,0,2.735-0.912,3.264-2.352L970.505,21.583z M968.633,17.575
			c0.023-2.016-1.104-3.72-3.265-3.72c-2.04,0-3.36,1.8-3.432,3.72H968.633z"/>
		<path fill="#0062A9" d="M975.231,14.983h0.048c0.696-1.512,2.064-2.568,3.792-2.568c1.464,0,2.688,0.624,3.456,1.896
			c0.624,1.032,0.576,2.664,0.576,3.864v6.745h-1.872v-7.537c0-0.72,0.024-1.632-0.336-2.256c-0.408-0.696-1.296-1.104-2.088-1.104
			c-0.984,0-1.872,0.456-2.521,1.224c-0.792,0.96-0.96,2.064-0.96,3.288v6.385h-1.872V12.727h1.776V14.983z"/>
		<path fill="#0062A9" d="M992.247,25.016l-1.8,0.144c-2.664,0-3.456-1.561-3.456-3.984v-7.057h-2.16v-1.488h2.16V9.606l1.872-0.192
			v3.216h2.712v1.488h-2.712v7.369c0,1.416,0.408,2.16,1.944,2.16l1.439-0.12V25.016z"/>
	</g>
	<g>
		<path fill="#0062A9" d="M1089.697,24.92h-10.657V8.455h10.417v1.776h-8.353v5.232h6.624v1.656h-6.624v6.024h8.593V24.92z"/>
		<path fill="#0062A9" d="M1092.384,24.92V8.455h1.872V24.92H1092.384z"/>
		<path fill="#0062A9" d="M1107.864,21.583c-0.72,2.232-2.856,3.577-5.185,3.577c-3.696,0-5.593-2.929-5.593-6.337
			c0-3.36,1.992-6.408,5.641-6.408c3.793,0,5.425,3.168,5.329,6.552h-8.857c0,0.96,0.048,1.848,0.504,2.76
			c0.576,1.152,1.849,1.848,3.121,1.848c1.584,0,2.735-0.912,3.264-2.352L1107.864,21.583z M1105.992,17.575
			c0.023-2.016-1.104-3.72-3.265-3.72c-2.04,0-3.36,1.8-3.432,3.72H1105.992z"/>
		<path fill="#0062A9" d="M1112.495,12.727v2.352h0.049c0.624-1.464,1.943-2.664,3.647-2.664c1.776,0,3.049,1.2,3.433,2.904
			c0.672-1.68,2.064-2.904,3.937-2.904c1.248,0,2.448,0.696,3.072,1.752c0.6,1.008,0.576,2.352,0.576,3.48v7.272h-1.872v-7.272
			c0-0.816,0.048-1.68-0.336-2.424c-0.408-0.792-1.2-1.272-2.041-1.272c-0.936,0-1.8,0.576-2.352,1.368
			c-0.696,0.984-0.672,1.872-0.672,3.024v6.577h-1.873v-7.729c0-0.672-0.048-1.464-0.407-2.064c-0.433-0.72-1.225-1.176-2.04-1.176
			c-0.841,0-1.705,0.552-2.209,1.2c-0.624,0.792-0.744,1.776-0.744,2.785v6.984h-1.872V12.727H1112.495z"/>
		<path fill="#0062A9" d="M1140.505,21.583c-0.72,2.232-2.856,3.577-5.185,3.577c-3.696,0-5.593-2.929-5.593-6.337
			c0-3.36,1.992-6.408,5.641-6.408c3.793,0,5.425,3.168,5.329,6.552h-8.857c0,0.96,0.048,1.848,0.504,2.76
			c0.576,1.152,1.849,1.848,3.121,1.848c1.584,0,2.735-0.912,3.264-2.352L1140.505,21.583z M1138.633,17.575
			c0.023-2.016-1.104-3.72-3.265-3.72c-2.04,0-3.36,1.8-3.432,3.72H1138.633z"/>
		<path fill="#0062A9" d="M1145.231,14.983h0.048c0.696-1.512,2.064-2.568,3.792-2.568c1.464,0,2.688,0.624,3.456,1.896
			c0.624,1.032,0.576,2.664,0.576,3.864v6.745h-1.872v-7.537c0-0.72,0.024-1.632-0.336-2.256c-0.408-0.696-1.296-1.104-2.088-1.104
			c-0.984,0-1.872,0.456-2.521,1.224c-0.792,0.96-0.96,2.064-0.96,3.288v6.385h-1.872V12.727h1.776V14.983z"/>
		<path fill="#0062A9" d="M1162.247,25.016l-1.8,0.144c-2.664,0-3.456-1.561-3.456-3.984v-7.057h-2.16v-1.488h2.16V9.606
			l1.872-0.192v3.216h2.712v1.488h-2.712v7.369c0,1.416,0.408,2.16,1.944,2.16l1.439-0.12V25.016z"/>
	</g>
	<g>
		<path fill="#0062A9" d="M1260.697,24.92h-10.657V8.455h10.417v1.776h-8.353v5.232h6.624v1.656h-6.624v6.024h8.593V24.92z"/>
		<path fill="#0062A9" d="M1263.384,24.92V8.455h1.872V24.92H1263.384z"/>
		<path fill="#0062A9" d="M1278.864,21.583c-0.72,2.232-2.856,3.577-5.185,3.577c-3.696,0-5.593-2.929-5.593-6.337
			c0-3.36,1.992-6.408,5.641-6.408c3.793,0,5.425,3.168,5.329,6.552h-8.857c0,0.96,0.048,1.848,0.504,2.76
			c0.576,1.152,1.849,1.848,3.121,1.848c1.584,0,2.735-0.912,3.264-2.352L1278.864,21.583z M1276.992,17.575
			c0.023-2.016-1.104-3.72-3.265-3.72c-2.04,0-3.36,1.8-3.432,3.72H1276.992z"/>
		<path fill="#0062A9" d="M1283.495,12.727v2.352h0.049c0.624-1.464,1.943-2.664,3.647-2.664c1.776,0,3.049,1.2,3.433,2.904
			c0.672-1.68,2.064-2.904,3.937-2.904c1.248,0,2.448,0.696,3.072,1.752c0.6,1.008,0.576,2.352,0.576,3.48v7.272h-1.872v-7.272
			c0-0.816,0.048-1.68-0.336-2.424c-0.408-0.792-1.2-1.272-2.041-1.272c-0.936,0-1.8,0.576-2.352,1.368
			c-0.696,0.984-0.672,1.872-0.672,3.024v6.577h-1.873v-7.729c0-0.672-0.048-1.464-0.407-2.064c-0.433-0.72-1.225-1.176-2.04-1.176
			c-0.841,0-1.705,0.552-2.209,1.2c-0.624,0.792-0.744,1.776-0.744,2.785v6.984h-1.872V12.727H1283.495z"/>
		<path fill="#0062A9" d="M1311.505,21.583c-0.72,2.232-2.856,3.577-5.185,3.577c-3.696,0-5.593-2.929-5.593-6.337
			c0-3.36,1.992-6.408,5.641-6.408c3.793,0,5.425,3.168,5.329,6.552h-8.857c0,0.96,0.048,1.848,0.504,2.76
			c0.576,1.152,1.849,1.848,3.121,1.848c1.584,0,2.735-0.912,3.264-2.352L1311.505,21.583z M1309.633,17.575
			c0.023-2.016-1.104-3.72-3.265-3.72c-2.04,0-3.36,1.8-3.432,3.72H1309.633z"/>
		<path fill="#0062A9" d="M1316.231,14.983h0.048c0.696-1.512,2.064-2.568,3.792-2.568c1.464,0,2.688,0.624,3.456,1.896
			c0.624,1.032,0.576,2.664,0.576,3.864v6.745h-1.872v-7.537c0-0.72,0.024-1.632-0.336-2.256c-0.408-0.696-1.296-1.104-2.088-1.104
			c-0.984,0-1.872,0.456-2.521,1.224c-0.792,0.96-0.96,2.064-0.96,3.288v6.385h-1.872V12.727h1.776V14.983z"/>
		<path fill="#0062A9" d="M1333.247,25.016l-1.8,0.144c-2.664,0-3.456-1.561-3.456-3.984v-7.057h-2.16v-1.488h2.16V9.606
			l1.872-0.192v3.216h2.712v1.488h-2.712v7.369c0,1.416,0.408,2.16,1.944,2.16l1.439-0.12V25.016z"/>
	</g>
	<g>
		<g>
			<path fill="none" stroke="#0062A9" stroke-miterlimit="10" d="M788,42.92c0,0,19.442,11.834,22.576,37.834"/>
			<g>
				<polygon fill="#0062A9" points="805.375,79.687 811,87.92 815.318,78.933 				"/>
			</g>
		</g>
	</g>
	<g>
		<g>
			<path fill="none" stroke="#0062A9" stroke-miterlimit="10" d="M959,42.92c0,0,19.442,11.834,22.576,37.834"/>
			<g>
				<polygon fill="#0062A9" points="976.375,79.687 982,87.92 986.318,78.933 				"/>
			</g>
		</g>
	</g>
	<g>
		<g>
			<path fill="none" stroke="#0062A9" stroke-miterlimit="10" d="M1129,42.92c0,0,19.441,11.834,22.576,37.834"/>
			<g>
				<polygon fill="#0062A9" points="1146.375,79.687 1152,87.92 1156.318,78.933 				"/>
			</g>
		</g>
	</g>
	<g>
		<g>
			<path fill="none" stroke="#0062A9" stroke-miterlimit="10" d="M1300,45.92c0,0,19.441,11.834,22.576,37.834"/>
			<g>
				<polygon fill="#0062A9" points="1317.375,82.687 1323,90.92 1327.318,81.933 				"/>
			</g>
		</g>
	</g>
</g>
</svg>
