<?xml version="1.0" encoding="UTF-8" standalone="no"?>
<svg width="512px" height="512px" viewBox="0 0 512 512" version="1.1" xmlns="http://www.w3.org/2000/svg" xmlns:xlink="http://www.w3.org/1999/xlink" xmlns:sketch="http://www.bohemiancoding.com/sketch/ns">
    <!-- Generator: Sketch 3.1.1 (8761) - http://www.bohemiancoding.com/sketch -->
    <title>design</title>
    <desc>Created with Sketch.</desc>
    <defs></defs>
    <g id="symbols" stroke="none" stroke-width="1" fill="none" fill-rule="evenodd" sketch:type="MSPage">
        <g id="design" sketch:type="MSArtboardGroup">
            <g id="forms" sketch:type="MSLayerGroup" transform="translate(196.500000, 276.000000) rotate(-5.000000) translate(-196.500000, -276.000000) translate(96.500000, 134.500000)">
                <path d="M165,0 L0,0 L0,283 L200,283 L200,35 L165,0 Z" id="Rectangle-5" stroke="#0F2E86" stroke-width="2" fill="#FCFCFC" sketch:type="MSShapeGroup"></path>
                <path d="M165,0 L165,35 L200,35 L165,0 Z" id="Rectangle-6" stroke="#0F2E86" stroke-width="2" fill="#D8D8D8" sketch:type="MSShapeGroup"></path>
                <path d="M31.5,242 L166.55925,242" id="Line-8" stroke="#0F2E86" stroke-width="2" stroke-linecap="square" sketch:type="MSShapeGroup"></path>
                <path d="M31.5,232 L166.55925,232" id="Line-7" stroke="#0F2E86" stroke-width="2" stroke-linecap="square" sketch:type="MSShapeGroup"></path>
                <path d="M31.2830882,36 L107.750458,36" id="Line-6" stroke="#0F2E86" stroke-width="2" stroke-linecap="square" sketch:type="MSShapeGroup"></path>
                <path d="M31.2830882,26 L107.750458,26" id="Line-5" stroke="#0F2E86" stroke-width="2" stroke-linecap="square" sketch:type="MSShapeGroup"></path>
                <rect id="Rectangle-8" fill="#DEDEE2" sketch:type="MSShapeGroup" x="84" y="84" width="83" height="27" rx="3"></rect>
                <path d="M31.5,98 L61.6039867,98" id="Line-10" stroke="#0F2E86" stroke-width="2" stroke-linecap="square" sketch:type="MSShapeGroup"></path>
                <rect id="Rectangle-9" fill="#DEDEE2" sketch:type="MSShapeGroup" x="84" y="124" width="83" height="27" rx="3"></rect>
                <path d="M31.5,138 L61.6039867,138" id="Line-11" stroke="#0F2E86" stroke-width="2" stroke-linecap="square" sketch:type="MSShapeGroup"></path>
                <rect id="Rectangle-10" fill="#DEDEE2" sketch:type="MSShapeGroup" x="84" y="164" width="83" height="27" rx="3"></rect>
                <path d="M31.5,178 L61.6039867,178" id="Line-12" stroke="#0F2E86" stroke-width="2" stroke-linecap="square" sketch:type="MSShapeGroup"></path>
            </g>
            <g id="buttons" sketch:type="MSLayerGroup" transform="translate(315.500000, 236.000000) rotate(11.000000) translate(-315.500000, -236.000000) translate(215.500000, 94.500000)">
                <path d="M165,0 L0,0 L0,283 L200,283 L200,35 L165,0 Z" id="Rectangle-5" stroke="#0F2E86" stroke-width="2" fill="#FFFFFF" sketch:type="MSShapeGroup"></path>
                <path d="M165,0 L165,35 L200,35 L165,0 Z" id="Rectangle-6" stroke="#0F2E86" stroke-width="2" fill="#D8D8D8" sketch:type="MSShapeGroup"></path>
                <path d="M31.5,242 L166.55925,242" id="Line-3" stroke="#0F2E86" stroke-width="2" stroke-linecap="square" sketch:type="MSShapeGroup"></path>
                <path d="M31.5,232 L166.55925,232" id="Line-4" stroke="#0F2E86" stroke-width="2" stroke-linecap="square" sketch:type="MSShapeGroup"></path>
                <path d="M31.5,142 L166.55925,142" id="Line-8" stroke="#0F2E86" stroke-width="2" stroke-linecap="square" sketch:type="MSShapeGroup"></path>
                <path d="M31.5,132 L166.55925,132" id="Line-7" stroke="#0F2E86" stroke-width="2" stroke-linecap="square" sketch:type="MSShapeGroup"></path>
                <path d="M31.2830882,36 L107.750458,36" id="Line-6" stroke="#0F2E86" stroke-width="2" stroke-linecap="square" sketch:type="MSShapeGroup"></path>
                <path d="M31.2830882,26 L107.750458,26" id="Line-5" stroke="#0F2E86" stroke-width="2" stroke-linecap="square" sketch:type="MSShapeGroup"></path>
                <rect id="Rectangle-8" fill="#0F2E86" sketch:type="MSShapeGroup" x="62" y="84" width="77" height="27" rx="3"></rect>
                <rect id="Rectangle-9" fill="#5C91C0" sketch:type="MSShapeGroup" x="62" y="184" width="77" height="27" rx="3"></rect>
                <path d="M84.5,198 L114.603987,198" id="Line-9" stroke="#FFFFFF" stroke-width="2" stroke-linecap="square" sketch:type="MSShapeGroup"></path>
                <path d="M84.5,98 L114.603987,98" id="Line-10" stroke="#FFFFFF" stroke-width="2" stroke-linecap="square" sketch:type="MSShapeGroup"></path>
            </g>
        </g>
    </g>
</svg>