<?xml version="1.0" encoding="UTF-8" standalone="no"?>
<svg
   xmlns:sketch="http://www.bohemiancoding.com/sketch/ns"
   xmlns:dc="http://purl.org/dc/elements/1.1/"
   xmlns:cc="http://creativecommons.org/ns#"
   xmlns:rdf="http://www.w3.org/1999/02/22-rdf-syntax-ns#"
   xmlns:svg="http://www.w3.org/2000/svg"
   xmlns="http://www.w3.org/2000/svg"
   xmlns:sodipodi="http://sodipodi.sourceforge.net/DTD/sodipodi-0.dtd"
   xmlns:inkscape="http://www.inkscape.org/namespaces/inkscape"
   width="2048"
   height="2048"
   viewBox="0 0 2048 2048"
   version="1.1"
   id="svg2"
   inkscape:version="0.48.5 r10040"
   sodipodi:docname="development.svg">
  <metadata
     id="metadata43">
    <rdf:RDF>
      <cc:Work
         rdf:about="">
        <dc:format>image/svg+xml</dc:format>
        <dc:type
           rdf:resource="http://purl.org/dc/dcmitype/StillImage" />
      </cc:Work>
    </rdf:RDF>
  </metadata>
  <sodipodi:namedview
     pagecolor="#ffffff"
     bordercolor="#666666"
     borderopacity="1"
     objecttolerance="10"
     gridtolerance="10"
     guidetolerance="10"
     inkscape:pageopacity="0"
     inkscape:pageshadow="2"
     inkscape:window-width="1280"
     inkscape:window-height="1002"
     id="namedview41"
     showgrid="true"
     inkscape:zoom="0.4609375"
     inkscape:cx="931.58197"
     inkscape:cy="1184.6773"
     inkscape:window-x="1272"
     inkscape:window-y="-8"
     inkscape:window-maximized="1"
     inkscape:current-layer="svg2">
    <inkscape:grid
       type="xygrid"
       id="grid3875"
       empspacing="1"
       visible="true"
       enabled="true"
       snapvisiblegridlinesonly="true"
       spacingx="64px"
       spacingy="64px"
       dotted="false" />
  </sodipodi:namedview>
  <!-- Generator: Sketch 3.1.1 (8761) - http://www.bohemiancoding.com/sketch -->
  <title
     id="title4">development</title>
  <desc
     id="desc6">Created with Sketch.</desc>
  <path
     style="fill:#6f6f6f;stroke:none"
     inkscape:connector-curvature="0"
     sketch:type="MSShapeGroup"
     id="Rectangle-3"
     d="m 255.30107,705.60371 0,817.13729 c 0,7.6705 6.25327,13.8884 13.94963,13.8884 l 1504.1593,0 c 7.7042,0 13.9496,-6.2332 13.9496,-13.8884 l 0,-817.13729 -1532.05853,0 0,0 z" />
  <defs
     id="defs8" />
  <path
     style="font-size:medium;font-style:normal;font-variant:normal;font-weight:normal;font-stretch:normal;text-indent:0;text-align:start;text-decoration:none;line-height:normal;letter-spacing:normal;word-spacing:normal;text-transform:none;direction:ltr;block-progression:tb;writing-mode:lr-tb;text-anchor:start;baseline-shift:baseline;color:#000000;fill:#0f2e86;fill-opacity:1;fill-rule:nonzero;stroke:none;stroke-width:9.15299988;marker:none;visibility:visible;display:inline;overflow:visible;enable-background:accumulate;font-family:Sans;-inkscape-font-specification:Sans"
     d="m 265.30456,574.74734 c -10.20832,0 -18.60912,8.36536 -18.60912,18.54571 0,309.81378 0,619.62755 0,929.44135 0,10.1937 8.41227,18.5458 18.60912,18.5458 l 1508.11804,0 c 10.2083,0 18.5774,-8.3655 18.5774,-18.5458 0,-309.8138 0,-619.62757 0,-929.44135 0,-10.19377 -8.3805,-18.54571 -18.5774,-18.54571 z m 0,9.28871 1508.11804,0 c 5.1958,0 9.2886,4.10975 9.2886,9.257 l 0,106.80429 -1526.72705,0 0,-106.80429 c 0,-5.13003 4.1204,-9.257 9.32041,-9.257 z m -9.32041,126.20595 1526.72705,0 0,812.4924 c 0,5.1301 -4.0886,9.257 -9.2886,9.257 l -1508.11804,0 c -5.19586,0 -9.32041,-4.1097 -9.32041,-9.257 z"
     id="Rectangle-2"
     inkscape:connector-curvature="0"
     sodipodi:nodetypes="sccssccsssssccssccssssc" />
  <circle
     style="fill:#0f2e86;stroke:none"
     sodipodi:ry="3.5"
     sodipodi:rx="3.5"
     sodipodi:cy="14.5"
     sodipodi:cx="14.5"
     d="M 18,14.5 C 18,16.432997 16.432997,18 14.5,18 12.567003,18 11,16.432997 11,14.5 11,12.567003 12.567003,11 14.5,11 c 1.932997,0 3.5,1.567003 3.5,3.5 z"
     r="3.5"
     cy="14.5"
     cx="14.5"
     sketch:type="MSShapeGroup"
     id="Oval-4"
     transform="matrix(4.6426016,0,0,4.6426016,255.30107,581.4229)" />
  <circle
     style="fill:#0f2e86;stroke:none"
     sodipodi:ry="3.5"
     sodipodi:rx="3.5"
     sodipodi:cy="14.5"
     sodipodi:cx="24.5"
     d="M 28,14.5 C 28,16.432997 26.432997,18 24.5,18 22.567003,18 21,16.432997 21,14.5 21,12.567003 22.567003,11 24.5,11 c 1.932997,0 3.5,1.567003 3.5,3.5 z"
     r="3.5"
     cy="14.5"
     cx="24.5"
     sketch:type="MSShapeGroup"
     id="Oval-5"
     transform="matrix(4.6426016,0,0,4.6426016,255.30107,581.4229)" />
  <circle
     style="fill:#0f2e86;stroke:none"
     sodipodi:ry="3.5"
     sodipodi:rx="3.5"
     sodipodi:cy="14.5"
     sodipodi:cx="34.5"
     d="M 38,14.5 C 38,16.432997 36.432997,18 34.5,18 32.567003,18 31,16.432997 31,14.5 31,12.567003 32.567003,11 34.5,11 c 1.932997,0 3.5,1.567003 3.5,3.5 z"
     r="3.5"
     cy="14.5"
     cx="34.5"
     sketch:type="MSShapeGroup"
     id="Oval-6"
     transform="matrix(4.6426016,0,0,4.6426016,255.30107,581.4229)" />
  <path
     style="fill:none;stroke:#ffffff;stroke-width:9.28520298;stroke-linecap:square"
     inkscape:connector-curvature="0"
     sketch:type="MSShapeGroup"
     id="Line"
     d="m 308.69099,793.81308 174.09757,0" />
  <path
     style="fill:none;stroke:#ffffff;stroke-width:9.28520298;stroke-linecap:square"
     inkscape:connector-curvature="0"
     sketch:type="MSShapeGroup"
     id="Line-2"
     d="m 355.117,840.23912 188.25449,0" />
  <path
     style="fill:none;stroke:#ffffff;stroke-width:9.28520298;stroke-linecap:square"
     inkscape:connector-curvature="0"
     sketch:type="MSShapeGroup"
     id="Line-3"
     d="m 401.54302,886.66516 262.307,0" />
  <path
     style="fill:none;stroke:#7a9f35;stroke-width:9.28520298;stroke-linecap:square"
     inkscape:connector-curvature="0"
     sketch:type="MSShapeGroup"
     id="Line-18"
     d="m 707.95474,886.66516 262.30703,0" />
  <path
     style="fill:none;stroke:#ffffff;stroke-width:9.28520298;stroke-linecap:square"
     inkscape:connector-curvature="0"
     sketch:type="MSShapeGroup"
     id="Line-17"
     d="m 1005.0812,886.66516 262.3071,0" />
  <path
     style="fill:none;stroke:#ffffff;stroke-width:9.28520298;stroke-linecap:square"
     inkscape:connector-curvature="0"
     sketch:type="MSShapeGroup"
     id="Line-4"
     d="m 401.54302,933.09119 165.0737,0" />
  <path
     style="fill:none;stroke:#ffffff;stroke-width:9.28520298;stroke-linecap:square"
     inkscape:connector-curvature="0"
     sketch:type="MSShapeGroup"
     id="Line-16"
     d="m 712.59734,933.09119 165.07369,0" />
  <path
     style="fill:none;stroke:#d0011b;stroke-width:9.28520298;stroke-linecap:square"
     inkscape:connector-curvature="0"
     sketch:type="MSShapeGroup"
     id="Line-15"
     d="m 601.1749,933.09119 72.1099,0" />
  <path
     style="fill:none;stroke:#ffffff;stroke-width:9.28520298;stroke-linecap:square"
     inkscape:connector-curvature="0"
     sketch:type="MSShapeGroup"
     id="Line-5"
     d="m 355.117,979.51713 278.59478,0" />
  <path
     style="fill:none;stroke:#ffffff;stroke-width:9.28520298;stroke-linecap:square"
     inkscape:connector-curvature="0"
     sketch:type="MSShapeGroup"
     id="Line-6"
     d="m 401.54302,1025.9432 100.24687,0" />
  <path
     style="fill:none;stroke:#ffffff;stroke-width:9.28520298;stroke-linecap:square"
     inkscape:connector-curvature="0"
     sketch:type="MSShapeGroup"
     id="Line-7"
     d="m 447.96904,1072.3692 165.0737,0" />
  <path
     style="fill:none;stroke:#ffffff;stroke-width:9.28520298;stroke-linecap:square"
     inkscape:connector-curvature="0"
     sketch:type="MSShapeGroup"
     id="Line-8"
     d="m 494.39506,1118.7952 448.03511,0" />
  <path
     style="fill:none;stroke:#ffffff;stroke-width:9.28520298;stroke-linecap:square"
     inkscape:connector-curvature="0"
     sketch:type="MSShapeGroup"
     id="Line-13"
     d="m 540.82107,1165.2213 90.53074,0" />
  <path
     style="fill:none;stroke:#ffffff;stroke-width:9.28520298;stroke-linecap:square"
     inkscape:connector-curvature="0"
     sketch:type="MSShapeGroup"
     id="Line-19"
     d="m 912.22921,1165.2213 81.77432,0" />
  <path
     style="fill:none;stroke:#0062a9;stroke-width:9.28520298;stroke-linecap:square"
     inkscape:connector-curvature="0"
     sketch:type="MSShapeGroup"
     id="Line-20"
     d="m 666.17132,1165.2213 113.83845,0" />
  <path
     style="fill:none;stroke:#7a9f35;stroke-width:9.28520298;stroke-linecap:square"
     inkscape:connector-curvature="0"
     sketch:type="MSShapeGroup"
     id="Line-23"
     d="m 814.73457,1165.2213 67.95507,0" />
  <path
     style="fill:none;stroke:#ffffff;stroke-width:9.28520298;stroke-linecap:square"
     inkscape:connector-curvature="0"
     sketch:type="MSShapeGroup"
     id="Line-12"
     d="m 447.96904,1211.6472 72.10991,0" />
  <path
     style="fill:none;stroke:#ffffff;stroke-width:9.28520298;stroke-linecap:square"
     inkscape:connector-curvature="0"
     sketch:type="MSShapeGroup"
     id="Line-14"
     d="m 447.96904,1258.0733 53.5914,0" />
  <path
     style="fill:none;stroke:#ffffff;stroke-width:9.28520298;stroke-linecap:square"
     inkscape:connector-curvature="0"
     sketch:type="MSShapeGroup"
     id="Line-21"
     d="m 772.95116,1258.0733 72.10991,0" />
  <path
     style="fill:none;stroke:#d0011b;stroke-width:9.28520298;stroke-linecap:square"
     inkscape:connector-curvature="0"
     sketch:type="MSShapeGroup"
     id="Line-22"
     d="m 536.17847,1258.0733 202.1665,0" />
  <path
     style="fill:none;stroke:#ffffff;stroke-width:9.28520298;stroke-linecap:square"
     inkscape:connector-curvature="0"
     sketch:type="MSShapeGroup"
     id="Line-9"
     d="m 401.54302,1304.4993 87.8728,0" />
  <path
     style="fill:none;stroke:#ffffff;stroke-width:9.28520298;stroke-linecap:square"
     inkscape:connector-curvature="0"
     sketch:type="MSShapeGroup"
     id="Line-10"
     d="m 355.117,1350.9253 104.56166,0" />
  <path
     style="fill:none;stroke:#ffffff;stroke-width:9.28520298;stroke-linecap:square"
     inkscape:connector-curvature="0"
     sketch:type="MSShapeGroup"
     id="Line-11"
     d="m 308.69099,1397.3514 174.6538,0" />
</svg>
