<?xml version="1.0" encoding="utf-8"?>
<!-- Generator: Adobe Illustrator 16.0.2, SVG Export Plug-In . SVG Version: 6.00 Build 0)  -->
<!DOCTYPE svg PUBLIC "-//W3C//DTD SVG 1.1//EN" "http://www.w3.org/Graphics/SVG/1.1/DTD/svg11.dtd">
<svg version="1.1"
	 id="Layer_3" xmlns:dc="http://purl.org/dc/elements/1.1/" xmlns:cc="http://creativecommons.org/ns#" xmlns:rdf="http://www.w3.org/1999/02/22-rdf-syntax-ns#" xmlns:svg="http://www.w3.org/2000/svg" xmlns:sodipodi="http://sodipodi.sourceforge.net/DTD/sodipodi-0.dtd" xmlns:inkscape="http://www.inkscape.org/namespaces/inkscape" sodipodi:docname="psd.svg" inkscape:version="0.48.5 r10040"
	 xmlns="http://www.w3.org/2000/svg" xmlns:xlink="http://www.w3.org/1999/xlink" x="0px" y="0px" width="159.01px"
	 height="131.726px" viewBox="0 0 159.01 131.726" enable-background="new 0 0 159.01 131.726" xml:space="preserve">
<sodipodi:namedview  inkscape:cy="24.908687" inkscape:cx="125.82851" inkscape:zoom="2.6700352" showgrid="false" guidetolerance="10" gridtolerance="10" pagecolor="#ffffff" borderopacity="1" bordercolor="#666666" objecttolerance="10" id="namedview65" inkscape:current-layer="Layer_3" inkscape:window-maximized="1" inkscape:window-y="-8" inkscape:window-x="-8" inkscape:window-height="962" inkscape:window-width="1280" inkscape:pageopacity="0" inkscape:pageshadow="2">
	</sodipodi:namedview>
<g id="g3" transform="translate(-159,-74.000002)">
	
		<rect id="rect5" x="161.5" y="76.5" fill="#1B1464" stroke="#1890D3" stroke-width="5" stroke-miterlimit="10" width="85" height="84"/>
	<rect id="rect7" x="174.305" y="95.333" fill="none" width="62.279" height="52.127"/>
	<g id="g9" enable-background="new    ">
		<path id="path11" inkscape:connector-curvature="0" fill="#1890D3" d="M178.864,97.976c2.52-0.42,5.82-0.78,10.02-0.78
			c5.16,0,8.939,1.2,11.339,3.359c2.22,1.92,3.54,4.86,3.54,8.46c0,3.66-1.08,6.54-3.12,8.64c-2.76,2.938-7.26,4.438-12.359,4.438
			c-1.56,0-3-0.06-4.2-0.359v16.199h-5.22V97.976L178.864,97.976z M184.084,117.475c1.14,0.3,2.58,0.42,4.32,0.42
			c6.3,0,10.14-3.06,10.14-8.64c0-5.34-3.78-7.92-9.54-7.92c-2.28,0-4.02,0.18-4.919,0.42L184.084,117.475L184.084,117.475z"/>
		<path id="path13" inkscape:connector-curvature="0" fill="#1890D3" d="M208.565,132.534c1.56,1.02,4.32,2.1,6.96,2.1
			c3.84,0,5.64-1.92,5.64-4.32c0-2.52-1.5-3.899-5.4-5.339c-5.22-1.86-7.68-4.74-7.68-8.22c0-4.681,3.78-8.521,10.02-8.521
			c2.94,0,5.52,0.841,7.14,1.801l-1.32,3.84c-1.14-0.721-3.24-1.681-5.939-1.681c-3.12,0-4.86,1.8-4.86,3.96
			c0,2.4,1.74,3.48,5.52,4.92c5.04,1.92,7.62,4.439,7.62,8.76c0,5.1-3.96,8.699-10.86,8.699c-3.18,0-6.12-0.779-8.16-1.979
			L208.565,132.534L208.565,132.534z"/>
	</g>
</g>
<g id="g15" transform="matrix(1.0017246,0,0,1.0046059,-159.3575,-75.480416)">
	<g id="g17">
		<polygon id="polygon19" fill="#F4BF8C" points="243.416,139.185 212.83,146.427 223.497,160.588 258.416,152.007 		"/>
		<path id="path21" inkscape:connector-curvature="0" fill="#FFFFFF" d="M279.814,119.406l-4.184-2.574l0.142-5.221l6.027-3.689
			c-2.519-1.559-5.773-1.649-8.568,0.06c-2.813,1.719-4.427,4.82-4.487,7.987l-29.646,18.677c-2.521-1.582-5.803-1.688-8.614,0.032
			c-2.794,1.708-4.406,4.784-4.485,7.931l6.028-3.69l4.184,2.576l-0.14,5.211l-6.03,3.686c2.52,1.556,5.776,1.651,8.571-0.06
			c2.931-1.793,4.563-5.089,4.485-8.392l29.32-18.476c2.565,1.787,6.009,1.979,8.941,0.184c2.792-1.707,4.407-4.784,4.485-7.931
			L279.814,119.406z"/>
		<polygon id="polygon23" fill="#F4BF8C" points="303.071,146.577 268.915,138.268 258.32,151.989 292.416,160.66 		"/>
		<polygon id="polygon25" fill="#CFAE8B" points="292.416,160.673 258.32,151.989 223.522,160.6 258.29,168.663 		"/>
		<path id="path27" inkscape:connector-curvature="0" fill="#F7E3B0" d="M267.413,125.331c0,0,2.551,2.896,1.428,6.271
			c-1.125,3.375-6.042,14.66-6.042,14.66l-11.084-0.25c0,0-4.33-10.16-4.832-11.16l1.416-5.083l5.001-3L267.413,125.331
			L267.413,125.331z"/>
		
			<path id="path29" inkscape:connector-curvature="0" fill="#F7E3B0" stroke="#999999" stroke-width="0.75" stroke-miterlimit="10" d="
			M251.469,137.173c-0.799,0.437-1.542,1.042-4.586-4.327c-3.047-5.368-2.634-6.286-1.397-6.988
			c1.237-0.702,2.202-0.565,5.248,4.803C253.779,136.03,252.715,136.492,251.469,137.173L251.469,137.173z"/>
		
			<path id="path31" inkscape:connector-curvature="0" fill="#F7E3B0" stroke="#999999" stroke-width="0.75" stroke-miterlimit="10" d="
			M255.382,134.299c-0.797,0.437-1.538,1.042-4.584-4.327c-3.049-5.368-2.633-6.286-1.397-6.989
			c1.237-0.701,2.202-0.564,5.248,4.805C257.694,133.157,256.632,133.618,255.382,134.299z"/>
		
			<path id="path33" inkscape:connector-curvature="0" fill="#F7E3B0" stroke="#999999" stroke-width="0.75" stroke-miterlimit="10" d="
			M259.246,131.778c-0.799,0.438-1.54,1.043-4.584-4.326c-3.049-5.369-2.634-6.286-1.398-6.989c1.238-0.701,2.201-0.564,5.247,4.803
			C261.558,130.634,260.494,131.097,259.246,131.778z"/>
		
			<path id="path35" inkscape:connector-curvature="0" fill="#F7E3B0" stroke="#999999" stroke-width="0.75" stroke-miterlimit="10" d="
			M263.69,129.306c-0.891,0.487-1.729,1.148-4.772-4.221c-3.048-5.368-2.551-6.333-1.172-7.118c1.381-0.784,2.426-0.69,5.471,4.678
			C266.261,128.014,265.083,128.542,263.69,129.306z"/>
		<path id="path37" inkscape:connector-curvature="0" fill="#F7E3B0" d="M269.405,127.947c0.032,0.98,0.218,1.991-5.161,2.238
			c-5.379,0.253-7.062-0.497-7.134-2.027c-0.07-1.532,0.503-2.463,5.88-2.711C268.369,125.196,269.354,126.415,269.405,127.947z"/>
		
			<path id="path39" inkscape:connector-curvature="0" fill="none" stroke="#999999" stroke-width="1.0318" stroke-linecap="round" stroke-miterlimit="10" d="
			M264.914,130.581c-5.937,0.25-7.626-0.188-7.75-2.25c-0.14-2.331,0.127-3.063,4.063-3.063c0,0,5.594-0.473,6.873,0.75
			c1.377,1.313,1.127,3.667,0.314,6.063c-1.322,3.898-4.855,12.891-4.855,12.891l-0.583,1.62l-11.334-0.414l-0.082-1.455
			l-4.537-9.724l-0.195-1.894"/>
		<rect id="rect41" x="248.415" y="145.76" width="17.749" height="23.744"/>
		<polygon id="polygon43" fill="#FFD5A5" points="292.29,160.914 258.29,168.663 258.398,206.256 292.915,198.039 		"/>
		<polygon id="polygon45" fill="#FFDCB6" points="223.788,160.631 258.29,168.626 258.415,206.256 223.662,197.648 		"/>
		<polygon id="polygon47" fill="#FDECDA" points="209.664,170.711 223.522,160.6 258.299,168.471 246.017,181.079 		"/>
		<polygon id="polygon49" fill="#FEE3C5" points="306.499,170.84 292.416,160.673 258.082,168.507 269.247,181.171 		"/>
	</g>
	
		<circle id="circle51" sodipodi:rx="1.229" sodipodi:cx="240.228" sodipodi:cy="153.562" sodipodi:ry="1.229" fill="#FFFFFF" cx="251.878" cy="151.298" r="1.235">
	</circle>
	
		<circle id="circle53" sodipodi:rx="1.229" sodipodi:cx="240.228" sodipodi:cy="157.104" sodipodi:ry="1.229" fill="#FFFFFF" cx="251.878" cy="154.84" r="1.237">
	</circle>
</g>
<g>
	<path id="path55" inkscape:connector-curvature="0" fill="#FFFFFF" d="M115.893,20.545c-0.982,0-1.781-0.409-1.781-0.915v-8.143
		c0-0.504,0.8-0.915,1.781-0.915l0,0c0.984,0,1.781,0.41,1.781,0.915v8.144C117.676,20.136,116.879,20.545,115.893,20.545
		L115.893,20.545z"/>
	<path id="path57" inkscape:connector-curvature="0" fill="#FFFFFF" d="M82.393,47.401H74.27c-0.504,0-0.856-0.567-0.912-1.787
		c-0.057-1.22,0.408-1.788,0.912-1.788h8.123c0.506,0,0.92,0.883,0.914,1.788C83.303,46.519,82.896,47.401,82.393,47.401z"/>
	<path id="path59" inkscape:connector-curvature="0" fill="#FFFFFF" d="M90.665,26.279c-0.694,0.698-1.552,0.974-1.906,0.617
		l-5.743-5.759c-0.356-0.356-0.08-1.212,0.613-1.91l0,0c0.697-0.698,1.551-0.975,1.906-0.617l5.744,5.759
		C91.637,24.725,91.361,25.581,90.665,26.279L90.665,26.279z"/>
	<path id="path61" inkscape:connector-curvature="0" fill="#FFFFFF" d="M140.391,29.283c-0.695-0.699-0.973-1.554-0.615-1.912
		l5.744-5.758c0.355-0.356,1.211-0.08,1.905,0.618l0,0c0.696,0.699,0.974,1.553,0.615,1.911l-5.743,5.759
		C141.939,30.258,141.088,29.981,140.391,29.283L140.391,29.283z"/>
	<path id="path63" inkscape:connector-curvature="0" fill="#FFFFFF" d="M149.01,45.773c0-0.995,0.41-1.801,0.916-1.801h8.168
		c0.506,0,0.916,0.806,0.916,1.8l0,0c0,0.995-0.41,1.8-0.916,1.8h-8.168C149.42,47.572,149.01,46.768,149.01,45.773L149.01,45.773z"
		/>
</g>
<path fill="#FFFFFF" d="M84.469,59.891c0,0,0.868,1.635,1.734,2.875c1.375,1.969,2.234,2.391,2.234,2.391l-2.095,1.047
	c0,0-2.813-5.719-2.813-5.781S84.469,59.891,84.469,59.891z"/>
</svg>
