<svg id="Ebene_1" xmlns="http://www.w3.org/2000/svg" width="260" height="260" viewBox="0 0 260 260">
    <style>
        .draw{animation-duration:8s;animation-fill-mode:forwards;animation-iteration-count:infinite;animation-timing-function:linear}.draw,.dotted{fill:transparent;stroke:#fff;stroke-width:1;stroke-linecap:round;stroke-linejoin:round}.dotted{opacity:.5;stroke-dasharray:100px;stroke-dashoffset:100px;animation:draw 2s infinite linear;-webkit-animation:draw 2s infinite linear}@keyframes draw{10%{stroke-dashoffset:100px}50%,70%{stroke-dashoffset:0}90%{stroke-dashoffset:100px}}@-webkit-keyframes draw{10%{stroke-dashoffset:100px}50%,70%{stroke-dashoffset:0}90%{stroke-dashoffset:100px}}.dotted-delay{fill:transparent;stroke:#fff;opacity:.4;stroke-width:1;stroke-dasharray:100px;stroke-dashoffset:100px;stroke-linecap:round;stroke-linejoin:round;animation:draw 2s infinite linear;-webkit-animation:draw 2s infinite linear}
    </style>
    <circle cx="130" cy="130" r="130" fill="#2e415f"/>
    <path fill="#FFF" d="M138.563 219.13l-38.508-22.23v-44.463l38.508 22.23z"/>
    <path fill="#efeeea" d="M138.563 130.205l-38.508 22.232 38.508 22.23 38.505-22.23z"/>
    <path fill="#d1cfc5" d="M138.563 219.13l38.5-22.23v-44.463l-38.5 22.23z"/>
    <path fill="#fed162" d="M177.064 152.435l-38.5-22.23V85.74l38.5 22.233z"/>
    <path fill="#fc6846" d="M177.064 63.51l-38.5 22.23 38.5 22.233 38.51-22.232z"/>
    <path fill="#a3dbce" d="M177.064 152.435l38.508-22.23V85.74l-38.508 22.233z"/>
    <path class="draw" d="M100.334 151.884l-37.78-21.813V86.446l37.78 21.815zm0-87.257l-37.78 21.815 37.78 21.815 37.787-21.815z"/>
    <path class="draw" d="M100.334 151.884l37.785-21.813V86.446l-37.79 21.815z"/>
    <path class="dotted" d="M100.702 65.104v45.077l-38.147 19.966"/>
    <path class="dotted-delay" d="M138.555 130.143l-37.853-19.962"/>
</svg>
