<svg version="1.1" id="Ebene_1" xmlns="http://www.w3.org/2000/svg" xmlns:xlink="http://www.w3.org/1999/xlink" x="0px" y="0px"
     width="260px" height="260px" viewBox="0 0 260 260" style="enable-background:new 0 0 260 260;" xml:space="preserve">
    <style>
.draw {
    fill:transparent;
    stroke: #FFF;
    stroke-width: 1;
    stroke-linecap:round;
    stroke-linejoin:round;
    animation-duration: 8s;
    animation-fill-mode: forwards;
    animation-iteration-count: infinite;
    animation-timing-function: linear;
}

.dotted {
        fill:transparent;
        stroke: #FFF;
        opacity:0.5;
        stroke-width: 1;
        stroke-dasharray: 100px;
        stroke-dashoffset: 100px;
        stroke-linecap:round;
        stroke-linejoin:round;
        animation: draw 2s infinite linear;
        -webkit-animation: draw 2s infinite linear;
}

@keyframes draw {
10% {stroke-dashoffset: 100px;}
50% {stroke-dashoffset: 0;}
70% {stroke-dashoffset: 0;}
90% {stroke-dashoffset: 100px;}
}

@-webkit-keyframes draw {
10% {stroke-dashoffset: 100px;}
50% {stroke-dashoffset: 0;}
70% {stroke-dashoffset: 0;}
90% {stroke-dashoffset: 100px;}
}

.dotted-delay {
    fill:transparent;
    stroke: #FFF;
    opacity:0.4;
    stroke-width: 1;
    stroke-dasharray: 100px;
    stroke-dashoffset: 100px;
    stroke-linecap:round;
    stroke-linejoin:round;
    animation: draw 2s infinite linear;
     -webkit-animation: draw 2s infinite linear;
    }

    </style>
<circle style="fill:#2E415F;" cx="130" cy="130" r="130"/>
<g>
    <g>
        <polygon style="fill:#FFFFFF;" points="138.563,219.131 100.055,196.9 100.055,152.437 138.563,174.668 		"/>
        <polygon style="fill:#EFEEEA;" points="138.563,130.205 100.055,152.437 138.563,174.668 177.068,152.437 		"/>
        <polygon style="fill:#D1CFC5;" points="138.563,219.131 177.064,196.9 177.064,152.437 138.563,174.668 		"/>
    </g>
    <g>
        <polygon style="fill:#FED162;" points="177.064,152.435 138.563,130.205 138.563,85.741 177.064,107.973 		"/>
        <polygon style="fill:#FC6846;" points="177.064,63.509 138.563,85.741 177.064,107.973 215.574,85.741 		"/>
        <polygon style="fill:#A3DBCE;" points="177.064,152.435 215.572,130.205 215.572,85.741 177.064,107.973 		"/>
    </g>
    <g>
        <polygon class="draw" points="100.334,151.884 62.555,130.071 62.555,86.442
            100.334,108.257 		"/>
        <polygon class="draw" points="
            100.334,64.627 62.555,86.442 100.334,108.257 138.121,86.442 		"/>
        <polygon class="draw" points="100.334,151.884 138.119,130.071 138.119,86.442
            100.334,108.257 		"/>
        <polyline class="dotted" points="
            100.702,65.104
            100.702,110.181
            62.555,130.143 "
            />
            <polyline class="dotted-delay" points="
                138.555,130.143
                100.702,110.181
                "
                />
    </g>
</g>

</svg>
