<svg xmlns="http://www.w3.org/2000/svg" xmlns:xlink="http://www.w3.org/1999/xlink" id="Layer_1" viewBox="0 0 260 260" width="260" height="260">
    <style>
        .s0{fill:#addbe1}.s1{fill:#f1f1f2}.s2{fill:#cbcac9}.s3{fill:#474f5a}.s4{fill:#242e38}.s5{fill:#ef8261}.s6{fill:#f2967a}.s7{fill:#fff}.s8{fill:#ffd580}.s9{fill:#addbe1}.s9,.s10{clip-path:url(#SVGID_2_)}.s10{fill:#ef8261}.s11{fill:#666b74}.s11,.s12{clip-path:url(#SVGID_2_)}.s12{fill:#e5e4e4}.wheel{-webkit-animation:upIt 5s linear normal infinite;animation:upIt 5s linear normal infinite}@-webkit-keyframes upIt{0%{-webkit-transform:translateY(0)}50%,70%{-webkit-transform:translateY(20px)}90%{-webkit-transform:translateY(0)}}@keyframes upIt{0%{transform:translateY(0)}50%,70%{transform:translateY(20px)}90%{transform:translateY(0)}}
    </style>
    <circle cx="130" cy="130" r="130" fill="#ADDBE1"/>
    <path fill="#F1F1F2" d="M43.7 48.4l-25.1-7.6 25.1-7.6z"/>
    <path fill="#CBCAC9" d="M18.6 40.8l25.1 7.6v-4.8z"/>
    <path fill="#474F5A" d="M43.7 33.2H234v15.3H43.7z"/>
    <path fill="#242E38" d="M43.7 43.6H234v4.8H43.7z"/>
    <path fill="#363F49" d="M28.5 43.8l-9.9-3 9.9-3z"/>
    <path fill="#242E38" d="M28.5 43.8l-9.9-3 9.9 1.1z"/>
    <path fill="#F1F1F2" d="M234 33.2h8.9v15.3H234z"/>
    <path fill="#CBCAC9" d="M234 43.6h8.9v4.8H234z"/>
    <path d="M252.4 48.4c2 0 3.9-.7 5.4-2.2 1.5-1.5 2.2-3.4 2.2-5.4 0-2-.7-3.9-2.2-5.4-1.5-1.5-3.4-2.2-5.4-2.2h-9.5v15.3h9.5z" fill="#EF8261"/>
    <path d="M257.8 35.4c-.9-.9-1.9-1.5-3-1.8.3.8.4 1.6.4 2.4 0 2-.7 3.9-2.2 5.4-1.5 1.5-3.4 2.2-5.4 2.2h-4.7v4.8h9.5c2 0 3.9-.7 5.4-2.2 1.5-1.5 2.2-3.4 2.2-5.4 0-1.9-.7-3.9-2.2-5.4z" fill="#EC6D48"/>
    <path fill="#F2967A" d="M145.6 139.8H141l-1.4 6.8h7.4zM129.9 142.7l-4 2.4 2.2 6.5 6.4-3.7zM117.8 153.2l-2.3 4 5.2 4.6 3.7-6.4zM112.5 168.2v4.7l6.8 1.4v-7.4zM115.5 184l2.3 4 6.6-2.2-3.7-6.4zM125.9 196.1l4 2.3 4.6-5.2-6.4-3.7zM141 201.4h4.6l1.4-6.8h-7.4zM156.7 198.4l4-2.3-2.2-6.6-6.4 3.7zM168.8 188l2.3-4-5.2-4.6-3.7 6.4zM174.1 172.9v-4.7l-6.8-1.3v7.4zM171.1 157.2l-2.3-4-6.6 2.2 3.7 6.4zM160.7 145.1l-4-2.4-4.6 5.2 6.4 3.7z"/>
    <path d="M143.3 146.3c-13.4 0-24.3 10.9-24.3 24.3s10.9 24.3 24.3 24.3 24.3-10.9 24.3-24.3-10.9-24.3-24.3-24.3zm0 31a6.7 6.7 0 1 1 0-13.4 6.7 6.7 0 0 1 0 13.4z" fill="#EF8261"/>
    <path d="M143.3 158.9c-6.4 0-11.7 5.2-11.7 11.7 0 6.4 5.2 11.7 11.7 11.7 6.4 0 11.7-5.2 11.7-11.7-.1-6.5-5.3-11.7-11.7-11.7zm0 17.5c-3.2 0-5.8-2.6-5.8-5.8 0-3.2 2.6-5.8 5.8-5.8 3.2 0 5.8 2.6 5.8 5.8 0 3.2-2.6 5.8-5.8 5.8z" fill="#242E38"/>
    <g class="wheel">
        <path d="M18.6 112.3c0-2.5 2.1-4.6 4.6-4.6h75.6c2.5 0 4.6 2.1 4.6 4.6v113.9c0 2.5-2.1 4.6-4.6 4.6H23.3c-2.5 0-4.6-2.1-4.6-4.6V112.3z" fill="#242E38"/>
        <path d="M56.4 225.7c-1.1 0-2.1-.9-2.1-2.1v-.5c0-1.1.9-2.1 2.1-2.1h9.4c1.1 0 2.1.9 2.1 2.1v.5c0 1.1-.9 2.1-2.1 2.1h-9.4zM61.1 115.8c-1.2 0-2.1-.9-2.1-2.1 0-1.2.9-2.1 2.1-2.1 1.2 0 2.1 1 2.1 2.1 0 1.2-1 2.1-2.1 2.1z" fill="#474F5A"/>
        <path d="M61.1 114.6c-.5 0-.9-.4-.9-.9s.4-.9.9-.9.9.4.9.9-.4.9-.9.9z" fill="#D9D9D8"/>
        <path fill="#FFF" d="M23.5 119.7h75.2v96.2H23.5z"/>
        <path fill="#EF8261" d="M26.4 136.1h15v15h-15z"/>
        <path fill="#ADDBE1" d="M44.5 136.1h15v15h-15z"/>
        <path fill="#FFD580" d="M62.5 136.1h15v15h-15z"/>
        <path fill="#474F5A" d="M80.5 136.1h15v15h-15z"/>
        <path fill="#FFD580" d="M26.4 154.1h15v15h-15z"/>
        <path fill="#474F5A" d="M44.5 154.1h15v15h-15z"/>
        <path fill="#ADDBE1" d="M62.5 154.1h15v15h-15z"/>
        <path fill="#EF8261" d="M80.5 154.1h15v15h-15zM44.5 172.1h15v15h-15z"/>
        <path fill="#CBCAC9" d="M62.5 172.1h15v15h-15z"/>
        <path fill="#FFD580" d="M80.5 172.1h15v15h-15z"/>
        <path fill="#EF8261" d="M26.4 197.8h15v15h-15z"/>
        <path fill="#CBCAC9" d="M44.5 197.8h15v15h-15z"/>
        <path fill="#E5E4E4" d="M23.5 119.7h75.2v13.2H23.5z"/>
        <path d="M29.6 114.8c-.2 0-.4-.1-.6-.3-.2-.3-.2-.7.1-1L59 90.1c.6-.5 1.3-.7 2-.8.7-.1 1.5.1 2.1.5l28.1 15.9c.3.2.5.6.3 1-.2.3-.6.5-1 .3l-28-15.9c-.4-.2-.8-.3-1.3-.3s-.9.2-1.2.5l-30 23.4c-.1.1-.3.1-.4.1z" fill="#474F5A"/>
        <path fill="#EF8261" d="M22.912 114.09l60.915-7.69 1.652 13.097-60.915 7.687z"/>
        <path fill="#FFF" d="M82.202 109.29l1 7.936-57.145 7.206-1-7.937z"/>
        <path fill="#CBCAC9" d="M28.26 119.257l16.766-2.114.213 1.687-16.767 2.114z"/>
        <path fill="#EF8261" d="M83.826 106.41l13.79-1.742 1.653 13.096-13.79 1.74z"/>
        <path d="M95.1 114.2l-1.6-1.2h-.1c-.1 0-.1 0-.1.1l-.1.1-.5-.4c.3-.5.4-1.1.4-1.7-.2-1.4-1.5-2.4-2.9-2.2-1.4.2-2.4 1.5-2.2 2.9.2 1.4 1.5 2.4 2.9 2.2.6-.1 1.1-.4 1.5-.8l.5.4-.1.1v.1c0 .1 0 .1.1.1l1.6 1.2c.1.1.3.1.4.1.2 0 .3-.1.4-.2.1-.1.1-.3.1-.4-.1-.2-.2-.3-.3-.4zm-4.3-.7c-1.2.1-2.2-.7-2.4-1.9-.1-1.2.7-2.2 1.9-2.4 1.2-.1 2.2.7 2.4 1.9.1 1.2-.8 2.2-1.9 2.4z" fill="#FFF"/>
        <path d="M61.1 93.3c-4.8 0-8.8-3.9-8.8-8.8 0-.7.6-1.2 1.2-1.2.7 0 1.2.6 1.2 1.2 0 3.4 2.8 6.2 6.2 6.2 3.4 0 6.2-2.8 6.2-6.2 0-3.4-2.8-6.2-6.2-6.2-.7 0-1.2-.6-1.2-1.2v-3.5c0-.7.6-1.2 1.2-1.2.7 0 1.2.6 1.2 1.2V76c4.2.6 7.5 4.3 7.5 8.7.2 4.7-3.7 8.6-8.5 8.6z" fill="#F9B75B"/>
        <path d="M61.1 74.8c-1.9 0-3.4-1.5-3.4-3.4s1.5-3.4 3.4-3.4 3.4 1.5 3.4 3.4c0 1.8-1.6 3.4-3.4 3.4zm0-4.3c-.5 0-.9.4-.9.9s.4.9.9.9.9-.4.9-.9-.4-.9-.9-.9z" fill="#242E38"/>
        <path d="M61.1 90.8c-.4 0-.8.2-1.2.5L58 92.8c-.5-.2-1-.4-1.4-.7l2.2-1.7c.7.3 1.5.4 2.3.4z" fill="#474F5A"/>
    </g>
	
    <path id="look" fill="#666B74">
        <animate 
             attributeName="d" 
             dur="5000ms"
             keySpline="linear"
             repeatCount="indefinite"
             keyTimes="0;0.5;0.7;0.9;1"
             values="M61.1 72.1c-0.4 0-0.7-0.3-0.7-0.7V33.2c0-0.4 0.3-0.7 0.7-0.7 0.4 0 0.7 0.3 0.7 0.7v38.2C61.8 71.8 61.5 72.1 61.1 72.1z;M61.1 92.1c-0.4 0-0.7-0.3-0.7-0.7V33.2c0-0.4 0.3-0.7 0.7-0.7 0.4 0 0.7 0.3 0.7 0.7v38.2C61.8 92.8 61.5 92.1 61.1 92.1z;M61.1 92.1c-0.4 0-0.7-0.3-0.7-0.7V33.2c0-0.4 0.3-0.7 0.7-0.7 0.4 0 0.7 0.3 0.7 0.7v38.2C61.8 92.8 61.5 92.1 61.1 92.1z;M61.1 72.1c-0.4 0-0.7-0.3-0.7-0.7V33.2c0-0.4 0.3-0.7 0.7-0.7 0.4 0 0.7 0.3 0.7 0.7v38.2C61.8 71.8 61.5 72.1 61.1 72.1z;M61.1 72.1c-0.4 0-0.7-0.3-0.7-0.7V33.2c0-0.4 0.3-0.7 0.7-0.7 0.4 0 0.7 0.3 0.7 0.7v38.2C61.8 71.8 61.5 72.1 61.1 72.1z;"/>
    </path>
    <defs>
        <circle id="SVGID_1_" cx="130" cy="130" r="130"/>
    </defs>
    <clipPath id="SVGID_2_">
        <use xlink:href="#SVGID_1_" overflow="visible"/>
    </clipPath>
    <path clip-path="url(#SVGID_2_)" fill="#363f49" d="M150.3 89.3h109.6v141.5H150.3z"/>
    <path class="s9" d="M162.2 101.3h22.4v2.2h-22.4zM162.2 118.4h6.3v2.2h-6.3z"/>
    <path class="s10" d="M188.5 101.3h8.9v2.2h-8.9z"/>
    <path class="s11" d="M170.1 118.4h22.8v2.2h-22.8z"/>
    <path class="s9" d="M168.5 107.2h10v2.2h-10zM168.5 135.9h10v2.2h-10z"/>
    <path class="s12" d="M162.2 170.4h16.4v2.2h-16.4z"/>
    <path class="s9" d="M168.5 141.7h4.1v2.2h-4.1zM180.9 135.9h26.2v2.2h-26.2zM179.3 153.4h25.5v2.2h-25.5zM173.9 216.6h9.1v2.2h-9.1z"/>
    <path class="s12" d="M207.8 176.2h9.4v2.2h-9.4zM181.2 204.9h17.7v2.2h-17.7zM187 216.6h20.8v2.2H187z"/>
    <path class="s10" d="M224.4 187.9h7.6v2.2h-7.6zM209.3 153.4h18.9v2.2h-18.9z"/>
    <path class="s11" d="M210.2 135.9h18.9v2.2h-18.9zM232.9 135.9h11.6v2.2h-11.6zM168.5 124.2h15v2.2h-15zM168.5 130h21.3v2.2h-21.3zM174.2 141.7h24.4v2.2h-24.4z"/>
    <path class="s12" d="M168.5 182.1h24.4v2.2h-24.4z"/>
    <path class="s11" d="M168.5 187.9h26.8v2.2h-26.8z"/>
    <path class="s10" d="M191.3 210.8h47.4v2.2h-47.4z"/>
    <path class="s11" d="M214.1 216.6h10.4v2.2h-10.4zM198.1 187.9h23.2v2.2h-23.2zM205.7 204.9h23.2v2.2h-23.2z"/>
    <path class="s9" d="M174.2 147.5h7.9v2.2h-7.9zM174.2 159.2h8.6v2.2h-8.6zM168.5 176.2h36.2v2.2h-36.2zM162.2 204.9h16.2v2.2h-16.2zM168.5 210.8H187v2.2h-18.5z"/>
    <path class="s12" d="M184.6 147.5h47.6v2.2h-47.6z"/>
    <path class="s11" d="M173.6 193.7h15.2v2.2h-15.2z"/>
    <path class="s12" d="M194 193.7h42.1v2.2H194z"/>
    <path class="s10" d="M203.6 141.7h16v2.2h-16z"/>
    <path class="s11" d="M192 130h21.3v2.2H192z"/>
    <path class="s10" d="M214.8 130h17.5v2.2h-17.5z"/>
    <path class="s12" d="M238.7 130h9.5v2.2h-9.5zM188.4 124.2h23v2.2h-23zM182.3 107.2h22.8v2.2h-22.8z"/>
    <path clip-path="url(#SVGID_2_)" fill="#242e38" d="M150.3 75.9h109.6v13.4H150.3z"/>
</svg>
