<?xml version="1.0" encoding="UTF-8" standalone="no"?>
<!-- Generator: Adobe Illustrator 16.0.5, SVG Export Plug-In . SVG Version: 6.00 Build 0)  -->

<svg
   xmlns:dc="http://purl.org/dc/elements/1.1/"
   xmlns:cc="http://creativecommons.org/ns#"
   xmlns:rdf="http://www.w3.org/1999/02/22-rdf-syntax-ns#"
   xmlns:svg="http://www.w3.org/2000/svg"
   xmlns="http://www.w3.org/2000/svg"
   xmlns:xlink="http://www.w3.org/1999/xlink"
   xmlns:sodipodi="http://sodipodi.sourceforge.net/DTD/sodipodi-0.dtd"
   xmlns:inkscape="http://www.inkscape.org/namespaces/inkscape"
   version="1.1"
   id="Layer_1"
   x="0px"
   y="0px"
   width="260"
   height="260"
   viewBox="0 0 260 260"
   enable-background="new 0 0 1000 1000"
   xml:space="preserve"
   inkscape:version="0.48.5 r10040"
   sodipodi:docname="Fundamentals.svg"><metadata
   id="metadata223"><rdf:RDF><cc:Work
       rdf:about=""><dc:format>image/svg+xml</dc:format><dc:type
         rdf:resource="http://purl.org/dc/dcmitype/StillImage" /></cc:Work></rdf:RDF></metadata><defs
   id="defs221" /><sodipodi:namedview
   pagecolor="#ffffff"
   bordercolor="#666666"
   borderopacity="1"
   objecttolerance="10"
   gridtolerance="10"
   guidetolerance="10"
   inkscape:pageopacity="0"
   inkscape:pageshadow="2"
   inkscape:window-width="1280"
   inkscape:window-height="962"
   id="namedview219"
   showgrid="false"
   inkscape:zoom="0.236"
   inkscape:cx="500"
   inkscape:cy="500"
   inkscape:window-x="-8"
   inkscape:window-y="-8"
   inkscape:window-maximized="1"
   inkscape:current-layer="Layer_1" />
<circle
   cx="267.19699"
   cy="215.356"
   r="130"
   id="circle3"
   sodipodi:cx="267.19699"
   sodipodi:cy="215.356"
   sodipodi:rx="130"
   sodipodi:ry="130"
   transform="matrix(0.99999612,0,0,1,-137.19646,-85.356)"
   style="fill:#abe0e5" />
<polygon
   points="180.902,133.798 155.84,126.171 180.902,118.542 "
   id="polygon5"
   transform="matrix(0.99999612,0,0,1,-137.19646,-85.356)"
   style="fill:#f2f2f2" />
<polygon
   points="155.84,126.171 180.902,133.798 180.902,129.001 "
   id="polygon7"
   transform="matrix(0.99999612,0,0,1,-137.19646,-85.356)"
   style="fill:#cccbca" />
<rect
   x="43.704834"
   y="33.185974"
   width="190.28027"
   height="15.256"
   id="rect9"
   style="fill:#474f59" />
<rect
   x="43.704834"
   y="43.64502"
   width="190.28027"
   height="4.7969999"
   id="rect11"
   style="fill:#232e38" />
<polygon
   points="165.648,129.152 155.84,126.171 165.648,123.172 "
   id="polygon13"
   transform="matrix(0.99999612,0,0,1,-137.19646,-85.356)"
   style="fill:#353f49" />
<polygon
   points="165.648,129.152 155.84,126.171 165.648,127.278 "
   id="polygon15"
   transform="matrix(0.99999612,0,0,1,-137.19646,-85.356)"
   style="fill:#232e38" />
<rect
   x="233.98608"
   y="33.185974"
   width="8.8529654"
   height="15.256"
   id="rect17"
   style="fill:#f2f2f2" />
<rect
   x="233.98608"
   y="43.64502"
   width="8.8529654"
   height="4.7969999"
   id="rect19"
   style="fill:#cccbca" />
<path
   d="m 252.37103,48.442 c 1.95099,0 3.90499,-0.745 5.39498,-2.234 1.48999,-1.489 2.23299,-3.441 2.23299,-5.395 l 0,0 c 0,-1.951 -0.744,-3.904 -2.23299,-5.393 -1.48899,-1.49 -3.44299,-2.234 -5.39498,-2.234 h -9.53296 v 15.256 h 9.53296 z"
   id="path21"
   inkscape:connector-curvature="0"
   style="fill:#f68360" />
<path
   d="m 257.76601,35.42 c -0.866,-0.867 -1.89599,-1.45 -2.98299,-1.813 0.259,0.782 0.42,1.592 0.42,2.408 0,1.952 -0.744,3.904 -2.23399,5.395 -1.488,1.488 -3.44099,2.234 -5.39298,2.234 h -4.73698 v 4.797 h 9.53296 c 1.95099,0 3.90499,-0.745 5.39498,-2.234 C 259.257,44.718 260,42.766 260,40.812 c -10e-4,-1.95 -0.745,-3.903 -2.23399,-5.392 z"
   id="path23"
   inkscape:connector-curvature="0"
   style="fill:#ed6d47" />
<g
   id="g25"
   transform="matrix(0.99999612,0,0,1,-137.19646,-85.356)">
	<g
   id="g27">
		<polygon
   points="278.155,225.143 276.793,231.938 284.189,231.938 282.826,225.143 "
   id="polygon29"
   style="fill:#ff9978" />
		<polygon
   points="263.071,230.436 265.288,237.006 271.695,233.306 267.118,228.099 "
   id="polygon31"
   style="fill:#ff9978" />
		<polygon
   points="252.656,242.559 257.861,247.141 261.559,240.735 254.991,238.514 "
   id="polygon33"
   style="fill:#ff9978" />
		<polygon
   points="249.699,258.271 256.496,259.634 256.496,252.236 249.695,253.599 "
   id="polygon35"
   style="fill:#ff9978" />
		<polygon
   points="254.992,273.357 261.559,271.134 257.861,264.73 252.656,269.31 "
   id="polygon37"
   style="fill:#ff9978" />
		<polygon
   points="267.118,283.771 271.695,278.564 265.291,274.867 263.071,281.435 "
   id="polygon39"
   style="fill:#ff9978" />
		<polygon
   points="282.826,286.728 284.189,279.933 276.794,279.933 278.158,286.728 "
   id="polygon41"
   style="fill:#ff9978" />
		<polygon
   points="297.911,281.435 295.692,274.867 289.286,278.564 293.867,283.771 "
   id="polygon43"
   style="fill:#ff9978" />
		<polygon
   points="308.326,269.31 303.121,264.73 299.423,271.134 305.992,273.357 "
   id="polygon45"
   style="fill:#ff9978" />
		<polygon
   points="311.283,253.599 304.488,252.236 304.488,259.634 311.285,258.271 "
   id="polygon47"
   style="fill:#ff9978" />
		<polygon
   points="305.992,238.514 299.423,240.735 303.121,247.139 308.326,242.559 "
   id="polygon49"
   style="fill:#ff9978" />
		<polygon
   points="293.864,228.102 289.286,233.306 295.692,237.002 297.911,230.436 "
   id="polygon51"
   style="fill:#ff9978" />
	</g>
</g>
<path
   d="m 143.29245,146.303 c -13.40994,0 -24.2769,10.867 -24.2769,24.276 0,13.412 10.86696,24.277 24.2769,24.277 13.41195,0 24.27691,-10.865 24.27691,-24.277 0.001,-13.409 -10.86496,-24.276 -24.27691,-24.276 z m 0,31.001 c -3.70598,0 -6.72297,-3.016 -6.72297,-6.725 0,-3.707 3.01699,-6.724 6.72297,-6.724 3.70899,0 6.72398,3.017 6.72398,6.724 0,3.709 -3.01499,6.725 -6.72398,6.725 z"
   id="path53"
   inkscape:connector-curvature="0"
   style="fill:#f68360" />
<path
   d="m 143.29245,158.926 c -6.43797,0 -11.65195,5.215 -11.65195,11.653 0,6.439 5.21398,11.652 11.65195,11.652 6.43798,0 11.65296,-5.213 11.65296,-11.652 10e-4,-6.438 -5.21498,-11.653 -11.65296,-11.653 z m 0,17.481 c -3.21398,0 -5.82597,-2.611 -5.82597,-5.828 0,-3.213 2.61199,-5.823 5.82597,-5.823 3.21299,0 5.82598,2.61 5.82598,5.823 0,3.217 -2.61299,5.828 -5.82598,5.828 z"
   id="path55"
   inkscape:connector-curvature="0"
   style="fill:#232e38" />
<path
   d="m 18.642937,112.286 c 0,-2.541 2.070992,-4.62 4.614982,-4.62 h 75.642706 c 2.536995,0 4.612985,2.079 4.612985,4.62 v 113.928 c 0,2.539 -2.07599,4.611 -4.612985,4.611 H 23.257919 c -2.54399,0 -4.614982,-2.072 -4.614982,-4.611 V 112.286 z"
   id="path57"
   inkscape:connector-curvature="0"
   style="fill:#232e38" />
<path
   d="m 56.39679,225.679 c -1.127995,0 -2.052992,-0.922 -2.052992,-2.055 v -0.508 c 0,-1.133 0.924997,-2.055 2.052992,-2.055 h 9.363964 c 1.126995,0 2.052992,0.922 2.052992,2.055 v 0.508 c 0,1.133 -0.925997,2.055 -2.052992,2.055 H 56.39679 z"
   id="path59"
   inkscape:connector-curvature="0"
   style="fill:#474f59" />
<path
   d="m 61.068772,115.795 c -1.167995,0 -2.100992,-0.94 -2.100992,-2.118 0,-1.154 0.932997,-2.112 2.100992,-2.112 1.164995,0 2.116992,0.958 2.116992,2.112 0,1.178 -0.951997,2.118 -2.116992,2.118 z"
   id="path61"
   inkscape:connector-curvature="0"
   style="fill:#474f59" />
<path
   d="m 61.075772,114.567 c -0.489998,0 -0.876997,-0.396 -0.876997,-0.887 0,-0.486 0.386999,-0.88 0.876997,-0.88 0.487998,0 0.884997,0.394 0.884997,0.88 0,0.491 -0.395999,0.887 -0.884997,0.887 z"
   id="path63"
   inkscape:connector-curvature="0"
   style="fill:#d9d8d7" />
<rect
   x="23.452911"
   y="119.698"
   width="75.237709"
   height="96.217003"
   id="rect65"
   style="fill:#ffffff" />
<g
   id="g67"
   transform="matrix(0.99999612,0,0,1,-137.19646,-85.356)">
	<rect
   x="163.617"
   y="221.43401"
   width="15.027"
   height="15.024"
   id="rect69"
   style="fill:#f68360" />
	<rect
   x="181.647"
   y="221.43401"
   width="15.028"
   height="15.024"
   id="rect71"
   style="fill:#abe0e5" />
	<rect
   x="199.677"
   y="221.43401"
   width="15.028"
   height="15.024"
   id="rect73"
   style="fill:#ffd680" />
	<rect
   x="217.707"
   y="221.43401"
   width="15.028"
   height="15.024"
   id="rect75"
   style="fill:#474f59" />
	<rect
   x="163.617"
   y="239.461"
   width="15.027"
   height="15.028"
   id="rect77"
   style="fill:#ffd680" />
	<rect
   x="181.647"
   y="239.461"
   width="15.028"
   height="15.028"
   id="rect79"
   style="fill:#474f59" />
	<rect
   x="199.677"
   y="239.461"
   width="15.028"
   height="15.028"
   id="rect81"
   style="fill:#abe0e5" />
	<rect
   x="217.707"
   y="239.461"
   width="15.028"
   height="15.028"
   id="rect83"
   style="fill:#f68360" />
	<rect
   x="181.647"
   y="257.48999"
   width="15.028"
   height="15.029"
   id="rect85"
   style="fill:#f68360" />
	<rect
   x="199.677"
   y="257.48999"
   width="15.028"
   height="15.029"
   id="rect87"
   style="fill:#cccbca" />
	<rect
   x="217.707"
   y="257.48999"
   width="15.028"
   height="15.029"
   id="rect89"
   style="fill:#ffd680" />
	<rect
   x="163.617"
   y="283.10901"
   width="15.027"
   height="15.029"
   id="rect91"
   style="fill:#f68360" />
	<rect
   x="181.647"
   y="283.10901"
   width="15.028"
   height="15.029"
   id="rect93"
   style="fill:#cccbca" />
</g>
<rect
   x="23.452911"
   y="119.698"
   width="75.237709"
   height="13.245"
   id="rect95"
   style="fill:#e6e5e5" />
<g
   id="g97"
   transform="matrix(0.99999612,0,0,1,-137.19646,-85.356)">
	<path
   d="m 166.764,200.193 c -0.209,0 -0.414,-0.093 -0.553,-0.269 -0.238,-0.305 -0.184,-0.744 0.121,-0.982 l 29.924,-23.408 c 0.579,-0.452 1.273,-0.721 2.007,-0.775 0.731,-0.051 1.459,0.109 2.099,0.473 l 28.103,15.947 c 0.336,0.19 0.454,0.617 0.263,0.954 -0.19,0.336 -0.617,0.454 -0.954,0.263 l -28.102,-15.947 c -0.397,-0.225 -0.846,-0.326 -1.306,-0.293 -0.455,0.033 -0.887,0.201 -1.246,0.482 l -29.926,23.406 c -0.128,0.101 -0.28,0.149 -0.43,0.149 z"
   id="path99"
   inkscape:connector-curvature="0"
   style="fill:#474f59" />
	<g
   id="g101">
		
			<rect
   x="160.705"
   y="195.57401"
   transform="matrix(0.9921,-0.1252,0.1252,0.9921,-23.805,25.5467)"
   width="61.351002"
   height="13.245"
   id="rect103"
   style="fill:#f68360" />
		
			<rect
   x="187.38"
   y="173.418"
   transform="matrix(0.1251,0.9921,-0.9921,0.1251,368.0431,-12.9774)"
   width="8"
   height="57.556999"
   id="rect105"
   style="fill:#ffffff" />
		
			<rect
   x="165.48399"
   y="203.56799"
   transform="matrix(0.9921,-0.1251,0.1251,0.9921,-24.2039,23.3656)"
   width="16.908001"
   height="1.66"
   id="rect107"
   style="fill:#cccbca" />
		
			<rect
   x="221.759"
   y="190.866"
   transform="matrix(0.9921,-0.1252,0.1252,0.9921,-22.9191,30.1774)"
   width="13.889"
   height="13.244"
   id="rect109"
   style="fill:#f68360" />
		<path
   d="m 232.309,199.562 -1.608,-1.248 c -0.042,-0.031 -0.093,-0.048 -0.147,-0.041 -0.056,0.008 -0.103,0.035 -0.134,0.076 l -0.055,0.072 -0.456,-0.355 c 0.297,-0.484 0.438,-1.068 0.361,-1.68 -0.179,-1.418 -1.474,-2.424 -2.893,-2.244 -1.419,0.18 -2.423,1.475 -2.244,2.893 0.18,1.42 1.474,2.426 2.893,2.246 0.607,-0.076 1.141,-0.359 1.535,-0.768 l 0.457,0.354 -0.056,0.072 c -0.031,0.039 -0.048,0.091 -0.04,0.146 0.006,0.055 0.035,0.104 0.075,0.134 l 1.609,1.248 c 0.116,0.089 0.265,0.135 0.423,0.114 0.156,-0.02 0.291,-0.1 0.381,-0.216 0.09,-0.116 0.137,-0.265 0.117,-0.423 -0.02,-0.156 -0.103,-0.291 -0.218,-0.38 z m -4.34,-0.72 c -1.175,0.147 -2.248,-0.687 -2.396,-1.863 -0.148,-1.175 0.685,-2.247 1.859,-2.396 1.177,-0.148 2.25,0.684 2.398,1.858 0.149,1.177 -0.684,2.252 -1.861,2.401 z"
   id="path111"
   inkscape:connector-curvature="0"
   style="fill:#ffffff" />
	</g>
</g>
<g
   id="g113"
   transform="matrix(0.99999612,0,0,1,-137.19646,-85.356)">
	<g
   id="g115">
		<path
   d="m 198.27,178.665 c -4.824,0 -8.75,-3.926 -8.75,-8.75 0,-0.69 0.56,-1.25 1.25,-1.25 0.69,0 1.25,0.56 1.25,1.25 0,3.446 2.804,6.25 6.25,6.25 3.446,0 6.25,-2.804 6.25,-6.25 0,-3.446 -2.804,-6.25 -6.25,-6.25 -0.69,0 -1.25,-0.561 -1.25,-1.25 v -3.546 c 0,-0.69 0.56,-1.25 1.25,-1.25 0.69,0 1.25,0.56 1.25,1.25 v 2.384 c 4.234,0.609 7.5,4.262 7.5,8.662 0,4.824 -3.926,8.75 -8.75,8.75 z"
   id="path117"
   inkscape:connector-curvature="0"
   style="fill:#ffb959" />
		<path
   d="m 198.27,160.119 c -1.875,0 -3.399,-1.525 -3.399,-3.4 0,-1.874 1.524,-3.399 3.399,-3.399 1.875,0 3.399,1.525 3.399,3.399 0,1.875 -1.524,3.4 -3.399,3.4 z m 0,-4.3 c -0.496,0 -0.899,0.403 -0.899,0.899 0,0.497 0.403,0.9 0.899,0.9 0.496,0 0.899,-0.403 0.899,-0.9 0,-0.495 -0.403,-0.899 -0.899,-0.899 z"
   id="path119"
   inkscape:connector-curvature="0"
   style="fill:#232e38" />
	</g>
	<path
   d="m 198.27,157.419 c -0.387,0 -0.7,-0.313 -0.7,-0.699 v -38.178 c 0,-0.387 0.313,-0.701 0.7,-0.701 0.387,0 0.7,0.314 0.7,0.701 v 38.178 c 0,0.386 -0.314,0.699 -0.7,0.699 z"
   id="path121"
   inkscape:connector-curvature="0"
   style="fill:#656a73" />
</g>
<path
   d="m 61.070772,90.809 c -0.419998,0.05 -0.819997,0.21 -1.149996,0.47 l -1.890992,1.479 c -0.499998,-0.18 -0.968996,-0.409 -1.408995,-0.67 l 2.179992,-1.709 c 0.698997,0.28 1.468994,0.43 2.269991,0.43 z"
   id="path123"
   inkscape:connector-curvature="0"
   style="fill:#474f59" />
<g
   id="g125"
   transform="matrix(0.99999612,0,0,1,-137.19646,-85.356)">
	<defs
   id="defs127">
		<circle
   id="SVGID_1_"
   cx="267.19699"
   cy="215.356"
   r="130"
   sodipodi:cx="267.19699"
   sodipodi:cy="215.356"
   sodipodi:rx="130"
   sodipodi:ry="130" />
	</defs>
	<clipPath
   id="SVGID_2_">
		<use
   xlink:href="#SVGID_1_"
   overflow="visible"
   id="use131"
   style="overflow:visible"
   x="0"
   y="0"
   width="1000"
   height="1000" />
	</clipPath>
	<rect
   x="287.535"
   y="174.69"
   clip-path="url(#SVGID_2_)"
   width="109.646"
   height="141.491"
   id="rect133"
   style="fill:#353f49" />
	<rect
   x="299.39301"
   y="186.69099"
   clip-path="url(#SVGID_2_)"
   width="22.403999"
   height="2.221"
   id="rect135"
   style="fill:#abe0e5" />
	<rect
   x="299.39301"
   y="203.745"
   clip-path="url(#SVGID_2_)"
   width="6.316"
   height="2.221"
   id="rect137"
   style="fill:#abe0e5" />
	<rect
   x="325.702"
   y="186.69099"
   clip-path="url(#SVGID_2_)"
   width="8.9090004"
   height="2.221"
   id="rect139"
   style="fill:#f68360" />
	<rect
   x="307.34399"
   y="203.745"
   clip-path="url(#SVGID_2_)"
   width="22.799999"
   height="2.221"
   id="rect141"
   style="fill:#656a73" />
	<rect
   x="305.70901"
   y="192.521"
   clip-path="url(#SVGID_2_)"
   width="10.049"
   height="2.22"
   id="rect143"
   style="fill:#abe0e5" />
	<rect
   x="305.70901"
   y="221.23199"
   clip-path="url(#SVGID_2_)"
   width="10.049"
   height="2.2190001"
   id="rect145"
   style="fill:#abe0e5" />
	<rect
   x="299.39301"
   y="255.769"
   clip-path="url(#SVGID_2_)"
   width="16.365"
   height="2.221"
   id="rect147"
   style="fill:#e6e5e5" />
	<rect
   x="305.70901"
   y="227.063"
   clip-path="url(#SVGID_2_)"
   width="4.1440001"
   height="2.221"
   id="rect149"
   style="fill:#abe0e5" />
	<rect
   x="318.129"
   y="221.23199"
   clip-path="url(#SVGID_2_)"
   width="26.247999"
   height="2.2190001"
   id="rect151"
   style="fill:#abe0e5" />
	<rect
   x="316.44901"
   y="238.717"
   clip-path="url(#SVGID_2_)"
   width="25.451"
   height="2.221"
   id="rect153"
   style="fill:#abe0e5" />
	<rect
   x="311.04901"
   y="301.95999"
   clip-path="url(#SVGID_2_)"
   width="9.1350002"
   height="2.221"
   id="rect155"
   style="fill:#abe0e5" />
	<rect
   x="344.98099"
   y="261.595"
   clip-path="url(#SVGID_2_)"
   width="9.415"
   height="2.223"
   id="rect157"
   style="fill:#e6e5e5" />
	<rect
   x="318.40201"
   y="290.30399"
   clip-path="url(#SVGID_2_)"
   width="17.733999"
   height="2.221"
   id="rect159"
   style="fill:#e6e5e5" />
	<rect
   x="324.14899"
   y="301.95999"
   clip-path="url(#SVGID_2_)"
   width="20.839001"
   height="2.221"
   id="rect161"
   style="fill:#e6e5e5" />
	<rect
   x="361.61301"
   y="273.25101"
   clip-path="url(#SVGID_2_)"
   width="7.5739999"
   height="2.217"
   id="rect163"
   style="fill:#f68360" />
	<rect
   x="346.504"
   y="238.717"
   clip-path="url(#SVGID_2_)"
   width="18.896"
   height="2.221"
   id="rect165"
   style="fill:#f68360" />
	<rect
   x="347.35501"
   y="221.23199"
   clip-path="url(#SVGID_2_)"
   width="18.879999"
   height="2.2190001"
   id="rect167"
   style="fill:#656a73" />
	<rect
   x="370.07901"
   y="221.23199"
   clip-path="url(#SVGID_2_)"
   width="11.559"
   height="2.2190001"
   id="rect169"
   style="fill:#656a73" />
	<rect
   x="305.70901"
   y="209.577"
   clip-path="url(#SVGID_2_)"
   width="14.99"
   height="2.22"
   id="rect171"
   style="fill:#656a73" />
	<rect
   x="305.70901"
   y="215.40401"
   clip-path="url(#SVGID_2_)"
   width="21.257"
   height="2.221"
   id="rect173"
   style="fill:#656a73" />
	<rect
   x="311.38699"
   y="227.063"
   clip-path="url(#SVGID_2_)"
   width="24.363001"
   height="2.221"
   id="rect175"
   style="fill:#656a73" />
	<rect
   x="305.70901"
   y="267.42499"
   clip-path="url(#SVGID_2_)"
   width="24.361"
   height="2.2190001"
   id="rect177"
   style="fill:#e6e5e5" />
	<rect
   x="305.70901"
   y="273.25101"
   clip-path="url(#SVGID_2_)"
   width="26.75"
   height="2.217"
   id="rect179"
   style="fill:#656a73" />
	<rect
   x="328.49799"
   y="296.138"
   clip-path="url(#SVGID_2_)"
   width="47.358002"
   height="2.217"
   id="rect181"
   style="fill:#f68360" />
	<rect
   x="351.336"
   y="301.95999"
   clip-path="url(#SVGID_2_)"
   width="10.373"
   height="2.221"
   id="rect183"
   style="fill:#656a73" />
	<rect
   x="335.336"
   y="273.25101"
   clip-path="url(#SVGID_2_)"
   width="23.207001"
   height="2.217"
   id="rect185"
   style="fill:#656a73" />
	<rect
   x="342.88199"
   y="290.30399"
   clip-path="url(#SVGID_2_)"
   width="23.204"
   height="2.221"
   id="rect187"
   style="fill:#656a73" />
	<rect
   x="311.38699"
   y="232.89101"
   clip-path="url(#SVGID_2_)"
   width="7.9159999"
   height="2.2190001"
   id="rect189"
   style="fill:#abe0e5" />
	<rect
   x="311.38699"
   y="244.545"
   clip-path="url(#SVGID_2_)"
   width="8.6099997"
   height="2.2190001"
   id="rect191"
   style="fill:#abe0e5" />
	<rect
   x="305.70901"
   y="261.595"
   clip-path="url(#SVGID_2_)"
   width="36.191002"
   height="2.223"
   id="rect193"
   style="fill:#abe0e5" />
	<rect
   x="299.39301"
   y="290.30399"
   clip-path="url(#SVGID_2_)"
   width="16.225"
   height="2.221"
   id="rect195"
   style="fill:#abe0e5" />
	<rect
   x="305.70901"
   y="296.13599"
   clip-path="url(#SVGID_2_)"
   width="18.482"
   height="2.2190001"
   id="rect197"
   style="fill:#abe0e5" />
	<rect
   x="321.797"
   y="232.89101"
   clip-path="url(#SVGID_2_)"
   width="47.561001"
   height="2.2190001"
   id="rect199"
   style="fill:#e6e5e5" />
	<rect
   x="310.76999"
   y="279.07999"
   clip-path="url(#SVGID_2_)"
   width="15.206"
   height="2.223"
   id="rect201"
   style="fill:#656a73" />
	<rect
   x="331.19299"
   y="279.07999"
   clip-path="url(#SVGID_2_)"
   width="42.055"
   height="2.223"
   id="rect203"
   style="fill:#e6e5e5" />
	<rect
   x="340.76501"
   y="227.063"
   clip-path="url(#SVGID_2_)"
   width="16.031"
   height="2.221"
   id="rect205"
   style="fill:#f68360" />
	<rect
   x="329.23199"
   y="215.40401"
   clip-path="url(#SVGID_2_)"
   width="21.252001"
   height="2.221"
   id="rect207"
   style="fill:#656a73" />
	<rect
   x="351.95499"
   y="215.40401"
   clip-path="url(#SVGID_2_)"
   width="17.466"
   height="2.221"
   id="rect209"
   style="fill:#f68360" />
	<rect
   x="375.85901"
   y="215.40401"
   clip-path="url(#SVGID_2_)"
   width="9.4610004"
   height="2.221"
   id="rect211"
   style="fill:#e6e5e5" />
	<rect
   x="325.59799"
   y="209.577"
   clip-path="url(#SVGID_2_)"
   width="23.021"
   height="2.22"
   id="rect213"
   style="fill:#e6e5e5" />
	<rect
   x="319.47501"
   y="192.521"
   clip-path="url(#SVGID_2_)"
   width="22.791"
   height="2.22"
   id="rect215"
   style="fill:#e6e5e5" />
	<rect
   x="287.535"
   y="161.259"
   clip-path="url(#SVGID_2_)"
   width="109.646"
   height="13.432"
   id="rect217"
   style="fill:#232e38" />
</g>
</svg>