<?xml version="1.0" encoding="UTF-8" standalone="no"?>
<!-- Generator: Adobe Illustrator 16.0.5, SVG Export Plug-In . SVG Version: 6.00 Build 0)  -->

<svg
   xmlns:dc="http://purl.org/dc/elements/1.1/"
   xmlns:cc="http://creativecommons.org/ns#"
   xmlns:rdf="http://www.w3.org/1999/02/22-rdf-syntax-ns#"
   xmlns:svg="http://www.w3.org/2000/svg"
   xmlns="http://www.w3.org/2000/svg"
   xmlns:sodipodi="http://sodipodi.sourceforge.net/DTD/sodipodi-0.dtd"
   xmlns:inkscape="http://www.inkscape.org/namespaces/inkscape"
   version="1.1"
   id="Layer_1"
   x="0px"
   y="0px"
   width="260"
   height="260"
   viewBox="0 0 260 260"
   enable-background="new 0 0 1000 1000"
   xml:space="preserve"
   inkscape:version="0.48.5 r10040"
   sodipodi:docname="Inspiration.svg"><metadata
   id="metadata141"><rdf:RDF><cc:Work
       rdf:about=""><dc:format>image/svg+xml</dc:format><dc:type
         rdf:resource="http://purl.org/dc/dcmitype/StillImage" /></cc:Work></rdf:RDF></metadata><defs
   id="defs139" /><sodipodi:namedview
   pagecolor="#ffffff"
   bordercolor="#666666"
   borderopacity="1"
   objecttolerance="10"
   gridtolerance="10"
   guidetolerance="10"
   inkscape:pageopacity="0"
   inkscape:pageshadow="2"
   inkscape:window-width="1280"
   inkscape:window-height="962"
   id="namedview137"
   showgrid="false"
   inkscape:zoom="0.236"
   inkscape:cx="500"
   inkscape:cy="500"
   inkscape:window-x="-8"
   inkscape:window-y="-8"
   inkscape:window-maximized="1"
   inkscape:current-layer="Layer_1" />
<circle
   cx="761.396"
   cy="688.27301"
   r="130"
   id="circle3"
   sodipodi:cx="761.396"
   sodipodi:cy="688.27301"
   sodipodi:rx="130"
   sodipodi:ry="130"
   transform="translate(-631.396,-558.27301)"
   style="fill:#ffd680" />
<g
   id="g5"
   transform="translate(-631.396,-558.27301)">
	<g
   id="g7">
		<path
   d="m 878.613,728.259 c 0,0.877 -0.336,1.752 -1.005,2.418 -0.668,0.668 -1.541,1.003 -2.417,1.003 H 728.057 c -0.875,0 -1.75,-0.335 -2.418,-1.003 -0.667,-0.666 -1.003,-1.541 -1.003,-2.418 v -10.266 h 153.978 v 10.266 z"
   id="path9"
   inkscape:connector-curvature="0"
   style="fill:#ffffff" />
		<path
   d="m 878.613,619.402 c 0,-0.873 -0.336,-1.748 -1.005,-2.415 -0.668,-0.671 -1.541,-1.004 -2.417,-1.004 H 728.057 c -0.875,0 -1.75,0.333 -2.418,1.004 -0.667,0.667 -1.003,1.542 -1.003,2.415 v 98.591 h 153.978 v -98.591 z"
   id="path11"
   inkscape:connector-curvature="0"
   style="fill:#232e38" />
		<rect
   x="732.336"
   y="623.68201"
   width="138.578"
   height="86.612"
   id="rect13"
   style="fill:#ffffff" />
	</g>
	<g
   id="g15">
		<polygon
   points="823.013,752.21 780.237,752.21 782.562,731.68 820.689,731.68 "
   id="polygon17"
   style="fill:#f2f2f2" />
		<path
   d="m 831.565,754.606 h -59.883 v -1.025 c 0,-0.353 0.135,-0.703 0.404,-0.969 0.265,-0.268 0.617,-0.402 0.967,-0.402 h 57.143 c 0.348,0 0.701,0.135 0.968,0.402 0.269,0.266 0.401,0.616 0.401,0.969 v 1.025 z"
   id="path19"
   inkscape:connector-curvature="0"
   style="fill:#ffffff" />
		<polygon
   points="823.013,752.21 820.689,731.68 782.562,731.68 802.453,752.21 "
   id="polygon21"
   style="fill:#e6e5e5" />
	</g>
</g>
<rect
   x="105.02502"
   y="70.664978"
   width="126.911"
   height="7.2290001"
   id="rect23"
   style="fill:#f68360" />
<rect
   x="105.02502"
   y="138.29797"
   width="126.911"
   height="2.3829999"
   id="rect25"
   style="fill:#cccbca" />
<rect
   x="105.02502"
   y="145.23297"
   width="126.911"
   height="2.3829999"
   id="rect27"
   style="fill:#cccbca" />
<rect
   x="105.02502"
   y="98.432007"
   width="40.801998"
   height="37.047001"
   id="rect29"
   style="fill:#abe0e5" />
<rect
   x="148.17999"
   y="98.432007"
   width="40.800999"
   height="37.047001"
   id="rect31"
   style="fill:#abe0e5" />
<rect
   x="191.13501"
   y="98.432007"
   width="40.800999"
   height="37.047001"
   id="rect33"
   style="fill:#abe0e5" />
<rect
   x="105.02502"
   y="80.711975"
   width="126.911"
   height="14.9"
   id="rect35"
   style="fill:#cccbca" />
<g
   id="g37"
   transform="translate(-631.396,-558.27301)">
	<g
   id="g39">
		<path
   d="m 666.541,681.208 c 0,-1.589 1.292,-2.889 2.883,-2.889 h 47.271 c 1.584,0 2.884,1.3 2.884,2.889 v 71.195 c 0,1.586 -1.3,2.881 -2.884,2.881 h -47.271 c -1.591,0 -2.883,-1.295 -2.883,-2.881 v -71.195 z"
   id="path41"
   inkscape:connector-curvature="0"
   style="fill:#232e38" />
		<path
   d="m 690.133,752.068 c -0.705,0 -1.283,-0.575 -1.283,-1.283 v -0.315 c 0,-0.712 0.578,-1.287 1.283,-1.287 h 5.851 c 0.707,0 1.285,0.575 1.285,1.287 v 0.315 c 0,0.708 -0.578,1.283 -1.285,1.283 h -5.851 z"
   id="path43"
   inkscape:connector-curvature="0"
   style="fill:#474f59" />
		<path
   d="m 693.052,683.401 c -0.729,0 -1.312,-0.588 -1.312,-1.323 0,-0.722 0.583,-1.321 1.312,-1.321 0.729,0 1.324,0.6 1.324,1.321 0,0.735 -0.595,1.323 -1.324,1.323 z"
   id="path45"
   inkscape:connector-curvature="0"
   style="fill:#474f59" />
		<path
   d="m 693.057,682.632 c -0.308,0 -0.547,-0.246 -0.547,-0.554 0,-0.302 0.239,-0.548 0.547,-0.548 0.307,0 0.555,0.246 0.555,0.548 -10e-4,0.308 -0.249,0.554 -0.555,0.554 z"
   id="path47"
   inkscape:connector-curvature="0"
   style="fill:#ffffff" />
		<rect
   x="669.54602"
   y="685.841"
   width="47.016998"
   height="60.125999"
   id="rect49"
   style="fill:#ffffff" />
	</g>
	<rect
   x="671.27698"
   y="688.46997"
   width="42.709"
   height="5.2880001"
   id="rect51"
   style="fill:#f68360" />
	<rect
   x="671.27698"
   y="737.948"
   width="42.709"
   height="1.742"
   id="rect53"
   style="fill:#cccbca" />
	<rect
   x="671.27698"
   y="708.78302"
   width="42.709"
   height="27.101999"
   id="rect55"
   style="fill:#abe0e5" />
	<rect
   x="671.27698"
   y="695.82001"
   width="42.709"
   height="10.899"
   id="rect57"
   style="fill:#cccbca" />
</g>
<g
   id="g59"
   transform="translate(-631.396,-558.27301)">
	<path
   d="m 715.026,755.257 c -2.068,0 -3.764,-1.688 -3.764,-3.759 v -46.461 c 0,-2.072 1.695,-3.768 3.764,-3.768 h 21.85 c 2.068,0 3.763,1.695 3.763,3.768 v 46.461 c 0,2.071 -1.694,3.759 -3.763,3.759 h -21.85 z"
   id="path61"
   inkscape:connector-curvature="0"
   style="fill:#232e38" />
	<path
   d="m 729.206,751.367 c 0,0.499 -0.397,0.9 -0.896,0.9 h -4.719 c -0.49,0 -0.899,-0.401 -0.899,-0.9 v -0.377 c 0,-0.492 0.409,-0.899 0.899,-0.899 h 4.719 c 0.499,0 0.896,0.407 0.896,0.899 v 0.377 z"
   id="path63"
   inkscape:connector-curvature="0"
   style="fill:#474f59" />
	<path
   d="m 727.04,705.348 c 0,0.599 -0.481,1.086 -1.083,1.086 -0.607,0 -1.089,-0.487 -1.089,-1.086 0,-0.595 0.481,-1.084 1.089,-1.084 0.602,0 1.083,0.489 1.083,1.084 z"
   id="path65"
   inkscape:connector-curvature="0"
   style="fill:#474f59" />
	<path
   d="m 726.459,705.348 c 0,0.283 -0.218,0.514 -0.502,0.514 -0.281,0 -0.515,-0.23 -0.515,-0.514 0,-0.277 0.233,-0.512 0.515,-0.512 0.284,0 0.502,0.234 0.502,0.512 z"
   id="path67"
   inkscape:connector-curvature="0"
   style="fill:#ffffff" />
	<g
   id="g69">
		<rect
   x="713.39398"
   y="709.43402"
   width="25.114"
   height="37.667999"
   id="rect71"
   style="fill:#ffffff" />
		<rect
   x="715.32703"
   y="711.36298"
   width="21.249001"
   height="3.2490001"
   id="rect73"
   style="fill:#f68360" />
		<rect
   x="715.32703"
   y="741.76202"
   width="21.249001"
   height="1.0700001"
   id="rect75"
   style="fill:#cccbca" />
		<rect
   x="715.32703"
   y="744.10199"
   width="10.624"
   height="1.066"
   id="rect77"
   style="fill:#cccbca" />
		<rect
   x="715.32703"
   y="723.84399"
   width="21.249001"
   height="16.65"
   id="rect79"
   style="fill:#abe0e5" />
		<rect
   x="715.32703"
   y="715.87903"
   width="21.249001"
   height="6.697"
   id="rect81"
   style="fill:#cccbca" />
	</g>
</g>
<g
   id="g83"
   transform="translate(-631.396,-558.27301)">
	<g
   id="g85">
		<path
   d="m 713.583,645.132 c 0,-10.186 -8.256,-18.438 -18.436,-18.438 -10.184,0 -18.436,8.252 -18.436,18.438 0,10.18 8.252,18.434 18.436,18.434 10.18,-10e-4 18.436,-8.254 18.436,-18.434 z"
   id="path87"
   inkscape:connector-curvature="0"
   style="fill:#ffffff" />
		<g
   id="g89">
			<g
   id="g91">
				<g
   id="g93">
					<path
   d="m 703.328,644.028 c -0.101,-0.711 -0.28,-1.391 -0.55,-2.031 -0.28,-0.689 -0.65,-1.33 -1.101,-1.91 -0.439,-0.559 -0.939,-1.059 -1.5,-1.49 -0.58,-0.449 -1.22,-0.818 -1.899,-1.09 -0.641,-0.27 -1.32,-0.449 -2.03,-0.549 -0.36,-0.051 -0.73,-0.07 -1.101,-0.07 -0.369,0 -0.739,0.02 -1.1,0.07 -0.71,0.1 -1.39,0.279 -2.03,0.549 -0.689,0.281 -1.33,0.65 -1.909,1.102 -0.561,0.43 -1.061,0.93 -1.49,1.488 -0.45,0.58 -0.82,1.211 -1.101,1.9 -0.27,0.641 -0.449,1.32 -0.55,2.031 -0.05,0.359 -0.07,0.729 -0.07,1.1 0,0.369 0.021,0.74 0.07,1.1 0.101,0.711 0.28,1.391 0.55,2.029 0.28,0.691 0.65,1.33 1.101,1.91 0.43,0.561 0.93,1.061 1.49,1.49 0.579,0.451 1.22,0.82 1.909,1.1 0.641,0.271 1.32,0.451 2.03,0.551 0.36,0.051 0.73,0.07 1.1,0.07 0.37,0 0.74,-0.02 1.101,-0.07 0.71,-0.1 1.39,-0.279 2.03,-0.551 0.68,-0.27 1.319,-0.639 1.899,-1.09 0.561,-0.43 1.07,-0.939 1.5,-1.5 0.45,-0.58 0.82,-1.219 1.101,-1.91 0.27,-0.639 0.449,-1.318 0.55,-2.029 0.05,-0.359 0.069,-0.73 0.069,-1.1 0,-0.371 -0.019,-0.74 -0.069,-1.1 z m -8.181,2.94 c -1.02,0 -1.84,-0.82 -1.84,-1.84 0,-1.01 0.82,-1.84 1.84,-1.84 1.021,0 1.841,0.83 1.841,1.84 0,1.019 -0.82,1.84 -1.841,1.84 z"
   id="path95"
   inkscape:connector-curvature="0"
   style="fill:#353f49" />
					<g
   id="g97">
						<rect
   x="694.04797"
   y="635.22198"
   width="2.1989999"
   height="1.758"
   id="rect99"
   style="fill:#353f49" />
						
							<rect
   x="689.53302"
   y="636.43103"
   transform="matrix(0.866,-0.5001,0.5001,0.866,-226.1407,430.7586)"
   width="2.1989999"
   height="1.757"
   id="rect101"
   style="fill:#353f49" />
						
							<rect
   x="686.229"
   y="639.73602"
   transform="matrix(0.5001,-0.866,0.866,0.5001,-211.1426,915.4935)"
   width="2.1989999"
   height="1.7589999"
   id="rect103"
   style="fill:#353f49" />
						<rect
   x="685.23901"
   y="644.02802"
   width="1.76"
   height="2.201"
   id="rect105"
   style="fill:#353f49" />
						
							<rect
   x="686.22803"
   y="648.76398"
   transform="matrix(-0.4997,-0.8662,0.8662,-0.4997,468.0352,1569.6259)"
   width="2.201"
   height="1.7589999"
   id="rect107"
   style="fill:#353f49" />
						
							<rect
   x="689.53302"
   y="652.07001"
   transform="matrix(-0.866,-0.5001,0.5001,-0.866,962.2058,1563.7518)"
   width="2.1989999"
   height="1.757"
   id="rect109"
   style="fill:#353f49" />
						<rect
   x="694.04797"
   y="653.27698"
   width="2.1989999"
   height="1.76"
   id="rect111"
   style="fill:#353f49" />
						
							<rect
   x="698.56201"
   y="652.06897"
   transform="matrix(-0.866,0.5001,-0.5001,-0.866,1632.0734,868.5276)"
   width="2.1989999"
   height="1.758"
   id="rect113"
   style="fill:#353f49" />
						
							<rect
   x="701.86499"
   y="648.76398"
   transform="matrix(-0.4997,0.8662,-0.8662,-0.4997,1616.9473,365.333)"
   width="2.201"
   height="1.7589999"
   id="rect115"
   style="fill:#353f49" />
						<rect
   x="703.29602"
   y="644.02802"
   width="1.76"
   height="2.201"
   id="rect117"
   style="fill:#353f49" />
						
							<rect
   x="701.86499"
   y="639.73499"
   transform="matrix(0.4997,0.8662,-0.8662,0.4997,906.6241,-288.4005)"
   width="2.201"
   height="1.76"
   id="rect119"
   style="fill:#353f49" />
						
							<rect
   x="698.56201"
   y="636.43103"
   transform="matrix(0.866,0.5001,-0.5001,0.866,412.45,-264.4656)"
   width="2.1989999"
   height="1.76"
   id="rect121"
   style="fill:#353f49" />
					</g>
				</g>
			</g>
			<path
   d="m 695.147,641.038 c -2.26,0 -4.09,1.83 -4.09,4.09 0,2.26 1.83,4.1 4.09,4.1 2.261,0 4.091,-1.84 4.091,-4.1 0,-2.26 -1.83,-4.09 -4.091,-4.09 z m 0,5.93 c -1.02,0 -1.84,-0.82 -1.84,-1.84 0,-1.01 0.82,-1.84 1.84,-1.84 1.021,0 1.841,0.83 1.841,1.84 0,1.019 -0.82,1.84 -1.841,1.84 z"
   id="path123"
   inkscape:connector-curvature="0"
   style="fill:#f68360" />
		</g>
		<rect
   x="686.854"
   y="624.10797"
   width="16.584"
   height="4.6129999"
   id="rect125"
   style="fill:#ffffff" />
	</g>
	<g
   id="g127">
		<path
   d="m 705.31,621.06 v -9.416 c 0,-2.08 -0.797,-4.162 -2.383,-5.748 -1.586,-1.586 -3.666,-2.379 -5.75,-2.379 h -4.059 c -2.086,0 -4.166,0.793 -5.752,2.379 -1.586,1.586 -2.383,3.668 -2.383,5.748 v 9.416 h 20.327 z"
   id="path129"
   inkscape:connector-curvature="0"
   style="fill:#474f59" />
		<path
   d="m 705.31,624.108 c 0.783,0 1.428,-0.637 1.428,-1.422 v -0.203 c 0,-0.781 -0.645,-1.424 -1.428,-1.424 h -20.326 c -0.781,0 -1.424,0.643 -1.424,1.424 v 0.203 c 0,0.785 0.643,1.422 1.424,1.422 h 20.326 z"
   id="path131"
   inkscape:connector-curvature="0"
   style="fill:#353f49" />
		<path
   d="m 696.571,600.468 c 0.154,0 0.313,0.059 0.43,0.178 0.121,0.117 0.176,0.275 0.176,0.43 v 2.441 h -4.059 v -2.441 c 0,-0.154 0.055,-0.313 0.174,-0.43 0.119,-0.119 0.277,-0.178 0.432,-0.178 h 2.847 z"
   id="path133"
   inkscape:connector-curvature="0"
   style="fill:#353f49" />
		<path
   d="m 695.758,576.037 v 24.431 h -1.22 v -23.707 c 0,0 1.15,-0.724 1.22,-0.724 z"
   id="path135"
   inkscape:connector-curvature="0"
   style="fill:#474f59" />
	</g>
</g>
</svg>