<svg xmlns="http://www.w3.org/2000/svg" xmlns:xlink="http://www.w3.org/1999/xlink" version="1.1" id="Layer_1" x="0" y="0" viewBox="0 0 260 260" xml:space="preserve" enable-background="new 0 0 260 260">
<style>
.s0{
	fill:#FFF;
}
.s1{
	fill:#242E38;oop
}
.s2{
	fill:#EF8261;
}
.s3{
	fill:#CBCAC9;
}
.s4{
	fill:#ADDBE1;
}
.s5{
	fill:#474F5A;
}
.s6{
	fill:#363F49;
}

.wheel {
  transform-origin: 193px 164px;
  -webkit-transform-origin: 50% 50%;
  -webkit-animation: rotate 4s linear normal infinite;
  animation: rotate 4s linear normal infinite;
}

@-webkit-keyframes rotate {
  100% {
    -webkit-transform: rotate(360deg);
  }
}

@keyframes rotate {
  100% {
    transform: rotate(360deg);
  }
}

<!-- SVG content -->


</style>  <circle cx="130" cy="130" r="130" fill="#FFD580"/>
  <path d="M247.2 170c0 0.9-0.3 1.8-1 2.4 -0.7 0.7-1.5 1-2.4 1H96.7c-0.9 0-1.8-0.3-2.4-1 -0.7-0.7-1-1.5-1-2.4v-10.3h154V170z" fill="#FFF"/>
  <path d="M247.2 61.1c0-0.9-0.3-1.7-1-2.4 -0.7-0.7-1.5-1-2.4-1H96.7c-0.9 0-1.8 0.3-2.4 1 -0.7 0.7-1 1.5-1 2.4v98.6h154V61.1z" fill="#242E38"/>
  <rect x="100.9" y="65.4" width="138.6" height="86.6" fill="#FFF"/>
  <polygon points="191.6 193.9 148.8 193.9 151.2 173.4 189.3 173.4 " fill="#F1F1F2"/>
  <path d="M200.2 196.3h-59.9v-1c0-0.4 0.1-0.7 0.4-1 0.3-0.3 0.6-0.4 1-0.4h57.1c0.3 0 0.7 0.1 1 0.4 0.3 0.3 0.4 0.6 0.4 1V196.3z" fill="#FFF"/>
  
  	
  <polygon points="191.6 193.9 189.3 173.4 151.2 173.4 171.1 193.9 " fill="#E5E4E4"/>
  <rect x="105" y="70.7" width="126.9" height="7.2" fill="#EF8261"/>
  <rect x="105" y="138.3" width="126.9" height="2.4" fill="#CBCAC9"/>
  <rect x="105" y="145.2" width="126.9" height="2.4" fill="#CBCAC9"/>
  <rect x="105" y="98.4" width="40.8" height="37" fill="#ADDBE1"/>
  <rect x="148.2" y="98.4" width="40.8" height="37" fill="#ADDBE1"/>
  <rect x="191.1" y="98.4" width="40.8" height="37" fill="#ADDBE1"/>
  <rect x="105" y="80.7" width="126.9" height="14.9" fill="#CBCAC9"/>
  <path d="M35.1 122.9c0-1.6 1.3-2.9 2.9-2.9h47.3c1.6 0 2.9 1.3 2.9 2.9v71.2c0 1.6-1.3 2.9-2.9 2.9H38c-1.6 0-2.9-1.3-2.9-2.9V122.9z" fill="#242E38"/>
  <path d="M58.7 193.8c-0.7 0-1.3-0.6-1.3-1.3v-0.3c0-0.7 0.6-1.3 1.3-1.3h5.8c0.7 0 1.3 0.6 1.3 1.3v0.3c0 0.7-0.6 1.3-1.3 1.3H58.7z" fill="#474F5A"/>
  <path d="M61.7 125.1c-0.7 0-1.3-0.6-1.3-1.3 0-0.7 0.6-1.3 1.3-1.3 0.7 0 1.3 0.6 1.3 1.3C63 124.5 62.4 125.1 61.7 125.1z" fill="#474F5A"/>
  <path d="M61.7 124.4c-0.3 0-0.5-0.2-0.5-0.6 0-0.3 0.2-0.5 0.5-0.5 0.3 0 0.6 0.2 0.6 0.5C62.2 124.1 62 124.4 61.7 124.4z" fill="#FFF"/>
  <rect x="38.1" y="127.6" width="47" height="60.1" fill="#FFF"/>
  <rect x="39.9" y="130.2" width="42.7" height="5.3" fill="#EF8261"/>
  <rect x="39.9" y="179.7" width="42.7" height="1.7" fill="#CBCAC9"/>
  <rect x="39.9" y="150.5" width="42.7" height="27.1" fill="#ADDBE1"/>
  <rect x="39.9" y="137.5" width="42.7" height="10.9" fill="#CBCAC9"/>
  <path d="M83.6 197c-2.1 0-3.8-1.7-3.8-3.8v-46.5c0-2.1 1.7-3.8 3.8-3.8h21.8c2.1 0 3.8 1.7 3.8 3.8v46.5c0 2.1-1.7 3.8-3.8 3.8H83.6z" fill="#242E38"/>
  <path d="M97.8 193.1c0 0.5-0.4 0.9-0.9 0.9h-4.7c-0.5 0-0.9-0.4-0.9-0.9v-0.4c0-0.5 0.4-0.9 0.9-0.9h4.7c0.5 0 0.9 0.4 0.9 0.9V193.1z" fill="#474F5A"/>
  <path d="M95.6 147.1c0 0.6-0.5 1.1-1.1 1.1 -0.6 0-1.1-0.5-1.1-1.1 0-0.6 0.5-1.1 1.1-1.1C95.2 146 95.6 146.5 95.6 147.1z" fill="#474F5A"/>
  <path d="M95.1 147.1c0 0.3-0.2 0.5-0.5 0.5 -0.3 0-0.5-0.2-0.5-0.5 0-0.3 0.2-0.5 0.5-0.5C94.8 146.6 95.1 146.8 95.1 147.1z" fill="#FFF"/>
  <rect x="82" y="151.2" width="25.1" height="37.7" fill="#FFF"/>
  <rect x="83.9" y="153.1" width="21.2" height="3.2" fill="#EF8261"/>
  <rect x="83.9" y="183.5" width="21.2" height="1.1" fill="#CBCAC9"/>
  <rect x="83.9" y="185.8" width="10.6" height="1.1" fill="#CBCAC9"/>
  <rect x="83.9" y="165.6" width="21.2" height="16.7" fill="#ADDBE1"/>
  <rect x="83.9" y="157.6" width="21.2" height="6.7" fill="#CBCAC9"/>
  <path d="M82.2 86.9c0-10.2-8.3-18.4-18.4-18.4 -10.2 0-18.4 8.3-18.4 18.4 0 10.2 8.3 18.4 18.4 18.4C73.9 105.3 82.2 97 82.2 86.9z" fill="#FFF"/>
  <g class="wheel">
  <path d="M71.9 85.8c-0.1-0.7-0.3-1.4-0.6-2 -0.3-0.7-0.7-1.3-1.1-1.9 -0.4-0.6-0.9-1.1-1.5-1.5 -0.6-0.4-1.2-0.8-1.9-1.1 -0.6-0.3-1.3-0.4-2-0.5 -0.4-0.1-0.7-0.1-1.1-0.1 -0.4 0-0.7 0-1.1 0.1 -0.7 0.1-1.4 0.3-2 0.5 -0.7 0.3-1.3 0.7-1.9 1.1 -0.6 0.4-1.1 0.9-1.5 1.5 -0.4 0.6-0.8 1.2-1.1 1.9 -0.3 0.6-0.4 1.3-0.6 2 0 0.4-0.1 0.7-0.1 1.1 0 0.4 0 0.7 0.1 1.1 0.1 0.7 0.3 1.4 0.6 2 0.3 0.7 0.7 1.3 1.1 1.9 0.4 0.6 0.9 1.1 1.5 1.5 0.6 0.5 1.2 0.8 1.9 1.1 0.6 0.3 1.3 0.5 2 0.6 0.4 0.1 0.7 0.1 1.1 0.1 0.4 0 0.7 0 1.1-0.1 0.7-0.1 1.4-0.3 2-0.6 0.7-0.3 1.3-0.6 1.9-1.1 0.6-0.4 1.1-0.9 1.5-1.5 0.4-0.6 0.8-1.2 1.1-1.9 0.3-0.6 0.4-1.3 0.6-2 0-0.4 0.1-0.7 0.1-1.1C72 86.5 72 86.1 71.9 85.8zM63.8 88.7c-1 0-1.8-0.8-1.8-1.8 0-1 0.8-1.8 1.8-1.8 1 0 1.8 0.8 1.8 1.8C65.6 87.9 64.8 88.7 63.8 88.7z" fill="#363F49"/>
  <rect x="62.7" y="76.9" width="2.2" height="1.8" fill="#363F49"/>
  <rect x="58.1" y="78.2" transform="matrix(0.866 -0.5001 0.5001 0.866 -31.5844 40.2119)" width="2.2" height="1.8" fill="#363F49"/>
  <rect x="54.8" y="81.5" transform="matrix(0.5001 -0.866 0.866 0.5001 -43.3452 89.6023)" width="2.2" height="1.8" fill="#363F49"/>
  <rect x="53.8" y="85.8" width="1.8" height="2.2" fill="#363F49"/>
  <rect x="54.8" y="90.5" transform="matrix(-0.4997 -0.8662 0.8662 -0.4997 4.7321 185.4735)" width="2.2" height="1.8" fill="#363F49"/>
  <rect x="58.1" y="93.8" transform="matrix(-0.866 -0.5001 0.5001 -0.866 63.1905 206.2835)" width="2.2" height="1.8" fill="#363F49"/>
  <rect x="62.7" y="95" width="2.2" height="1.8" fill="#363F49"/>
  <rect x="67.2" y="93.8" transform="matrix(-0.866 0.5 -0.5 -0.866 174.7218 142.5278)" width="2.2" height="1.8" fill="#363F49"/>
  <rect x="70.5" y="90.5" transform="matrix(-0.4997 0.8662 -0.8662 -0.4997 186.4739 75.0333)" width="2.2" height="1.8" fill="#363F49"/>
  <rect x="71.9" y="85.8" width="1.8" height="2.2" fill="#363F49"/>
  <rect x="70.5" y="81.5" transform="matrix(0.4997 0.8662 -0.8662 0.4997 107.1321 -20.795)" width="2.2" height="1.8" fill="#363F49"/>
    
  <rect x="67.2" y="78.2" transform="matrix(0.866 0.5 -0.5 0.866 48.6699 -23.544)" width="2.2" height="1.8" fill="#363F49"/>
  </g>
  <path d="M63.8 82.8c-2.3 0-4.1 1.8-4.1 4.1 0 2.3 1.8 4.1 4.1 4.1 2.3 0 4.1-1.8 4.1-4.1C67.8 84.6 66 82.8 63.8 82.8zM63.8 88.7c-1 0-1.8-0.8-1.8-1.8 0-1 0.8-1.8 1.8-1.8 1 0 1.8 0.8 1.8 1.8C65.6 87.9 64.8 88.7 63.8 88.7z" fill="#EF8261"/>
  <rect x="55.5" y="65.8" width="16.6" height="4.6" fill="#FFF"/>
  <path d="M73.9 62.8v-9.4c0-2.1-0.8-4.2-2.4-5.7 -1.6-1.6-3.7-2.4-5.8-2.4h-4.1c-2.1 0-4.2 0.8-5.8 2.4 -1.6 1.6-2.4 3.7-2.4 5.7v9.4H73.9z" fill="#474F5A"/>
  <path d="M73.9 65.8c0.8 0 1.4-0.6 1.4-1.4v-0.2c0-0.8-0.6-1.4-1.4-1.4H53.6c-0.8 0-1.4 0.6-1.4 1.4v0.2c0 0.8 0.6 1.4 1.4 1.4H73.9z" fill="#363F49"/>
  <path d="M65.2 42.2c0.2 0 0.3 0.1 0.4 0.2 0.1 0.1 0.2 0.3 0.2 0.4v2.4h-4.1v-2.4c0-0.2 0.1-0.3 0.2-0.4 0.1-0.1 0.3-0.2 0.4-0.2H65.2z" fill="#363F49"/>
  <path d="M64.4 17.8v24.4h-1.2V18.5C63.1 18.5 64.3 17.8 64.4 17.8z" fill="#474F5A"/>

</svg>
