<svg id="Layer_1" xmlns="http://www.w3.org/2000/svg" viewBox="0 0 260 260" width="260" height="260">
    <style>
        .blink-1{-webkit-animation:blink-1 3s linear normal infinite;animation:blink-1 5s linear normal infinite}@-webkit-keyframes blink-1{0%,19%{opacity:1}20%,49%{opacity:0}50%,69%{opacity:1}70%,99%{opacity:0}}.blink-2{-webkit-animation:blink-2 5s linear normal infinite;animation:blink-2 5s linear normal infinite;opacity:0}@-webkit-keyframes blink-2{0%,39%{opacity:0}40%,69%{opacity:1}70%,89%{opacity:0}90%,99%{opacity:1}}.blink-3{-webkit-animation:blink-3 5s linear normal infinite;animation:blink-3 5s linear normal infinite;opacity:0}@-webkit-keyframes blink-3{0%,10%{opacity:0}11%,23%{opacity:1}24%,60%{opacity:0}61%,73%{opacity:1}74%{opacity:0}}.blink-4{-webkit-animation:blink-4 5s linear normal infinite;animation:blink-4 5s linear normal infinite;opacity:0}@-webkit-keyframes blink-4{0%,20%{opacity:0}21%,35%{opacity:1}36%,69%{opacity:0}70%,83%{opacity:1}84%{opacity:0}}
    </style>
    <circle cx="130" cy="130" r="130" fill="#ef8261"/>
    <path fill="#FFF" d="M126.2 196.1h15v22h-15z"/>
    <path fill="#d9d9d8" d="M129.2 208.1h9v7h-9zm0-9h1.5v4h-1.5zm7.5 0h1.5v4h-1.5zm-3.7 4h1.5v2H133z"/>
    <path fill="#cbcac9" d="M132.7 215.1h2v3h-2z"/>
    <path d="M126.3 238c-3.2 2.2-7 3.5-11.2 3.5-8.6 0-16-5.6-18.6-13.4.9.4 1.8.8 2.6 1.2 2.8 6 8.9 10.2 16 10.2 3 0 5.9-.8 8.4-2.1.9.2 1.9.4 2.8.6z" fill="#d9d9d8"/>
    <path d="M99.1 229.4c-.9-.4-1.8-.8-2.6-1.2-.7-2-1-4.1-1-6.2v-30.5h2V222c-.1 2.6.5 5.1 1.6 7.4zm35.6-11.3v3.9c0 6.7-3.3 12.6-8.4 16.1-.9-.2-1.9-.4-2.8-.6 5.5-3 9.2-8.8 9.2-15.5v-3.9h2z" fill="#FFF"/>
    <path d="M56.1 192.2h128.7c6.5 0 11.7-5.3 11.7-11.7V93.3H56.1v98.9z" fill="#FFF"/>
    <path d="M196.6 81.6c0-6.5-5.2-11.7-11.7-11.7v98.8c6.5 0 11.7 5.2 11.7 11.7V81.6z" fill="#242d3d"/>
    <path fill="#40b9c3" d="M81.1 169.6h21.1v10.9H81.1z"/>
    <path d="M106.7 169.6h52.4v1.5h-52.4zm0 4.7h52.4v1.5h-52.4zm0 4.7h26.2v1.5h-26.2z" fill="#242d3d"/>
    <path fill="#40b9c3" d="M129.8 126.1h7.5v16.3h-7.5z"/>
    <path d="M104.9 125.2c-5 0-9.1 4.1-9.1 9.1s4.1 9.1 9.1 9.1 9.1-4.1 9.1-9.1-4.1-9.1-9.1-9.1z" fill="#e95529"/>
    <g fill="#242d3d">
        <path d="M138.1 143.1h-9v-17.8h9v17.8zm-7.5-1.5h6v-14.8h-6v14.8zm29.3 5.9h-9v-9h9v9zm-7.5-1.5h6v-6h-6v6zm7.5-16h-9v-9h9v9zm-7.5-1.5h6v-6h-6v6zm-23.7 35h-9v-9h9v9zm-7.5-1.5h6v-6h-6v6zm-5.3 1.5h-9v-9h9v9zm-7.5-1.5h6v-6h-6v6zm-5.4 1.5h-9v-9h9v9zm-7.5-1.5h6v-6h-6v6zm-5.4 1.5h-9v-9h9v9zm-7.5-1.5h6v-6h-6v6zm46.1-48h-9v-9h9v9zm-7.5-1.5h6v-6h-6v6zm-5.3 1.5h-9v-9h9v9zm-7.5-1.5h6v-6h-6v6zM103 114h-9v-9h9v9zm-7.5-1.5h6v-6h-6v6zm-5.4 1.5h-9v-9h9v9zm-7.5-1.5h6v-6h-6v6zm22.3 31.6c-5.4 0-9.8-4.4-9.8-9.8s4.4-9.8 9.8-9.8 9.8 4.4 9.8 9.8-4.4 9.8-9.8 9.8zm0-18.2c-4.6 0-8.3 3.7-8.3 8.3 0 4.6 3.7 8.3 8.3 8.3 4.6 0 8.3-3.7 8.3-8.3 0-4.5-3.7-8.3-8.3-8.3z"/>
        <path d="M97.7 113.3h1.5v6h-1.5zm12.9 0h1.5v6h-1.5zm-6.4 5.9h1.5v6h-1.5z"/>
        <path d="M125 120H84.9v-6.7h1.5v5.2h37.1v-5.2h1.5zm-14.4 29.3h1.5v6h-1.5zm-12.9 0h1.5v6h-1.5zm6.5-6h1.5v6h-1.5z"/>
        <path d="M125 155.2h-1.5V150H86.4v5.2h-1.5v-6.7H125zm-11-21.7h15.8v1.5H114zm37.6 10.3h-7.9v-19h7.9v1.4h-6.4v16.1h6.4z"/>
        <path d="M137.3 133.5h7.1v1.5h-7.1z"/>
    </g>
    <path class="blink-1" fill="#e95529" d="M82.6 106.5h6.1v6.1h-6.1z"/>
    <path class="blink-2" fill="#40b9c3" d="M95.4 106.5h6.1v6.1h-6.1z"/>
    <path class="blink-3" fill="#ffd85c" d="M108.3 106.5h6.1v6.1h-6.1z"/>
    <path class="blink-4" fill="#3f4a5a" d="M121.2 106.5h6.1v6.1h-6.1z"/>
    <path fill="#fcc841" d="M166.6 80h6.1v82.9h-6.1z"/>
    <path fill="#FFF" d="M166.6 80l3.1-10.1 3 10.1z"/>
    <path fill="#242d3d" d="M171.2 75l-1.5-5.1-1.6 5.1z"/>
    <path fill="#d9d9d8" d="M166.6 162.9h6.1v6.1h-6.1z"/>
    <path d="M169.7 175c.8 0 1.6-.3 2.2-.9.6-.6.9-1.4.9-2.1v-3h-6.1v3c0 .8.3 1.6.9 2.1.5.7 1.3.9 2.1.9z" fill="#e95529"/>
    <path d="M84.3 98c0 15.5-12.6 28.1-28.1 28.1C40.6 126.2 28 113.6 28 98c0-15.5 12.6-28.1 28.1-28.1 15.6 0 28.2 12.6 28.2 28.1z" fill="#ffd85c"/>
    <path d="M56.1 120.2c-6.2 0-12.2-2.7-16.4-7.3-.4-.5-.4-1.2.1-1.7.5-.4 1.2-.4 1.7.1 3.8 4.2 9.1 6.5 14.7 6.5 10.9 0 19.8-8.9 19.8-19.8 0-.7.5-1.2 1.2-1.2s1.2.5 1.2 1.2c-.1 12.3-10 22.2-22.3 22.2zm-20.9-21c-.7 0-1.2-.5-1.2-1.2 0-12.2 9.9-22.2 22.2-22.2.7 0 1.2.5 1.2 1.2s-.5 1.2-1.2 1.2c-10.9 0-19.8 8.9-19.8 19.8 0 .7-.6 1.2-1.2 1.2z" fill="#fcc841"/>
    <path fill="#fab937" d="M43.5 123.1h25.3v9.3H43.5z"/>
    <path fill="#3f4a5a" d="M42.1 132.3h28.1v17.5H42.1z"/>
    <path fill="#242d3d" d="M40.6 134.3h31v1.9h-31zm0 3.9h31v2h-31zm0 3.9h31v1.9h-31zm0 3.9h31v2h-31z"/>
    <path fill="#cbcac9" d="M48.2 149.9H64v7H48.2z"/>
    <path d="M51.4 100.3h1.2v32.1h-1.2zm8.3 0h1.2v32.1h-1.2zM46 99.1h20.3v1.2H46z" fill="#FFF"/>
</svg>
