<?xml version="1.0" encoding="UTF-8" standalone="no"?>
<!-- Generator: Adobe Illustrator 16.0.5, SVG Export Plug-In . SVG Version: 6.00 Build 0)  -->

<svg
   xmlns:dc="http://purl.org/dc/elements/1.1/"
   xmlns:cc="http://creativecommons.org/ns#"
   xmlns:rdf="http://www.w3.org/1999/02/22-rdf-syntax-ns#"
   xmlns:svg="http://www.w3.org/2000/svg"
   xmlns="http://www.w3.org/2000/svg"
   xmlns:sodipodi="http://sodipodi.sourceforge.net/DTD/sodipodi-0.dtd"
   xmlns:inkscape="http://www.inkscape.org/namespaces/inkscape"
   version="1.1"
   id="Layer_1"
   x="0px"
   y="0px"
   width="260"
   height="260"
   viewBox="0 0 260 260"
   enable-background="new 0 0 1000 1000"
   xml:space="preserve"
   inkscape:version="0.48.5 r10040"
   sodipodi:docname="UI_Patterns.svg"><metadata
   id="metadata151"><rdf:RDF><cc:Work
       rdf:about=""><dc:format>image/svg+xml</dc:format><dc:type
         rdf:resource="http://purl.org/dc/dcmitype/StillImage" /></cc:Work></rdf:RDF></metadata><defs
   id="defs149" /><sodipodi:namedview
   pagecolor="#ffffff"
   bordercolor="#666666"
   borderopacity="1"
   objecttolerance="10"
   gridtolerance="10"
   guidetolerance="10"
   inkscape:pageopacity="0"
   inkscape:pageshadow="2"
   inkscape:window-width="640"
   inkscape:window-height="480"
   id="namedview147"
   showgrid="false"
   inkscape:zoom="0.236"
   inkscape:cx="-6.3559322"
   inkscape:cy="500"
   inkscape:window-x="0"
   inkscape:window-y="0"
   inkscape:window-maximized="0"
   inkscape:current-layer="Layer_1" />
<circle
   cx="293.789"
   cy="691.24597"
   r="130"
   id="circle3"
   sodipodi:cx="293.789"
   sodipodi:cy="691.24597"
   sodipodi:rx="130"
   sodipodi:ry="130"
   style="fill:#f68360"
   transform="translate(-163.789,-561.24597)" />
<g
   id="g5"
   transform="translate(-163.789,-561.24597)">
	<rect
   x="290.01599"
   y="757.315"
   width="15"
   height="22"
   id="rect7"
   style="fill:#ffffff" />
	<rect
   x="293.01599"
   y="769.315"
   width="9"
   height="7"
   id="rect9"
   style="fill:#d9d8d7" />
	<g
   id="g11">
		<rect
   x="293.01599"
   y="760.315"
   width="1.5"
   height="4"
   id="rect13"
   style="fill:#d9d8d7" />
		<rect
   x="300.51599"
   y="760.315"
   width="1.5"
   height="4"
   id="rect15"
   style="fill:#d9d8d7" />
		<rect
   x="296.76599"
   y="764.315"
   width="1.5"
   height="2"
   id="rect17"
   style="fill:#d9d8d7" />
	</g>
	<rect
   x="296.51599"
   y="776.315"
   width="2"
   height="3"
   id="rect19"
   style="fill:#cccbca" />
</g>
<path
   d="m 132.727,218.06903 v 3.859 c 0,6.689 -3.739,12.52 -9.239,15.51 -2.5,1.361 -5.36,2.131 -8.4,2.131 -7.07,0 -13.17,-4.17 -15.989996,-10.191 -1.06,-2.26 -1.649,-4.789 -1.649,-7.449 v -30.51 h -2 v 30.51 c 0,2.18 0.359,4.279 1.02,6.23 2.601,7.789 9.970996,13.41 18.619996,13.41 4.16,0 8.03,-1.301 11.21,-3.531 5.09,-3.539 8.43,-9.439 8.43,-16.109 v -3.859 h -2.002 z"
   id="path21"
   inkscape:connector-curvature="0"
   style="fill:#ffffff" />
<g
   id="g23"
   transform="translate(-163.789,-561.24597)">
	<g
   id="g25">
		<path
   d="m 219.929,753.408 h 128.705 c 6.471,0 11.718,-5.252 11.718,-11.717 V 654.587 H 219.929 v 98.821 z"
   id="path27"
   inkscape:connector-curvature="0"
   style="fill:#ffffff" />
		<path
   d="m 360.352,642.869 c 0,-6.463 -5.247,-11.717 -11.718,-11.717 v 98.82 c 6.471,0 11.718,5.25 11.718,11.719 v -98.822 z"
   id="path29"
   inkscape:connector-curvature="0"
   style="fill:#242d3c" />
	</g>
	<g
   id="g31">
		<g
   id="g33">
			<rect
   x="244.916"
   y="730.867"
   width="21.083"
   height="10.859"
   id="rect35"
   style="fill:#16c6cc" />
			<g
   id="g37">
				<rect
   x="270.46899"
   y="730.867"
   width="52.429001"
   height="1.5"
   id="rect39"
   style="fill:#242d3c" />
				<rect
   x="270.46899"
   y="735.54303"
   width="52.429001"
   height="1.5"
   id="rect41"
   style="fill:#242d3c" />
				<rect
   x="270.46899"
   y="740.22699"
   width="26.216"
   height="1.5"
   id="rect43"
   style="fill:#242d3c" />
			</g>
		</g>
		<rect
   x="293.634"
   y="687.37097"
   width="7.5"
   height="16.257999"
   id="rect45"
   style="fill:#16c6cc" />
		<path
   d="m 268.722,686.436 c -5.001,0 -9.065,4.064 -9.065,9.064 0,4.998 4.064,9.064 9.065,9.064 4.996,0 9.064,-4.066 9.064,-9.064 0,-5 -4.068,-9.064 -9.064,-9.064 z"
   id="path47"
   inkscape:connector-curvature="0"
   style="fill:#f15424" />
		<g
   id="g49">
			<path
   d="m 301.884,704.379 h -9 v -17.758 h 9 v 17.758 z m -7.5,-1.5 h 6 v -14.758 h -6 v 14.758 z"
   id="path51"
   inkscape:connector-curvature="0"
   style="fill:#242d3c" />
			<path
   d="m 323.647,708.756 h -9.004 v -9.002 h 9.004 v 9.002 z m -7.503,-1.5 h 6.004 v -6.002 h -6.004 v 6.002 z"
   id="path53"
   inkscape:connector-curvature="0"
   style="fill:#242d3c" />
			<path
   d="m 323.647,691.246 h -9.004 v -9.002 h 9.004 v 9.002 z m -7.503,-1.5 h 6.004 v -6.002 h -6.004 v 6.002 z"
   id="path55"
   inkscape:connector-curvature="0"
   style="fill:#242d3c" />
			<g
   id="g57">
				<path
   d="m 292.521,724.73 h -9.005 v -9.004 h 9.005 v 9.004 z m -7.505,-1.5 h 6.005 v -6.004 h -6.005 v 6.004 z"
   id="path59"
   inkscape:connector-curvature="0"
   style="fill:#242d3c" />
				<path
   d="m 279.654,724.73 h -9.006 v -9.004 h 9.006 v 9.004 z m -7.506,-1.5 h 6.006 v -6.004 h -6.006 v 6.004 z"
   id="path61"
   inkscape:connector-curvature="0"
   style="fill:#242d3c" />
				<path
   d="m 266.787,724.73 h -9.004 v -9.004 h 9.004 v 9.004 z m -7.504,-1.5 h 6.004 v -6.004 h -6.004 v 6.004 z"
   id="path63"
   inkscape:connector-curvature="0"
   style="fill:#242d3c" />
				<path
   d="m 253.922,724.73 h -9.006 v -9.004 h 9.006 v 9.004 z m -7.506,-1.5 h 6.006 v -6.004 h -6.006 v 6.004 z"
   id="path65"
   inkscape:connector-curvature="0"
   style="fill:#242d3c" />
			</g>
			<g
   id="g67">
				<path
   d="m 292.521,675.271 h -9.005 v -9.004 h 9.005 v 9.004 z m -7.505,-1.5 h 6.005 v -6.004 h -6.005 v 6.004 z"
   id="path69"
   inkscape:connector-curvature="0"
   style="fill:#242d3c" />
				<path
   d="m 279.654,675.271 h -9.006 v -9.004 h 9.006 v 9.004 z m -7.506,-1.5 h 6.006 v -6.004 h -6.006 v 6.004 z"
   id="path71"
   inkscape:connector-curvature="0"
   style="fill:#242d3c" />
				<path
   d="m 266.787,675.271 h -9.004 v -9.004 h 9.004 v 9.004 z m -7.504,-1.5 h 6.004 v -6.004 h -6.004 v 6.004 z"
   id="path73"
   inkscape:connector-curvature="0"
   style="fill:#242d3c" />
				<path
   d="m 253.922,675.271 h -9.006 v -9.004 h 9.006 v 9.004 z m -7.506,-1.5 h 6.006 v -6.004 h -6.006 v 6.004 z"
   id="path75"
   inkscape:connector-curvature="0"
   style="fill:#242d3c" />
			</g>
			<path
   d="m 268.722,705.314 c -5.412,0 -9.815,-4.402 -9.815,-9.814 0,-5.412 4.403,-9.814 9.815,-9.814 5.411,0 9.814,4.402 9.814,9.814 0,5.412 -4.403,9.814 -9.814,9.814 z m 0,-18.128 c -4.585,0 -8.315,3.729 -8.315,8.314 0,4.585 3.73,8.314 8.315,8.314 4.585,0 8.314,-3.729 8.314,-8.314 0,-4.585 -3.729,-8.314 -8.314,-8.314 z"
   id="path77"
   inkscape:connector-curvature="0"
   style="fill:#242d3c" />
			<g
   id="g79">
				<rect
   x="261.53601"
   y="674.52502"
   width="1.5"
   height="5.9530001"
   id="rect81"
   style="fill:#242d3c" />
				<rect
   x="274.40201"
   y="674.52502"
   width="1.5"
   height="5.9530001"
   id="rect83"
   style="fill:#242d3c" />
				<rect
   x="267.97101"
   y="680.479"
   width="1.5"
   height="5.9569998"
   id="rect85"
   style="fill:#242d3c" />
				<polygon
   points="248.67,681.229 248.669,674.525 250.169,674.525 250.17,679.729 287.269,679.729 287.269,674.525 288.769,674.525 288.769,681.229 "
   id="polygon87"
   style="fill:#242d3c" />
			</g>
			<g
   id="g89">
				<rect
   x="274.40302"
   y="710.52002"
   width="1.5"
   height="5.9549999"
   id="rect91"
   style="fill:#242d3c" />
				<rect
   x="261.53699"
   y="710.52002"
   width="1.5"
   height="5.9549999"
   id="rect93"
   style="fill:#242d3c" />
				<rect
   x="267.96799"
   y="704.56403"
   width="1.5"
   height="5.9549999"
   id="rect95"
   style="fill:#242d3c" />
				<polygon
   points="287.269,716.475 287.269,711.27 250.17,711.27 250.17,716.475 248.67,716.475 248.67,709.77 288.769,709.77 288.769,716.475 "
   id="polygon97"
   style="fill:#242d3c" />
			</g>
			<rect
   x="277.78601"
   y="694.75"
   width="15.848"
   height="1.5"
   id="rect99"
   style="fill:#242d3c" />
			<polygon
   points="307.515,705.004 307.515,685.996 315.394,685.996 315.394,687.496 309.015,687.496 309.015,703.504 315.394,703.504 315.394,705.004 "
   id="polygon101"
   style="fill:#242d3c" />
			<rect
   x="301.134"
   y="694.75"
   width="7.131"
   height="1.5"
   id="rect103"
   style="fill:#242d3c" />
		</g>
	</g>
</g>
<g
   id="g105"
   transform="translate(-163.789,-561.24597)">
	<rect
   x="330.41299"
   y="641.25201"
   width="6.0630002"
   height="82.916"
   id="rect107"
   style="fill:#ffca40" />
	<polygon
   points="330.413,641.252 333.442,631.152 336.476,641.252 "
   id="polygon109"
   style="fill:#ffffff" />
	<polygon
   points="334.958,636.201 333.442,631.152 331.931,636.201 "
   id="polygon111"
   style="fill:#242d3c" />
	<rect
   x="330.41299"
   y="724.16803"
   width="6.0630002"
   height="6.0630002"
   id="rect113"
   style="fill:#d9d8d7" />
	<path
   d="m 333.442,736.293 c 0.783,0 1.557,-0.293 2.15,-0.887 0.592,-0.592 0.883,-1.367 0.883,-2.148 v -3.027 h -6.063 v 3.027 c 0,0.781 0.291,1.557 0.883,2.148 0.597,0.594 1.37,0.887 2.147,0.887 l 0,0 z"
   id="path115"
   inkscape:connector-curvature="0"
   style="fill:#f15424" />
</g>
<g
   id="g117"
   transform="translate(-163.789,-561.24597)">
	<path
   d="m 248.051,659.277 c 0,15.537 -12.59,28.126 -28.127,28.126 -15.533,0 -28.119,-12.589 -28.119,-28.126 0,-15.528 12.586,-28.125 28.119,-28.125 15.537,0 28.127,12.597 28.127,28.125 z"
   id="path119"
   inkscape:connector-curvature="0"
   style="fill:#ffd85c" />
	<path
   d="m 219.926,681.438 c -6.24,0 -12.229,-2.674 -16.436,-7.33 -0.44,-0.491 -0.404,-1.243 0.088,-1.686 0.487,-0.44 1.242,-0.404 1.684,0.087 3.754,4.159 9.102,6.545 14.664,6.545 10.904,0 19.776,-8.871 19.776,-19.776 0,-0.656 0.533,-1.193 1.19,-1.193 0.66,0 1.193,0.537 1.193,1.193 0.001,12.219 -9.941,22.16 -22.159,22.16 z"
   id="path121"
   inkscape:connector-curvature="0"
   style="fill:#ffca40" />
	<path
   d="m 198.961,660.471 c -0.658,0 -1.193,-0.532 -1.193,-1.193 0,-12.216 9.939,-22.159 22.156,-22.159 0.66,0 1.193,0.533 1.193,1.193 0,0.658 -0.533,1.194 -1.193,1.194 -10.902,0 -19.771,8.868 -19.771,19.771 0,0.661 -0.536,1.194 -1.192,1.194 z"
   id="path123"
   inkscape:connector-curvature="0"
   style="fill:#ffca40" />
	<rect
   x="207.271"
   y="684.31299"
   width="25.302999"
   height="9.2770004"
   id="rect125"
   style="fill:#ffbb33" />
	<rect
   x="205.869"
   y="693.591"
   width="28.111"
   height="17.549"
   id="rect127"
   style="fill:#3e4959" />
	<rect
   x="204.41299"
   y="695.54102"
   width="31.021"
   height="1.948"
   id="rect129"
   style="fill:#242d3c" />
	<rect
   x="204.41299"
   y="699.43799"
   width="31.021"
   height="1.95"
   id="rect131"
   style="fill:#242d3c" />
	<rect
   x="204.41299"
   y="703.33899"
   width="31.021"
   height="1.949"
   id="rect133"
   style="fill:#242d3c" />
	<rect
   x="204.41299"
   y="707.23602"
   width="31.021"
   height="1.951"
   id="rect135"
   style="fill:#242d3c" />
	<rect
   x="212.00999"
   y="711.14001"
   width="15.833"
   height="7.0120001"
   id="rect137"
   style="fill:#cccbca" />
	<g
   id="g139">
		<rect
   x="215.17799"
   y="661.521"
   width="1.1950001"
   height="32.069"
   id="rect141"
   style="fill:#ffffff" />
		<rect
   x="223.48199"
   y="661.521"
   width="1.193"
   height="32.069"
   id="rect143"
   style="fill:#ffffff" />
	</g>
	<rect
   x="209.786"
   y="660.32703"
   width="20.280001"
   height="1.194"
   id="rect145"
   style="fill:#ffffff" />
</g>
</svg>