<?xml version="1.0" encoding="utf-8"?>
<!-- Generator: Adobe Illustrator 16.0.5, SVG Export Plug-In . SVG Version: 6.00 Build 0)  -->
<!DOCTYPE svg PUBLIC "-//W3C//DTD SVG 1.1//EN" "http://www.w3.org/Graphics/SVG/1.1/DTD/svg11.dtd">
<svg version="1.1" id="Layer_1" xmlns="http://www.w3.org/2000/svg" xmlns:xlink="http://www.w3.org/1999/xlink" x="0px" y="0px"
	 width="658px" height="461px" viewBox="0 0 658 461" enable-background="new 0 0 658 461" xml:space="preserve">
<g>
	<rect x="-1552" y="320" fill="#E6E6E6" width="566" height="198"/>
	<g>
		<circle fill="#FFFFFF" cx="-1295.5" cy="502.5" r="4.5"/>
		<circle fill="#FFFFFF" cx="-1282.25" cy="502.5" r="4.5"/>
		<circle fill="#FFFFFF" cx="-1255.75" cy="502.5" r="4.5"/>
		<circle fill="#0BC3D6" cx="-1269.5" cy="502.5" r="4.5"/>
		<circle fill="#FFFFFF" cx="-1242.5" cy="502.5" r="4.5"/>
	</g>
	<g>
		<polygon fill="#F7F7F7" points="-1484,486.926 -1064,486.926 -1096.002,383.014 -1129.186,409.361 -1168.344,351.785 
			-1354.865,448.818 -1427.582,425.619 		"/>
		<g>
			<path fill="#F7F7F7" d="M-1360.588,396.867c12.646,0,22.896-10.248,22.896-22.893c0-12.65-10.25-22.9-22.896-22.9
				c-12.647,0-22.9,10.25-22.9,22.9C-1383.489,386.619-1373.236,396.867-1360.588,396.867z"/>
		</g>
	</g>
</g>
<rect x="-946" y="254" fill="#E6E6E6" width="566" height="23"/>
<rect x="-1552" y="960" fill="#FCFCFC" width="172" height="106"/>
<text transform="matrix(1 0 0 1 -1552.0005 117.4258)" fill="#757575" font-family="'OstrichSans-Medium'" font-size="62.5424">Wireframe/Blueprint KIT</text>
<rect x="-1552" y="256" fill="#E6E6E6" width="95" height="6"/>
<rect x="-937" y="263" fill="#FFFFFF" width="82" height="6"/>
<rect x="-844" y="263" fill="#FFFFFF" width="82" height="6"/>
<rect x="-751" y="263" fill="#FFFFFF" width="82" height="6"/>
<rect x="-657" y="263" fill="#FFFFFF" width="82" height="6"/>
<rect x="-564" y="263" fill="#FFFFFF" width="82" height="6"/>
<rect x="-471" y="263" fill="#FFFFFF" width="82" height="6"/>
<rect x="-1434" y="256" fill="#E6E6E6" width="95" height="6"/>
<rect x="-1317" y="256" fill="#E6E6E6" width="95" height="6"/>
<rect x="-1199" y="256" fill="#0BC3D6" width="95" height="6"/>
<rect x="-1081" y="256" fill="#E6E6E6" width="95" height="6"/>
<circle fill="#0BC3D6" cx="-1482.75" cy="203.213" r="18.213"/>
<rect x="-1222" y="285" fill="#F7F7F7" width="140" height="14"/>
<rect x="-1222" y="270" fill="#F7F7F7" width="140" height="14"/>
<rect x="-1552" y="635" fill="#E6E6E6" width="270" height="3"/>
<rect x="-1022" y="189" fill="#E6E6E6" width="34" height="3"/>
<rect x="-1060" y="189" fill="#E6E6E6" width="34" height="3"/>
<rect x="-1098" y="189" fill="#E6E6E6" width="34" height="3"/>
<rect x="-1541" y="996" fill="#E6E6E6" width="150" height="3"/>
<rect x="-1541" y="1004" fill="#E6E6E6" width="150" height="3"/>
<rect x="-1541" y="1012" fill="#E6E6E6" width="150" height="3"/>
<rect x="-1541" y="1020" fill="#E6E6E6" width="78" height="3"/>
<rect x="-1552" y="643" fill="#E6E6E6" width="270" height="3"/>
<rect x="-1552" y="652" fill="#E6E6E6" width="270" height="3"/>
<rect x="-1552" y="660" fill="#E6E6E6" width="270" height="3"/>
<rect x="-1552" y="669" fill="#E6E6E6" width="270" height="3"/>
<rect x="-1552" y="677" fill="#E6E6E6" width="270" height="3"/>
<rect x="-1552" y="686" fill="#E6E6E6" width="270" height="3"/>
<rect x="-1552" y="694" fill="#E6E6E6" width="93" height="3"/>
<rect x="-1552" y="618" fill="#E6E6E6" width="38" height="11"/>
<rect x="-1518" y="878" fill="#E6E6E6" width="496" height="3"/>
<rect x="-1554" y="886" fill="#E6E6E6" width="568" height="3"/>
<rect x="-1534" y="894" fill="#E6E6E6" width="528" height="3"/>
<rect x="-1449" y="902" fill="#E6E6E6" width="358" height="3"/>
<rect x="-1338" y="861" fill="#E6E6E6" width="136" height="11"/>
<rect x="-1554" y="793" fill="#E6E6E6" width="568" height="3"/>
<rect x="-1554" y="801" fill="#E6E6E6" width="568" height="3"/>
<rect x="-1554" y="809" fill="#E6E6E6" width="568" height="3"/>
<rect x="-1554" y="818" fill="#E6E6E6" width="358" height="3"/>
<rect x="-1554" y="776" fill="#E6E6E6" width="136" height="11"/>
<rect x="-1415" y="776" fill="#E6E6E6" width="146" height="11"/>
<rect x="-946" y="956" fill="#E6E6E6" width="72" height="11"/>
<rect x="-871" y="956" fill="#E6E6E6" width="48" height="11"/>
<rect x="-1511" y="618" fill="#E6E6E6" width="79" height="11"/>
<rect x="-946" y="1046" fill="#E6E6E6" width="369" height="3"/>
<rect x="-946" y="1054" fill="#E6E6E6" width="369" height="3"/>
<rect x="-946" y="1063" fill="#E6E6E6" width="369" height="3"/>
<rect x="-946" y="1071" fill="#E6E6E6" width="369" height="3"/>
<rect x="-946" y="1080" fill="#E6E6E6" width="369" height="3"/>
<rect x="-946" y="1088" fill="#E6E6E6" width="369" height="3"/>
<rect x="-946" y="1097" fill="#E6E6E6" width="369" height="3"/>
<rect x="-946" y="1105" fill="#E6E6E6" width="204" height="3"/>
<rect x="-946" y="1029" fill="#E6E6E6" width="141" height="11"/>
<rect x="-802" y="1029" fill="#E6E6E6" width="79" height="11"/>
<g>
	<rect x="-1187" y="635" fill="#F7F7F7" width="201" height="3"/>
	<rect x="-1187" y="643" fill="#F7F7F7" width="120" height="3"/>
	<rect x="-1187" y="660" fill="#E6E6E6" width="201" height="3"/>
	<rect x="-1187" y="669" fill="#E6E6E6" width="201" height="3"/>
	<rect x="-1187" y="677" fill="#E6E6E6" width="201" height="3"/>
	<rect x="-1187" y="686" fill="#E6E6E6" width="201" height="3"/>
	<rect x="-1187" y="694" fill="#E6E6E6" width="64" height="3"/>
	<rect x="-1187" y="618" fill="#E6E6E6" width="81" height="11"/>
	<rect x="-1103" y="618" fill="#E6E6E6" width="59" height="11"/>
</g>
<g>
	<rect x="-630" y="328" fill="#F7F7F7" width="250" height="3"/>
	<rect x="-630" y="336" fill="#F7F7F7" width="120" height="3"/>
	<rect x="-630" y="353" fill="#E6E6E6" width="250" height="3"/>
	<rect x="-630" y="362" fill="#E6E6E6" width="250" height="3"/>
	<rect x="-630" y="370" fill="#E6E6E6" width="250" height="3"/>
	<rect x="-630" y="379" fill="#E6E6E6" width="250" height="3"/>
	<rect x="-630" y="387" fill="#E6E6E6" width="64" height="3"/>
	<rect x="-630" y="311" fill="#E6E6E6" width="81" height="11"/>
	<rect x="-546" y="311" fill="#E6E6E6" width="59" height="11"/>
</g>
<path fill="#0BC3D6" d="M-1485,722.761c0,2.894-2.345,5.239-5.238,5.239h-56.523c-2.893,0-5.238-2.346-5.238-5.239v-0.521
	c0-2.894,2.345-5.239,5.238-5.239h56.523c2.893,0,5.238,2.346,5.238,5.239V722.761z"/>
<path fill="#0BC3D6" d="M-1192,564c0,6.627-5.373,12-12,12h-130c-6.627,0-12-5.373-12-12v-1c0-6.627,5.373-12,12-12h130
	c6.627,0,12,5.373,12,12V564z"/>
<g>
	<defs>
		<path id="SVGID_1_" d="M-1467,1042.233c0,3.185-2.582,5.767-5.766,5.767h-62.468c-3.185,0-5.766-2.582-5.766-5.767v-0.467
			c0-3.185,2.582-5.767,5.766-5.767h62.468c3.185,0,5.766,2.582,5.766,5.767V1042.233z"/>
	</defs>
	<clipPath id="SVGID_2_">
		<use xlink:href="#SVGID_1_"  overflow="visible"/>
	</clipPath>
	<g clip-path="url(#SVGID_2_)">
		
			<line fill="none" stroke="#0BC3D6" stroke-width="2" stroke-miterlimit="10" x1="-1501.667" y1="1012" x2="-1452.499" y2="1061.167"/>
		
			<line fill="none" stroke="#0BC3D6" stroke-width="2" stroke-miterlimit="10" x1="-1535.667" y1="1021" x2="-1486.499" y2="1070.167"/>
		
			<line fill="none" stroke="#0BC3D6" stroke-width="2" stroke-miterlimit="10" x1="-1518.667" y1="1016" x2="-1469.499" y2="1065.167"/>
		
			<line fill="none" stroke="#0BC3D6" stroke-width="2" stroke-miterlimit="10" x1="-1552.667" y1="1025" x2="-1503.499" y2="1074.167"/>
		
			<line fill="none" stroke="#0BC3D6" stroke-width="2" stroke-miterlimit="10" x1="-1510.667" y1="1014" x2="-1461.499" y2="1063.167"/>
		
			<line fill="none" stroke="#0BC3D6" stroke-width="2" stroke-miterlimit="10" x1="-1544.667" y1="1023" x2="-1495.499" y2="1072.167"/>
		
			<line fill="none" stroke="#0BC3D6" stroke-width="2" stroke-miterlimit="10" x1="-1527.667" y1="1018" x2="-1478.499" y2="1067.167"/>
		
			<line fill="none" stroke="#0BC3D6" stroke-width="2" stroke-miterlimit="10" x1="-1561.667" y1="1027" x2="-1512.499" y2="1076.167"/>
	</g>
	<use xlink:href="#SVGID_1_"  overflow="visible" fill="none" stroke="#0BC3D6" stroke-width="2" stroke-miterlimit="10"/>
</g>
<path fill="#0BC3D6" d="M-1411,722.761c0,2.894-2.345,5.239-5.238,5.239h-56.523c-2.893,0-5.238-2.346-5.238-5.239v-0.521
	c0-2.894,2.345-5.239,5.238-5.239h56.523c2.893,0,5.238,2.346,5.238,5.239V722.761z"/>
<g>
	<rect x="-946" y="874" fill="#E6E6E6" width="172" height="76"/>
	<g>
		<polygon fill="#F7F7F7" points="-934.153,942.535 -785.847,942.535 -797.147,905.843 -808.865,915.146 -822.692,894.815 
			-888.554,929.079 -914.231,920.887 		"/>
		<g>
			<circle fill="#F7F7F7" cx="-890.575" cy="902.649" r="8.085"/>
		</g>
	</g>
</g>
<g>
	<rect x="-749" y="874" fill="#E6E6E6" width="172" height="76"/>
	<g>
		<polygon fill="#F7F7F7" points="-737.153,942.535 -588.847,942.535 -600.146,905.843 -611.865,915.146 -625.691,894.815 
			-691.555,929.079 -717.231,920.887 		"/>
		<g>
			<circle fill="#F7F7F7" cx="-693.575" cy="902.649" r="8.085"/>
		</g>
	</g>
</g>
<g>
	<rect x="-552" y="874" fill="#E6E6E6" width="172" height="76"/>
	<g>
		<polygon fill="#F7F7F7" points="-540.153,942.535 -391.847,942.535 -403.146,905.843 -414.865,915.146 -428.691,894.815 
			-494.555,929.079 -520.231,920.887 		"/>
		<g>
			<circle fill="#F7F7F7" cx="-496.575" cy="902.649" r="8.085"/>
		</g>
	</g>
</g>
<circle fill="#E6E6E6" cx="-1225.333" cy="640.667" r="22.667"/>
<circle fill="#E6E6E6" cx="-923.333" cy="664.667" r="22.667"/>
<circle fill="#E6E6E6" cx="-848.952" cy="664.667" r="22.667"/>
<circle fill="#E6E6E6" cx="-774.571" cy="664.667" r="22.667"/>
<circle fill="#E6E6E6" cx="-700.19" cy="664.667" r="22.667"/>
<circle fill="#E6E6E6" cx="-551.429" cy="664.667" r="22.667"/>
<circle fill="#E6E6E6" cx="-477.048" cy="664.667" r="22.667"/>
<circle fill="#E6E6E6" cx="-402.667" cy="664.667" r="22.667"/>
<rect x="-1541" y="978" fill="#E6E6E6" width="110" height="11"/>
<rect x="-1355" y="960" fill="#FCFCFC" width="172" height="47"/>
<rect x="-1158" y="960" fill="#FCFCFC" width="172" height="19"/>
<rect x="-1310" y="972" fill="#E6E6E6" width="74" height="11"/>
<rect x="-1150" y="966" fill="#E6E6E6" width="54" height="8"/>
<rect x="-1345" y="970" fill="#E6E6E6" width="27" height="28"/>
<rect x="-1355" y="1008" fill="#FCFCFC" width="172" height="104"/>
<g>
	<rect x="-1345" y="1019" fill="#E6E6E6" width="27" height="28"/>
	<rect x="-1314" y="1019" fill="#E6E6E6" width="27" height="28"/>
	<rect x="-1283" y="1019" fill="#E6E6E6" width="27" height="28"/>
	<rect x="-1251" y="1019" fill="#E6E6E6" width="27" height="28"/>
	<rect x="-1220" y="1019" fill="#E6E6E6" width="27" height="28"/>
	<rect x="-1345" y="1052" fill="#E6E6E6" width="27" height="3"/>
	<rect x="-1314" y="1052" fill="#E6E6E6" width="27" height="3"/>
	<rect x="-1283" y="1052" fill="#E6E6E6" width="27" height="3"/>
	<rect x="-1251" y="1052" fill="#E6E6E6" width="27" height="3"/>
	<rect x="-1220" y="1052" fill="#E6E6E6" width="27" height="3"/>
</g>
<g>
	<rect x="-1345" y="1066" fill="#E6E6E6" width="27" height="28"/>
	<rect x="-1314" y="1066" fill="#E6E6E6" width="27" height="28"/>
	<rect x="-1283" y="1066" fill="#E6E6E6" width="27" height="28"/>
	<rect x="-1251" y="1066" fill="#E6E6E6" width="27" height="28"/>
	<rect x="-1220" y="1066" fill="#E6E6E6" width="27" height="28"/>
	<rect x="-1345" y="1099" fill="#E6E6E6" width="27" height="3"/>
	<rect x="-1314" y="1099" fill="#E6E6E6" width="27" height="3"/>
	<rect x="-1283" y="1099" fill="#E6E6E6" width="27" height="3"/>
	<rect x="-1251" y="1099" fill="#E6E6E6" width="27" height="3"/>
	<rect x="-1220" y="1099" fill="#E6E6E6" width="27" height="3"/>
</g>
<rect x="-1355" y="1113" fill="#FCFCFC" width="172" height="18"/>
<rect x="-1332" y="1121" fill="#E6E6E6" width="77" height="3"/>
<rect x="-1345" y="1118" fill="#E6E6E6" width="9" height="9"/>
<path fill="#0BC3D6" d="M-1285,991.705c0,2.372-1.923,4.295-4.295,4.295h-16.41c-2.372,0-4.295-1.923-4.295-4.295v-0.41
	c0-2.372,1.923-4.295,4.295-4.295h16.41c2.372,0,4.295,1.923,4.295,4.295V991.705z"/>
<path fill="#0BC3D6" d="M-993,969.705c0,2.372-1.923,4.295-4.295,4.295h-16.41c-2.372,0-4.295-1.923-4.295-4.295v-0.41
	c0-2.372,1.923-4.295,4.295-4.295h16.41c2.372,0,4.295,1.923,4.295,4.295V969.705z"/>
<g>
	<rect x="-1158" y="980" fill="#FCFCFC" width="172" height="40"/>
	<g>
		<rect x="-1150" y="986" fill="#E6E6E6" width="27" height="28"/>
		<rect x="-1119" y="990" fill="#E6E6E6" width="126" height="3"/>
		<rect x="-1119" y="996" fill="#E6E6E6" width="126" height="3"/>
		<rect x="-1119" y="1002" fill="#E6E6E6" width="126" height="3"/>
		<rect x="-1119" y="1008" fill="#E6E6E6" width="78" height="3"/>
	</g>
</g>
<g>
	<rect x="-1158" y="1021" fill="#FCFCFC" width="172" height="40"/>
	<g>
		<rect x="-1150" y="1027" fill="#E6E6E6" width="27" height="28"/>
		<rect x="-1119" y="1031" fill="#E6E6E6" width="126" height="3"/>
		<rect x="-1119" y="1037" fill="#E6E6E6" width="126" height="3"/>
		<rect x="-1119" y="1043" fill="#E6E6E6" width="126" height="3"/>
		<rect x="-1119" y="1049" fill="#E6E6E6" width="78" height="3"/>
	</g>
</g>
<g>
	<rect x="-1158" y="1062" fill="#FCFCFC" width="172" height="40"/>
	<g>
		<rect x="-1150" y="1068" fill="#E6E6E6" width="27" height="28"/>
		<rect x="-1119" y="1072" fill="#E6E6E6" width="126" height="3"/>
		<rect x="-1119" y="1078" fill="#E6E6E6" width="126" height="3"/>
		<rect x="-1119" y="1084" fill="#E6E6E6" width="126" height="3"/>
		<rect x="-1119" y="1090" fill="#E6E6E6" width="78" height="3"/>
	</g>
</g>
<g>
	<rect x="-460" y="193" fill="#E6E6E6" width="17" height="17"/>
	<rect x="-439" y="193" fill="#E6E6E6" width="17" height="17"/>
	<rect x="-418" y="193" fill="#E6E6E6" width="17" height="17"/>
	<rect x="-397" y="193" fill="#E6E6E6" width="17" height="17"/>
</g>
<rect x="-418" y="956" fill="#E6E6E6" width="8" height="8"/>
<rect x="-408" y="956" fill="#E6E6E6" width="8" height="8"/>
<rect x="-398" y="956" fill="#E6E6E6" width="8" height="8"/>
<rect x="-388" y="956" fill="#E6E6E6" width="8" height="8"/>
<rect x="-438" y="956" fill="#E6E6E6" width="8" height="8"/>
<rect x="-428" y="956" fill="#0BC3D6" width="8" height="8"/>
<g>
	<rect x="-946" y="311" fill="#E6E6E6" width="301" height="169"/>
	<g>
		<polygon fill="#FFFFFF" points="-912.177,473.063 -898.108,466.042 -912.177,459 		"/>
	</g>
	<g>
		<path fill="#F7F7F7" d="M-745.551,366.734h-21.272c-0.017-0.032-0.022-0.063-0.038-0.095l-3.052-6.097
			c-0.786-1.569-2.862-2.853-4.618-2.853h-40.945c-1.755,0-3.832,1.284-4.618,2.853l-3.052,6.097
			c-0.016,0.032-0.021,0.063-0.037,0.095h-22.266c-1.755,0-3.19,1.435-3.19,3.19v60.569c0,1.755,1.435,3.19,3.19,3.19h99.898
			c1.756,0,3.19-1.435,3.19-3.19v-60.569C-742.36,368.169-743.795,366.734-745.551,366.734z M-795.438,424.5
			c-13.833,0-25.048-11.213-25.048-25.05c0-13.831,11.215-25.044,25.048-25.044s25.05,11.214,25.05,25.044
			C-770.388,413.287-781.605,424.5-795.438,424.5z"/>
		<path fill="#F7F7F7" d="M-795.438,383.267c-8.925,0-16.187,7.26-16.187,16.183c0,8.926,7.262,16.189,16.187,16.189
			c8.928,0,16.189-7.263,16.189-16.189C-779.248,390.526-786.51,383.267-795.438,383.267z"/>
	</g>
	<g>
		<rect x="-932" y="459" fill="#FFFFFF" width="5" height="14"/>
		<rect x="-925" y="459" fill="#FFFFFF" width="5" height="14"/>
	</g>
	<g>
		<polygon fill="#FFFFFF" points="-670.708,462.792 -673.632,462.792 -673.632,468.628 -670.688,468.628 -664.879,474.445 
			-664.879,456.943 -670.708,462.781 		"/>
		<path fill="#FFFFFF" d="M-662.639,462.012l-0.88,1.727v0.042c0.553,0.449,0.912,1.124,0.912,1.89s-0.359,1.441-0.912,1.89v0.007
			l0.894,1.754c1.182-0.785,1.961-2.125,1.961-3.65C-660.664,464.14-661.449,462.795-662.639,462.012z"/>
		<path fill="#FFFFFF" d="M-656.202,465.67c0-3.256-1.79-6.089-4.438-7.583l-0.867,1.703v0.041c2.007,1.176,3.362,3.35,3.362,5.839
			c0,2.49-1.355,4.664-3.362,5.839v0.006l0.883,1.731C-657.985,471.749-656.202,468.92-656.202,465.67z"/>
	</g>
</g>
<rect x="-749" y="956" fill="#E6E6E6" width="171" height="3"/>
<rect x="-749" y="965" fill="#E6E6E6" width="121" height="3"/>
<rect x="-1452" y="186" fill="#0BC3D6" width="35" height="35"/>
<polygon fill="#0BC3D6" points="-1551.361,221 -1531,185.733 -1510.639,221 "/>
<g>
	<rect x="-946" y="509" fill="#E6E6E6" width="281" height="76"/>
	<g>
		<polygon fill="#F7F7F7" points="-879.654,571.122 -731.346,571.122 -742.646,534.431 -754.364,543.734 -768.192,523.403 
			-834.055,557.667 -859.732,549.475 		"/>
		<g>
			<circle fill="#F7F7F7" cx="-836.076" cy="531.237" r="8.085"/>
		</g>
	</g>
</g>
<g>
	<rect x="-661" y="509" fill="#E6E6E6" width="281" height="76"/>
	<g>
		<polygon fill="#F7F7F7" points="-594.654,571.122 -446.346,571.122 -457.646,534.431 -469.363,543.734 -483.191,523.403 
			-549.055,557.667 -574.732,549.475 		"/>
		<g>
			<circle fill="#F7F7F7" cx="-551.076" cy="531.237" r="8.085"/>
		</g>
	</g>
</g>
<g>
	<rect x="-726" y="808" fill="#E6E6E6" width="125" height="22"/>
	<rect x="-694" y="799" fill="#E6E6E6" width="93" height="12"/>
</g>
<line fill="#FCFCFC" stroke="#E6E6E6" stroke-width="2" stroke-miterlimit="10" x1="-924" y1="687" x2="-924" y2="730"/>
<line fill="#FCFCFC" stroke="#E6E6E6" stroke-width="2" stroke-miterlimit="10" x1="-849" y1="687" x2="-849" y2="730"/>
<line fill="#FCFCFC" stroke="#E6E6E6" stroke-width="2" stroke-miterlimit="10" x1="-775" y1="687" x2="-775" y2="730"/>
<line fill="#FCFCFC" stroke="#E6E6E6" stroke-width="2" stroke-miterlimit="10" x1="-700" y1="687" x2="-700" y2="730"/>
<line fill="#FCFCFC" stroke="#E6E6E6" stroke-width="2" stroke-miterlimit="10" x1="-625" y1="687" x2="-625" y2="730"/>
<line fill="#FCFCFC" stroke="#E6E6E6" stroke-width="2" stroke-miterlimit="10" x1="-551" y1="687" x2="-551" y2="730"/>
<line fill="#FCFCFC" stroke="#E6E6E6" stroke-width="2" stroke-miterlimit="10" x1="-477" y1="687" x2="-477" y2="730"/>
<line fill="#FCFCFC" stroke="#E6E6E6" stroke-width="2" stroke-miterlimit="10" x1="-403" y1="687" x2="-403" y2="730"/>
<line fill="none" stroke="#E6E6E6" stroke-width="2" stroke-miterlimit="10" x1="-924" y1="730" x2="-403" y2="730"/>
<line fill="none" stroke="#E6E6E6" stroke-width="2" stroke-miterlimit="10" x1="-663" y1="730" x2="-663" y2="772"/>
<polygon fill="#E6E6E6" points="-652.255,768 -663,786.61 -673.745,768 "/>
<rect x="-552" y="1071" fill="#E6E6E6" width="55" height="57"/>
<rect x="-493" y="1071" fill="#E6E6E6" width="55" height="57"/>
<rect x="-434" y="1071" fill="#E6E6E6" width="55" height="57"/>
<rect x="-552" y="1010" fill="#E6E6E6" width="55" height="57"/>
<rect x="-493" y="1010" fill="#E6E6E6" width="55" height="57"/>
<rect x="-434" y="1010" fill="#E6E6E6" width="55" height="57"/>
<circle fill="#0BC3D6" cx="-625.81" cy="664.667" r="22.667"/>
<g>
	<rect x="68" y="74" fill="#E6E6E6" width="209" height="18"/>
	<rect x="330" y="60" fill="#E6E6E6" width="327" height="45"/>
	<rect x="113" y="129" fill="#E6E6E6" width="164" height="19"/>
	<rect x="330" y="115" fill="#E6E6E6" width="327" height="44"/>
	<rect x="29" y="183" fill="#E6E6E6" width="248" height="20"/>
	<rect x="330" y="170" fill="#E6E6E6" width="327" height="45"/>
	<rect x="54" y="239" fill="#E6E6E6" width="223" height="19"/>
	<rect x="330" y="225" fill="#E6E6E6" width="327" height="45"/>
	<rect fill="#E6E6E6" width="277" height="25"/>
	<rect x="330" y="416" fill="#E6E6E6" width="163" height="45"/>
	<rect x="330" y="331" fill="#E6E6E6" width="11" height="11"/>
	<rect x="372" y="327" fill="#E6E6E6" width="286" height="20"/>
	<rect x="372" y="360" fill="#E6E6E6" width="286" height="20"/>
	<g>
		<g>
			<line fill="none" stroke="#0062A9" stroke-miterlimit="10" x1="303.5" y1="13" x2="303.5" y2="429"/>
			<g>
				<polygon fill="#0062A9" points="296.143,427 303.109,439.064 310.076,427 				"/>
			</g>
		</g>
	</g>
</g>
<g>
	<rect x="678" y="74" fill="#E6E6E6" width="210" height="18"/>
	<rect x="1050" y="60" fill="#E6E6E6" width="328" height="45"/>
	<rect x="678" y="127" fill="#E6E6E6" width="165" height="20"/>
	<rect x="1050" y="115" fill="#E6E6E6" width="328" height="45"/>
	<rect x="678" y="183" fill="#E6E6E6" width="248" height="20"/>
	<rect x="1050" y="171" fill="#E6E6E6" width="328" height="45"/>
	<rect x="678" y="238" fill="#E6E6E6" width="224" height="20"/>
	<rect x="1050" y="225" fill="#E6E6E6" width="328" height="45"/>
	<rect x="678" fill="#E6E6E6" width="277" height="25"/>
	<rect x="678" y="332" fill="#E6E6E6" width="11" height="11"/>
	<rect x="712" y="328" fill="#E6E6E6" width="520" height="19"/>
	<rect x="1050" y="389" fill="#E6E6E6" width="164" height="45"/>
	<g>
		<g>
			<polyline fill="none" stroke="#0062A9" stroke-miterlimit="10" points="972.7,13.028 902.7,83.5 1037.1,83.5 853,137.979 
				1037.1,139.139 937.7,193.5 1037.1,193.5 912.5,248.5 1037.1,248.5 722.8,317.078 684.3,327.567 1027.328,409.466 			"/>
			<g>
				<polygon fill="#0062A9" points="1023.721,415.716 1037.1,411.731 1026.961,402.136 				"/>
			</g>
		</g>
	</g>
	<path fill="none" stroke="#0062A9" stroke-width="1.4" stroke-miterlimit="10" d="M1037.1,83.956"/>
</g>
<g>
	<g>
		<path fill="#0062A9" d="M1426.697,74h-10.657V57.535h10.417v1.776h-8.353v5.232h6.624v1.656h-6.624v6.024h8.593V74z"/>
		<path fill="#0062A9" d="M1429.384,74V57.535h1.872V74H1429.384z"/>
		<path fill="#0062A9" d="M1444.864,70.664c-0.72,2.232-2.856,3.577-5.185,3.577c-3.696,0-5.593-2.929-5.593-6.337
			c0-3.36,1.992-6.408,5.641-6.408c3.793,0,5.425,3.168,5.329,6.552h-8.857c0,0.96,0.048,1.848,0.504,2.76
			c0.576,1.152,1.849,1.848,3.121,1.848c1.584,0,2.735-0.912,3.264-2.352L1444.864,70.664z M1442.992,66.655
			c0.023-2.016-1.104-3.72-3.265-3.72c-2.04,0-3.36,1.8-3.432,3.72H1442.992z"/>
		<path fill="#0062A9" d="M1449.495,61.807v2.352h0.049c0.624-1.464,1.943-2.664,3.647-2.664c1.776,0,3.049,1.2,3.433,2.904
			c0.672-1.68,2.064-2.904,3.937-2.904c1.248,0,2.448,0.696,3.072,1.752c0.6,1.008,0.576,2.352,0.576,3.48V74h-1.872v-7.272
			c0-0.816,0.048-1.68-0.336-2.424c-0.408-0.792-1.2-1.272-2.041-1.272c-0.936,0-1.8,0.576-2.352,1.368
			c-0.696,0.984-0.672,1.872-0.672,3.024V74h-1.873v-7.729c0-0.672-0.048-1.464-0.407-2.064c-0.433-0.72-1.225-1.176-2.04-1.176
			c-0.841,0-1.705,0.552-2.209,1.2c-0.624,0.792-0.744,1.776-0.744,2.785V74h-1.872V61.807H1449.495z"/>
		<path fill="#0062A9" d="M1477.505,70.664c-0.72,2.232-2.856,3.577-5.185,3.577c-3.696,0-5.593-2.929-5.593-6.337
			c0-3.36,1.992-6.408,5.641-6.408c3.793,0,5.425,3.168,5.329,6.552h-8.857c0,0.96,0.048,1.848,0.504,2.76
			c0.576,1.152,1.849,1.848,3.121,1.848c1.584,0,2.735-0.912,3.264-2.352L1477.505,70.664z M1475.633,66.655
			c0.023-2.016-1.104-3.72-3.265-3.72c-2.04,0-3.36,1.8-3.432,3.72H1475.633z"/>
		<path fill="#0062A9" d="M1482.231,64.063h0.048c0.696-1.512,2.064-2.568,3.792-2.568c1.464,0,2.688,0.624,3.456,1.896
			c0.624,1.032,0.576,2.664,0.576,3.864V74h-1.872v-7.537c0-0.72,0.024-1.632-0.336-2.256c-0.408-0.696-1.296-1.104-2.088-1.104
			c-0.984,0-1.872,0.456-2.521,1.224c-0.792,0.96-0.96,2.064-0.96,3.288V74h-1.872V61.807h1.776V64.063z"/>
		<path fill="#0062A9" d="M1499.247,74.096l-1.8,0.144c-2.664,0-3.456-1.561-3.456-3.984v-7.057h-2.16v-1.488h2.16v-3.024
			l1.872-0.192v3.216h2.712v1.488h-2.712v7.369c0,1.416,0.408,2.16,1.944,2.16l1.439-0.12V74.096z"/>
	</g>
	<rect x="1397" y="126" fill="#E6E6E6" width="700" height="42"/>
	<rect x="1414" y="143" fill="#FFFFFF" width="149" height="11"/>
	<rect x="1584" y="143" fill="#FFFFFF" width="149" height="11"/>
	<rect x="1754" y="143" fill="#FFFFFF" width="149" height="11"/>
	<rect x="1925" y="143" fill="#FFFFFF" width="150" height="11"/>
	<g>
		<path fill="#0062A9" d="M1596.697,74h-10.657V57.535h10.417v1.776h-8.353v5.232h6.624v1.656h-6.624v6.024h8.593V74z"/>
		<path fill="#0062A9" d="M1599.384,74V57.535h1.872V74H1599.384z"/>
		<path fill="#0062A9" d="M1614.864,70.664c-0.72,2.232-2.856,3.577-5.185,3.577c-3.696,0-5.593-2.929-5.593-6.337
			c0-3.36,1.992-6.408,5.641-6.408c3.793,0,5.425,3.168,5.329,6.552h-8.857c0,0.96,0.048,1.848,0.504,2.76
			c0.576,1.152,1.849,1.848,3.121,1.848c1.584,0,2.735-0.912,3.264-2.352L1614.864,70.664z M1612.992,66.655
			c0.023-2.016-1.104-3.72-3.265-3.72c-2.04,0-3.36,1.8-3.432,3.72H1612.992z"/>
		<path fill="#0062A9" d="M1619.495,61.807v2.352h0.049c0.624-1.464,1.943-2.664,3.647-2.664c1.776,0,3.049,1.2,3.433,2.904
			c0.672-1.68,2.064-2.904,3.937-2.904c1.248,0,2.448,0.696,3.072,1.752c0.6,1.008,0.576,2.352,0.576,3.48V74h-1.872v-7.272
			c0-0.816,0.048-1.68-0.336-2.424c-0.408-0.792-1.2-1.272-2.041-1.272c-0.936,0-1.8,0.576-2.352,1.368
			c-0.696,0.984-0.672,1.872-0.672,3.024V74h-1.873v-7.729c0-0.672-0.048-1.464-0.407-2.064c-0.433-0.72-1.225-1.176-2.04-1.176
			c-0.841,0-1.705,0.552-2.209,1.2c-0.624,0.792-0.744,1.776-0.744,2.785V74h-1.872V61.807H1619.495z"/>
		<path fill="#0062A9" d="M1647.505,70.664c-0.72,2.232-2.856,3.577-5.185,3.577c-3.696,0-5.593-2.929-5.593-6.337
			c0-3.36,1.992-6.408,5.641-6.408c3.793,0,5.425,3.168,5.329,6.552h-8.857c0,0.96,0.048,1.848,0.504,2.76
			c0.576,1.152,1.849,1.848,3.121,1.848c1.584,0,2.735-0.912,3.264-2.352L1647.505,70.664z M1645.633,66.655
			c0.023-2.016-1.104-3.72-3.265-3.72c-2.04,0-3.36,1.8-3.432,3.72H1645.633z"/>
		<path fill="#0062A9" d="M1652.231,64.063h0.048c0.696-1.512,2.064-2.568,3.792-2.568c1.464,0,2.688,0.624,3.456,1.896
			c0.624,1.032,0.576,2.664,0.576,3.864V74h-1.872v-7.537c0-0.72,0.024-1.632-0.336-2.256c-0.408-0.696-1.296-1.104-2.088-1.104
			c-0.984,0-1.872,0.456-2.521,1.224c-0.792,0.96-0.96,2.064-0.96,3.288V74h-1.872V61.807h1.776V64.063z"/>
		<path fill="#0062A9" d="M1669.247,74.096l-1.8,0.144c-2.664,0-3.456-1.561-3.456-3.984v-7.057h-2.16v-1.488h2.16v-3.024
			l1.872-0.192v3.216h2.712v1.488h-2.712v7.369c0,1.416,0.408,2.16,1.944,2.16l1.439-0.12V74.096z"/>
	</g>
	<g>
		<path fill="#0062A9" d="M1766.697,74h-10.657V57.535h10.417v1.776h-8.353v5.232h6.624v1.656h-6.624v6.024h8.593V74z"/>
		<path fill="#0062A9" d="M1769.384,74V57.535h1.872V74H1769.384z"/>
		<path fill="#0062A9" d="M1784.864,70.664c-0.72,2.232-2.856,3.577-5.185,3.577c-3.696,0-5.593-2.929-5.593-6.337
			c0-3.36,1.992-6.408,5.641-6.408c3.793,0,5.425,3.168,5.329,6.552h-8.857c0,0.96,0.048,1.848,0.504,2.76
			c0.576,1.152,1.849,1.848,3.121,1.848c1.584,0,2.735-0.912,3.264-2.352L1784.864,70.664z M1782.992,66.655
			c0.023-2.016-1.104-3.72-3.265-3.72c-2.04,0-3.36,1.8-3.432,3.72H1782.992z"/>
		<path fill="#0062A9" d="M1789.495,61.807v2.352h0.049c0.624-1.464,1.943-2.664,3.647-2.664c1.776,0,3.049,1.2,3.433,2.904
			c0.672-1.68,2.064-2.904,3.937-2.904c1.248,0,2.448,0.696,3.072,1.752c0.6,1.008,0.576,2.352,0.576,3.48V74h-1.872v-7.272
			c0-0.816,0.048-1.68-0.336-2.424c-0.408-0.792-1.2-1.272-2.041-1.272c-0.936,0-1.8,0.576-2.352,1.368
			c-0.696,0.984-0.672,1.872-0.672,3.024V74h-1.873v-7.729c0-0.672-0.048-1.464-0.407-2.064c-0.433-0.72-1.225-1.176-2.04-1.176
			c-0.841,0-1.705,0.552-2.209,1.2c-0.624,0.792-0.744,1.776-0.744,2.785V74h-1.872V61.807H1789.495z"/>
		<path fill="#0062A9" d="M1817.505,70.664c-0.72,2.232-2.856,3.577-5.185,3.577c-3.696,0-5.593-2.929-5.593-6.337
			c0-3.36,1.992-6.408,5.641-6.408c3.793,0,5.425,3.168,5.329,6.552h-8.857c0,0.96,0.048,1.848,0.504,2.76
			c0.576,1.152,1.849,1.848,3.121,1.848c1.584,0,2.735-0.912,3.264-2.352L1817.505,70.664z M1815.633,66.655
			c0.023-2.016-1.104-3.72-3.265-3.72c-2.04,0-3.36,1.8-3.432,3.72H1815.633z"/>
		<path fill="#0062A9" d="M1822.231,64.063h0.048c0.696-1.512,2.064-2.568,3.792-2.568c1.464,0,2.688,0.624,3.456,1.896
			c0.624,1.032,0.576,2.664,0.576,3.864V74h-1.872v-7.537c0-0.72,0.024-1.632-0.336-2.256c-0.408-0.696-1.296-1.104-2.088-1.104
			c-0.984,0-1.872,0.456-2.521,1.224c-0.792,0.96-0.96,2.064-0.96,3.288V74h-1.872V61.807h1.776V64.063z"/>
		<path fill="#0062A9" d="M1839.247,74.096l-1.8,0.144c-2.664,0-3.456-1.561-3.456-3.984v-7.057h-2.16v-1.488h2.16v-3.024
			l1.872-0.192v3.216h2.712v1.488h-2.712v7.369c0,1.416,0.408,2.16,1.944,2.16l1.439-0.12V74.096z"/>
	</g>
	<g>
		<path fill="#0062A9" d="M1937.697,74h-10.657V57.535h10.417v1.776h-8.353v5.232h6.624v1.656h-6.624v6.024h8.593V74z"/>
		<path fill="#0062A9" d="M1940.384,74V57.535h1.872V74H1940.384z"/>
		<path fill="#0062A9" d="M1955.864,70.664c-0.72,2.232-2.856,3.577-5.185,3.577c-3.696,0-5.593-2.929-5.593-6.337
			c0-3.36,1.992-6.408,5.641-6.408c3.793,0,5.425,3.168,5.329,6.552h-8.857c0,0.96,0.048,1.848,0.504,2.76
			c0.576,1.152,1.849,1.848,3.121,1.848c1.584,0,2.735-0.912,3.264-2.352L1955.864,70.664z M1953.992,66.655
			c0.023-2.016-1.104-3.72-3.265-3.72c-2.04,0-3.36,1.8-3.432,3.72H1953.992z"/>
		<path fill="#0062A9" d="M1960.495,61.807v2.352h0.049c0.624-1.464,1.943-2.664,3.647-2.664c1.776,0,3.049,1.2,3.433,2.904
			c0.672-1.68,2.064-2.904,3.937-2.904c1.248,0,2.448,0.696,3.072,1.752c0.6,1.008,0.576,2.352,0.576,3.48V74h-1.872v-7.272
			c0-0.816,0.048-1.68-0.336-2.424c-0.408-0.792-1.2-1.272-2.041-1.272c-0.936,0-1.8,0.576-2.352,1.368
			c-0.696,0.984-0.672,1.872-0.672,3.024V74h-1.873v-7.729c0-0.672-0.048-1.464-0.407-2.064c-0.433-0.72-1.225-1.176-2.04-1.176
			c-0.841,0-1.705,0.552-2.209,1.2c-0.624,0.792-0.744,1.776-0.744,2.785V74h-1.872V61.807H1960.495z"/>
		<path fill="#0062A9" d="M1988.505,70.664c-0.72,2.232-2.856,3.577-5.185,3.577c-3.696,0-5.593-2.929-5.593-6.337
			c0-3.36,1.992-6.408,5.641-6.408c3.793,0,5.425,3.168,5.329,6.552h-8.857c0,0.96,0.048,1.848,0.504,2.76
			c0.576,1.152,1.849,1.848,3.121,1.848c1.584,0,2.735-0.912,3.264-2.352L1988.505,70.664z M1986.633,66.655
			c0.023-2.016-1.104-3.72-3.265-3.72c-2.04,0-3.36,1.8-3.432,3.72H1986.633z"/>
		<path fill="#0062A9" d="M1993.231,64.063h0.048c0.696-1.512,2.064-2.568,3.792-2.568c1.464,0,2.688,0.624,3.456,1.896
			c0.624,1.032,0.576,2.664,0.576,3.864V74h-1.872v-7.537c0-0.72,0.024-1.632-0.336-2.256c-0.408-0.696-1.296-1.104-2.088-1.104
			c-0.984,0-1.872,0.456-2.521,1.224c-0.792,0.96-0.96,2.064-0.96,3.288V74h-1.872V61.807h1.776V64.063z"/>
		<path fill="#0062A9" d="M2010.247,74.096l-1.8,0.144c-2.664,0-3.456-1.561-3.456-3.984v-7.057h-2.16v-1.488h2.16v-3.024
			l1.872-0.192v3.216h2.712v1.488h-2.712v7.369c0,1.416,0.408,2.16,1.944,2.16l1.439-0.12V74.096z"/>
	</g>
	<g>
		<g>
			<path fill="none" stroke="#0062A9" stroke-miterlimit="10" d="M1465,92c0,0,19.442,11.834,22.576,37.834"/>
			<g>
				<polygon fill="#0062A9" points="1482.375,128.767 1488,137 1492.318,128.013 				"/>
			</g>
		</g>
	</g>
	<g>
		<g>
			<path fill="none" stroke="#0062A9" stroke-miterlimit="10" d="M1636,92c0,0,19.442,11.834,22.576,37.834"/>
			<g>
				<polygon fill="#0062A9" points="1653.375,128.767 1659,137 1663.318,128.013 				"/>
			</g>
		</g>
	</g>
	<g>
		<g>
			<path fill="none" stroke="#0062A9" stroke-miterlimit="10" d="M1806,92c0,0,19.442,11.834,22.576,37.834"/>
			<g>
				<polygon fill="#0062A9" points="1823.375,128.767 1829,137 1833.318,128.013 				"/>
			</g>
		</g>
	</g>
	<g>
		<g>
			<path fill="none" stroke="#0062A9" stroke-miterlimit="10" d="M1977,95c0,0,19.442,11.834,22.576,37.834"/>
			<g>
				<polygon fill="#0062A9" points="1994.375,131.767 2000,140 2004.318,131.013 				"/>
			</g>
		</g>
	</g>
</g>
<rect x="2134" y="83" fill="#FFFFFF" width="149" height="11"/>
<rect x="2304" y="83" fill="#FFFFFF" width="149" height="11"/>
<rect x="2474" y="83" fill="#FFFFFF" width="149" height="11"/>
<rect x="2645" y="83" fill="#FFFFFF" width="150" height="11"/>
<g>
	<path fill="#0062A9" d="M2440.386,19.92V3.455h6.217c1.271,0,2.279,0.048,3.384,0.768c1.104,0.744,1.729,1.896,1.729,3.24
		c0,1.872-1.104,3.264-2.904,3.696v0.048c2.04,0.432,3.408,2.064,3.408,4.176c0,1.393-0.48,2.617-1.584,3.48
		c-1.248,0.984-2.545,1.056-4.057,1.056H2440.386z M2445.642,10.511c1.032,0,2.16,0.024,3.001-0.624
		c0.672-0.48,1.032-1.368,1.032-2.16c0-0.984-0.385-1.68-1.225-2.185c-0.72-0.408-1.464-0.408-2.28-0.408h-3.72v5.376H2445.642z
		 M2446.482,18.168c0.912,0,1.92-0.096,2.64-0.672c0.696-0.528,1.032-1.32,1.032-2.208c0-0.984-0.432-1.968-1.2-2.568
		c-0.792-0.624-1.824-0.624-2.76-0.624h-3.744v6.073H2446.482z"/>
	<path fill="#0062A9" d="M2455.266,19.92V3.455h1.872V19.92H2455.266z"/>
	<path fill="#0062A9" d="M2465.682,7.415c3.576,0,5.353,3.12,5.353,6.336c0,3.408-1.969,6.409-5.665,6.409
		c-3.647,0-5.28-3.216-5.28-6.433C2460.089,10.343,2462.01,7.415,2465.682,7.415z M2462.873,17.063
		c0.528,0.937,1.561,1.536,2.665,1.536c1.248,0,2.231-0.648,2.808-1.752c0.504-0.96,0.601-2.064,0.601-3.12
		c0-1.152-0.145-2.353-0.769-3.336c-0.576-0.888-1.584-1.44-2.64-1.44c-1.177,0-2.232,0.672-2.761,1.728
		c-0.456,0.888-0.6,2.064-0.6,3.048C2462.178,14.832,2462.346,16.104,2462.873,17.063z"/>
	<path fill="#0062A9" d="M2482.746,15.888c-0.433,2.472-2.088,4.272-4.704,4.272c-3.625,0-5.185-3.145-5.185-6.337
		c0-3.168,1.584-6.408,5.208-6.408c2.641,0,4.272,1.704,4.681,4.224l-1.729,0.312c-0.168-1.608-1.152-2.952-2.904-2.952
		c-2.544,0-3.264,2.664-3.264,4.705c0,1.968,0.6,4.848,3.144,4.848c1.824,0,2.713-1.32,3.024-2.976L2482.746,15.888z"/>
	<path fill="#0062A9" d="M2493.377,19.92l-3.552-6.792l-2.616,3.024v3.769h-1.872V3.455h1.872v10.537l5.641-6.216h2.016
		l-3.792,4.272l4.296,7.873H2493.377z"/>
</g>
<path fill="none" stroke="#0062A9" stroke-miterlimit="10" d="M2117,55.261c0,0,0-19.761,18.189-19.761h325.261
	c8.023-1,6.42-8.25,6.42-8.25"/>
<path fill="none" stroke="#0062A9" stroke-miterlimit="10" d="M2817,55.261c0,0,0-19.761-18.188-19.761H2473.55
	c-8.022-1-6.419-8.25-6.419-8.25"/>
<g>
	<g>
		<path fill="#0062A9" d="M2146.697,79h-10.657V62.535h10.417v1.776h-8.353v5.232h6.624v1.656h-6.624v6.024h8.593V79z"/>
		<path fill="#0062A9" d="M2149.384,79V62.535h1.872V79H2149.384z"/>
		<path fill="#0062A9" d="M2164.864,75.664c-0.72,2.232-2.856,3.577-5.185,3.577c-3.696,0-5.593-2.929-5.593-6.337
			c0-3.36,1.992-6.408,5.641-6.408c3.793,0,5.425,3.168,5.329,6.552h-8.857c0,0.96,0.048,1.848,0.504,2.76
			c0.576,1.152,1.849,1.848,3.121,1.848c1.584,0,2.735-0.912,3.264-2.352L2164.864,75.664z M2162.992,71.655
			c0.023-2.016-1.104-3.72-3.265-3.72c-2.04,0-3.36,1.8-3.432,3.72H2162.992z"/>
		<path fill="#0062A9" d="M2169.495,66.807v2.352h0.049c0.624-1.464,1.943-2.664,3.647-2.664c1.776,0,3.049,1.2,3.433,2.904
			c0.672-1.68,2.064-2.904,3.937-2.904c1.248,0,2.448,0.696,3.072,1.752c0.6,1.008,0.576,2.352,0.576,3.48V79h-1.872v-7.272
			c0-0.816,0.048-1.68-0.336-2.424c-0.408-0.792-1.2-1.272-2.041-1.272c-0.936,0-1.8,0.576-2.352,1.368
			c-0.696,0.984-0.672,1.872-0.672,3.024V79h-1.873v-7.729c0-0.672-0.048-1.464-0.407-2.064c-0.433-0.72-1.225-1.176-2.04-1.176
			c-0.841,0-1.705,0.552-2.209,1.2c-0.624,0.792-0.744,1.776-0.744,2.785V79h-1.872V66.807H2169.495z"/>
		<path fill="#0062A9" d="M2197.505,75.664c-0.72,2.232-2.856,3.577-5.185,3.577c-3.696,0-5.593-2.929-5.593-6.337
			c0-3.36,1.992-6.408,5.641-6.408c3.793,0,5.425,3.168,5.329,6.552h-8.857c0,0.96,0.048,1.848,0.504,2.76
			c0.576,1.152,1.849,1.848,3.121,1.848c1.584,0,2.735-0.912,3.264-2.352L2197.505,75.664z M2195.633,71.655
			c0.023-2.016-1.104-3.72-3.265-3.72c-2.04,0-3.36,1.8-3.432,3.72H2195.633z"/>
		<path fill="#0062A9" d="M2202.231,69.063h0.048c0.696-1.512,2.064-2.568,3.792-2.568c1.464,0,2.688,0.624,3.456,1.896
			c0.624,1.032,0.576,2.664,0.576,3.864V79h-1.872v-7.537c0-0.72,0.024-1.632-0.336-2.256c-0.408-0.696-1.296-1.104-2.088-1.104
			c-0.984,0-1.872,0.456-2.521,1.224c-0.792,0.96-0.96,2.064-0.96,3.288V79h-1.872V66.807h1.776V69.063z"/>
		<path fill="#0062A9" d="M2219.247,79.096l-1.8,0.144c-2.664,0-3.456-1.561-3.456-3.984v-7.057h-2.16v-1.488h2.16v-3.024
			l1.872-0.192v3.216h2.712v1.488h-2.712v7.369c0,1.416,0.408,2.16,1.944,2.16l1.439-0.12V79.096z"/>
	</g>
	<rect x="2117" y="131" fill="#E6E6E6" width="700" height="42"/>
	<rect x="2134" y="148" fill="#FFFFFF" width="149" height="11"/>
	<rect x="2304" y="148" fill="#FFFFFF" width="149" height="11"/>
	<rect x="2474" y="148" fill="#FFFFFF" width="149" height="11"/>
	<rect x="2645" y="148" fill="#FFFFFF" width="150" height="11"/>
	<g>
		<path fill="#0062A9" d="M2316.697,79h-10.657V62.535h10.417v1.776h-8.353v5.232h6.624v1.656h-6.624v6.024h8.593V79z"/>
		<path fill="#0062A9" d="M2319.384,79V62.535h1.872V79H2319.384z"/>
		<path fill="#0062A9" d="M2334.864,75.664c-0.72,2.232-2.856,3.577-5.185,3.577c-3.696,0-5.593-2.929-5.593-6.337
			c0-3.36,1.992-6.408,5.641-6.408c3.793,0,5.425,3.168,5.329,6.552h-8.857c0,0.96,0.048,1.848,0.504,2.76
			c0.576,1.152,1.849,1.848,3.121,1.848c1.584,0,2.735-0.912,3.264-2.352L2334.864,75.664z M2332.992,71.655
			c0.023-2.016-1.104-3.72-3.265-3.72c-2.04,0-3.36,1.8-3.432,3.72H2332.992z"/>
		<path fill="#0062A9" d="M2339.495,66.807v2.352h0.049c0.624-1.464,1.943-2.664,3.647-2.664c1.776,0,3.049,1.2,3.433,2.904
			c0.672-1.68,2.064-2.904,3.937-2.904c1.248,0,2.448,0.696,3.072,1.752c0.6,1.008,0.576,2.352,0.576,3.48V79h-1.872v-7.272
			c0-0.816,0.048-1.68-0.336-2.424c-0.408-0.792-1.2-1.272-2.041-1.272c-0.936,0-1.8,0.576-2.352,1.368
			c-0.696,0.984-0.672,1.872-0.672,3.024V79h-1.873v-7.729c0-0.672-0.048-1.464-0.407-2.064c-0.433-0.72-1.225-1.176-2.04-1.176
			c-0.841,0-1.705,0.552-2.209,1.2c-0.624,0.792-0.744,1.776-0.744,2.785V79h-1.872V66.807H2339.495z"/>
		<path fill="#0062A9" d="M2367.505,75.664c-0.72,2.232-2.856,3.577-5.185,3.577c-3.696,0-5.593-2.929-5.593-6.337
			c0-3.36,1.992-6.408,5.641-6.408c3.793,0,5.425,3.168,5.329,6.552h-8.857c0,0.96,0.048,1.848,0.504,2.76
			c0.576,1.152,1.849,1.848,3.121,1.848c1.584,0,2.735-0.912,3.264-2.352L2367.505,75.664z M2365.633,71.655
			c0.023-2.016-1.104-3.72-3.265-3.72c-2.04,0-3.36,1.8-3.432,3.72H2365.633z"/>
		<path fill="#0062A9" d="M2372.231,69.063h0.048c0.696-1.512,2.064-2.568,3.792-2.568c1.464,0,2.688,0.624,3.456,1.896
			c0.624,1.032,0.576,2.664,0.576,3.864V79h-1.872v-7.537c0-0.72,0.024-1.632-0.336-2.256c-0.408-0.696-1.296-1.104-2.088-1.104
			c-0.984,0-1.872,0.456-2.521,1.224c-0.792,0.96-0.96,2.064-0.96,3.288V79h-1.872V66.807h1.776V69.063z"/>
		<path fill="#0062A9" d="M2389.247,79.096l-1.8,0.144c-2.664,0-3.456-1.561-3.456-3.984v-7.057h-2.16v-1.488h2.16v-3.024
			l1.872-0.192v3.216h2.712v1.488h-2.712v7.369c0,1.416,0.408,2.16,1.944,2.16l1.439-0.12V79.096z"/>
	</g>
	<g>
		<path fill="#0062A9" d="M2486.697,79h-10.657V62.535h10.417v1.776h-8.353v5.232h6.624v1.656h-6.624v6.024h8.593V79z"/>
		<path fill="#0062A9" d="M2489.384,79V62.535h1.872V79H2489.384z"/>
		<path fill="#0062A9" d="M2504.864,75.664c-0.72,2.232-2.856,3.577-5.185,3.577c-3.696,0-5.593-2.929-5.593-6.337
			c0-3.36,1.992-6.408,5.641-6.408c3.793,0,5.425,3.168,5.329,6.552h-8.857c0,0.96,0.048,1.848,0.504,2.76
			c0.576,1.152,1.849,1.848,3.121,1.848c1.584,0,2.735-0.912,3.264-2.352L2504.864,75.664z M2502.992,71.655
			c0.023-2.016-1.104-3.72-3.265-3.72c-2.04,0-3.36,1.8-3.432,3.72H2502.992z"/>
		<path fill="#0062A9" d="M2509.495,66.807v2.352h0.049c0.624-1.464,1.943-2.664,3.647-2.664c1.776,0,3.049,1.2,3.433,2.904
			c0.672-1.68,2.064-2.904,3.937-2.904c1.248,0,2.448,0.696,3.072,1.752c0.6,1.008,0.576,2.352,0.576,3.48V79h-1.872v-7.272
			c0-0.816,0.048-1.68-0.336-2.424c-0.408-0.792-1.2-1.272-2.041-1.272c-0.936,0-1.8,0.576-2.352,1.368
			c-0.696,0.984-0.672,1.872-0.672,3.024V79h-1.873v-7.729c0-0.672-0.048-1.464-0.407-2.064c-0.433-0.72-1.225-1.176-2.04-1.176
			c-0.841,0-1.705,0.552-2.209,1.2c-0.624,0.792-0.744,1.776-0.744,2.785V79h-1.872V66.807H2509.495z"/>
		<path fill="#0062A9" d="M2537.505,75.664c-0.72,2.232-2.856,3.577-5.185,3.577c-3.696,0-5.593-2.929-5.593-6.337
			c0-3.36,1.992-6.408,5.641-6.408c3.793,0,5.425,3.168,5.329,6.552h-8.857c0,0.96,0.048,1.848,0.504,2.76
			c0.576,1.152,1.849,1.848,3.121,1.848c1.584,0,2.735-0.912,3.264-2.352L2537.505,75.664z M2535.633,71.655
			c0.023-2.016-1.104-3.72-3.265-3.72c-2.04,0-3.36,1.8-3.432,3.72H2535.633z"/>
		<path fill="#0062A9" d="M2542.231,69.063h0.048c0.696-1.512,2.064-2.568,3.792-2.568c1.464,0,2.688,0.624,3.456,1.896
			c0.624,1.032,0.576,2.664,0.576,3.864V79h-1.872v-7.537c0-0.72,0.024-1.632-0.336-2.256c-0.408-0.696-1.296-1.104-2.088-1.104
			c-0.984,0-1.872,0.456-2.521,1.224c-0.792,0.96-0.96,2.064-0.96,3.288V79h-1.872V66.807h1.776V69.063z"/>
		<path fill="#0062A9" d="M2559.247,79.096l-1.8,0.144c-2.664,0-3.456-1.561-3.456-3.984v-7.057h-2.16v-1.488h2.16v-3.024
			l1.872-0.192v3.216h2.712v1.488h-2.712v7.369c0,1.416,0.408,2.16,1.944,2.16l1.439-0.12V79.096z"/>
	</g>
	<g>
		<path fill="#0062A9" d="M2657.697,79h-10.657V62.535h10.417v1.776h-8.353v5.232h6.624v1.656h-6.624v6.024h8.593V79z"/>
		<path fill="#0062A9" d="M2660.384,79V62.535h1.872V79H2660.384z"/>
		<path fill="#0062A9" d="M2675.864,75.664c-0.72,2.232-2.856,3.577-5.185,3.577c-3.696,0-5.593-2.929-5.593-6.337
			c0-3.36,1.992-6.408,5.641-6.408c3.793,0,5.425,3.168,5.329,6.552h-8.857c0,0.96,0.048,1.848,0.504,2.76
			c0.576,1.152,1.849,1.848,3.121,1.848c1.584,0,2.735-0.912,3.264-2.352L2675.864,75.664z M2673.992,71.655
			c0.023-2.016-1.104-3.72-3.265-3.72c-2.04,0-3.36,1.8-3.432,3.72H2673.992z"/>
		<path fill="#0062A9" d="M2680.495,66.807v2.352h0.049c0.624-1.464,1.943-2.664,3.647-2.664c1.776,0,3.049,1.2,3.433,2.904
			c0.672-1.68,2.064-2.904,3.937-2.904c1.248,0,2.448,0.696,3.072,1.752c0.6,1.008,0.576,2.352,0.576,3.48V79h-1.872v-7.272
			c0-0.816,0.048-1.68-0.336-2.424c-0.408-0.792-1.2-1.272-2.041-1.272c-0.936,0-1.8,0.576-2.352,1.368
			c-0.696,0.984-0.672,1.872-0.672,3.024V79h-1.873v-7.729c0-0.672-0.048-1.464-0.407-2.064c-0.433-0.72-1.225-1.176-2.04-1.176
			c-0.841,0-1.705,0.552-2.209,1.2c-0.624,0.792-0.744,1.776-0.744,2.785V79h-1.872V66.807H2680.495z"/>
		<path fill="#0062A9" d="M2708.505,75.664c-0.72,2.232-2.856,3.577-5.185,3.577c-3.696,0-5.593-2.929-5.593-6.337
			c0-3.36,1.992-6.408,5.641-6.408c3.793,0,5.425,3.168,5.329,6.552h-8.857c0,0.96,0.048,1.848,0.504,2.76
			c0.576,1.152,1.849,1.848,3.121,1.848c1.584,0,2.735-0.912,3.264-2.352L2708.505,75.664z M2706.633,71.655
			c0.023-2.016-1.104-3.72-3.265-3.72c-2.04,0-3.36,1.8-3.432,3.72H2706.633z"/>
		<path fill="#0062A9" d="M2713.231,69.063h0.048c0.696-1.512,2.064-2.568,3.792-2.568c1.464,0,2.688,0.624,3.456,1.896
			c0.624,1.032,0.576,2.664,0.576,3.864V79h-1.872v-7.537c0-0.72,0.024-1.632-0.336-2.256c-0.408-0.696-1.296-1.104-2.088-1.104
			c-0.984,0-1.872,0.456-2.521,1.224c-0.792,0.96-0.96,2.064-0.96,3.288V79h-1.872V66.807h1.776V69.063z"/>
		<path fill="#0062A9" d="M2730.247,79.096l-1.8,0.144c-2.664,0-3.456-1.561-3.456-3.984v-7.057h-2.16v-1.488h2.16v-3.024
			l1.872-0.192v3.216h2.712v1.488h-2.712v7.369c0,1.416,0.408,2.16,1.944,2.16l1.439-0.12V79.096z"/>
	</g>
	<g>
		<g>
			<path fill="none" stroke="#0062A9" stroke-miterlimit="10" d="M2185,97c0,0,19.442,11.834,22.576,37.834"/>
			<g>
				<polygon fill="#0062A9" points="2202.375,133.767 2208,142 2212.318,133.013 				"/>
			</g>
		</g>
	</g>
	<g>
		<g>
			<path fill="none" stroke="#0062A9" stroke-miterlimit="10" d="M2356,97c0,0,19.442,11.834,22.576,37.834"/>
			<g>
				<polygon fill="#0062A9" points="2373.375,133.767 2379,142 2383.318,133.013 				"/>
			</g>
		</g>
	</g>
	<g>
		<g>
			<path fill="none" stroke="#0062A9" stroke-miterlimit="10" d="M2526,97c0,0,19.441,11.834,22.576,37.834"/>
			<g>
				<polygon fill="#0062A9" points="2543.375,133.767 2549,142 2553.318,133.013 				"/>
			</g>
		</g>
	</g>
	<g>
		<g>
			<path fill="none" stroke="#0062A9" stroke-miterlimit="10" d="M2697,100c0,0,19.441,11.834,22.576,37.834"/>
			<g>
				<polygon fill="#0062A9" points="2714.375,136.767 2720,145 2724.318,136.013 				"/>
			</g>
		</g>
	</g>
</g>
</svg>
