<?xml version="1.0" encoding="utf-8"?>
<!-- Generator: Adobe Illustrator 16.0.5, SVG Export Plug-In . SVG Version: 6.00 Build 0)  -->
<!DOCTYPE svg PUBLIC "-//W3C//DTD SVG 1.1//EN" "http://www.w3.org/Graphics/SVG/1.1/DTD/svg11.dtd">
<svg version="1.1" id="Layer_1" xmlns="http://www.w3.org/2000/svg" xmlns:xlink="http://www.w3.org/1999/xlink" x="0px" y="0px"
	 width="700px" height="434px" viewBox="0 0 700 434" enable-background="new 0 0 700 434" xml:space="preserve">
<g>
	<rect x="-2230" y="320" fill="#E6E6E6" width="566" height="198"/>
	<g>
		<circle fill="#FFFFFF" cx="-1973.5" cy="502.5" r="4.5"/>
		<circle fill="#FFFFFF" cx="-1960.25" cy="502.5" r="4.5"/>
		<circle fill="#FFFFFF" cx="-1933.75" cy="502.5" r="4.5"/>
		<circle fill="#0BC3D6" cx="-1947.5" cy="502.5" r="4.5"/>
		<circle fill="#FFFFFF" cx="-1920.5" cy="502.5" r="4.5"/>
	</g>
	<g>
		<polygon fill="#F7F7F7" points="-2162,486.926 -1742,486.926 -1774.002,383.014 -1807.186,409.361 -1846.344,351.785 
			-2032.865,448.818 -2105.582,425.619 		"/>
		<g>
			<path fill="#F7F7F7" d="M-2038.588,396.867c12.646,0,22.896-10.248,22.896-22.893c0-12.65-10.25-22.9-22.896-22.9
				c-12.647,0-22.9,10.25-22.9,22.9C-2061.489,386.619-2051.236,396.867-2038.588,396.867z"/>
		</g>
	</g>
</g>
<rect x="-1624" y="254" fill="#E6E6E6" width="566" height="23"/>
<rect x="-2230" y="960" fill="#FCFCFC" width="172" height="106"/>
<text transform="matrix(1 0 0 1 -2230.0005 117.4258)" fill="#757575" font-family="'OstrichSans-Medium'" font-size="62.5424">Wireframe/Blueprint KIT</text>
<rect x="-2230" y="256" fill="#E6E6E6" width="95" height="6"/>
<rect x="-1615" y="263" fill="#FFFFFF" width="82" height="6"/>
<rect x="-1522" y="263" fill="#FFFFFF" width="82" height="6"/>
<rect x="-1429" y="263" fill="#FFFFFF" width="82" height="6"/>
<rect x="-1335" y="263" fill="#FFFFFF" width="82" height="6"/>
<rect x="-1242" y="263" fill="#FFFFFF" width="82" height="6"/>
<rect x="-1149" y="263" fill="#FFFFFF" width="82" height="6"/>
<rect x="-2112" y="256" fill="#E6E6E6" width="95" height="6"/>
<rect x="-1995" y="256" fill="#E6E6E6" width="95" height="6"/>
<rect x="-1877" y="256" fill="#0BC3D6" width="95" height="6"/>
<rect x="-1759" y="256" fill="#E6E6E6" width="95" height="6"/>
<circle fill="#0BC3D6" cx="-2160.75" cy="203.213" r="18.213"/>
<rect x="-1900" y="285" fill="#F7F7F7" width="140" height="14"/>
<rect x="-1900" y="270" fill="#F7F7F7" width="140" height="14"/>
<rect x="-2230" y="635" fill="#E6E6E6" width="270" height="3"/>
<rect x="-1700" y="189" fill="#E6E6E6" width="34" height="3"/>
<rect x="-1738" y="189" fill="#E6E6E6" width="34" height="3"/>
<rect x="-1776" y="189" fill="#E6E6E6" width="34" height="3"/>
<rect x="-2219" y="996" fill="#E6E6E6" width="150" height="3"/>
<rect x="-2219" y="1004" fill="#E6E6E6" width="150" height="3"/>
<rect x="-2219" y="1012" fill="#E6E6E6" width="150" height="3"/>
<rect x="-2219" y="1020" fill="#E6E6E6" width="78" height="3"/>
<rect x="-2230" y="643" fill="#E6E6E6" width="270" height="3"/>
<rect x="-2230" y="652" fill="#E6E6E6" width="270" height="3"/>
<rect x="-2230" y="660" fill="#E6E6E6" width="270" height="3"/>
<rect x="-2230" y="669" fill="#E6E6E6" width="270" height="3"/>
<rect x="-2230" y="677" fill="#E6E6E6" width="270" height="3"/>
<rect x="-2230" y="686" fill="#E6E6E6" width="270" height="3"/>
<rect x="-2230" y="694" fill="#E6E6E6" width="93" height="3"/>
<rect x="-2230" y="618" fill="#E6E6E6" width="38" height="11"/>
<rect x="-2196" y="878" fill="#E6E6E6" width="496" height="3"/>
<rect x="-2232" y="886" fill="#E6E6E6" width="568" height="3"/>
<rect x="-2212" y="894" fill="#E6E6E6" width="528" height="3"/>
<rect x="-2127" y="902" fill="#E6E6E6" width="358" height="3"/>
<rect x="-2016" y="861" fill="#E6E6E6" width="136" height="11"/>
<rect x="-2232" y="793" fill="#E6E6E6" width="568" height="3"/>
<rect x="-2232" y="801" fill="#E6E6E6" width="568" height="3"/>
<rect x="-2232" y="809" fill="#E6E6E6" width="568" height="3"/>
<rect x="-2232" y="818" fill="#E6E6E6" width="358" height="3"/>
<rect x="-2232" y="776" fill="#E6E6E6" width="136" height="11"/>
<rect x="-2093" y="776" fill="#E6E6E6" width="146" height="11"/>
<rect x="-1624" y="956" fill="#E6E6E6" width="72" height="11"/>
<rect x="-1549" y="956" fill="#E6E6E6" width="48" height="11"/>
<rect x="-2189" y="618" fill="#E6E6E6" width="79" height="11"/>
<rect x="-1624" y="1046" fill="#E6E6E6" width="369" height="3"/>
<rect x="-1624" y="1054" fill="#E6E6E6" width="369" height="3"/>
<rect x="-1624" y="1063" fill="#E6E6E6" width="369" height="3"/>
<rect x="-1624" y="1071" fill="#E6E6E6" width="369" height="3"/>
<rect x="-1624" y="1080" fill="#E6E6E6" width="369" height="3"/>
<rect x="-1624" y="1088" fill="#E6E6E6" width="369" height="3"/>
<rect x="-1624" y="1097" fill="#E6E6E6" width="369" height="3"/>
<rect x="-1624" y="1105" fill="#E6E6E6" width="204" height="3"/>
<rect x="-1624" y="1029" fill="#E6E6E6" width="141" height="11"/>
<rect x="-1480" y="1029" fill="#E6E6E6" width="79" height="11"/>
<g>
	<rect x="-1865" y="635" fill="#F7F7F7" width="201" height="3"/>
	<rect x="-1865" y="643" fill="#F7F7F7" width="120" height="3"/>
	<rect x="-1865" y="660" fill="#E6E6E6" width="201" height="3"/>
	<rect x="-1865" y="669" fill="#E6E6E6" width="201" height="3"/>
	<rect x="-1865" y="677" fill="#E6E6E6" width="201" height="3"/>
	<rect x="-1865" y="686" fill="#E6E6E6" width="201" height="3"/>
	<rect x="-1865" y="694" fill="#E6E6E6" width="64" height="3"/>
	<rect x="-1865" y="618" fill="#E6E6E6" width="81" height="11"/>
	<rect x="-1781" y="618" fill="#E6E6E6" width="59" height="11"/>
</g>
<g>
	<rect x="-1308" y="328" fill="#F7F7F7" width="250" height="3"/>
	<rect x="-1308" y="336" fill="#F7F7F7" width="120" height="3"/>
	<rect x="-1308" y="353" fill="#E6E6E6" width="250" height="3"/>
	<rect x="-1308" y="362" fill="#E6E6E6" width="250" height="3"/>
	<rect x="-1308" y="370" fill="#E6E6E6" width="250" height="3"/>
	<rect x="-1308" y="379" fill="#E6E6E6" width="250" height="3"/>
	<rect x="-1308" y="387" fill="#E6E6E6" width="64" height="3"/>
	<rect x="-1308" y="311" fill="#E6E6E6" width="81" height="11"/>
	<rect x="-1224" y="311" fill="#E6E6E6" width="59" height="11"/>
</g>
<path fill="#0BC3D6" d="M-2163,722.761c0,2.894-2.345,5.239-5.238,5.239h-56.523c-2.893,0-5.238-2.346-5.238-5.239v-0.521
	c0-2.894,2.345-5.239,5.238-5.239h56.523c2.893,0,5.238,2.346,5.238,5.239V722.761z"/>
<path fill="#0BC3D6" d="M-1870,564c0,6.627-5.373,12-12,12h-130c-6.627,0-12-5.373-12-12v-1c0-6.627,5.373-12,12-12h130
	c6.627,0,12,5.373,12,12V564z"/>
<g>
	<defs>
		<path id="SVGID_1_" d="M-2145,1042.233c0,3.185-2.582,5.767-5.766,5.767h-62.468c-3.185,0-5.766-2.582-5.766-5.767v-0.467
			c0-3.185,2.582-5.767,5.766-5.767h62.468c3.185,0,5.766,2.582,5.766,5.767V1042.233z"/>
	</defs>
	<clipPath id="SVGID_2_">
		<use xlink:href="#SVGID_1_"  overflow="visible"/>
	</clipPath>
	<g clip-path="url(#SVGID_2_)">
		
			<line fill="none" stroke="#0BC3D6" stroke-width="2" stroke-miterlimit="10" x1="-2179.667" y1="1012" x2="-2130.499" y2="1061.167"/>
		
			<line fill="none" stroke="#0BC3D6" stroke-width="2" stroke-miterlimit="10" x1="-2213.667" y1="1021" x2="-2164.499" y2="1070.167"/>
		
			<line fill="none" stroke="#0BC3D6" stroke-width="2" stroke-miterlimit="10" x1="-2196.667" y1="1016" x2="-2147.499" y2="1065.167"/>
		
			<line fill="none" stroke="#0BC3D6" stroke-width="2" stroke-miterlimit="10" x1="-2230.667" y1="1025" x2="-2181.499" y2="1074.167"/>
		
			<line fill="none" stroke="#0BC3D6" stroke-width="2" stroke-miterlimit="10" x1="-2188.667" y1="1014" x2="-2139.499" y2="1063.167"/>
		
			<line fill="none" stroke="#0BC3D6" stroke-width="2" stroke-miterlimit="10" x1="-2222.667" y1="1023" x2="-2173.499" y2="1072.167"/>
		
			<line fill="none" stroke="#0BC3D6" stroke-width="2" stroke-miterlimit="10" x1="-2205.667" y1="1018" x2="-2156.499" y2="1067.167"/>
		
			<line fill="none" stroke="#0BC3D6" stroke-width="2" stroke-miterlimit="10" x1="-2239.667" y1="1027" x2="-2190.499" y2="1076.167"/>
	</g>
	<use xlink:href="#SVGID_1_"  overflow="visible" fill="none" stroke="#0BC3D6" stroke-width="2" stroke-miterlimit="10"/>
</g>
<path fill="#0BC3D6" d="M-2089,722.761c0,2.894-2.345,5.239-5.238,5.239h-56.523c-2.893,0-5.238-2.346-5.238-5.239v-0.521
	c0-2.894,2.345-5.239,5.238-5.239h56.523c2.893,0,5.238,2.346,5.238,5.239V722.761z"/>
<g>
	<rect x="-1624" y="874" fill="#E6E6E6" width="172" height="76"/>
	<g>
		<polygon fill="#F7F7F7" points="-1612.153,942.535 -1463.847,942.535 -1475.147,905.843 -1486.865,915.146 -1500.692,894.815 
			-1566.554,929.079 -1592.231,920.887 		"/>
		<g>
			<circle fill="#F7F7F7" cx="-1568.575" cy="902.649" r="8.085"/>
		</g>
	</g>
</g>
<g>
	<rect x="-1427" y="874" fill="#E6E6E6" width="172" height="76"/>
	<g>
		<polygon fill="#F7F7F7" points="-1415.153,942.535 -1266.847,942.535 -1278.146,905.843 -1289.865,915.146 -1303.691,894.815 
			-1369.555,929.079 -1395.231,920.887 		"/>
		<g>
			<circle fill="#F7F7F7" cx="-1371.575" cy="902.649" r="8.085"/>
		</g>
	</g>
</g>
<g>
	<rect x="-1230" y="874" fill="#E6E6E6" width="172" height="76"/>
	<g>
		<polygon fill="#F7F7F7" points="-1218.153,942.535 -1069.847,942.535 -1081.146,905.843 -1092.865,915.146 -1106.691,894.815 
			-1172.555,929.079 -1198.231,920.887 		"/>
		<g>
			<circle fill="#F7F7F7" cx="-1174.575" cy="902.649" r="8.085"/>
		</g>
	</g>
</g>
<circle fill="#E6E6E6" cx="-1903.333" cy="640.667" r="22.667"/>
<circle fill="#E6E6E6" cx="-1601.333" cy="664.667" r="22.667"/>
<circle fill="#E6E6E6" cx="-1526.952" cy="664.667" r="22.667"/>
<circle fill="#E6E6E6" cx="-1452.571" cy="664.667" r="22.667"/>
<circle fill="#E6E6E6" cx="-1378.19" cy="664.667" r="22.667"/>
<circle fill="#E6E6E6" cx="-1229.429" cy="664.667" r="22.667"/>
<circle fill="#E6E6E6" cx="-1155.048" cy="664.667" r="22.667"/>
<circle fill="#E6E6E6" cx="-1080.667" cy="664.667" r="22.667"/>
<rect x="-2219" y="978" fill="#E6E6E6" width="110" height="11"/>
<rect x="-2033" y="960" fill="#FCFCFC" width="172" height="47"/>
<rect x="-1836" y="960" fill="#FCFCFC" width="172" height="19"/>
<rect x="-1988" y="972" fill="#E6E6E6" width="74" height="11"/>
<rect x="-1828" y="966" fill="#E6E6E6" width="54" height="8"/>
<rect x="-2023" y="970" fill="#E6E6E6" width="27" height="28"/>
<rect x="-2033" y="1008" fill="#FCFCFC" width="172" height="104"/>
<g>
	<rect x="-2023" y="1019" fill="#E6E6E6" width="27" height="28"/>
	<rect x="-1992" y="1019" fill="#E6E6E6" width="27" height="28"/>
	<rect x="-1961" y="1019" fill="#E6E6E6" width="27" height="28"/>
	<rect x="-1929" y="1019" fill="#E6E6E6" width="27" height="28"/>
	<rect x="-1898" y="1019" fill="#E6E6E6" width="27" height="28"/>
	<rect x="-2023" y="1052" fill="#E6E6E6" width="27" height="3"/>
	<rect x="-1992" y="1052" fill="#E6E6E6" width="27" height="3"/>
	<rect x="-1961" y="1052" fill="#E6E6E6" width="27" height="3"/>
	<rect x="-1929" y="1052" fill="#E6E6E6" width="27" height="3"/>
	<rect x="-1898" y="1052" fill="#E6E6E6" width="27" height="3"/>
</g>
<g>
	<rect x="-2023" y="1066" fill="#E6E6E6" width="27" height="28"/>
	<rect x="-1992" y="1066" fill="#E6E6E6" width="27" height="28"/>
	<rect x="-1961" y="1066" fill="#E6E6E6" width="27" height="28"/>
	<rect x="-1929" y="1066" fill="#E6E6E6" width="27" height="28"/>
	<rect x="-1898" y="1066" fill="#E6E6E6" width="27" height="28"/>
	<rect x="-2023" y="1099" fill="#E6E6E6" width="27" height="3"/>
	<rect x="-1992" y="1099" fill="#E6E6E6" width="27" height="3"/>
	<rect x="-1961" y="1099" fill="#E6E6E6" width="27" height="3"/>
	<rect x="-1929" y="1099" fill="#E6E6E6" width="27" height="3"/>
	<rect x="-1898" y="1099" fill="#E6E6E6" width="27" height="3"/>
</g>
<rect x="-2033" y="1113" fill="#FCFCFC" width="172" height="18"/>
<rect x="-2010" y="1121" fill="#E6E6E6" width="77" height="3"/>
<rect x="-2023" y="1118" fill="#E6E6E6" width="9" height="9"/>
<path fill="#0BC3D6" d="M-1963,991.705c0,2.372-1.923,4.295-4.295,4.295h-16.41c-2.372,0-4.295-1.923-4.295-4.295v-0.41
	c0-2.372,1.923-4.295,4.295-4.295h16.41c2.372,0,4.295,1.923,4.295,4.295V991.705z"/>
<path fill="#0BC3D6" d="M-1671,969.705c0,2.372-1.923,4.295-4.295,4.295h-16.41c-2.372,0-4.295-1.923-4.295-4.295v-0.41
	c0-2.372,1.923-4.295,4.295-4.295h16.41c2.372,0,4.295,1.923,4.295,4.295V969.705z"/>
<g>
	<rect x="-1836" y="980" fill="#FCFCFC" width="172" height="40"/>
	<g>
		<rect x="-1828" y="986" fill="#E6E6E6" width="27" height="28"/>
		<rect x="-1797" y="990" fill="#E6E6E6" width="126" height="3"/>
		<rect x="-1797" y="996" fill="#E6E6E6" width="126" height="3"/>
		<rect x="-1797" y="1002" fill="#E6E6E6" width="126" height="3"/>
		<rect x="-1797" y="1008" fill="#E6E6E6" width="78" height="3"/>
	</g>
</g>
<g>
	<rect x="-1836" y="1021" fill="#FCFCFC" width="172" height="40"/>
	<g>
		<rect x="-1828" y="1027" fill="#E6E6E6" width="27" height="28"/>
		<rect x="-1797" y="1031" fill="#E6E6E6" width="126" height="3"/>
		<rect x="-1797" y="1037" fill="#E6E6E6" width="126" height="3"/>
		<rect x="-1797" y="1043" fill="#E6E6E6" width="126" height="3"/>
		<rect x="-1797" y="1049" fill="#E6E6E6" width="78" height="3"/>
	</g>
</g>
<g>
	<rect x="-1836" y="1062" fill="#FCFCFC" width="172" height="40"/>
	<g>
		<rect x="-1828" y="1068" fill="#E6E6E6" width="27" height="28"/>
		<rect x="-1797" y="1072" fill="#E6E6E6" width="126" height="3"/>
		<rect x="-1797" y="1078" fill="#E6E6E6" width="126" height="3"/>
		<rect x="-1797" y="1084" fill="#E6E6E6" width="126" height="3"/>
		<rect x="-1797" y="1090" fill="#E6E6E6" width="78" height="3"/>
	</g>
</g>
<g>
	<rect x="-1138" y="193" fill="#E6E6E6" width="17" height="17"/>
	<rect x="-1117" y="193" fill="#E6E6E6" width="17" height="17"/>
	<rect x="-1096" y="193" fill="#E6E6E6" width="17" height="17"/>
	<rect x="-1075" y="193" fill="#E6E6E6" width="17" height="17"/>
</g>
<rect x="-1096" y="956" fill="#E6E6E6" width="8" height="8"/>
<rect x="-1086" y="956" fill="#E6E6E6" width="8" height="8"/>
<rect x="-1076" y="956" fill="#E6E6E6" width="8" height="8"/>
<rect x="-1066" y="956" fill="#E6E6E6" width="8" height="8"/>
<rect x="-1116" y="956" fill="#E6E6E6" width="8" height="8"/>
<rect x="-1106" y="956" fill="#0BC3D6" width="8" height="8"/>
<g>
	<rect x="-1624" y="311" fill="#E6E6E6" width="301" height="169"/>
	<g>
		<polygon fill="#FFFFFF" points="-1590.177,473.063 -1576.108,466.042 -1590.177,459 		"/>
	</g>
	<g>
		<path fill="#F7F7F7" d="M-1423.551,366.734h-21.272c-0.017-0.032-0.022-0.063-0.038-0.095l-3.052-6.097
			c-0.786-1.569-2.862-2.853-4.618-2.853h-40.945c-1.755,0-3.832,1.284-4.618,2.853l-3.052,6.097
			c-0.016,0.032-0.021,0.063-0.037,0.095h-22.266c-1.755,0-3.19,1.435-3.19,3.19v60.569c0,1.755,1.435,3.19,3.19,3.19h99.898
			c1.756,0,3.19-1.435,3.19-3.19v-60.569C-1420.36,368.169-1421.795,366.734-1423.551,366.734z M-1473.438,424.5
			c-13.833,0-25.048-11.213-25.048-25.05c0-13.831,11.215-25.044,25.048-25.044s25.05,11.214,25.05,25.044
			C-1448.388,413.287-1459.605,424.5-1473.438,424.5z"/>
		<path fill="#F7F7F7" d="M-1473.438,383.267c-8.925,0-16.187,7.26-16.187,16.183c0,8.926,7.262,16.189,16.187,16.189
			c8.928,0,16.189-7.263,16.189-16.189C-1457.248,390.526-1464.51,383.267-1473.438,383.267z"/>
	</g>
	<g>
		<rect x="-1610" y="459" fill="#FFFFFF" width="5" height="14"/>
		<rect x="-1603" y="459" fill="#FFFFFF" width="5" height="14"/>
	</g>
	<g>
		<polygon fill="#FFFFFF" points="-1348.708,462.792 -1351.632,462.792 -1351.632,468.628 -1348.688,468.628 -1342.879,474.445 
			-1342.879,456.943 -1348.708,462.781 		"/>
		<path fill="#FFFFFF" d="M-1340.639,462.012l-0.88,1.727v0.042c0.553,0.449,0.912,1.124,0.912,1.89s-0.359,1.441-0.912,1.89v0.007
			l0.894,1.754c1.182-0.785,1.961-2.125,1.961-3.65C-1338.664,464.14-1339.449,462.795-1340.639,462.012z"/>
		<path fill="#FFFFFF" d="M-1334.202,465.67c0-3.256-1.79-6.089-4.438-7.583l-0.867,1.703v0.041c2.007,1.176,3.362,3.35,3.362,5.839
			c0,2.49-1.355,4.664-3.362,5.839v0.006l0.883,1.731C-1335.985,471.749-1334.202,468.92-1334.202,465.67z"/>
	</g>
</g>
<rect x="-1427" y="956" fill="#E6E6E6" width="171" height="3"/>
<rect x="-1427" y="965" fill="#E6E6E6" width="121" height="3"/>
<rect x="-2130" y="186" fill="#0BC3D6" width="35" height="35"/>
<polygon fill="#0BC3D6" points="-2229.361,221 -2209,185.733 -2188.639,221 "/>
<g>
	<rect x="-1624" y="509" fill="#E6E6E6" width="281" height="76"/>
	<g>
		<polygon fill="#F7F7F7" points="-1557.654,571.122 -1409.346,571.122 -1420.646,534.431 -1432.364,543.734 -1446.192,523.403 
			-1512.055,557.667 -1537.732,549.475 		"/>
		<g>
			<circle fill="#F7F7F7" cx="-1514.076" cy="531.237" r="8.085"/>
		</g>
	</g>
</g>
<g>
	<rect x="-1339" y="509" fill="#E6E6E6" width="281" height="76"/>
	<g>
		<polygon fill="#F7F7F7" points="-1272.654,571.122 -1124.346,571.122 -1135.646,534.431 -1147.363,543.734 -1161.191,523.403 
			-1227.055,557.667 -1252.732,549.475 		"/>
		<g>
			<circle fill="#F7F7F7" cx="-1229.076" cy="531.237" r="8.085"/>
		</g>
	</g>
</g>
<g>
	<rect x="-1404" y="808" fill="#E6E6E6" width="125" height="22"/>
	<rect x="-1372" y="799" fill="#E6E6E6" width="93" height="12"/>
</g>
<line fill="#FCFCFC" stroke="#E6E6E6" stroke-width="2" stroke-miterlimit="10" x1="-1602" y1="687" x2="-1602" y2="730"/>
<line fill="#FCFCFC" stroke="#E6E6E6" stroke-width="2" stroke-miterlimit="10" x1="-1527" y1="687" x2="-1527" y2="730"/>
<line fill="#FCFCFC" stroke="#E6E6E6" stroke-width="2" stroke-miterlimit="10" x1="-1453" y1="687" x2="-1453" y2="730"/>
<line fill="#FCFCFC" stroke="#E6E6E6" stroke-width="2" stroke-miterlimit="10" x1="-1378" y1="687" x2="-1378" y2="730"/>
<line fill="#FCFCFC" stroke="#E6E6E6" stroke-width="2" stroke-miterlimit="10" x1="-1303" y1="687" x2="-1303" y2="730"/>
<line fill="#FCFCFC" stroke="#E6E6E6" stroke-width="2" stroke-miterlimit="10" x1="-1229" y1="687" x2="-1229" y2="730"/>
<line fill="#FCFCFC" stroke="#E6E6E6" stroke-width="2" stroke-miterlimit="10" x1="-1155" y1="687" x2="-1155" y2="730"/>
<line fill="#FCFCFC" stroke="#E6E6E6" stroke-width="2" stroke-miterlimit="10" x1="-1081" y1="687" x2="-1081" y2="730"/>
<line fill="none" stroke="#E6E6E6" stroke-width="2" stroke-miterlimit="10" x1="-1602" y1="730" x2="-1081" y2="730"/>
<line fill="none" stroke="#E6E6E6" stroke-width="2" stroke-miterlimit="10" x1="-1341" y1="730" x2="-1341" y2="772"/>
<polygon fill="#E6E6E6" points="-1330.255,768 -1341,786.61 -1351.745,768 "/>
<rect x="-1230" y="1071" fill="#E6E6E6" width="55" height="57"/>
<rect x="-1171" y="1071" fill="#E6E6E6" width="55" height="57"/>
<rect x="-1112" y="1071" fill="#E6E6E6" width="55" height="57"/>
<rect x="-1230" y="1010" fill="#E6E6E6" width="55" height="57"/>
<rect x="-1171" y="1010" fill="#E6E6E6" width="55" height="57"/>
<rect x="-1112" y="1010" fill="#E6E6E6" width="55" height="57"/>
<circle fill="#0BC3D6" cx="-1303.81" cy="664.667" r="22.667"/>
<g>
	<rect x="-610" y="74" fill="#E6E6E6" width="209" height="18"/>
	<rect x="-348" y="60" fill="#E6E6E6" width="327" height="45"/>
	<rect x="-565" y="129" fill="#E6E6E6" width="164" height="19"/>
	<rect x="-348" y="115" fill="#E6E6E6" width="327" height="44"/>
	<rect x="-649" y="183" fill="#E6E6E6" width="248" height="20"/>
	<rect x="-348" y="170" fill="#E6E6E6" width="327" height="45"/>
	<rect x="-624" y="239" fill="#E6E6E6" width="223" height="19"/>
	<rect x="-348" y="225" fill="#E6E6E6" width="327" height="45"/>
	<rect x="-678" fill="#E6E6E6" width="277" height="25"/>
	<rect x="-348" y="416" fill="#E6E6E6" width="163" height="45"/>
	<rect x="-348" y="331" fill="#E6E6E6" width="11" height="11"/>
	<rect x="-306" y="327" fill="#E6E6E6" width="286" height="20"/>
	<rect x="-306" y="360" fill="#E6E6E6" width="286" height="20"/>
	<g>
		<g>
			<line fill="none" stroke="#0062A9" stroke-miterlimit="10" x1="-374.5" y1="13" x2="-374.5" y2="429"/>
			<g>
				<polygon fill="#0062A9" points="-381.857,427 -374.891,439.064 -367.924,427 				"/>
			</g>
		</g>
	</g>
</g>
<g>
	<rect y="74" fill="#E6E6E6" width="210" height="18"/>
	<rect x="372" y="60" fill="#E6E6E6" width="328" height="45"/>
	<rect y="127" fill="#E6E6E6" width="165" height="20"/>
	<rect x="372" y="115" fill="#E6E6E6" width="328" height="45"/>
	<rect y="183" fill="#E6E6E6" width="248" height="20"/>
	<rect x="372" y="171" fill="#E6E6E6" width="328" height="45"/>
	<rect y="238" fill="#E6E6E6" width="224" height="20"/>
	<rect x="372" y="225" fill="#E6E6E6" width="328" height="45"/>
	<rect fill="#E6E6E6" width="277" height="25"/>
	<rect y="332" fill="#E6E6E6" width="11" height="11"/>
	<rect x="34" y="328" fill="#E6E6E6" width="520" height="19"/>
	<rect x="372" y="389" fill="#E6E6E6" width="164" height="45"/>
	<g>
		<g>
			<polyline fill="none" stroke="#0062A9" stroke-miterlimit="10" points="294.7,13.028 224.7,83.5 359.1,83.5 175,137.979 
				359.1,139.139 259.7,193.5 359.1,193.5 234.5,248.5 359.1,248.5 44.8,317.078 6.3,327.567 349.328,409.466 			"/>
			<g>
				<polygon fill="#0062A9" points="345.721,415.716 359.1,411.731 348.961,402.136 				"/>
			</g>
		</g>
	</g>
	<path fill="none" stroke="#0062A9" stroke-width="1.4" stroke-miterlimit="10" d="M359.1,83.956"/>
</g>
<g>
	<g>
		<path fill="#0062A9" d="M748.697,74H738.04V57.535h10.417v1.776h-8.353v5.232h6.624v1.656h-6.624v6.024h8.593V74z"/>
		<path fill="#0062A9" d="M751.384,74V57.535h1.872V74H751.384z"/>
		<path fill="#0062A9" d="M766.864,70.664c-0.72,2.232-2.856,3.577-5.185,3.577c-3.696,0-5.593-2.929-5.593-6.337
			c0-3.36,1.992-6.408,5.641-6.408c3.793,0,5.425,3.168,5.329,6.552h-8.857c0,0.96,0.048,1.848,0.504,2.76
			c0.576,1.152,1.849,1.848,3.121,1.848c1.584,0,2.735-0.912,3.264-2.352L766.864,70.664z M764.992,66.655
			c0.023-2.016-1.104-3.72-3.265-3.72c-2.04,0-3.36,1.8-3.432,3.72H764.992z"/>
		<path fill="#0062A9" d="M771.495,61.807v2.352h0.049c0.624-1.464,1.943-2.664,3.647-2.664c1.776,0,3.049,1.2,3.433,2.904
			c0.672-1.68,2.064-2.904,3.937-2.904c1.248,0,2.448,0.696,3.072,1.752c0.6,1.008,0.576,2.352,0.576,3.48V74h-1.872v-7.272
			c0-0.816,0.048-1.68-0.336-2.424c-0.408-0.792-1.2-1.272-2.041-1.272c-0.936,0-1.8,0.576-2.352,1.368
			c-0.696,0.984-0.672,1.872-0.672,3.024V74h-1.873v-7.729c0-0.672-0.048-1.464-0.407-2.064c-0.433-0.72-1.225-1.176-2.04-1.176
			c-0.841,0-1.705,0.552-2.209,1.2c-0.624,0.792-0.744,1.776-0.744,2.785V74h-1.872V61.807H771.495z"/>
		<path fill="#0062A9" d="M799.505,70.664c-0.72,2.232-2.856,3.577-5.185,3.577c-3.696,0-5.593-2.929-5.593-6.337
			c0-3.36,1.992-6.408,5.641-6.408c3.793,0,5.425,3.168,5.329,6.552h-8.857c0,0.96,0.048,1.848,0.504,2.76
			c0.576,1.152,1.849,1.848,3.121,1.848c1.584,0,2.735-0.912,3.264-2.352L799.505,70.664z M797.633,66.655
			c0.023-2.016-1.104-3.72-3.265-3.72c-2.04,0-3.36,1.8-3.432,3.72H797.633z"/>
		<path fill="#0062A9" d="M804.231,64.063h0.048c0.696-1.512,2.064-2.568,3.792-2.568c1.464,0,2.688,0.624,3.456,1.896
			c0.624,1.032,0.576,2.664,0.576,3.864V74h-1.872v-7.537c0-0.72,0.024-1.632-0.336-2.256c-0.408-0.696-1.296-1.104-2.088-1.104
			c-0.984,0-1.872,0.456-2.521,1.224c-0.792,0.96-0.96,2.064-0.96,3.288V74h-1.872V61.807h1.776V64.063z"/>
		<path fill="#0062A9" d="M821.247,74.096l-1.8,0.144c-2.664,0-3.456-1.561-3.456-3.984v-7.057h-2.16v-1.488h2.16v-3.024
			l1.872-0.192v3.216h2.712v1.488h-2.712v7.369c0,1.416,0.408,2.16,1.944,2.16l1.439-0.12V74.096z"/>
	</g>
	<rect x="719" y="126" fill="#E6E6E6" width="700" height="42"/>
	<rect x="736" y="143" fill="#FFFFFF" width="149" height="11"/>
	<rect x="906" y="143" fill="#FFFFFF" width="149" height="11"/>
	<rect x="1076" y="143" fill="#FFFFFF" width="149" height="11"/>
	<rect x="1247" y="143" fill="#FFFFFF" width="150" height="11"/>
	<g>
		<path fill="#0062A9" d="M918.697,74H908.04V57.535h10.417v1.776h-8.353v5.232h6.624v1.656h-6.624v6.024h8.593V74z"/>
		<path fill="#0062A9" d="M921.384,74V57.535h1.872V74H921.384z"/>
		<path fill="#0062A9" d="M936.864,70.664c-0.72,2.232-2.856,3.577-5.185,3.577c-3.696,0-5.593-2.929-5.593-6.337
			c0-3.36,1.992-6.408,5.641-6.408c3.793,0,5.425,3.168,5.329,6.552h-8.857c0,0.96,0.048,1.848,0.504,2.76
			c0.576,1.152,1.849,1.848,3.121,1.848c1.584,0,2.735-0.912,3.264-2.352L936.864,70.664z M934.992,66.655
			c0.023-2.016-1.104-3.72-3.265-3.72c-2.04,0-3.36,1.8-3.432,3.72H934.992z"/>
		<path fill="#0062A9" d="M941.495,61.807v2.352h0.049c0.624-1.464,1.943-2.664,3.647-2.664c1.776,0,3.049,1.2,3.433,2.904
			c0.672-1.68,2.064-2.904,3.937-2.904c1.248,0,2.448,0.696,3.072,1.752c0.6,1.008,0.576,2.352,0.576,3.48V74h-1.872v-7.272
			c0-0.816,0.048-1.68-0.336-2.424c-0.408-0.792-1.2-1.272-2.041-1.272c-0.936,0-1.8,0.576-2.352,1.368
			c-0.696,0.984-0.672,1.872-0.672,3.024V74h-1.873v-7.729c0-0.672-0.048-1.464-0.407-2.064c-0.433-0.72-1.225-1.176-2.04-1.176
			c-0.841,0-1.705,0.552-2.209,1.2c-0.624,0.792-0.744,1.776-0.744,2.785V74h-1.872V61.807H941.495z"/>
		<path fill="#0062A9" d="M969.505,70.664c-0.72,2.232-2.856,3.577-5.185,3.577c-3.696,0-5.593-2.929-5.593-6.337
			c0-3.36,1.992-6.408,5.641-6.408c3.793,0,5.425,3.168,5.329,6.552h-8.857c0,0.96,0.048,1.848,0.504,2.76
			c0.576,1.152,1.849,1.848,3.121,1.848c1.584,0,2.735-0.912,3.264-2.352L969.505,70.664z M967.633,66.655
			c0.023-2.016-1.104-3.72-3.265-3.72c-2.04,0-3.36,1.8-3.432,3.72H967.633z"/>
		<path fill="#0062A9" d="M974.231,64.063h0.048c0.696-1.512,2.064-2.568,3.792-2.568c1.464,0,2.688,0.624,3.456,1.896
			c0.624,1.032,0.576,2.664,0.576,3.864V74h-1.872v-7.537c0-0.72,0.024-1.632-0.336-2.256c-0.408-0.696-1.296-1.104-2.088-1.104
			c-0.984,0-1.872,0.456-2.521,1.224c-0.792,0.96-0.96,2.064-0.96,3.288V74h-1.872V61.807h1.776V64.063z"/>
		<path fill="#0062A9" d="M991.247,74.096l-1.8,0.144c-2.664,0-3.456-1.561-3.456-3.984v-7.057h-2.16v-1.488h2.16v-3.024
			l1.872-0.192v3.216h2.712v1.488h-2.712v7.369c0,1.416,0.408,2.16,1.944,2.16l1.439-0.12V74.096z"/>
	</g>
	<g>
		<path fill="#0062A9" d="M1088.697,74h-10.657V57.535h10.417v1.776h-8.353v5.232h6.624v1.656h-6.624v6.024h8.593V74z"/>
		<path fill="#0062A9" d="M1091.384,74V57.535h1.872V74H1091.384z"/>
		<path fill="#0062A9" d="M1106.864,70.664c-0.72,2.232-2.856,3.577-5.185,3.577c-3.696,0-5.593-2.929-5.593-6.337
			c0-3.36,1.992-6.408,5.641-6.408c3.793,0,5.425,3.168,5.329,6.552h-8.857c0,0.96,0.048,1.848,0.504,2.76
			c0.576,1.152,1.849,1.848,3.121,1.848c1.584,0,2.735-0.912,3.264-2.352L1106.864,70.664z M1104.992,66.655
			c0.023-2.016-1.104-3.72-3.265-3.72c-2.04,0-3.36,1.8-3.432,3.72H1104.992z"/>
		<path fill="#0062A9" d="M1111.495,61.807v2.352h0.049c0.624-1.464,1.943-2.664,3.647-2.664c1.776,0,3.049,1.2,3.433,2.904
			c0.672-1.68,2.064-2.904,3.937-2.904c1.248,0,2.448,0.696,3.072,1.752c0.6,1.008,0.576,2.352,0.576,3.48V74h-1.872v-7.272
			c0-0.816,0.048-1.68-0.336-2.424c-0.408-0.792-1.2-1.272-2.041-1.272c-0.936,0-1.8,0.576-2.352,1.368
			c-0.696,0.984-0.672,1.872-0.672,3.024V74h-1.873v-7.729c0-0.672-0.048-1.464-0.407-2.064c-0.433-0.72-1.225-1.176-2.04-1.176
			c-0.841,0-1.705,0.552-2.209,1.2c-0.624,0.792-0.744,1.776-0.744,2.785V74h-1.872V61.807H1111.495z"/>
		<path fill="#0062A9" d="M1139.505,70.664c-0.72,2.232-2.856,3.577-5.185,3.577c-3.696,0-5.593-2.929-5.593-6.337
			c0-3.36,1.992-6.408,5.641-6.408c3.793,0,5.425,3.168,5.329,6.552h-8.857c0,0.96,0.048,1.848,0.504,2.76
			c0.576,1.152,1.849,1.848,3.121,1.848c1.584,0,2.735-0.912,3.264-2.352L1139.505,70.664z M1137.633,66.655
			c0.023-2.016-1.104-3.72-3.265-3.72c-2.04,0-3.36,1.8-3.432,3.72H1137.633z"/>
		<path fill="#0062A9" d="M1144.231,64.063h0.048c0.696-1.512,2.064-2.568,3.792-2.568c1.464,0,2.688,0.624,3.456,1.896
			c0.624,1.032,0.576,2.664,0.576,3.864V74h-1.872v-7.537c0-0.72,0.024-1.632-0.336-2.256c-0.408-0.696-1.296-1.104-2.088-1.104
			c-0.984,0-1.872,0.456-2.521,1.224c-0.792,0.96-0.96,2.064-0.96,3.288V74h-1.872V61.807h1.776V64.063z"/>
		<path fill="#0062A9" d="M1161.247,74.096l-1.8,0.144c-2.664,0-3.456-1.561-3.456-3.984v-7.057h-2.16v-1.488h2.16v-3.024
			l1.872-0.192v3.216h2.712v1.488h-2.712v7.369c0,1.416,0.408,2.16,1.944,2.16l1.439-0.12V74.096z"/>
	</g>
	<g>
		<path fill="#0062A9" d="M1259.697,74h-10.657V57.535h10.417v1.776h-8.353v5.232h6.624v1.656h-6.624v6.024h8.593V74z"/>
		<path fill="#0062A9" d="M1262.384,74V57.535h1.872V74H1262.384z"/>
		<path fill="#0062A9" d="M1277.864,70.664c-0.72,2.232-2.856,3.577-5.185,3.577c-3.696,0-5.593-2.929-5.593-6.337
			c0-3.36,1.992-6.408,5.641-6.408c3.793,0,5.425,3.168,5.329,6.552h-8.857c0,0.96,0.048,1.848,0.504,2.76
			c0.576,1.152,1.849,1.848,3.121,1.848c1.584,0,2.735-0.912,3.264-2.352L1277.864,70.664z M1275.992,66.655
			c0.023-2.016-1.104-3.72-3.265-3.72c-2.04,0-3.36,1.8-3.432,3.72H1275.992z"/>
		<path fill="#0062A9" d="M1282.495,61.807v2.352h0.049c0.624-1.464,1.943-2.664,3.647-2.664c1.776,0,3.049,1.2,3.433,2.904
			c0.672-1.68,2.064-2.904,3.937-2.904c1.248,0,2.448,0.696,3.072,1.752c0.6,1.008,0.576,2.352,0.576,3.48V74h-1.872v-7.272
			c0-0.816,0.048-1.68-0.336-2.424c-0.408-0.792-1.2-1.272-2.041-1.272c-0.936,0-1.8,0.576-2.352,1.368
			c-0.696,0.984-0.672,1.872-0.672,3.024V74h-1.873v-7.729c0-0.672-0.048-1.464-0.407-2.064c-0.433-0.72-1.225-1.176-2.04-1.176
			c-0.841,0-1.705,0.552-2.209,1.2c-0.624,0.792-0.744,1.776-0.744,2.785V74h-1.872V61.807H1282.495z"/>
		<path fill="#0062A9" d="M1310.505,70.664c-0.72,2.232-2.856,3.577-5.185,3.577c-3.696,0-5.593-2.929-5.593-6.337
			c0-3.36,1.992-6.408,5.641-6.408c3.793,0,5.425,3.168,5.329,6.552h-8.857c0,0.96,0.048,1.848,0.504,2.76
			c0.576,1.152,1.849,1.848,3.121,1.848c1.584,0,2.735-0.912,3.264-2.352L1310.505,70.664z M1308.633,66.655
			c0.023-2.016-1.104-3.72-3.265-3.72c-2.04,0-3.36,1.8-3.432,3.72H1308.633z"/>
		<path fill="#0062A9" d="M1315.231,64.063h0.048c0.696-1.512,2.064-2.568,3.792-2.568c1.464,0,2.688,0.624,3.456,1.896
			c0.624,1.032,0.576,2.664,0.576,3.864V74h-1.872v-7.537c0-0.72,0.024-1.632-0.336-2.256c-0.408-0.696-1.296-1.104-2.088-1.104
			c-0.984,0-1.872,0.456-2.521,1.224c-0.792,0.96-0.96,2.064-0.96,3.288V74h-1.872V61.807h1.776V64.063z"/>
		<path fill="#0062A9" d="M1332.247,74.096l-1.8,0.144c-2.664,0-3.456-1.561-3.456-3.984v-7.057h-2.16v-1.488h2.16v-3.024
			l1.872-0.192v3.216h2.712v1.488h-2.712v7.369c0,1.416,0.408,2.16,1.944,2.16l1.439-0.12V74.096z"/>
	</g>
	<g>
		<g>
			<path fill="none" stroke="#0062A9" stroke-miterlimit="10" d="M787,92c0,0,19.442,11.834,22.576,37.834"/>
			<g>
				<polygon fill="#0062A9" points="804.375,128.767 810,137 814.318,128.013 				"/>
			</g>
		</g>
	</g>
	<g>
		<g>
			<path fill="none" stroke="#0062A9" stroke-miterlimit="10" d="M958,92c0,0,19.442,11.834,22.576,37.834"/>
			<g>
				<polygon fill="#0062A9" points="975.375,128.767 981,137 985.318,128.013 				"/>
			</g>
		</g>
	</g>
	<g>
		<g>
			<path fill="none" stroke="#0062A9" stroke-miterlimit="10" d="M1128,92c0,0,19.442,11.834,22.576,37.834"/>
			<g>
				<polygon fill="#0062A9" points="1145.375,128.767 1151,137 1155.318,128.013 				"/>
			</g>
		</g>
	</g>
	<g>
		<g>
			<path fill="none" stroke="#0062A9" stroke-miterlimit="10" d="M1299,95c0,0,19.442,11.834,22.576,37.834"/>
			<g>
				<polygon fill="#0062A9" points="1316.375,131.767 1322,140 1326.318,131.013 				"/>
			</g>
		</g>
	</g>
</g>
<rect x="1456" y="83" fill="#FFFFFF" width="149" height="11"/>
<rect x="1626" y="83" fill="#FFFFFF" width="149" height="11"/>
<rect x="1796" y="83" fill="#FFFFFF" width="149" height="11"/>
<rect x="1967" y="83" fill="#FFFFFF" width="150" height="11"/>
<g>
	<path fill="#0062A9" d="M1762.386,19.92V3.455h6.217c1.271,0,2.279,0.048,3.384,0.768c1.104,0.744,1.729,1.896,1.729,3.24
		c0,1.872-1.104,3.264-2.904,3.696v0.048c2.04,0.432,3.408,2.064,3.408,4.176c0,1.393-0.48,2.617-1.584,3.48
		c-1.248,0.984-2.545,1.056-4.057,1.056H1762.386z M1767.642,10.511c1.032,0,2.16,0.024,3.001-0.624
		c0.672-0.48,1.032-1.368,1.032-2.16c0-0.984-0.385-1.68-1.225-2.185c-0.72-0.408-1.464-0.408-2.28-0.408h-3.72v5.376H1767.642z
		 M1768.482,18.168c0.912,0,1.92-0.096,2.64-0.672c0.696-0.528,1.032-1.32,1.032-2.208c0-0.984-0.432-1.968-1.2-2.568
		c-0.792-0.624-1.824-0.624-2.76-0.624h-3.744v6.073H1768.482z"/>
	<path fill="#0062A9" d="M1777.266,19.92V3.455h1.872V19.92H1777.266z"/>
	<path fill="#0062A9" d="M1787.682,7.415c3.576,0,5.353,3.12,5.353,6.336c0,3.408-1.969,6.409-5.665,6.409
		c-3.647,0-5.28-3.216-5.28-6.433C1782.089,10.343,1784.01,7.415,1787.682,7.415z M1784.873,17.063
		c0.528,0.937,1.561,1.536,2.665,1.536c1.248,0,2.231-0.648,2.808-1.752c0.504-0.96,0.601-2.064,0.601-3.12
		c0-1.152-0.145-2.353-0.769-3.336c-0.576-0.888-1.584-1.44-2.64-1.44c-1.177,0-2.232,0.672-2.761,1.728
		c-0.456,0.888-0.6,2.064-0.6,3.048C1784.178,14.832,1784.346,16.104,1784.873,17.063z"/>
	<path fill="#0062A9" d="M1804.746,15.888c-0.433,2.472-2.088,4.272-4.704,4.272c-3.625,0-5.185-3.145-5.185-6.337
		c0-3.168,1.584-6.408,5.208-6.408c2.641,0,4.272,1.704,4.681,4.224l-1.729,0.312c-0.168-1.608-1.152-2.952-2.904-2.952
		c-2.544,0-3.264,2.664-3.264,4.705c0,1.968,0.6,4.848,3.144,4.848c1.824,0,2.713-1.32,3.024-2.976L1804.746,15.888z"/>
	<path fill="#0062A9" d="M1815.377,19.92l-3.552-6.792l-2.616,3.024v3.769h-1.872V3.455h1.872v10.537l5.641-6.216h2.016
		l-3.792,4.272l4.296,7.873H1815.377z"/>
</g>
<path fill="none" stroke="#0062A9" stroke-miterlimit="10" d="M1439,55.261c0,0,0-19.761,18.189-19.761h325.261
	c8.023-1,6.42-8.25,6.42-8.25"/>
<path fill="none" stroke="#0062A9" stroke-miterlimit="10" d="M2139,55.261c0,0,0-19.761-18.188-19.761H1795.55
	c-8.022-1-6.419-8.25-6.419-8.25"/>
<g>
	<g>
		<path fill="#0062A9" d="M1468.697,79h-10.657V62.535h10.417v1.776h-8.353v5.232h6.624v1.656h-6.624v6.024h8.593V79z"/>
		<path fill="#0062A9" d="M1471.384,79V62.535h1.872V79H1471.384z"/>
		<path fill="#0062A9" d="M1486.864,75.664c-0.72,2.232-2.856,3.577-5.185,3.577c-3.696,0-5.593-2.929-5.593-6.337
			c0-3.36,1.992-6.408,5.641-6.408c3.793,0,5.425,3.168,5.329,6.552h-8.857c0,0.96,0.048,1.848,0.504,2.76
			c0.576,1.152,1.849,1.848,3.121,1.848c1.584,0,2.735-0.912,3.264-2.352L1486.864,75.664z M1484.992,71.655
			c0.023-2.016-1.104-3.72-3.265-3.72c-2.04,0-3.36,1.8-3.432,3.72H1484.992z"/>
		<path fill="#0062A9" d="M1491.495,66.807v2.352h0.049c0.624-1.464,1.943-2.664,3.647-2.664c1.776,0,3.049,1.2,3.433,2.904
			c0.672-1.68,2.064-2.904,3.937-2.904c1.248,0,2.448,0.696,3.072,1.752c0.6,1.008,0.576,2.352,0.576,3.48V79h-1.872v-7.272
			c0-0.816,0.048-1.68-0.336-2.424c-0.408-0.792-1.2-1.272-2.041-1.272c-0.936,0-1.8,0.576-2.352,1.368
			c-0.696,0.984-0.672,1.872-0.672,3.024V79h-1.873v-7.729c0-0.672-0.048-1.464-0.407-2.064c-0.433-0.72-1.225-1.176-2.04-1.176
			c-0.841,0-1.705,0.552-2.209,1.2c-0.624,0.792-0.744,1.776-0.744,2.785V79h-1.872V66.807H1491.495z"/>
		<path fill="#0062A9" d="M1519.505,75.664c-0.72,2.232-2.856,3.577-5.185,3.577c-3.696,0-5.593-2.929-5.593-6.337
			c0-3.36,1.992-6.408,5.641-6.408c3.793,0,5.425,3.168,5.329,6.552h-8.857c0,0.96,0.048,1.848,0.504,2.76
			c0.576,1.152,1.849,1.848,3.121,1.848c1.584,0,2.735-0.912,3.264-2.352L1519.505,75.664z M1517.633,71.655
			c0.023-2.016-1.104-3.72-3.265-3.72c-2.04,0-3.36,1.8-3.432,3.72H1517.633z"/>
		<path fill="#0062A9" d="M1524.231,69.063h0.048c0.696-1.512,2.064-2.568,3.792-2.568c1.464,0,2.688,0.624,3.456,1.896
			c0.624,1.032,0.576,2.664,0.576,3.864V79h-1.872v-7.537c0-0.72,0.024-1.632-0.336-2.256c-0.408-0.696-1.296-1.104-2.088-1.104
			c-0.984,0-1.872,0.456-2.521,1.224c-0.792,0.96-0.96,2.064-0.96,3.288V79h-1.872V66.807h1.776V69.063z"/>
		<path fill="#0062A9" d="M1541.247,79.096l-1.8,0.144c-2.664,0-3.456-1.561-3.456-3.984v-7.057h-2.16v-1.488h2.16v-3.024
			l1.872-0.192v3.216h2.712v1.488h-2.712v7.369c0,1.416,0.408,2.16,1.944,2.16l1.439-0.12V79.096z"/>
	</g>
	<rect x="1439" y="131" fill="#E6E6E6" width="700" height="42"/>
	<rect x="1456" y="148" fill="#FFFFFF" width="149" height="11"/>
	<rect x="1626" y="148" fill="#FFFFFF" width="149" height="11"/>
	<rect x="1796" y="148" fill="#FFFFFF" width="149" height="11"/>
	<rect x="1967" y="148" fill="#FFFFFF" width="150" height="11"/>
	<g>
		<path fill="#0062A9" d="M1638.697,79h-10.657V62.535h10.417v1.776h-8.353v5.232h6.624v1.656h-6.624v6.024h8.593V79z"/>
		<path fill="#0062A9" d="M1641.384,79V62.535h1.872V79H1641.384z"/>
		<path fill="#0062A9" d="M1656.864,75.664c-0.72,2.232-2.856,3.577-5.185,3.577c-3.696,0-5.593-2.929-5.593-6.337
			c0-3.36,1.992-6.408,5.641-6.408c3.793,0,5.425,3.168,5.329,6.552h-8.857c0,0.96,0.048,1.848,0.504,2.76
			c0.576,1.152,1.849,1.848,3.121,1.848c1.584,0,2.735-0.912,3.264-2.352L1656.864,75.664z M1654.992,71.655
			c0.023-2.016-1.104-3.72-3.265-3.72c-2.04,0-3.36,1.8-3.432,3.72H1654.992z"/>
		<path fill="#0062A9" d="M1661.495,66.807v2.352h0.049c0.624-1.464,1.943-2.664,3.647-2.664c1.776,0,3.049,1.2,3.433,2.904
			c0.672-1.68,2.064-2.904,3.937-2.904c1.248,0,2.448,0.696,3.072,1.752c0.6,1.008,0.576,2.352,0.576,3.48V79h-1.872v-7.272
			c0-0.816,0.048-1.68-0.336-2.424c-0.408-0.792-1.2-1.272-2.041-1.272c-0.936,0-1.8,0.576-2.352,1.368
			c-0.696,0.984-0.672,1.872-0.672,3.024V79h-1.873v-7.729c0-0.672-0.048-1.464-0.407-2.064c-0.433-0.72-1.225-1.176-2.04-1.176
			c-0.841,0-1.705,0.552-2.209,1.2c-0.624,0.792-0.744,1.776-0.744,2.785V79h-1.872V66.807H1661.495z"/>
		<path fill="#0062A9" d="M1689.505,75.664c-0.72,2.232-2.856,3.577-5.185,3.577c-3.696,0-5.593-2.929-5.593-6.337
			c0-3.36,1.992-6.408,5.641-6.408c3.793,0,5.425,3.168,5.329,6.552h-8.857c0,0.96,0.048,1.848,0.504,2.76
			c0.576,1.152,1.849,1.848,3.121,1.848c1.584,0,2.735-0.912,3.264-2.352L1689.505,75.664z M1687.633,71.655
			c0.023-2.016-1.104-3.72-3.265-3.72c-2.04,0-3.36,1.8-3.432,3.72H1687.633z"/>
		<path fill="#0062A9" d="M1694.231,69.063h0.048c0.696-1.512,2.064-2.568,3.792-2.568c1.464,0,2.688,0.624,3.456,1.896
			c0.624,1.032,0.576,2.664,0.576,3.864V79h-1.872v-7.537c0-0.72,0.024-1.632-0.336-2.256c-0.408-0.696-1.296-1.104-2.088-1.104
			c-0.984,0-1.872,0.456-2.521,1.224c-0.792,0.96-0.96,2.064-0.96,3.288V79h-1.872V66.807h1.776V69.063z"/>
		<path fill="#0062A9" d="M1711.247,79.096l-1.8,0.144c-2.664,0-3.456-1.561-3.456-3.984v-7.057h-2.16v-1.488h2.16v-3.024
			l1.872-0.192v3.216h2.712v1.488h-2.712v7.369c0,1.416,0.408,2.16,1.944,2.16l1.439-0.12V79.096z"/>
	</g>
	<g>
		<path fill="#0062A9" d="M1808.697,79h-10.657V62.535h10.417v1.776h-8.353v5.232h6.624v1.656h-6.624v6.024h8.593V79z"/>
		<path fill="#0062A9" d="M1811.384,79V62.535h1.872V79H1811.384z"/>
		<path fill="#0062A9" d="M1826.864,75.664c-0.72,2.232-2.856,3.577-5.185,3.577c-3.696,0-5.593-2.929-5.593-6.337
			c0-3.36,1.992-6.408,5.641-6.408c3.793,0,5.425,3.168,5.329,6.552h-8.857c0,0.96,0.048,1.848,0.504,2.76
			c0.576,1.152,1.849,1.848,3.121,1.848c1.584,0,2.735-0.912,3.264-2.352L1826.864,75.664z M1824.992,71.655
			c0.023-2.016-1.104-3.72-3.265-3.72c-2.04,0-3.36,1.8-3.432,3.72H1824.992z"/>
		<path fill="#0062A9" d="M1831.495,66.807v2.352h0.049c0.624-1.464,1.943-2.664,3.647-2.664c1.776,0,3.049,1.2,3.433,2.904
			c0.672-1.68,2.064-2.904,3.937-2.904c1.248,0,2.448,0.696,3.072,1.752c0.6,1.008,0.576,2.352,0.576,3.48V79h-1.872v-7.272
			c0-0.816,0.048-1.68-0.336-2.424c-0.408-0.792-1.2-1.272-2.041-1.272c-0.936,0-1.8,0.576-2.352,1.368
			c-0.696,0.984-0.672,1.872-0.672,3.024V79h-1.873v-7.729c0-0.672-0.048-1.464-0.407-2.064c-0.433-0.72-1.225-1.176-2.04-1.176
			c-0.841,0-1.705,0.552-2.209,1.2c-0.624,0.792-0.744,1.776-0.744,2.785V79h-1.872V66.807H1831.495z"/>
		<path fill="#0062A9" d="M1859.505,75.664c-0.72,2.232-2.856,3.577-5.185,3.577c-3.696,0-5.593-2.929-5.593-6.337
			c0-3.36,1.992-6.408,5.641-6.408c3.793,0,5.425,3.168,5.329,6.552h-8.857c0,0.96,0.048,1.848,0.504,2.76
			c0.576,1.152,1.849,1.848,3.121,1.848c1.584,0,2.735-0.912,3.264-2.352L1859.505,75.664z M1857.633,71.655
			c0.023-2.016-1.104-3.72-3.265-3.72c-2.04,0-3.36,1.8-3.432,3.72H1857.633z"/>
		<path fill="#0062A9" d="M1864.231,69.063h0.048c0.696-1.512,2.064-2.568,3.792-2.568c1.464,0,2.688,0.624,3.456,1.896
			c0.624,1.032,0.576,2.664,0.576,3.864V79h-1.872v-7.537c0-0.72,0.024-1.632-0.336-2.256c-0.408-0.696-1.296-1.104-2.088-1.104
			c-0.984,0-1.872,0.456-2.521,1.224c-0.792,0.96-0.96,2.064-0.96,3.288V79h-1.872V66.807h1.776V69.063z"/>
		<path fill="#0062A9" d="M1881.247,79.096l-1.8,0.144c-2.664,0-3.456-1.561-3.456-3.984v-7.057h-2.16v-1.488h2.16v-3.024
			l1.872-0.192v3.216h2.712v1.488h-2.712v7.369c0,1.416,0.408,2.16,1.944,2.16l1.439-0.12V79.096z"/>
	</g>
	<g>
		<path fill="#0062A9" d="M1979.697,79h-10.657V62.535h10.417v1.776h-8.353v5.232h6.624v1.656h-6.624v6.024h8.593V79z"/>
		<path fill="#0062A9" d="M1982.384,79V62.535h1.872V79H1982.384z"/>
		<path fill="#0062A9" d="M1997.864,75.664c-0.72,2.232-2.856,3.577-5.185,3.577c-3.696,0-5.593-2.929-5.593-6.337
			c0-3.36,1.992-6.408,5.641-6.408c3.793,0,5.425,3.168,5.329,6.552h-8.857c0,0.96,0.048,1.848,0.504,2.76
			c0.576,1.152,1.849,1.848,3.121,1.848c1.584,0,2.735-0.912,3.264-2.352L1997.864,75.664z M1995.992,71.655
			c0.023-2.016-1.104-3.72-3.265-3.72c-2.04,0-3.36,1.8-3.432,3.72H1995.992z"/>
		<path fill="#0062A9" d="M2002.495,66.807v2.352h0.049c0.624-1.464,1.943-2.664,3.647-2.664c1.776,0,3.049,1.2,3.433,2.904
			c0.672-1.68,2.064-2.904,3.937-2.904c1.248,0,2.448,0.696,3.072,1.752c0.6,1.008,0.576,2.352,0.576,3.48V79h-1.872v-7.272
			c0-0.816,0.048-1.68-0.336-2.424c-0.408-0.792-1.2-1.272-2.041-1.272c-0.936,0-1.8,0.576-2.352,1.368
			c-0.696,0.984-0.672,1.872-0.672,3.024V79h-1.873v-7.729c0-0.672-0.048-1.464-0.407-2.064c-0.433-0.72-1.225-1.176-2.04-1.176
			c-0.841,0-1.705,0.552-2.209,1.2c-0.624,0.792-0.744,1.776-0.744,2.785V79h-1.872V66.807H2002.495z"/>
		<path fill="#0062A9" d="M2030.505,75.664c-0.72,2.232-2.856,3.577-5.185,3.577c-3.696,0-5.593-2.929-5.593-6.337
			c0-3.36,1.992-6.408,5.641-6.408c3.793,0,5.425,3.168,5.329,6.552h-8.857c0,0.96,0.048,1.848,0.504,2.76
			c0.576,1.152,1.849,1.848,3.121,1.848c1.584,0,2.735-0.912,3.264-2.352L2030.505,75.664z M2028.633,71.655
			c0.023-2.016-1.104-3.72-3.265-3.72c-2.04,0-3.36,1.8-3.432,3.72H2028.633z"/>
		<path fill="#0062A9" d="M2035.231,69.063h0.048c0.696-1.512,2.064-2.568,3.792-2.568c1.464,0,2.688,0.624,3.456,1.896
			c0.624,1.032,0.576,2.664,0.576,3.864V79h-1.872v-7.537c0-0.72,0.024-1.632-0.336-2.256c-0.408-0.696-1.296-1.104-2.088-1.104
			c-0.984,0-1.872,0.456-2.521,1.224c-0.792,0.96-0.96,2.064-0.96,3.288V79h-1.872V66.807h1.776V69.063z"/>
		<path fill="#0062A9" d="M2052.247,79.096l-1.8,0.144c-2.664,0-3.456-1.561-3.456-3.984v-7.057h-2.16v-1.488h2.16v-3.024
			l1.872-0.192v3.216h2.712v1.488h-2.712v7.369c0,1.416,0.408,2.16,1.944,2.16l1.439-0.12V79.096z"/>
	</g>
	<g>
		<g>
			<path fill="none" stroke="#0062A9" stroke-miterlimit="10" d="M1507,97c0,0,19.442,11.834,22.576,37.834"/>
			<g>
				<polygon fill="#0062A9" points="1524.375,133.767 1530,142 1534.318,133.013 				"/>
			</g>
		</g>
	</g>
	<g>
		<g>
			<path fill="none" stroke="#0062A9" stroke-miterlimit="10" d="M1678,97c0,0,19.442,11.834,22.576,37.834"/>
			<g>
				<polygon fill="#0062A9" points="1695.375,133.767 1701,142 1705.318,133.013 				"/>
			</g>
		</g>
	</g>
	<g>
		<g>
			<path fill="none" stroke="#0062A9" stroke-miterlimit="10" d="M1848,97c0,0,19.441,11.834,22.576,37.834"/>
			<g>
				<polygon fill="#0062A9" points="1865.375,133.767 1871,142 1875.318,133.013 				"/>
			</g>
		</g>
	</g>
	<g>
		<g>
			<path fill="none" stroke="#0062A9" stroke-miterlimit="10" d="M2019,100c0,0,19.441,11.834,22.576,37.834"/>
			<g>
				<polygon fill="#0062A9" points="2036.375,136.767 2042,145 2046.318,136.013 				"/>
			</g>
		</g>
	</g>
</g>
</svg>
