<?xml version="1.0" encoding="UTF-8" standalone="no"?>
<!-- Generator: Adobe Illustrator 16.0.0, SVG Export Plug-In . SVG Version: 6.00 Build 0)  -->

<svg
   xmlns:dc="http://purl.org/dc/elements/1.1/"
   xmlns:cc="http://creativecommons.org/ns#"
   xmlns:rdf="http://www.w3.org/1999/02/22-rdf-syntax-ns#"
   xmlns:svg="http://www.w3.org/2000/svg"
   xmlns="http://www.w3.org/2000/svg"
   xmlns:sodipodi="http://sodipodi.sourceforge.net/DTD/sodipodi-0.dtd"
   xmlns:inkscape="http://www.inkscape.org/namespaces/inkscape"
   version="1.1"
   id="Layer_1"
   x="0px"
   y="0px"
   width="2048"
   height="2048"
   viewBox="0 0 2048 2048.0001"
   enable-background="new 0 0 266.893 266.895"
   xml:space="preserve"
   inkscape:version="0.48.5 r10040"
   sodipodi:docname="uF009-facebook.svg"><metadata
   id="metadata4718"><rdf:RDF><cc:Work
       rdf:about=""><dc:format>image/svg+xml</dc:format><dc:type
         rdf:resource="http://purl.org/dc/dcmitype/StillImage" /></cc:Work></rdf:RDF></metadata><defs
   id="defs4716" /><sodipodi:namedview
   pagecolor="#ffffff"
   bordercolor="#666666"
   borderopacity="1"
   objecttolerance="10"
   gridtolerance="10"
   guidetolerance="10"
   inkscape:pageopacity="0"
   inkscape:pageshadow="2"
   inkscape:window-width="1920"
   inkscape:window-height="1018"
   id="namedview4714"
   showgrid="true"
   inkscape:zoom="0.25"
   inkscape:cx="369.53851"
   inkscape:cy="415.47058"
   inkscape:window-x="-8"
   inkscape:window-y="-8"
   inkscape:window-maximized="1"
   inkscape:current-layer="Layer_1"><inkscape:grid
     type="xygrid"
     id="grid4720"
     empspacing="5"
     visible="true"
     enabled="true"
     snapvisiblegridlinesonly="true"
     spacingx="128px"
     spacingy="128px" /></sodipodi:namedview>


<path
   id="path52-7-1"
   style="fill:#3d539e;fill-opacity:1;fill-rule:nonzero;stroke:none"
   d="m 1093.827,2304.0001 0,-793.0339 -266.83846,0 0,-309.0416 266.83846,0 0,-227.89648 c 0,-264.5209 161.6915,-408.60302 397.6681,-408.60302 113.0282,0 210.1252,8.32631 238.4473,12.08632 l 0,276.42898 -163.6321,0.19179 c -128.3287,0 -153.2746,60.91054 -153.2746,150.39641 l 0,197.3952 306.1641,0 -39.901,309.0416 -266.2631,0 0,793.034 634.9644,7e-4 0,-2048.00009 L -0.14724072,256.70711 -5e-5,2304.0001 c 0,0 655.16212,0 1093.82705,0 z"
   inkscape:connector-curvature="0"
   sodipodi:nodetypes="cccccsscccscccccccccc" /></svg>