<?xml version="1.0" encoding="UTF-8" standalone="no"?>
<!-- Generator: Adobe Illustrator 16.0.5, SVG Export Plug-In . SVG Version: 6.00 Build 0)  -->

<svg
   xmlns:dc="http://purl.org/dc/elements/1.1/"
   xmlns:cc="http://creativecommons.org/ns#"
   xmlns:rdf="http://www.w3.org/1999/02/22-rdf-syntax-ns#"
   xmlns:svg="http://www.w3.org/2000/svg"
   xmlns="http://www.w3.org/2000/svg"
   xmlns:sodipodi="http://sodipodi.sourceforge.net/DTD/sodipodi-0.dtd"
   xmlns:inkscape="http://www.inkscape.org/namespaces/inkscape"
   version="1.1"
   id="Ebene_1"
   x="0px"
   y="0px"
   width="2048"
   height="2048"
   viewBox="0 0 2047.9999 2048"
   enable-background="new 0 0 38.775 38.096"
   xml:space="preserve"
   inkscape:version="0.48.5 r10040"
   sodipodi:docname="uF018-checkmark.svg"><metadata
   id="metadata9"><rdf:RDF><cc:Work
       rdf:about=""><dc:format>image/svg+xml</dc:format><dc:type
         rdf:resource="http://purl.org/dc/dcmitype/StillImage" /><dc:title /></cc:Work></rdf:RDF></metadata><defs
   id="defs7" /><sodipodi:namedview
   pagecolor="#ffffff"
   bordercolor="#666666"
   borderopacity="1"
   objecttolerance="10"
   gridtolerance="10"
   guidetolerance="10"
   inkscape:pageopacity="0"
   inkscape:pageshadow="2"
   inkscape:window-width="1280"
   inkscape:window-height="962"
   id="namedview5"
   showgrid="true"
   inkscape:zoom="0.19358988"
   inkscape:cx="1037.692"
   inkscape:cy="611.23345"
   inkscape:window-x="1358"
   inkscape:window-y="-8"
   inkscape:window-maximized="1"
   inkscape:current-layer="Ebene_1" />
<path
   d="m 1938.7046,552.91512 0.3357,-0.68335 0,0 c 15.0386,-28.56402 24.3035,-61.02314 24.3035,-95.94232 0,-110.56601 -85.5994,-200.28985 -191.2727,-200.28985 -61.1614,0 -114.8709,30.54574 -149.8491,77.21854 l -0.1343,-0.0684 -0.6042,1.02503 c -9.7349,13.05199 -18.2612,26.99232 -24.6393,42.29937 L 801.2737,1741.1922 434.97554,1272.7559 l 0,0.069 c -34.3069,-53.7795 -92.71583,-89.1771 -159.04693,-89.1771 -105.60601,0 -191.272505,89.7239 -191.272505,200.2899 0,56.103 22.222195,106.7392 57.737565,143.0934 l 486.33857,685.3316 h 0.13424 c 34.03828,55.0097 92.98445,91.6373 160.25548,91.6373 79.75854,0 148.03644,-51.3196 176.63673,-123.8913 L 1925.613,574.71437 c 4.901,-7.03851 9.0634,-14.35035 13.0916,-22.00387 z"
   id="path3"
   inkscape:connector-curvature="0" />
</svg>