<?xml version="1.0" encoding="UTF-8" standalone="no"?>
<!-- Generator: Adobe Illustrator 16.0.5, SVG Export Plug-In . SVG Version: 6.00 Build 0)  -->

<svg
   xmlns:dc="http://purl.org/dc/elements/1.1/"
   xmlns:cc="http://creativecommons.org/ns#"
   xmlns:rdf="http://www.w3.org/1999/02/22-rdf-syntax-ns#"
   xmlns:svg="http://www.w3.org/2000/svg"
   xmlns="http://www.w3.org/2000/svg"
   xmlns:sodipodi="http://sodipodi.sourceforge.net/DTD/sodipodi-0.dtd"
   xmlns:inkscape="http://www.inkscape.org/namespaces/inkscape"
   version="1.1"
   id="Ebene_1"
   x="0px"
   y="0px"
   width="2048"
   height="2048"
   viewBox="0 0 2048 2048"
   enable-background="new 0 0 25.417 25.167"
   xml:space="preserve"
   inkscape:version="0.48.5 r10040"
   sodipodi:docname="uF021-calendar.svg"><metadata
   id="metadata9"><rdf:RDF><cc:Work
       rdf:about=""><dc:format>image/svg+xml</dc:format><dc:type
         rdf:resource="http://purl.org/dc/dcmitype/StillImage" /></cc:Work></rdf:RDF></metadata><defs
   id="defs7" /><sodipodi:namedview
   pagecolor="#ffffff"
   bordercolor="#666666"
   borderopacity="1"
   objecttolerance="10"
   gridtolerance="10"
   guidetolerance="10"
   inkscape:pageopacity="0"
   inkscape:pageshadow="2"
   inkscape:window-width="1280"
   inkscape:window-height="962"
   id="namedview5"
   showgrid="false"
   inkscape:zoom="0.20721232"
   inkscape:cx="938.07014"
   inkscape:cy="1021.3195"
   inkscape:window-x="-8"
   inkscape:window-y="-8"
   inkscape:window-maximized="1"
   inkscape:current-layer="Ebene_1" />
<path
   d="M 641.10384,1282.3951 H 421.02706 v 219.7855 h 220.07678 v -219.7855 z m 992.70576,5.523 h -219.914 v 219.7044 h 219.914 v -219.7044 z m -332.9638,0 h -219.5884 v 219.7044 h 219.5884 v -219.7044 z m -665.43921,385.965 H 415.57398 v 219.3794 H 635.40659 V 1673.8831 z M 1702.5022,566.18324 v 4.1423 c 37.9275,33.46328 62.0187,82.27745 62.0187,136.77713 0,100.95841 -82.0404,182.74854 -183.2074,182.74854 -101.0855,0 -183.126,-81.87135 -183.126,-182.74854 0,-54.49968 24.0099,-103.31385 62.0187,-136.77713 v -4.1423 H 604.31586 v 4.1423 c 37.92743,33.46328 61.93729,82.27745 61.93729,136.77713 0,100.95841 -82.04046,182.74854 -183.12602,182.74854 -101.16695,0 -183.12602,-81.87135 -183.12602,-182.74854 0,-54.49968 24.00986,-103.31385 62.01868,-136.77713 v -4.1423 H 0 V 2304 H 2048 V 566.18324 H 1702.5022 z M 1990.7833,2246.9012 H 56.972539 V 962.78817 H 1990.7833 V 2246.9012 z M 968.45177,1673.8831 H 748.45638 v 219.3794 h 219.99539 v -219.3794 z m 332.39403,0 h -219.5884 v 219.3794 h 219.5884 V 1673.8831 z M 968.45177,1287.9181 H 748.45638 v 219.7044 H 968.45177 V 1287.9181 z M 483.12713,813.66536 c 50.38,0 91.15606,-40.77323 91.15606,-91.04938 V 394.96816 C 574.28319,344.69201 533.50713,304 483.12713,304 c -50.38,0 -91.15606,40.69201 -91.15606,90.96816 v 327.72905 c 0,50.19492 40.85745,90.96815 91.15606,90.96815 z m 1098.10497,0 c 50.38,0 91.2375,-40.77323 91.2375,-91.04938 V 394.96816 c 0,-50.27615 -40.8575,-90.96816 -91.2375,-90.96816 -50.2986,0 -91.0746,40.69201 -91.0746,90.96816 v 327.72905 c 0,50.19492 40.776,90.96815 91.0746,90.96815 z"
   id="path3"
   inkscape:connector-curvature="0" />
</svg>