<svg xmlns="http://www.w3.org/2000/svg" width="1024" height="1024" viewBox="0 0 1024 1024"><path d="M39.772 526.7c16.017-98.073 8.947-50.503 27.964-127.076 0 0 89.92-110.59 426.78-161.763 73.61-11.18 354.95-94.496 389.055 260.208 38.45 399.885-17.496 512.07-123.104 520.688-195.596 15.96-459.323-5.364-555.59-52.353C88.07 909.39 18.547 827.28 14.6 703.6c-1.74-54.52 19.266-140.75 25.17-176.9z" fill="#e0d3a8"/><path d="M137.51 470.522c-5.43-31.26 12.757-64.326.545-81.223-25.107-34.74-76.576 70.98-89.935 87.696 6.495-38.834 15.038-73.864 20.404-96.965 9.403-40.553 35.724-83.69 67.758-107.563 31.956-23.813 64.104-21.993 86.405-45.764 52.45-55.907 66.625-73.343 75.078-141.785 2.134-17.273-.327-79.915 8.392-83.488 15.425-6.32 29.594 9.696 34.244 20.84 16.71 40.05 44.498 78.103 52.298 87.225 20.69 24.2 30.83 43.71 61.97 49.058 66.618 11.438 143.464 28.605 202.5 16.602 7.434-1.512 93.933-86.496 122.6-118.79 22.307-25.133 60.847-35.34 79.565-21.07 23.64 18.02 39.23 89.28 42.52 159.242 2.608 55.466-29.8 95.15-8.146 134.327 23.51 42.534 30.11 74.746 38.276 114.072 8.166 39.327 48.332 130.22 65.926 288.176 17.594 157.957 13.872 163.467-2.534 187.597-16.407 24.128-268.76 152.823-292.982 75.428-31.047-99.208 102.46-301.75 131.272-436.664 21.15-99.033-122.755-187.44-198.88-125.874-88.805 71.822-206.412 140.654-314.232 131.732-69.948-5.788-170.395-19.998-183.043-92.81zM46.47 631.273c9.232-4.128 17.524-10.077 24.15-4.76 12.994 10.43-31.576 8.08-24.15 4.76zM61.545 584.54c-18.43-3.617-14.915-12.165 3.61-7.53 27.24 6.817 8.64 9.933-3.61 7.53z" fill="#cbb887"/><path d="M194.448 334.286c9.53-11.11 24.35-56.846 39.922-58.31 25.388-2.385 26.91 6.482 11.888 28.654-11.635 17.17-26.232 16.828-35.947 27.433-8.052 8.79-20.85 8.04-15.862 2.223z" fill="#cbac65"/><path d="M838.705 36.87c-33.128 3.115-55.33 37.566-71.914 53.647-97.326 94.373-72.216 96.158-162.31 96.712-43.476.266-165.92-33.444-255.19.312-35.015 13.24 15.174 82.314 3.565 108.168-6.238 13.892-21.2 50.295-22.884 55.547-7.102 22.126-20.76 53.838 3.974 62.76 16.666 6.01 93.943-106.15 122.023-116.83 28.08-10.68 78.93 6.737 90.365 52.16 9.7 38.528-51.124 49.327-42.272 77.343 7.364 23.304 41.015 63.917 57.975 51.93 43.692-30.882 101.92-92.142 113.647-120.647 12.415-30.172 37.567-29.224 46.09-24.207 8.52 5.018 58.683 33.47 84.606 80.387 24.565 44.458 42.09 93.332 38.705 140.626-4.41 61.646-166.466 338.904-136.864 428.39 15.703 47.474 78.584 27.56 153.49-1.236 74.904-28.797 101.914-47.747 119.58-63.026 17.667-15.28 22.37-86.998 3.125-192.356-18.866-103.284-36.802-162.122-46.286-193.79-10.397-34.714-15.642-80.062-18.565-95.38-3.25-17.028-7.614-52.974-23.86-87.398-12.127-25.693-27.627-33.15-10.725-79.614 16.9-46.464 16.675-123.44-6.698-190.97-8.588-24.81-28.08-43.612-39.577-42.53zM205.108 809.315c-60.024-7.122-82.82-69.087-100.198-115.584-15.337-41.036 22.877-78.655 14.188-117.737-4.886-21.978 12.054-41.474 47.807-53.282 19.833-9.347 70.974 9.69 80.852 1.542 17.24-14.22 2.87-1.964 30.473 30.55 6.513 7.672 19.22 26.09 9.332 52.044-4.25 11.158-12.264 32.785-6.8 34.605 13.567 4.52 6.115 23.936-5.43 13.886-10.763-9.37-.615 12.54 2.652 17.876 8.4 13.718 4.874-22.082 22.71-2.665 7.248 7.89-6.813 10.507-12.822 12.343-21.244 6.492 46.453 14.518 37.835 47.89-1.877 7.27 34.648 2.02 36.307-5.46 2.993-13.49-26.738-25.82-21.39-32.91 8.018-10.623 41.144 4.123 25.65 8.952-5.92 1.844 2.27 9.924 3.682 18.225 2.396 14.092 65.44-17.086 75.033 4.935 11.807 27.106-11.292 52.085-78.174 78.527-16.038 6.34-113.434 11.993-161.708 6.265z" fill="#b49858"/><path d="M313.522 680.92c-9.05-4.546-10.257-8.366-4.556-14.436 8.422-8.967 12.276-6.438 13.523 8.87.856 10.52.876 10.508-8.968 5.565zM332.102 665.75c2.26-17.38 18.53 6.014 1.957 6.396-1.776.04-2.412-2.908-1.958-6.396zM303.326 633.767c4.386-.094 6.557 4.518 3.12 7.556-9.205 8.136-9.527-7.42-3.12-7.556zM317.89 634.668c-1.558-4.022 4.93-11.32 7.613-8.49 7.116 7.51-4.8 15.76-7.614 8.49z" fill="#b49858"/><path style="line-height:normal;text-indent:0;text-align:start;text-decoration-line:none;text-decoration-style:solid;text-decoration-color:#000000;text-transform:none;block-progression:tb;isolation:auto;mix-blend-mode:normal" d="M211.825 366.79c-13.892-10.287-19.847-5.234-28.65 8.657-7.068 11.15-10.97 39.387-1.477 51.17 43.94 20.936 74.124-51.037 30.127-59.827z" color="#000" font-family="sans-serif" white-space="normal" overflow="visible" solid-color="#000000" fill="#c8c8c8"/><path d="M188.098 442.685c-11.78-12.292-13.987-23.05-9.357-39.727 3.075-11.073 7.806-10.317 9.582 1.53 2.534 16.905 10.293 16.002 7.89-1.503-1.837-13.378 10.737-27.68-2.418-18.137-17.186 12.466-11.31-8.016-2.79-21.942 8.86-14.486 21.01-17.94 60.098-14.706 12.2 1.01 24.18-4.56 21.542 9.01-2.46 12.66 6.74 51.144-5.655 59.977-27.465 19.573-51.34 54.248-78.892 25.498zM285.912 160.518c6.187-3.65 16.28-13.744 16.397-18.45.968-39.315 2.51-78.093 4.213-118.267C307.66-3.03 324.468 5.95 340.638 39.954c17.66 37.142 42.233 82.923 65.673 106.913 14.973 15.323 9.61 17.694-40.076 18.858-28.86.676-45.938 4.588-54.382 16.047-29.036 39.402-51-6.462-25.94-21.252z" fill="#b49858"/><path d="M829.432 929.945c-38.226 6.31-67.406-8.41-64.106-37.482 3.3-29.07 16.492-22.47 57.918-79.66 41.426-57.187 46.524-110.795 69.036-80.592 52.736 70.753 17.057 184.545-62.848 197.735zM192.834 802.217c-17.955-5.524-33.463-45.174-47.51-51.18-25.883-11.067-36.815-89.588-27.638-99.737 14.6-16.144-8.67-44.085 8.825-53.24 6.093-3.186-25.173-48.35 15.93-59.175 16.652-4.387 34.183-12.81 63.9-11.576 50.23 2.085 96.958 36.182 75.938 73.716-8.32 14.854-10.083 47.952-21.436 62.428-3.82 4.872 14.245 4.627 13.353 14.744-1.833 20.786-17.302-1.86-16.698 2.874 3.537 27.715 35.34 9.827 22.38 25.19-9.667 11.46 14.034 27.676 17.88 29 43.138 14.86 34.907-5.32 132.182-9.498 12.265-.527 10.145 11.76 1.826 18.438-23.942 19.217-44.73 47.248-82.256 53.743-17.53 3.034-9.813-6.594-22.68-7.38-101.55-6.196-93.51 24.11-133.996 11.652z" fill="#9e7036"/><path d="M287.392 675.626c1.25-3.8 10.776-4.908 9.733-1.425-1.25 3.802-10.775 4.91-9.733 1.426zM310.134 672.915c-2.766-5.085 6.904-6.68 7.047-1.835 0 3.212-5.324 5-7.046 1.835zM475.984 501.66c-30.377 0-82.867-33.015-76.73-45.142 8.78-17.346 50.71-29.582 69.986-43.123 37.96-26.665 72.264-25.658 117.207 39.056 6.88 9.91-39.465 39.518-62.904 48.262-10.023 3.74-31.62.95-47.56.95zM850.47 460.182c-35.926-96.517-225.547-186.09-224.463-258.903.1-6.684 23.012-4.464 30.506-3.634 41.695 4.614 131.1-105.345 157.07-136.676 19.065-24.657 36.93-13.91 44.24-7.33 9.243 8.316 17.46 19.895 28.59 66.27 13.712 57.137 8.472 117.357-7.588 160.98-17.494 47.52-4.775 78.873 2.913 109.348 21.67 85.887-20.366 99.237-31.27 69.944zM201.664 444.395c-5.736-7.06-12.478-9.81-5.997-18.503 9.28-12.45-.707-28.31 6.216-41.7 5.733-11.087 4.494-12.757-4.144-5.487-11.652 9.807-14.643 3.292-5.722-12.464 19.873-35.097 85.72-14.846 78.338 24.092-5.91 31.174-55.54 70.254-68.692 54.063z" fill="#9e7036"/><path d="M181.596 408.665c-.777-3.1-.33-6.532 1.026-7.89 4.525.18 2.244 20.49-1.026 7.89z" fill="#433b2c"/><path d="M397.876 255.114c3.002-9.134 15.368-15.373 18.14-9.29 5.005 10.986-30.344 85.335-40.292 78.776-19.076-12.578 7.475-24.816 22.152-69.486zM286.084 182.814c-2.994-10.788 13.83-25.397 27.164-21.033 12.375 4.052-22.78 36.835-27.164 21.034zM333.632 155.304C312.422 127.5 302.185 57.9 315.426 21.796c4.486-12.23 19.645 22.77 20.94 26.76 18.54 57.145 69.438 97.852 62.26 108.01-3.866 5.47-60.403 4.756-64.994-1.262z" fill="#9e7036"/><path d="M283.858 776.747c-5.422-9.17-87.62 10.58-122.157-21.49-18.234-16.934-34.2-28.267-29.41-55.865 5.76-33.185 3.74-49.3-7.997-81.05-4.763-12.884-1.518-15.518 14.835-16.558 5.288-.336-35.99-34.348-4.704-58.483 9.312-7.182 83.567 13.423 87.75-2.438 4.35-16.496 63.404 15.223 59.943 32.42-8.895 44.207-16.836 77.832-38.475 93.83-10.408 7.692 24.157 34.83 21.767 43.836-4.78 18.016 46.47 37.983 56.342 36.27 22.045-3.826 111.23-23.874 108.942-13.552-7.978 35.976-132.54 67.263-146.836 43.08z" fill="#433b2c"/><path d="M263.892 677.654c.57-4.33 6.2-3.97 5.906-.844-.39 4.15-6.398 4.577-5.906.844z" fill="#433b2c"/><path style="line-height:normal;text-indent:0;text-align:start;text-decoration-line:none;text-decoration-style:solid;text-decoration-color:#000000;text-transform:none;block-progression:tb;isolation:auto;mix-blend-mode:normal" d="M462.645 429.245c-6.95 11.225-1.347 30.81 4.485 50.564 5.832 19.753 25.918 19.447 40.634 20.633 14.716 1.187 26.255-6.81 34.772-11.242 8.518-4.433 16.443-12.123 20.863-16.913-50.173-76.403-81.746-55.23-100.755-43.042z" color="#000" font-family="sans-serif" white-space="normal" overflow="visible" solid-color="#000000" fill="#c8c8c8"/><path d="M426.678 452.84c15.115-17.904 32.646-28.21 50.987-41.356 29.772-21.34 71.985-6.852 100.074 34.362 4.568 6.704 3.183 9.798-10.86 24.276-10.74 11.07-20.3 17.802-12.683 8.528 12.193-14.844-1.75-3.107-6.647 2.778-15.386 18.494-26.762 7.85-42.978 11.43-10.758 2.374-12.782 1.168-16.585-10.26-7.014-21.082 2.5-48.19 16.914-48.19 17.04 0 11.416-10.78-7.71-14.783-36.748-7.69-45.03 68.382-8.517 78.756-15.404.29-81.408-22.547-61.995-45.54zM207.755 434.83c-5.928-2.534-5.903-2.977-6.897-22.665-1.703-33.728 20.867-53.745 4.915-42.005-17.317 12.745-19.342 6.813-11.36-2.49 30.3-35.31 58.017-14.222 71.667 11.336 5.42 10.15-6.702 35.33-17.57 45.338-10.723 9.874-30.364 14.927-40.755 10.486zM736.952 312.898c-30.588-13.635 55.136-60.238 35.647-83.436-11.957-14.23-8.96-26.166 8.32-26.397 12.653-.168 50.37-8.545 51 2.174 3.382 57.558-27.43 80.87-60.875 114.196-19.78 19.71-20.932-.67-34.093-6.538z" fill="#433b2c"/></svg>