<?xml version="1.0" standalone="no"?>
<!DOCTYPE svg PUBLIC "-//W3C//DTD SVG 1.1//EN" "http://www.w3.org/Graphics/SVG/1.1/DTD/svg11.dtd">
<svg width="2048px"
     height="2048px"
     viewBox="0 0 2048 2048"
     version="1.1"
     xmlns="http://www.w3.org/2000/svg"
     xmlns:xlink="http://www.w3.org/1999/xlink"
     xml:space="preserve" style="fill-rule:evenodd;clip-rule:evenodd;stroke-linejoin:round;stroke-miterlimit:1.41421;">
<g id="Ebene_1">
<g>
<path d="M1454.69,256L593.129,256C510.684,256 443.943,322.919 443.943,405.186L443.943,2154.81C443.943,2237.26 510.684,2304 593.129,2304L1454.69,2304C1537.32,2304 1604.06,2237.26 1604.06,2154.81L1604.06,405.186C1604.06,322.919 1537.32,256 1454.69,256ZM926.476,383.058L1121.52,383.058L1121.52,447.925L926.476,447.925L926.476,383.058ZM1024.09,2225.84C971.624,2225.84 928.975,2183.28 928.975,2130.72C928.975,2078.26 971.714,2035.79 1024.09,2035.79C1076.46,2035.79 1119.03,2078.35 1119.03,2130.72C1119.03,2183.28 1076.55,2225.84 1024.09,2225.84ZM1492.35,1975.74L555.832,1975.74L555.832,584.529L1492.35,584.529L1492.35,1975.74Z" style="fill:black;fill-rule:nonzero;" />
        </g>
    </g>
</svg>
