<?xml version="1.0" encoding="UTF-8" standalone="no"?>
<!-- Generator: Adobe Illustrator 16.0.5, SVG Export Plug-In . SVG Version: 6.00 Build 0)  -->

<svg
   xmlns:dc="http://purl.org/dc/elements/1.1/"
   xmlns:cc="http://creativecommons.org/ns#"
   xmlns:rdf="http://www.w3.org/1999/02/22-rdf-syntax-ns#"
   xmlns:svg="http://www.w3.org/2000/svg"
   xmlns="http://www.w3.org/2000/svg"
   xmlns:sodipodi="http://sodipodi.sourceforge.net/DTD/sodipodi-0.dtd"
   xmlns:inkscape="http://www.inkscape.org/namespaces/inkscape"
   version="1.1"
   id="Ebene_1"
   x="0px"
   y="0px"
   width="2048"
   height="2048"
   viewBox="0 0 2048 2048"
   enable-background="new 0 0 9 5.5"
   xml:space="preserve"
   inkscape:version="0.48.5 r10040"
   sodipodi:docname="uF020-dropdown.svg"><metadata
   id="metadata13"><rdf:RDF><cc:Work
       rdf:about=""><dc:format>image/svg+xml</dc:format><dc:type
         rdf:resource="http://purl.org/dc/dcmitype/StillImage" /></cc:Work></rdf:RDF></metadata><defs
   id="defs11" /><sodipodi:namedview
   pagecolor="#ffffff"
   bordercolor="#666666"
   borderopacity="1"
   objecttolerance="10"
   gridtolerance="10"
   guidetolerance="10"
   inkscape:pageopacity="0"
   inkscape:pageshadow="2"
   inkscape:window-width="1280"
   inkscape:window-height="962"
   id="namedview9"
   showgrid="false"
   inkscape:zoom="0.25"
   inkscape:cx="307.61947"
   inkscape:cy="1028.1966"
   inkscape:window-x="-8"
   inkscape:window-y="-8"
   inkscape:window-maximized="1"
   inkscape:current-layer="Ebene_1" />
<g
   id="g3"
   transform="matrix(233.79871,0,0,233.90423,988.96968,68.4771)">
	<g
   id="g5">
		<path
   clip-rule="evenodd"
   d="m 4.4638973,3.2821856 -0.596,-0.6 c -0.085,-0.086 -0.224,-0.088 -0.307,-0.004 l -3.37799995,3.35 -3.45500005,-3.352 c -0.083,-0.084 -0.218,-0.082 -0.304,0.004 l -0.588,0.593 c -0.086,0.086 -0.088,0.223 -0.005,0.308 l 3.73700005,3.626 c 0.001,0.001 0.002,0 0.003,0.001 l 0.465,0.469 c 0.085,0.088 0.222,0.09 0.306,0.006 l 4.12599995,-4.091 c 0.084,-0.084 0.082,-0.223 -0.004,-0.31 z"
   id="path7"
   inkscape:connector-curvature="0"
   style="fill-rule:evenodd" />
	</g>
</g>
</svg>